<svg width="100" height="100" viewBox="0 0 100 100" fill="none" xmlns="http://www.w3.org/2000/svg">
<rect width="100" height="100" rx="50" fill="#1170CF"/>
<path d="M72.9484 36.0391H65.5239C64.6989 36.0391 63.874 35.6641 63.274 35.0641L60.2742 31.6894C59.3743 30.7144 57.9494 30.6394 56.8995 31.4644L56.6745 31.6894L54.1246 34.6142C53.2997 35.5891 52.0248 36.1141 50.7499 36.1141H10.1775C9.05262 39.4138 8.30267 42.9386 8.00269 46.4634H46.4002C47.0751 46.4634 47.7501 46.1634 48.2 45.7134L51.7998 41.9637C52.2498 41.5137 52.8497 41.2137 53.5247 41.2137H53.6747C54.3496 41.2137 55.0246 41.5137 55.4746 42.0387L58.4744 45.4135C59.0743 46.0884 59.8993 46.4634 60.7242 46.4634H91.9972C91.6972 42.9386 90.9472 39.4138 89.8223 36.1141H72.9484V36.0391ZM48.35 56.7377L45.3502 53.3629C44.4503 52.388 43.0254 52.313 41.9754 53.1379L41.7505 53.3629L39.1256 56.2877C38.3007 57.2627 37.1008 57.7876 35.8259 57.7876H8.60265C9.2776 61.3874 10.4775 64.9122 12.0524 68.2869H31.1762C31.8511 68.2869 32.4511 67.987 32.976 67.537L36.5758 63.7872C37.0258 63.3373 37.6257 63.0373 38.3007 63.0373H38.4507C39.1256 63.0373 39.8006 63.3373 40.2506 63.8622L43.2504 67.237C43.8503 67.912 44.6753 68.2869 45.5002 68.2869H87.9474C89.5223 64.9872 90.7222 61.4624 91.3972 57.7876H50.5999C49.6999 57.7876 48.875 57.4127 48.35 56.7377ZM63.0491 24.0399L66.6488 20.2901C67.0988 19.8401 67.6988 19.5402 68.3737 19.5402H68.5237C69.1986 19.5402 69.8736 19.8401 70.3236 20.2901L73.3234 23.6649C73.9233 24.3398 74.7483 24.6398 75.5732 24.6398H83.6727C69.5736 6.04104 43.1004 2.36628 24.4266 16.3904C21.3518 18.7152 18.577 21.49 16.1771 24.6398H61.2492C61.9991 24.7898 62.5991 24.4898 63.0491 24.0399ZM34.026 78.6363C33.126 78.6363 32.3011 78.2613 31.7761 77.6613L28.7763 74.2865C27.8764 73.3116 26.3765 73.2366 25.4015 74.1366L25.2515 74.2865L22.6267 77.2114C21.8018 78.1863 20.6019 78.7113 19.3269 78.7113H19.1769C35.0009 95.6601 61.7741 96.4851 78.798 80.5111C79.473 79.9112 80.0729 79.2362 80.7479 78.5613H34.026V78.6363Z" fill="white"/>
</svg>
