<?xml version="1.0" standalone="no"?>
<!DOCTYPE svg PUBLIC "-//W3C//DTD SVG 20010904//EN"
 "http://www.w3.org/TR/2001/REC-SVG-20010904/DTD/svg10.dtd">
<svg version="1.0" xmlns="http://www.w3.org/2000/svg"
 width="512.000000pt" height="512.000000pt" viewBox="0 0 512.000000 512.000000"
 preserveAspectRatio="xMidYMid meet">

<g transform="translate(0.000000,512.000000) scale(0.100000,-0.100000)"
fill="#8200bc" stroke="none">
<path d="M1280 4345 l0 -215 -215 0 -215 0 0 -210 0 -210 -125 0 -125 0 0
-1145 0 -1145 125 0 125 0 0 -215 0 -215 210 0 210 0 0 -210 0 -210 1285 0
1285 0 0 215 0 215 215 0 215 0 0 210 0 210 125 0 125 0 0 1145 0 1145 -130 0
-130 0 0 210 0 210 -210 0 -210 0 0 215 0 215 -1280 0 -1280 0 0 -215z m1412
-843 c62 -27 138 -99 168 -159 32 -63 40 -184 16 -247 -28 -74 -772 -1349
-815 -1398 -24 -27 -66 -59 -99 -75 -48 -24 -70 -28 -137 -28 -71 0 -89 4
-147 33 -76 37 -120 83 -155 160 -34 74 -40 153 -16 222 17 52 749 1328 800
1396 31 42 92 83 156 106 66 24 163 19 229 -10z m588 -875 c178 -309 333 -586
343 -617 24 -69 18 -148 -16 -222 -35 -77 -79 -123 -155 -160 -59 -29 -76 -33
-147 -33 -67 0 -89 5 -137 28 -33 16 -75 48 -99 75 -38 43 -469 774 -469 795
0 5 68 127 152 271 153 263 187 334 188 394 0 17 3 32 8 32 4 -1 153 -254 332
-563z m-818 -714 c93 -164 102 -182 99 -232 -2 -37 -63 -91 -103 -91 -59 0
-89 29 -161 154 l-68 118 63 109 c35 60 65 109 68 109 3 0 49 -75 102 -167z"/>
</g>
</svg>
