<svg id="Layer_1" data-name="Layer 1" xmlns="http://www.w3.org/2000/svg" xmlns:xlink="http://www.w3.org/1999/xlink" viewBox="0 0 81 80"><defs><style>.cls-1{fill:none;}.cls-2{fill:#bdfffc;}.cls-3{clip-path:url(#clip-path);}.cls-4{fill:url(#linear-gradient);}.cls-5{clip-path:url(#clip-path-2);}.cls-6{fill:url(#linear-gradient-2);}.cls-7{clip-path:url(#clip-path-3);}.cls-8{fill:url(#linear-gradient-3);}</style><clipPath id="clip-path"><polygon class="cls-1" points="41.26 39.17 49.64 53.15 43.51 49.71 49.47 59.89 64.92 59.89 55.45 45.87 41.26 39.17"/></clipPath><linearGradient id="linear-gradient" x1="-208.71" y1="-210.23" x2="-208.35" y2="-210.23" gradientTransform="translate(-16050.44 -55316.74) rotate(-151.44) scale(194.69)" gradientUnits="userSpaceOnUse"><stop offset="0" stop-color="#00e9d9"/><stop offset="0.32" stop-color="#005b7b"/><stop offset="0.63" stop-color="#003544"/><stop offset="1" stop-color="#002b29"/></linearGradient><clipPath id="clip-path-2"><path class="cls-1" d="M27.3,38.71l14.6,7.67L34,32l16.39,9.2c.78.5,2.58,1.59,5.27,3l.08,0h0c2.41,1.23,5.52,2.68,9.25,4.14l10.63,4.14c-.22-.11-5.56-2.68-11.67-6.4A56.2,56.2,0,0,1,48.31,31.47l-8.4-14.35Z"/></clipPath><linearGradient id="linear-gradient-2" x1="-208.7" y1="-210.36" x2="-208.34" y2="-210.36" gradientTransform="translate(-16241.35 -56070.37) rotate(-151.44) scale(197.23)" xlink:href="#linear-gradient"/><clipPath id="clip-path-3"><path class="cls-1" d="M16.5,36.29A99.41,99.41,0,0,1,25,42.66L14.91,59.89H30.36L38.1,46.66l-3.82-2.14A160,160,0,0,0,15.58,34L5.16,29.35c.21.12,5.42,2.94,11.34,6.94"/></clipPath><linearGradient id="linear-gradient-3" x1="-208.72" y1="-210.11" x2="-208.36" y2="-210.11" gradientTransform="translate(-16067.04 -55286.4) rotate(-151.44) scale(194.69)" xlink:href="#linear-gradient"/></defs><title>logo</title><ellipse class="cls-2" cx="40.5" cy="40" rx="40.5" ry="40"/><g class="cls-3"><polygon class="cls-4" points="32.45 55.16 46.66 29.36 73.73 43.91 59.51 69.71 32.45 55.16"/></g><g class="cls-5"><polygon class="cls-6" points="12.26 44.41 38.35 -2.92 90.67 25.21 64.58 72.54 12.26 44.41"/></g><g class="cls-7"><polygon class="cls-8" points="-7.83 52.91 12.69 15.69 51.08 36.33 30.57 73.55 -7.83 52.91"/></g></svg>