<svg id="svg" version="1.1" xmlns="http://www.w3.org/2000/svg" xmlns:xlink="http://www.w3.org/1999/xlink" width="400" height="400" viewBox="0, 0, 400,400"><g id="svgg"><path id="path0" d="M77.419 180.529 C 74.186 180.980,70.091 181.978,67.154 183.031 L 65.017 183.796 66.195 184.543 C 66.843 184.954,67.412 185.290,67.460 185.290 C 67.544 185.290,69.552 186.444,82.839 194.125 C 86.032 195.972,90.677 198.644,93.161 200.064 C 95.645 201.485,99.303 203.605,101.290 204.776 C 112.835 211.581,111.880 211.256,116.423 209.935 C 122.153 208.270,122.820 208.669,123.968 214.449 C 124.713 218.196,124.761 218.259,128.516 220.493 C 133.024 223.174,134.194 223.793,134.194 223.498 C 134.194 222.607,132.760 216.760,131.975 214.452 C 124.148 191.426,101.269 177.200,77.419 180.529 M48.811 194.826 C 45.992 197.677,43.074 201.321,43.495 201.464 C 43.643 201.515,45.443 202.557,47.495 203.781 C 51.667 206.269,51.256 206.032,56.903 209.215 C 59.174 210.494,61.613 211.897,62.323 212.331 C 63.032 212.764,64.890 213.842,66.452 214.726 C 68.013 215.610,72.019 217.925,75.355 219.872 C 84.919 225.454,82.890 225.061,90.515 222.805 C 93.348 221.967,94.387 223.032,95.368 227.782 C 96.225 231.929,96.119 231.778,99.643 233.890 C 101.259 234.859,102.755 235.756,102.968 235.884 C 103.181 236.012,106.084 237.674,109.419 239.579 C 112.755 241.483,118.039 244.521,121.161 246.331 C 124.284 248.140,127.507 250.005,128.325 250.475 L 129.810 251.329 130.221 250.374 C 132.081 246.055,133.873 240.103,133.446 239.669 C 133.233 239.452,131.759 238.589,125.419 234.967 C 123.219 233.711,119.445 231.527,117.032 230.115 C 114.619 228.703,111.832 227.079,110.839 226.507 C 107.942 224.838,107.870 224.785,107.359 223.945 C 107.091 223.504,106.680 222.030,106.446 220.668 C 105.483 215.076,104.889 214.701,99.715 216.414 C 96.160 217.591,95.245 217.538,92.613 216.007 C 91.566 215.398,87.981 213.338,84.645 211.430 C 81.310 209.522,77.245 207.169,75.613 206.201 C 73.981 205.233,70.671 203.310,68.258 201.929 C 62.982 198.909,51.816 192.503,51.557 192.348 C 51.455 192.288,50.219 193.403,48.811 194.826 M36.062 216.323 C 35.250 219.173,34.158 225.523,34.380 226.100 C 34.534 226.501,37.035 228.088,40.645 230.075 C 41.639 230.622,44.714 232.394,47.479 234.012 C 55.828 238.899,54.399 238.583,60.320 236.857 C 64.615 235.606,65.562 236.224,66.484 240.877 C 66.803 242.491,67.237 244.224,67.448 244.727 C 67.930 245.881,68.248 246.084,81.419 253.624 C 84.400 255.330,89.267 258.130,92.235 259.847 C 95.202 261.563,97.658 262.968,97.692 262.968 C 97.726 262.968,98.549 263.453,99.522 264.047 C 100.495 264.640,102.858 266.015,104.774 267.103 C 106.690 268.191,109.204 269.621,110.360 270.282 C 111.516 270.943,112.561 271.483,112.682 271.481 C 113.425 271.472,122.065 263.889,122.065 263.246 C 122.065 263.160,120.177 261.995,117.871 260.657 C 111.111 256.736,102.980 252.044,97.161 248.709 C 94.181 247.001,90.883 245.085,89.833 244.453 C 88.782 243.820,87.563 243.100,87.123 242.852 C 77.918 237.665,78.758 238.480,77.806 233.806 C 76.701 228.377,76.380 228.192,71.160 229.968 C 67.271 231.292,66.810 231.223,62.490 228.676 C 60.837 227.701,57.452 225.742,54.968 224.323 C 52.484 222.903,47.405 219.985,43.681 217.839 C 39.957 215.692,36.872 213.935,36.826 213.935 C 36.779 213.935,36.436 215.010,36.062 216.323 M41.578 241.684 C 38.832 242.603,37.440 242.772,36.275 242.329 C 35.407 241.999,35.415 242.095,36.529 245.548 C 43.723 267.856,66.057 282.575,89.027 280.144 C 92.249 279.803,97.909 278.693,98.270 278.332 C 98.314 278.289,97.095 277.554,95.562 276.699 C 94.028 275.845,92.019 274.675,91.097 274.100 C 90.174 273.525,88.566 272.576,87.524 271.991 C 86.482 271.406,81.198 268.369,75.782 265.241 C 70.366 262.113,63.903 258.392,61.419 256.972 C 48.391 249.524,48.897 249.949,48.272 245.935 C 47.431 240.536,46.597 240.006,41.578 241.684 " stroke="none" fill="#2bfbfb" fill-rule="evenodd"></path><path id="path1" d="M158.057 56.322 C 157.990 56.500,157.069 59.200,156.009 62.323 C 154.949 65.445,153.259 70.381,152.254 73.290 C 151.249 76.200,149.739 80.613,148.899 83.097 C 148.058 85.581,146.716 89.471,145.917 91.742 C 145.117 94.013,144.310 96.335,144.123 96.903 C 143.937 97.471,142.430 101.884,140.776 106.710 C 139.121 111.535,136.739 118.503,135.483 122.194 C 134.226 125.884,132.369 131.284,131.355 134.194 C 130.341 137.103,129.063 140.819,128.514 142.452 C 127.966 144.084,126.395 148.671,125.023 152.645 C 123.651 156.619,122.373 160.335,122.182 160.903 C 121.992 161.471,121.097 164.093,120.193 166.730 C 118.363 172.073,118.304 172.903,119.757 172.903 C 120.297 172.903,120.823 173.224,121.664 174.065 C 122.303 174.703,123.065 175.226,123.359 175.226 C 123.882 175.226,125.504 176.587,127.588 178.774 C 128.162 179.377,128.794 179.871,128.991 179.871 C 129.598 179.871,133.380 183.744,133.690 184.682 C 133.847 185.159,134.080 185.548,134.207 185.548 C 134.335 185.548,134.819 185.973,135.284 186.492 C 135.749 187.012,136.517 187.853,136.991 188.363 C 137.465 188.873,138.023 189.681,138.232 190.158 C 138.441 190.635,139.012 191.437,139.500 191.940 C 139.989 192.444,140.502 193.273,140.640 193.783 C 140.777 194.292,141.107 194.844,141.372 195.009 C 141.947 195.366,146.247 203.926,146.486 205.186 C 146.577 205.669,146.790 206.239,146.960 206.452 C 147.321 206.904,148.526 210.447,148.892 212.129 C 149.030 212.768,149.314 213.987,149.523 214.839 C 150.935 220.612,151.215 223.300,151.221 231.134 C 151.226 237.326,150.941 241.430,150.337 243.871 C 150.144 244.652,149.849 246.045,149.681 246.968 C 149.289 249.122,148.268 252.627,147.163 255.613 C 146.953 256.181,146.613 257.110,146.409 257.677 C 142.271 269.145,131.667 282.064,120.149 289.670 C 115.382 292.818,106.225 297.290,104.547 297.290 C 104.303 297.290,103.993 297.400,103.858 297.534 C 103.494 297.895,97.044 299.613,96.050 299.613 C 95.578 299.613,94.942 299.747,94.637 299.910 C 93.453 300.543,88.857 300.892,81.622 300.898 C 73.368 300.904,74.250 300.642,73.340 303.355 C 73.055 304.206,71.994 307.284,70.982 310.194 C 68.740 316.644,65.290 326.878,65.290 327.079 C 65.290 327.299,142.278 327.248,142.600 327.028 C 143.097 326.689,143.727 325.323,144.115 323.742 C 144.994 320.164,145.372 318.758,145.834 317.354 C 146.103 316.537,146.323 315.652,146.323 315.386 C 146.323 315.121,146.509 314.395,146.738 313.774 C 146.966 313.153,147.308 311.948,147.498 311.097 C 147.688 310.245,148.124 308.561,148.468 307.355 C 148.812 306.148,149.239 304.581,149.416 303.871 C 149.594 303.161,150.016 301.652,150.355 300.516 C 150.693 299.381,150.970 298.250,150.969 298.003 C 150.968 297.756,151.200 296.943,151.484 296.196 C 151.768 295.450,151.998 294.665,151.997 294.452 C 151.994 294.093,152.589 291.899,153.822 287.724 C 154.097 286.791,154.323 285.846,154.323 285.624 C 154.323 284.572,155.184 282.618,155.710 282.477 C 156.431 282.283,240.995 282.285,241.717 282.479 C 242.121 282.587,242.354 282.956,242.568 283.830 C 242.729 284.491,243.387 286.890,244.029 289.161 C 244.670 291.432,245.481 294.335,245.830 295.613 C 246.179 296.890,246.692 298.748,246.970 299.742 C 247.247 300.735,247.999 303.435,248.640 305.742 C 250.903 313.881,252.149 318.348,253.947 324.774 C 254.265 325.910,254.653 326.924,254.811 327.028 C 254.968 327.133,272.822 327.220,294.487 327.222 L 333.877 327.226 333.994 326.426 C 334.065 325.947,333.921 325.252,333.636 324.694 C 333.375 324.181,333.161 323.557,333.161 323.307 C 333.161 323.057,332.945 322.356,332.680 321.749 C 332.190 320.625,331.609 318.987,330.960 316.903 C 330.270 314.686,329.494 312.384,329.264 311.871 C 328.966 311.207,328.076 308.624,327.575 306.968 C 327.360 306.258,327.030 305.329,326.841 304.903 C 326.652 304.477,326.360 303.606,326.192 302.968 C 326.023 302.329,325.793 301.690,325.679 301.548 C 325.566 301.406,325.297 300.652,325.081 299.871 C 324.865 299.090,324.323 297.465,323.878 296.258 C 323.433 295.052,322.955 293.617,322.817 293.070 C 322.679 292.522,322.398 291.751,322.194 291.355 C 321.989 290.959,321.708 290.187,321.570 289.640 C 321.432 289.093,320.958 287.658,320.517 286.452 C 320.076 285.245,319.553 283.735,319.354 283.097 C 319.156 282.458,318.398 280.252,317.670 278.194 C 316.942 276.135,316.174 273.871,315.963 273.161 C 315.752 272.452,315.472 271.639,315.339 271.355 C 315.094 270.828,314.088 267.897,313.436 265.806 C 313.236 265.168,312.712 263.658,312.270 262.452 C 311.828 261.245,311.307 259.735,311.112 259.097 C 310.691 257.718,310.028 255.798,309.419 254.194 C 308.813 252.594,308.149 250.673,307.726 249.290 C 307.531 248.652,306.782 246.445,306.063 244.387 C 302.948 235.475,302.395 233.865,302.030 232.645 C 301.818 231.935,301.536 231.123,301.403 230.839 C 301.270 230.555,300.700 228.929,300.137 227.226 C 299.573 225.523,298.520 222.445,297.796 220.387 C 297.071 218.329,296.326 216.123,296.140 215.484 C 295.953 214.845,295.629 213.916,295.420 213.419 C 294.988 212.391,294.324 210.477,293.810 208.774 C 293.617 208.135,292.802 205.755,291.999 203.484 C 291.196 201.213,290.425 198.948,290.285 198.452 C 290.146 197.955,289.875 197.200,289.684 196.774 C 289.493 196.348,289.199 195.477,289.030 194.839 C 288.862 194.200,288.630 193.561,288.515 193.419 C 288.400 193.277,288.126 192.523,287.907 191.742 C 287.687 190.961,286.917 188.639,286.194 186.581 C 285.472 184.523,284.717 182.316,284.518 181.677 C 284.318 181.039,283.795 179.529,283.355 178.323 C 282.915 177.116,282.392 175.606,282.194 174.968 C 281.995 174.329,281.180 171.948,280.382 169.677 C 279.584 167.406,278.816 165.142,278.675 164.645 C 278.534 164.148,278.251 163.374,278.046 162.924 C 277.841 162.474,277.599 161.719,277.509 161.246 C 277.419 160.774,277.178 160.054,276.973 159.647 C 276.768 159.239,276.445 158.368,276.256 157.711 C 276.067 157.054,275.550 155.529,275.109 154.323 C 274.667 153.116,274.144 151.606,273.946 150.968 C 273.748 150.329,272.991 148.123,272.265 146.065 C 271.539 144.006,270.783 141.800,270.584 141.161 C 270.250 140.085,269.363 137.517,266.213 128.516 C 265.542 126.600,264.841 124.491,264.655 123.829 C 264.469 123.168,264.232 122.490,264.129 122.323 C 264.026 122.155,263.787 121.477,263.599 120.816 C 263.410 120.154,262.660 117.929,261.931 115.871 C 259.775 109.781,259.357 108.577,258.972 107.355 C 258.771 106.716,258.247 105.206,257.806 104.000 C 257.366 102.794,256.846 101.284,256.651 100.645 C 256.281 99.438,252.843 89.476,251.708 86.323 C 251.350 85.329,250.947 84.068,250.812 83.521 C 250.676 82.974,250.398 82.202,250.194 81.806 C 249.989 81.410,249.709 80.639,249.572 80.092 C 249.435 79.544,248.723 77.413,247.991 75.355 C 247.259 73.297,246.441 70.916,246.175 70.065 C 245.908 69.213,245.577 68.284,245.438 68.000 C 245.299 67.716,245.070 67.077,244.929 66.581 C 244.788 66.084,243.936 63.529,243.035 60.903 L 241.398 56.129 199.788 56.064 C 166.635 56.012,158.153 56.064,158.057 56.322 M199.656 129.053 C 199.825 129.680,201.089 134.200,202.466 139.097 C 203.842 143.994,205.172 148.755,205.421 149.677 C 206.334 153.067,208.355 160.326,210.486 167.871 C 213.388 178.141,213.723 179.338,214.971 183.871 C 215.995 187.594,217.067 191.423,219.483 200.000 C 221.544 207.316,224.069 216.377,224.264 217.161 C 224.370 217.587,224.819 219.168,225.261 220.674 C 225.703 222.180,226.065 223.545,226.065 223.706 C 226.065 224.108,172.240 224.130,171.992 223.728 C 171.899 223.579,172.063 222.737,172.356 221.857 C 172.649 220.978,173.176 219.213,173.526 217.935 C 173.877 216.658,174.697 213.697,175.350 211.355 C 176.003 209.013,176.760 206.284,177.033 205.290 C 179.084 197.817,179.977 194.596,180.645 192.258 C 180.909 191.335,181.431 189.477,181.805 188.129 C 182.628 185.168,183.035 183.708,183.751 181.161 C 184.050 180.097,184.446 178.645,184.631 177.935 C 184.816 177.226,185.343 175.310,185.802 173.677 C 186.262 172.045,186.856 169.897,187.124 168.903 C 187.391 167.910,187.774 166.516,187.974 165.806 C 188.175 165.097,188.712 163.181,189.167 161.548 C 189.622 159.916,190.221 157.768,190.498 156.774 C 191.993 151.416,192.337 150.166,192.771 148.516 C 193.032 147.523,193.367 146.303,193.515 145.806 C 193.662 145.310,194.090 143.800,194.465 142.452 C 194.839 141.103,195.361 139.245,195.624 138.323 C 195.887 137.400,196.401 135.542,196.767 134.194 C 198.687 127.108,198.989 126.571,199.656 129.053 " stroke="none" fill="#040404" fill-rule="evenodd"></path><path id="path2" d="M158.042 55.939 C 157.887 56.044,157.696 56.361,157.616 56.645 C 157.362 57.546,152.762 71.074,152.526 71.613 C 152.402 71.897,151.869 73.406,151.342 74.968 C 150.815 76.529,149.229 81.174,147.818 85.290 C 146.407 89.406,145.038 93.413,144.775 94.194 C 144.513 94.974,143.871 96.832,143.349 98.323 C 142.827 99.813,140.795 105.735,138.835 111.484 C 136.874 117.232,133.971 125.710,132.384 130.323 C 130.796 134.935,127.950 143.239,126.059 148.774 C 124.168 154.310,121.627 161.724,120.413 165.251 C 117.949 172.409,117.885 173.161,119.746 173.161 C 120.232 173.161,120.629 173.350,120.834 173.677 C 121.011 173.961,121.257 174.194,121.380 174.194 C 121.503 174.194,121.832 174.484,122.111 174.839 C 122.390 175.194,122.875 175.484,123.190 175.484 C 123.560 175.484,124.601 176.300,126.151 177.806 C 127.466 179.084,128.689 180.129,128.869 180.129 C 129.049 180.129,130.205 181.159,131.437 182.418 C 132.669 183.678,133.677 184.593,133.677 184.453 C 133.677 184.022,129.734 180.121,129.150 179.974 C 128.847 179.898,128.137 179.350,127.571 178.757 C 125.503 176.586,123.880 175.226,123.359 175.226 C 123.065 175.226,122.303 174.703,121.664 174.065 C 120.823 173.224,120.297 172.903,119.757 172.903 C 118.304 172.903,118.363 172.073,120.193 166.730 C 121.097 164.093,121.992 161.471,122.182 160.903 C 122.373 160.335,123.651 156.619,125.023 152.645 C 126.395 148.671,127.966 144.084,128.514 142.452 C 129.063 140.819,130.341 137.103,131.355 134.194 C 132.369 131.284,134.226 125.884,135.483 122.194 C 136.739 118.503,139.121 111.535,140.776 106.710 C 142.430 101.884,143.937 97.471,144.123 96.903 C 144.310 96.335,145.117 94.013,145.917 91.742 C 146.716 89.471,148.059 85.581,148.900 83.097 C 149.740 80.613,151.209 76.316,152.164 73.548 C 153.118 70.781,154.848 65.729,156.008 62.323 L 158.118 56.129 199.752 56.129 L 241.387 56.129 242.552 59.540 C 243.192 61.416,243.763 62.904,243.820 62.847 C 244.021 62.646,241.977 56.763,241.464 56.065 C 241.199 55.703,158.575 55.579,158.042 55.939 M243.882 63.484 C 243.882 63.697,244.107 64.366,244.382 64.971 C 244.656 65.576,244.957 66.478,245.050 66.974 C 245.144 67.471,245.342 67.953,245.492 68.045 C 245.660 68.149,245.704 68.055,245.607 67.800 C 245.519 67.573,245.323 66.922,245.170 66.354 C 244.820 65.056,243.882 62.965,243.882 63.484 M246.211 70.065 C 246.195 70.283,247.044 72.788,248.949 78.145 C 249.167 78.757,249.382 79.220,249.427 79.175 C 249.505 79.097,247.437 72.687,246.988 71.613 C 246.869 71.329,246.649 70.806,246.500 70.452 C 246.351 70.097,246.220 69.923,246.211 70.065 M249.568 79.871 C 249.563 80.155,249.794 80.903,250.080 81.535 C 250.367 82.166,250.704 83.095,250.829 83.599 C 250.955 84.103,251.350 85.329,251.708 86.323 C 252.843 89.476,256.281 99.438,256.651 100.645 C 257.321 102.835,258.512 106.082,258.714 106.267 C 258.982 106.513,258.975 106.492,256.128 98.194 C 252.975 89.003,253.080 89.303,252.130 86.710 C 251.688 85.503,251.218 84.110,251.085 83.613 C 250.654 82.000,249.575 79.341,249.568 79.871 M258.999 107.325 C 259.170 108.297,260.114 110.522,260.123 109.974 C 260.126 109.783,259.965 109.260,259.765 108.813 C 259.565 108.366,259.276 107.652,259.123 107.226 L 258.845 106.452 258.999 107.325 M260.149 110.614 C 260.138 110.774,260.422 111.645,260.779 112.549 C 261.214 113.649,261.375 113.894,261.266 113.290 C 261.175 112.794,261.015 112.271,260.908 112.129 C 260.802 111.987,260.592 111.523,260.442 111.097 C 260.292 110.671,260.161 110.454,260.149 110.614 M261.583 114.822 C 261.829 115.790,262.431 117.080,262.435 116.645 C 262.437 116.432,262.210 115.794,261.931 115.226 C 261.652 114.658,261.496 114.476,261.583 114.822 M262.464 117.419 C 262.465 117.895,263.434 119.987,263.463 119.577 C 263.474 119.415,263.254 118.776,262.973 118.157 C 262.693 117.538,262.463 117.206,262.464 117.419 M263.750 121.243 C 263.745 121.430,263.875 121.831,264.037 122.134 C 264.200 122.438,264.480 123.214,264.661 123.859 C 264.841 124.504,265.641 126.890,266.439 129.161 C 267.236 131.432,268.200 134.200,268.582 135.313 C 268.963 136.425,269.318 137.207,269.370 137.051 C 269.422 136.894,269.225 136.158,268.932 135.415 C 268.639 134.672,267.928 132.671,267.352 130.968 C 266.777 129.265,266.031 127.116,265.696 126.194 C 265.361 125.271,264.889 123.877,264.647 123.097 C 264.155 121.506,263.762 120.695,263.750 121.243 M269.433 137.806 C 269.432 138.019,269.648 138.672,269.913 139.256 C 270.178 139.840,270.479 140.697,270.581 141.161 C 270.795 142.139,271.728 144.280,271.736 143.815 C 271.739 143.643,271.577 143.120,271.376 142.654 C 271.175 142.188,270.755 140.994,270.442 140.000 C 269.798 137.955,269.436 137.168,269.433 137.806 M271.754 144.349 C 271.735 144.701,273.277 149.190,273.575 149.648 C 273.799 149.993,273.815 149.976,273.668 149.548 C 273.570 149.265,273.339 148.510,273.153 147.871 C 272.758 146.513,271.772 144.029,271.754 144.349 M273.936 150.839 C 274.030 151.265,274.330 152.157,274.602 152.822 C 274.874 153.487,275.101 154.184,275.107 154.370 C 275.113 154.557,275.409 155.348,275.766 156.129 C 276.576 157.902,276.436 157.343,275.085 153.419 C 274.008 150.290,273.622 149.424,273.936 150.839 M276.394 158.013 C 276.390 158.268,276.571 158.833,276.796 159.268 C 277.021 159.703,277.375 160.713,277.583 161.513 C 277.792 162.313,278.067 163.073,278.196 163.202 C 278.325 163.331,278.243 162.809,278.015 162.041 C 277.387 159.934,276.403 157.487,276.394 158.013 M278.608 164.371 C 278.780 165.299,279.695 167.544,279.719 167.097 C 279.727 166.955,279.443 166.084,279.088 165.161 C 278.704 164.162,278.510 163.842,278.608 164.371 M279.762 167.613 C 279.746 167.874,281.193 172.165,281.938 174.065 C 282.161 174.632,282.291 174.806,282.228 174.452 C 282.105 173.765,281.132 170.798,280.747 169.935 C 280.621 169.652,280.351 168.955,280.148 168.387 C 279.945 167.819,279.771 167.471,279.762 167.613 M282.331 175.391 C 282.327 175.553,282.552 176.192,282.833 176.811 C 283.114 177.429,283.342 177.761,283.340 177.548 C 283.337 177.087,282.344 174.965,282.331 175.391 M283.381 178.323 C 283.364 178.852,284.340 180.877,284.366 180.366 C 284.378 180.141,284.300 179.871,284.194 179.766 C 284.087 179.662,283.864 179.207,283.697 178.756 C 283.530 178.305,283.388 178.110,283.381 178.323 M83.419 179.798 C 83.810 179.857,84.448 179.857,84.839 179.798 C 85.229 179.739,84.910 179.690,84.129 179.690 C 83.348 179.690,83.029 179.739,83.419 179.798 M284.541 181.677 C 284.706 182.578,285.390 184.103,285.409 183.613 C 285.414 183.471,285.184 182.774,284.897 182.065 C 284.461 180.984,284.403 180.921,284.541 181.677 M285.558 184.591 C 285.657 184.986,286.140 186.438,286.631 187.816 C 287.121 189.195,287.586 190.584,287.663 190.903 C 287.739 191.223,287.906 191.484,288.034 191.484 C 288.161 191.484,288.077 191.048,287.847 190.516 C 287.617 189.984,287.272 189.026,287.081 188.387 C 286.264 185.661,285.094 182.744,285.558 184.591 M133.677 185.267 C 133.677 185.408,133.832 185.616,134.021 185.729 C 134.719 186.148,137.639 189.577,138.043 190.452 C 138.272 190.948,138.893 191.819,139.422 192.387 C 139.951 192.955,140.394 193.594,140.406 193.806 C 140.422 194.090,140.464 194.104,140.562 193.858 C 140.709 193.493,139.431 191.484,139.053 191.484 C 138.925 191.484,138.602 190.990,138.334 190.387 C 138.067 189.784,137.462 188.873,136.989 188.363 C 134.160 185.313,133.677 184.862,133.677 185.267 M288.023 192.000 C 288.012 192.213,288.172 192.710,288.378 193.105 C 288.584 193.500,288.947 194.519,289.186 195.370 C 289.425 196.221,289.707 196.971,289.814 197.037 C 290.039 197.176,289.026 193.835,288.442 192.516 C 288.222 192.019,288.033 191.787,288.023 192.000 M140.645 194.468 C 140.645 194.560,140.931 194.975,141.281 195.390 C 141.630 195.806,142.343 196.958,142.865 197.951 C 143.387 198.944,143.860 199.710,143.917 199.653 C 144.110 199.460,141.901 195.490,141.270 194.893 C 140.926 194.568,140.645 194.377,140.645 194.468 M290.065 197.641 C 290.065 197.810,290.302 198.613,290.591 199.426 C 290.881 200.238,291.420 201.806,291.789 202.910 C 292.158 204.014,292.510 204.867,292.571 204.806 C 292.677 204.699,290.382 197.661,290.169 197.441 C 290.111 197.382,290.065 197.472,290.065 197.641 M144.000 200.101 C 144.000 200.220,144.249 200.797,144.552 201.384 C 145.864 203.919,146.030 204.311,146.204 205.290 C 146.305 205.858,146.533 206.497,146.710 206.710 C 147.146 207.234,148.645 211.764,148.645 212.558 C 148.645 212.909,148.784 213.449,148.954 213.759 C 149.123 214.069,149.411 215.019,149.594 215.871 L 149.927 217.419 149.787 216.021 C 149.711 215.252,149.481 214.222,149.276 213.732 C 149.071 213.241,148.903 212.622,148.903 212.355 C 148.903 211.619,147.331 206.896,146.931 206.431 C 146.738 206.207,146.581 205.820,146.581 205.570 C 146.581 205.320,146.170 204.181,145.668 203.039 C 144.789 201.040,144.000 199.651,144.000 200.101 M292.740 205.548 C 293.089 207.008,294.940 212.008,294.959 211.544 C 294.972 211.253,293.426 206.770,292.990 205.835 C 292.785 205.393,292.672 205.265,292.740 205.548 M294.988 212.204 C 294.977 212.458,295.200 213.121,295.484 213.677 C 295.768 214.234,296.003 214.897,296.007 215.151 C 296.015 215.682,296.980 217.828,297.011 217.384 C 297.023 217.223,296.859 216.759,296.647 216.352 C 296.435 215.946,296.261 215.408,296.260 215.158 C 296.259 214.909,296.036 214.212,295.765 213.610 C 295.494 213.008,295.213 212.342,295.141 212.129 C 295.039 211.833,295.004 211.850,294.988 212.204 M150.053 218.323 C 150.159 218.819,150.395 220.271,150.579 221.548 C 150.781 222.951,150.920 223.462,150.931 222.839 C 150.953 221.631,150.311 217.831,150.044 217.587 C 149.944 217.495,149.948 217.826,150.053 218.323 M297.050 217.856 C 297.021 218.151,298.758 223.284,299.216 224.258 C 299.875 225.658,299.242 223.501,298.005 220.129 C 297.272 218.133,297.070 217.651,297.050 217.856 M151.065 227.097 C 151.065 228.729,151.107 229.397,151.158 228.581 C 151.210 227.765,151.210 226.429,151.158 225.613 C 151.107 224.797,151.065 225.465,151.065 227.097 M299.627 225.373 C 299.603 225.733,301.226 230.565,301.459 230.826 C 301.579 230.961,301.687 231.309,301.698 231.600 C 301.709 231.891,301.777 231.982,301.850 231.802 C 301.922 231.622,301.746 230.868,301.459 230.125 C 301.172 229.382,300.645 227.961,300.289 226.968 C 299.933 225.974,299.635 225.257,299.627 225.373 M151.033 231.097 C 151.036 231.665,151.089 231.866,151.150 231.545 C 151.212 231.224,151.210 230.760,151.145 230.513 C 151.080 230.266,151.030 230.529,151.033 231.097 M150.911 236.258 C 150.744 239.951,150.596 241.353,150.091 244.000 C 150.010 244.426,150.111 244.272,150.316 243.658 C 150.797 242.215,151.288 236.842,151.181 234.194 C 151.115 232.576,151.056 233.024,150.911 236.258 M301.956 232.468 C 301.945 232.655,302.159 233.352,302.431 234.017 C 302.704 234.682,303.051 235.574,303.203 236.000 C 303.478 236.774,303.478 236.774,303.323 235.871 C 303.237 235.374,302.963 234.503,302.714 233.935 C 302.464 233.368,302.196 232.729,302.118 232.516 C 302.021 232.250,301.970 232.235,301.956 232.468 M303.582 237.161 C 303.651 237.374,303.947 238.303,304.240 239.226 C 304.843 241.124,305.280 241.965,305.286 241.241 C 305.289 241.001,305.186 240.740,305.058 240.661 C 304.931 240.582,304.691 239.966,304.527 239.291 C 304.363 238.616,304.054 237.774,303.843 237.419 C 303.631 237.065,303.513 236.948,303.582 237.161 M305.564 242.839 C 305.558 242.910,305.966 244.129,306.470 245.548 C 306.974 246.968,307.491 248.542,307.619 249.046 C 307.870 250.040,308.894 252.422,308.889 252.000 C 308.887 251.858,308.531 250.755,308.098 249.548 C 307.665 248.342,307.137 246.774,306.925 246.065 C 306.566 244.866,305.587 242.547,305.564 242.839 M149.366 247.151 C 148.939 249.344,147.199 255.062,146.476 256.645 C 146.281 257.071,146.037 257.710,145.932 258.065 C 145.727 258.763,143.321 263.662,142.258 265.548 C 141.342 267.172,140.050 269.194,138.137 272.000 C 129.486 284.682,112.728 295.875,97.548 299.109 C 96.342 299.366,95.704 299.585,96.132 299.595 C 97.037 299.616,103.496 297.893,103.858 297.534 C 103.993 297.400,104.303 297.290,104.547 297.290 C 106.225 297.290,115.382 292.818,120.149 289.670 C 131.667 282.064,142.271 269.145,146.409 257.677 C 146.613 257.110,146.953 256.181,147.163 255.613 C 148.676 251.526,150.086 246.229,149.900 245.333 C 149.849 245.085,149.608 245.903,149.366 247.151 M308.922 252.774 C 308.921 253.314,309.652 254.798,309.668 254.288 C 309.673 254.127,309.508 253.604,309.300 253.126 C 309.040 252.527,308.923 252.418,308.922 252.774 M309.966 255.613 C 309.946 256.223,310.916 258.379,310.947 257.794 C 310.958 257.574,310.861 257.283,310.730 257.148 C 310.599 257.014,310.377 256.497,310.237 256.000 C 310.094 255.494,309.975 255.324,309.966 255.613 M311.113 258.968 C 311.202 259.394,311.487 260.323,311.746 261.032 C 312.006 261.742,312.414 262.881,312.653 263.564 C 312.891 264.247,313.127 264.765,313.176 264.716 C 313.295 264.597,312.569 262.348,311.965 260.961 C 311.700 260.354,311.482 259.657,311.480 259.412 C 311.478 259.168,311.358 258.794,311.214 258.581 C 311.021 258.296,310.995 258.398,311.113 258.968 M121.145 264.581 L 120.387 265.419 121.226 264.661 C 122.008 263.955,122.183 263.742,121.984 263.742 C 121.939 263.742,121.562 264.119,121.145 264.581 M313.659 266.452 C 313.912 267.516,314.865 269.786,314.743 269.032 C 314.674 268.606,314.374 267.735,314.077 267.097 C 313.780 266.458,313.592 266.168,313.659 266.452 M314.849 270.026 C 314.843 270.146,315.002 270.611,315.203 271.058 C 315.403 271.505,315.626 272.045,315.698 272.258 C 315.811 272.589,315.833 272.586,315.851 272.240 C 315.862 272.017,315.643 271.378,315.365 270.820 C 315.087 270.263,314.855 269.905,314.849 270.026 M315.885 272.963 C 315.866 273.385,316.681 275.405,316.816 275.270 C 316.874 275.212,316.691 274.598,316.410 273.905 C 316.129 273.212,315.893 272.788,315.885 272.963 M317.419 277.469 C 317.419 277.551,317.589 278.009,317.796 278.487 C 318.057 279.088,318.174 279.196,318.175 278.839 C 318.176 278.555,318.007 278.097,317.798 277.822 C 317.590 277.546,317.419 277.388,317.419 277.469 M318.200 279.694 C 318.196 279.881,318.417 280.577,318.689 281.242 C 318.962 281.908,319.243 282.626,319.314 282.839 C 319.429 283.183,319.445 283.183,319.462 282.839 C 319.473 282.626,319.194 281.755,318.844 280.903 C 318.493 280.052,318.203 279.508,318.200 279.694 M83.935 280.701 C 84.326 280.760,84.965 280.760,85.355 280.701 C 85.745 280.642,85.426 280.593,84.645 280.593 C 83.865 280.593,83.545 280.642,83.935 280.701 M177.226 282.516 C 189.042 282.553,208.377 282.553,220.194 282.516 C 232.010 282.479,222.342 282.449,198.710 282.449 C 175.077 282.449,165.410 282.479,177.226 282.516 M242.265 283.866 C 242.491 284.573,242.718 285.110,242.769 285.059 C 242.933 284.895,242.269 282.581,242.058 282.581 C 241.946 282.581,242.039 283.159,242.265 283.866 M154.637 284.297 C 154.088 286.607,153.833 287.643,153.691 288.129 C 153.608 288.413,153.715 288.273,153.927 287.819 C 154.140 287.365,154.478 286.203,154.678 285.238 C 155.065 283.370,155.033 282.627,154.637 284.297 M319.595 283.742 C 319.848 284.807,320.800 287.076,320.678 286.323 C 320.609 285.897,320.309 285.026,320.012 284.387 C 319.715 283.748,319.527 283.458,319.595 283.742 M243.163 286.968 C 243.239 287.323,243.663 288.890,244.105 290.452 C 244.548 292.013,245.208 294.394,245.571 295.742 C 245.935 297.090,246.448 298.948,246.711 299.871 C 246.974 300.794,247.493 302.652,247.864 304.000 C 248.567 306.555,249.037 308.228,250.145 312.129 C 250.508 313.406,251.042 315.323,251.332 316.387 C 254.289 327.265,254.276 327.226,254.706 327.222 C 254.961 327.219,254.997 327.152,254.811 327.028 C 254.653 326.924,254.265 325.910,253.947 324.774 C 252.217 318.591,251.683 316.677,248.659 305.806 C 248.008 303.465,247.247 300.735,246.970 299.742 C 246.692 298.748,246.179 296.890,245.829 295.613 C 244.303 290.039,243.295 286.571,243.166 286.452 C 243.089 286.381,243.088 286.613,243.163 286.968 M320.783 287.368 C 320.788 287.503,320.967 287.903,321.181 288.258 L 321.570 288.903 321.401 288.258 C 321.225 287.585,320.767 286.925,320.783 287.368 M321.579 289.419 C 321.574 289.703,321.850 290.574,322.194 291.355 C 322.537 292.135,322.823 292.618,322.828 292.426 C 322.834 292.235,322.675 291.712,322.475 291.265 C 322.275 290.818,321.993 290.103,321.850 289.677 C 321.669 289.140,321.586 289.061,321.579 289.419 M322.846 293.156 C 322.842 293.366,323.062 294.121,323.335 294.834 C 323.608 295.546,324.027 296.688,324.265 297.371 C 324.835 299.000,325.003 298.809,324.457 297.152 C 323.714 294.896,322.853 292.762,322.846 293.156 M152.035 294.194 C 152.016 294.548,151.768 295.450,151.484 296.196 C 151.200 296.943,150.975 297.756,150.984 298.003 C 150.993 298.250,151.288 297.588,151.641 296.533 C 151.993 295.478,152.234 294.375,152.176 294.082 C 152.088 293.637,152.064 293.656,152.035 294.194 M150.894 298.774 C 150.739 299.063,149.777 302.413,149.467 303.742 C 149.318 304.381,149.129 305.135,149.046 305.419 C 148.963 305.703,149.075 305.551,149.294 305.081 C 149.513 304.610,149.854 303.507,150.052 302.629 C 150.250 301.751,150.589 300.481,150.806 299.806 C 151.153 298.729,151.198 298.208,150.894 298.774 M93.290 300.006 C 92.268 300.269,92.161 300.340,92.774 300.351 C 93.200 300.358,93.897 300.204,94.323 300.009 C 95.274 299.573,94.976 299.572,93.290 300.006 M325.272 300.516 C 325.373 300.942,325.562 301.399,325.691 301.531 C 325.827 301.670,325.823 301.409,325.681 300.915 C 325.367 299.821,325.029 299.491,325.272 300.516 M90.258 300.569 C 90.577 300.631,91.100 300.631,91.419 300.569 C 91.739 300.508,91.477 300.457,90.839 300.457 C 90.200 300.457,89.939 300.508,90.258 300.569 M73.843 301.097 C 73.711 301.345,73.423 302.129,73.202 302.839 C 72.982 303.548,72.456 305.116,72.034 306.323 C 67.974 317.927,65.011 326.776,65.098 327.037 C 65.143 327.171,66.071 324.626,67.161 321.382 C 68.250 318.138,69.970 313.103,70.981 310.194 C 71.993 307.284,73.055 304.206,73.340 303.355 C 74.246 300.652,73.323 300.920,82.007 300.839 L 89.677 300.766 81.880 300.706 C 74.681 300.650,74.064 300.680,73.843 301.097 M326.099 302.581 C 326.370 303.808,326.740 304.546,326.552 303.484 C 326.464 302.987,326.288 302.406,326.160 302.194 C 326.009 301.941,325.988 302.075,326.099 302.581 M326.710 304.702 C 326.710 304.867,326.826 305.074,326.968 305.161 C 327.110 305.249,327.239 305.575,327.256 305.886 C 327.278 306.315,327.314 306.344,327.403 306.005 C 327.467 305.759,327.338 305.298,327.115 304.980 C 326.892 304.662,326.710 304.536,326.710 304.702 M148.677 306.452 C 148.656 306.735,148.578 307.258,148.505 307.613 L 148.373 308.258 148.649 307.625 C 148.801 307.277,148.878 306.754,148.820 306.464 C 148.718 305.949,148.714 305.949,148.677 306.452 M327.500 306.839 C 327.497 307.052,327.704 307.690,327.959 308.258 C 328.214 308.826,328.576 309.845,328.763 310.523 C 328.950 311.201,329.223 311.829,329.370 311.920 C 329.542 312.026,329.564 311.910,329.433 311.591 C 329.321 311.319,329.024 310.458,328.773 309.677 C 328.190 307.864,327.505 306.338,327.500 306.839 M147.779 309.593 C 147.703 309.853,147.580 310.529,147.506 311.097 C 147.403 311.890,147.456 311.802,147.736 310.716 C 148.068 309.426,148.104 308.491,147.779 309.593 M146.739 313.709 C 146.510 314.381,146.323 315.145,146.323 315.407 C 146.323 315.669,146.090 316.545,145.806 317.352 C 145.523 318.160,145.295 318.999,145.302 319.217 C 145.317 319.746,146.581 315.929,146.581 315.354 C 146.581 315.106,146.756 314.406,146.970 313.799 C 147.185 313.191,147.314 312.647,147.258 312.591 C 147.201 312.534,146.968 313.038,146.739 313.709 M329.821 313.479 C 329.802 313.901,330.616 315.921,330.751 315.787 C 330.809 315.728,330.627 315.114,330.346 314.421 C 330.065 313.728,329.828 313.304,329.821 313.479 M331.105 317.419 C 331.105 317.632,331.217 317.981,331.355 318.194 C 331.577 318.538,331.605 318.538,331.605 318.194 C 331.605 317.981,331.492 317.632,331.355 317.419 C 331.132 317.075,331.105 317.075,331.105 317.419 M332.024 320.004 C 332.206 320.705,332.487 321.484,332.649 321.736 C 332.923 322.163,332.932 322.162,332.789 321.709 C 332.705 321.442,332.508 320.714,332.351 320.091 C 332.194 319.469,331.982 318.907,331.880 318.844 C 331.777 318.781,331.842 319.303,332.024 320.004 M144.278 322.750 C 144.127 323.296,144.013 323.916,144.025 324.129 C 144.036 324.342,144.204 323.940,144.398 323.235 C 144.591 322.530,144.705 321.909,144.651 321.856 C 144.598 321.802,144.430 322.204,144.278 322.750 M333.131 323.153 C 333.249 323.870,333.286 323.906,333.367 323.390 C 333.420 323.054,333.357 322.673,333.227 322.543 C 333.083 322.400,333.046 322.640,333.131 323.153 M333.419 324.288 C 333.419 324.430,333.590 324.772,333.798 325.047 C 334.007 325.323,334.177 325.432,334.177 325.290 C 334.177 325.148,334.007 324.807,333.798 324.531 C 333.590 324.256,333.419 324.147,333.419 324.288 M143.762 324.977 C 143.741 325.467,143.027 326.712,142.587 327.028 C 142.428 327.142,142.477 327.218,142.710 327.219 C 143.167 327.220,144.121 325.365,143.921 324.863 C 143.828 324.630,143.776 324.668,143.762 324.977 M333.954 326.516 C 333.944 326.906,334.052 327.226,334.194 327.226 C 334.496 327.226,334.496 327.027,334.194 326.323 C 333.997 325.865,333.970 325.887,333.954 326.516 " stroke="none" fill="#4c4c4c" fill-rule="evenodd"></path><path id="path3" d="M198.477 128.323 C 198.199 129.059,197.613 131.070,196.767 134.194 C 196.401 135.542,195.887 137.400,195.624 138.323 C 195.361 139.245,194.839 141.103,194.465 142.452 C 194.090 143.800,193.662 145.310,193.515 145.806 C 193.367 146.303,193.032 147.523,192.771 148.516 C 192.509 149.510,192.005 151.368,191.650 152.645 C 191.295 153.923,190.935 155.258,190.850 155.613 L 190.695 156.258 190.995 155.613 C 191.354 154.840,192.401 151.224,192.928 148.935 C 193.137 148.029,193.416 147.086,193.549 146.838 C 193.681 146.591,193.911 145.822,194.060 145.129 C 194.209 144.437,194.568 143.058,194.859 142.065 C 196.234 137.361,197.108 134.207,197.541 132.387 C 198.132 129.904,198.831 128.125,199.186 128.200 C 199.371 128.239,199.449 128.152,199.359 128.006 C 199.089 127.570,198.711 127.706,198.477 128.323 M203.649 144.000 C 203.649 144.213,203.749 144.619,203.871 144.903 C 204.011 145.229,204.093 145.276,204.093 145.032 C 204.093 144.819,203.993 144.413,203.871 144.129 C 203.731 143.804,203.649 143.756,203.649 144.000 M204.426 146.839 C 204.426 147.052,204.583 147.632,204.774 148.129 C 204.966 148.626,205.122 148.858,205.122 148.645 C 205.122 148.432,204.966 147.852,204.774 147.355 C 204.583 146.858,204.426 146.626,204.426 146.839 M190.292 157.419 C 190.039 158.434,189.187 161.519,187.974 165.806 C 187.774 166.516,187.391 167.910,187.124 168.903 C 186.856 169.897,186.262 172.045,185.802 173.677 C 185.343 175.310,184.812 177.226,184.623 177.935 C 184.434 178.645,183.988 180.271,183.632 181.548 C 182.586 185.303,182.587 185.295,183.047 184.473 C 183.258 184.094,183.515 183.281,183.616 182.666 C 183.718 182.051,184.020 180.968,184.288 180.258 C 184.555 179.548,184.774 178.772,184.774 178.532 C 184.774 178.292,185.051 177.189,185.389 176.080 C 185.985 174.125,186.334 172.892,187.749 167.742 C 188.119 166.394,188.648 164.535,188.925 163.613 C 189.201 162.690,189.425 161.805,189.423 161.646 C 189.421 161.487,189.715 160.450,190.077 159.343 C 190.438 158.236,190.699 157.088,190.657 156.794 C 190.609 156.454,190.475 156.683,190.292 157.419 M209.327 164.387 C 209.327 164.600,209.426 165.006,209.548 165.290 C 209.688 165.616,209.770 165.663,209.770 165.419 C 209.770 165.206,209.670 164.800,209.548 164.516 C 209.409 164.191,209.327 164.143,209.327 164.387 M211.389 171.742 C 211.395 172.286,212.335 175.025,212.363 174.581 C 212.372 174.439,212.155 173.626,211.881 172.774 C 211.607 171.923,211.385 171.458,211.389 171.742 M212.649 176.409 C 212.651 176.681,212.771 177.077,212.915 177.290 C 213.106 177.573,213.130 177.469,213.004 176.903 C 212.792 175.954,212.644 175.748,212.649 176.409 M213.721 180.000 C 213.717 180.284,213.814 180.748,213.935 181.032 C 214.218 181.690,214.218 181.011,213.935 180.129 C 213.769 179.610,213.727 179.585,213.721 180.000 M215.012 184.645 C 215.007 184.929,215.104 185.394,215.226 185.677 C 215.508 186.335,215.508 185.657,215.226 184.774 C 215.060 184.256,215.018 184.230,215.012 184.645 M182.252 186.452 C 182.076 187.161,181.633 188.787,181.268 190.065 C 180.903 191.342,180.395 193.142,180.138 194.065 C 179.882 194.987,179.297 197.077,178.840 198.710 C 177.890 202.098,177.115 204.994,176.907 205.935 C 176.645 207.116,177.590 204.540,177.948 203.097 C 178.329 201.555,179.207 198.372,180.259 194.710 C 180.626 193.432,181.147 191.574,181.417 190.581 C 181.687 189.587,182.090 188.135,182.313 187.355 C 182.536 186.574,182.685 185.761,182.645 185.548 C 182.605 185.335,182.428 185.742,182.252 186.452 M216.157 188.903 C 216.245 189.400,216.422 189.981,216.549 190.194 C 216.824 190.652,216.560 189.314,216.218 188.516 C 216.069 188.168,216.049 188.294,216.157 188.903 M217.330 193.032 C 217.330 193.245,217.486 193.826,217.677 194.323 C 217.869 194.819,218.025 195.052,218.025 194.839 C 218.025 194.626,217.869 194.045,217.677 193.548 C 217.486 193.052,217.330 192.819,217.330 193.032 M218.875 198.452 C 218.875 198.665,218.975 199.071,219.097 199.355 C 219.237 199.680,219.319 199.728,219.319 199.484 C 219.319 199.271,219.219 198.865,219.097 198.581 C 218.957 198.255,218.875 198.208,218.875 198.452 M219.652 201.290 C 219.652 201.503,219.809 202.084,220.000 202.581 C 220.191 203.077,220.348 203.310,220.348 203.097 C 220.348 202.884,220.191 202.303,220.000 201.806 C 219.809 201.310,219.652 201.077,219.652 201.290 M220.940 205.935 C 220.940 206.148,221.039 206.555,221.161 206.839 C 221.301 207.164,221.383 207.212,221.383 206.968 C 221.383 206.755,221.283 206.348,221.161 206.065 C 221.021 205.739,220.940 205.691,220.940 205.935 M176.054 208.805 C 175.730 209.961,175.507 210.948,175.559 211.000 C 175.714 211.155,176.849 207.322,176.743 207.002 C 176.688 206.838,176.378 207.649,176.054 208.805 M174.862 213.092 C 174.592 214.052,174.040 216.058,173.634 217.548 C 173.228 219.039,172.654 220.978,172.360 221.857 C 171.832 223.432,171.861 224.004,172.467 223.996 C 172.665 223.994,172.645 223.910,172.412 223.763 C 172.107 223.570,172.135 223.314,172.589 222.154 C 172.886 221.395,173.203 220.368,173.295 219.871 C 173.386 219.374,173.672 218.271,173.930 217.419 C 175.200 213.224,175.543 211.920,175.451 211.645 C 175.396 211.480,175.131 212.131,174.862 213.092 M223.262 214.194 C 223.262 214.406,223.362 214.813,223.484 215.097 C 223.624 215.422,223.706 215.470,223.706 215.226 C 223.706 215.013,223.606 214.606,223.484 214.323 C 223.344 213.997,223.262 213.950,223.262 214.194 M224.298 218.065 C 224.298 218.277,224.512 219.032,224.774 219.742 C 225.036 220.452,225.250 220.858,225.250 220.645 C 225.250 220.432,225.036 219.677,224.774 218.968 C 224.512 218.258,224.298 217.852,224.298 218.065 M225.408 221.806 C 225.478 222.232,225.608 222.832,225.696 223.140 C 225.823 223.584,225.731 223.723,225.250 223.815 C 224.701 223.919,224.711 223.933,225.355 223.965 C 226.174 224.005,226.209 223.810,225.668 222.194 C 225.435 221.497,225.331 221.342,225.408 221.806 M186.129 223.935 C 193.190 223.974,204.745 223.974,211.806 223.935 C 218.868 223.897,213.090 223.866,198.968 223.866 C 184.845 223.866,179.068 223.897,186.129 223.935 M84.472 327.419 C 95.235 327.457,112.770 327.457,123.440 327.419 C 134.109 327.382,125.303 327.352,103.871 327.352 C 82.439 327.352,73.709 327.382,84.472 327.419 M274.516 327.419 C 285.481 327.457,303.423 327.457,314.387 327.419 C 325.352 327.382,316.381 327.352,294.452 327.352 C 272.523 327.352,263.552 327.382,274.516 327.419 " stroke="none" fill="#333333" fill-rule="evenodd"></path><path id="path4" d="M78.452 180.111 C 75.671 180.505,73.258 180.957,73.366 181.065 C 73.427 181.126,74.567 180.989,75.899 180.761 C 79.698 180.112,86.448 179.987,90.553 180.491 C 94.322 180.953,95.332 180.898,92.333 180.394 C 90.106 180.020,80.483 179.824,78.452 180.111 M97.161 181.697 C 98.013 181.966,98.884 182.179,99.097 182.170 C 99.310 182.161,98.729 181.931,97.806 181.659 C 95.651 181.022,95.123 181.054,97.161 181.697 M70.323 181.816 C 69.305 182.168,69.303 182.171,70.194 182.021 C 71.246 181.843,72.323 181.450,71.742 181.456 C 71.529 181.457,70.890 181.620,70.323 181.816 M65.568 183.371 C 64.603 183.790,64.646 183.885,66.194 184.758 C 67.140 185.293,67.172 185.296,66.581 184.804 C 66.226 184.508,65.703 184.189,65.419 184.094 C 64.977 183.945,65.050 183.855,65.935 183.463 C 66.503 183.212,66.852 183.002,66.710 182.997 C 66.568 182.992,66.054 183.161,65.568 183.371 M104.516 184.125 C 104.516 184.177,105.532 184.737,106.774 185.369 C 113.678 188.882,120.450 194.544,124.584 200.258 C 126.616 203.066,127.182 203.768,126.561 202.710 C 124.695 199.527,119.922 194.180,116.258 191.166 C 113.226 188.672,104.516 183.449,104.516 184.125 M67.613 185.562 C 68.285 186.020,69.419 186.598,69.419 186.484 C 69.419 186.341,67.638 185.289,67.405 185.294 C 67.306 185.296,67.400 185.417,67.613 185.562 M69.806 186.768 C 69.948 186.906,72.039 188.157,74.452 189.548 C 79.708 192.579,79.226 192.315,79.226 192.167 C 79.226 192.101,77.339 190.948,75.032 189.607 C 70.528 186.986,69.400 186.373,69.806 186.768 M48.557 194.745 C 46.114 197.235,43.106 200.865,43.099 201.332 C 43.098 201.426,43.997 202.023,45.097 202.657 C 48.337 204.527,49.193 204.978,48.645 204.526 C 48.361 204.292,47.084 203.507,45.806 202.782 C 44.529 202.057,43.439 201.428,43.383 201.384 C 43.062 201.130,48.476 194.849,50.397 193.247 L 51.533 192.300 53.960 193.720 C 57.352 195.706,59.789 197.031,59.484 196.725 C 59.287 196.527,55.287 194.184,51.525 192.063 C 51.406 191.996,50.070 193.203,48.557 194.745 M79.484 192.374 C 79.484 192.445,79.832 192.683,80.258 192.903 C 80.684 193.123,81.032 193.246,81.032 193.175 C 81.032 193.104,80.684 192.865,80.258 192.645 C 79.832 192.425,79.484 192.303,79.484 192.374 M81.290 193.379 C 81.290 193.437,82.771 194.334,84.581 195.371 C 86.390 196.408,88.161 197.431,88.516 197.644 C 88.871 197.856,89.045 197.903,88.903 197.748 C 88.491 197.298,81.290 193.165,81.290 193.379 M59.871 197.019 C 59.871 197.090,60.219 197.328,60.645 197.548 C 61.071 197.769,61.419 197.891,61.419 197.820 C 61.419 197.749,61.071 197.511,60.645 197.290 C 60.219 197.070,59.871 196.948,59.871 197.019 M61.677 198.051 C 61.677 198.122,62.026 198.360,62.452 198.581 C 62.877 198.801,63.226 198.923,63.226 198.852 C 63.226 198.781,62.877 198.543,62.452 198.323 C 62.026 198.102,61.677 197.980,61.677 198.051 M89.320 198.038 C 89.408 198.133,92.195 199.782,95.514 201.702 C 98.833 203.623,102.042 205.482,102.645 205.834 C 103.248 206.186,103.742 206.418,103.742 206.350 C 103.742 206.218,99.943 203.957,94.065 200.591 C 90.149 198.349,89.074 197.771,89.320 198.038 M63.613 199.172 C 64.086 199.661,73.032 204.767,73.032 204.548 C 73.032 204.480,72.365 204.049,71.548 203.589 C 70.732 203.130,68.845 202.037,67.355 201.161 C 64.181 199.295,63.258 198.804,63.613 199.172 M129.006 207.541 C 130.118 209.773,131.291 212.418,131.613 213.420 C 131.935 214.422,132.247 215.194,132.306 215.135 C 132.668 214.773,128.629 205.647,127.377 204.000 C 127.162 203.716,127.895 205.310,129.006 207.541 M49.290 205.019 C 49.290 205.090,49.639 205.328,50.065 205.548 C 50.490 205.769,50.839 205.891,50.839 205.820 C 50.839 205.749,50.490 205.511,50.065 205.290 C 49.639 205.070,49.290 204.948,49.290 205.019 M75.097 205.766 C 75.097 205.911,75.886 206.386,81.161 209.418 C 85.743 212.051,86.703 212.569,86.323 212.201 C 86.134 212.018,78.740 207.699,75.290 205.756 C 75.184 205.696,75.097 205.700,75.097 205.766 M104.516 206.825 C 104.516 206.896,104.865 207.135,105.290 207.355 C 105.716 207.575,106.065 207.697,106.065 207.626 C 106.065 207.555,105.716 207.317,105.290 207.097 C 104.865 206.877,104.516 206.754,104.516 206.825 M54.323 207.925 C 54.465 208.060,56.265 209.134,58.323 210.312 C 60.381 211.489,62.462 212.692,62.949 212.985 C 63.435 213.278,63.755 213.392,63.660 213.237 C 63.564 213.082,61.657 211.915,59.420 210.642 C 54.927 208.086,53.938 207.558,54.323 207.925 M106.452 207.923 C 106.594 208.056,107.833 208.824,109.206 209.630 C 112.195 211.386,112.392 211.402,116.498 210.194 C 120.588 208.990,121.502 209.045,122.788 210.569 C 123.073 210.906,123.082 210.878,122.845 210.390 C 122.091 208.832,120.585 208.726,116.423 209.935 C 112.459 211.088,112.189 211.078,109.858 209.700 C 107.646 208.392,106.075 207.573,106.452 207.923 M123.410 212.516 C 123.407 212.800,123.554 213.613,123.736 214.323 C 123.918 215.032,124.070 215.381,124.074 215.097 C 124.077 214.813,123.930 214.000,123.748 213.290 C 123.565 212.581,123.414 212.232,123.410 212.516 M86.710 212.503 C 86.710 212.574,87.058 212.812,87.484 213.032 C 87.910 213.252,88.258 213.375,88.258 213.304 C 88.258 213.233,87.910 212.994,87.484 212.774 C 87.058 212.554,86.710 212.432,86.710 212.503 M88.516 213.513 C 88.516 213.581,89.863 214.419,91.509 215.375 C 95.350 217.605,95.904 217.676,99.715 216.414 C 103.697 215.095,104.869 215.235,105.694 217.130 C 105.887 217.573,106.049 217.783,106.054 217.596 C 106.124 215.269,103.890 214.758,99.648 216.129 C 95.414 217.498,95.701 217.567,88.710 213.501 C 88.603 213.440,88.516 213.445,88.516 213.513 M36.667 213.770 C 36.837 213.917,47.026 219.763,47.742 220.124 C 49.677 221.102,47.206 219.570,42.403 216.814 C 37.811 214.180,36.072 213.258,36.667 213.770 M64.645 213.868 C 64.787 214.016,65.600 214.517,66.452 214.981 C 67.303 215.446,67.884 215.708,67.742 215.565 C 67.600 215.421,66.787 214.920,65.935 214.452 C 65.084 213.983,64.503 213.721,64.645 213.868 M36.018 215.631 C 35.924 216.010,35.896 216.369,35.956 216.430 C 36.017 216.490,36.145 216.231,36.240 215.853 C 36.335 215.474,36.362 215.115,36.302 215.054 C 36.241 214.993,36.113 215.253,36.018 215.631 M68.129 215.835 C 68.129 215.921,72.270 218.357,77.484 221.339 C 77.590 221.400,77.677 221.395,77.677 221.328 C 77.677 221.261,75.790 220.110,73.484 218.771 C 68.699 215.993,68.129 215.681,68.129 215.835 M124.864 218.249 C 125.032 218.564,126.010 219.305,127.037 219.896 C 128.063 220.488,129.281 221.198,129.742 221.475 C 130.203 221.751,130.581 221.913,130.581 221.834 C 130.581 221.756,129.630 221.143,128.467 220.472 C 127.305 219.802,125.950 218.899,125.456 218.465 C 124.717 217.817,124.613 217.779,124.864 218.249 M34.968 219.871 C 34.869 220.458,34.842 220.992,34.908 221.058 C 34.974 221.124,35.105 220.695,35.200 220.103 C 35.295 219.512,35.322 218.977,35.260 218.916 C 35.198 218.854,35.067 219.284,34.968 219.871 M106.467 220.645 C 106.778 223.320,107.477 224.682,108.926 225.431 C 109.956 225.964,109.874 225.712,108.802 225.049 C 107.786 224.422,107.238 223.391,106.710 221.113 C 106.416 219.850,106.362 219.745,106.467 220.645 M48.516 220.465 C 48.516 220.598,53.882 223.790,56.645 225.302 C 59.564 226.898,57.679 225.628,53.935 223.476 C 51.877 222.293,49.816 221.102,49.355 220.830 C 48.894 220.559,48.516 220.394,48.516 220.465 M78.065 221.601 C 78.206 221.747,78.903 222.192,79.613 222.589 C 80.323 222.986,80.787 223.191,80.645 223.045 C 80.503 222.898,79.806 222.453,79.097 222.056 C 78.387 221.659,77.923 221.454,78.065 221.601 M131.484 222.375 C 131.626 222.521,132.323 222.966,133.032 223.363 C 133.742 223.760,134.206 223.965,134.065 223.819 C 133.923 223.672,133.226 223.228,132.516 222.831 C 131.806 222.433,131.342 222.228,131.484 222.375 M90.617 222.748 C 90.140 222.885,89.799 223.047,89.860 223.107 C 89.920 223.168,90.367 223.103,90.853 222.964 C 92.283 222.554,94.030 223.415,94.527 224.774 C 94.649 225.108,94.672 225.106,94.689 224.758 C 94.718 224.193,93.762 223.235,92.746 222.810 C 91.778 222.406,91.802 222.407,90.617 222.748 M81.032 223.346 C 81.032 223.607,83.615 224.774,84.185 224.771 C 84.864 224.767,89.874 223.267,89.290 223.242 C 89.077 223.233,87.974 223.514,86.839 223.867 C 84.259 224.668,83.896 224.668,82.314 223.867 C 81.609 223.509,81.032 223.275,81.032 223.346 M34.095 225.717 C 34.068 226.430,34.217 226.619,35.290 227.235 C 35.965 227.622,36.923 228.176,37.419 228.466 C 37.916 228.756,38.226 228.886,38.109 228.754 C 37.991 228.623,37.121 228.050,36.175 227.480 C 34.828 226.669,34.420 226.278,34.291 225.674 L 34.126 224.903 34.095 225.717 M58.323 226.180 C 58.323 226.251,58.671 226.489,59.097 226.710 C 59.523 226.930,59.871 227.052,59.871 226.981 C 59.871 226.910,59.523 226.672,59.097 226.452 C 58.671 226.231,58.323 226.109,58.323 226.180 M110.839 226.456 C 111.416 226.929,113.566 228.066,113.161 227.684 C 113.019 227.550,112.323 227.123,111.613 226.736 C 110.903 226.349,110.555 226.223,110.839 226.456 M61.419 227.956 C 61.419 228.240,65.660 230.472,66.695 230.733 C 67.805 231.012,73.408 229.710,72.972 229.273 C 72.911 229.212,72.000 229.463,70.947 229.830 C 67.939 230.878,66.847 230.779,63.898 229.189 C 62.535 228.454,61.419 227.899,61.419 227.956 M113.548 227.987 C 113.548 228.058,113.897 228.296,114.323 228.516 C 114.748 228.736,115.097 228.858,115.097 228.787 C 115.097 228.716,114.748 228.478,114.323 228.258 C 113.897 228.038,113.548 227.916,113.548 227.987 M76.070 229.304 C 76.919 229.899,77.113 230.401,77.806 233.806 C 78.648 237.940,78.791 238.163,81.613 239.737 C 83.660 240.880,83.486 240.554,81.396 239.331 C 79.190 238.042,78.889 237.567,78.216 234.323 C 77.397 230.376,76.732 228.903,75.769 228.903 C 75.620 228.903,75.755 229.083,76.070 229.304 M115.355 228.988 C 115.355 229.137,120.339 232.107,123.226 233.678 C 126.256 235.327,124.739 234.280,120.894 232.067 C 118.901 230.921,116.840 229.728,116.313 229.418 C 115.786 229.107,115.355 228.914,115.355 228.988 M38.968 229.277 C 38.968 229.348,39.316 229.586,39.742 229.806 C 40.168 230.027,40.516 230.149,40.516 230.078 C 40.516 230.007,40.168 229.769,39.742 229.548 C 39.316 229.328,38.968 229.206,38.968 229.277 M40.903 230.381 C 41.045 230.519,42.845 231.599,44.903 232.782 C 46.961 233.965,49.023 235.156,49.484 235.428 C 49.945 235.699,50.323 235.863,50.323 235.791 C 50.323 235.718,48.435 234.561,46.129 233.219 C 41.625 230.599,40.497 229.986,40.903 230.381 M96.959 232.434 C 97.788 233.160,100.903 234.974,100.903 234.731 C 100.903 234.660,100.352 234.286,99.677 233.899 C 99.003 233.511,97.929 232.860,97.290 232.451 L 96.129 231.707 96.959 232.434 M125.161 234.696 C 125.161 234.767,125.510 235.006,125.935 235.226 C 126.361 235.446,126.710 235.568,126.710 235.497 C 126.710 235.426,126.361 235.188,125.935 234.968 C 125.510 234.748,125.161 234.625,125.161 234.696 M101.161 234.936 C 101.161 234.996,101.575 235.290,102.080 235.588 C 102.585 235.886,102.926 236.013,102.838 235.870 C 102.665 235.590,101.161 234.752,101.161 234.936 M50.581 235.987 C 50.581 236.058,50.929 236.296,51.355 236.516 C 51.781 236.736,52.129 236.858,52.129 236.787 C 52.129 236.716,51.781 236.478,51.355 236.258 C 50.929 236.038,50.581 235.916,50.581 235.987 M61.032 236.645 C 60.707 236.785,60.659 236.867,60.903 236.867 C 61.116 236.867,61.523 236.767,61.806 236.645 C 62.132 236.505,62.179 236.423,61.935 236.423 C 61.723 236.423,61.316 236.523,61.032 236.645 M64.466 236.909 C 64.936 237.195,65.483 237.805,65.682 238.263 C 65.915 238.799,66.048 238.926,66.054 238.619 C 66.066 238.073,64.484 236.387,63.961 236.388 C 63.770 236.389,63.997 236.623,64.466 236.909 M128.258 236.478 C 128.258 236.581,131.103 238.306,132.323 238.941 C 133.581 239.597,132.807 238.970,131.161 238.000 C 128.999 236.726,128.258 236.338,128.258 236.478 M52.387 237.030 C 52.387 237.205,54.483 238.248,54.600 238.131 C 54.654 238.077,54.178 237.780,53.543 237.471 C 52.907 237.163,52.387 236.964,52.387 237.030 M56.387 237.935 C 55.729 238.218,56.408 238.218,57.290 237.935 C 57.809 237.769,57.834 237.727,57.419 237.721 C 57.135 237.717,56.671 237.814,56.387 237.935 M108.000 238.897 C 108.192 239.083,113.214 242.019,115.935 243.535 C 116.042 243.595,116.129 243.590,116.129 243.525 C 116.129 243.461,114.532 242.483,112.581 241.353 C 108.656 239.081,107.614 238.522,108.000 238.897 M43.742 240.776 C 43.401 240.924,43.627 240.952,44.408 240.858 C 46.151 240.649,47.112 241.228,47.588 242.777 C 47.795 243.450,47.972 243.793,47.982 243.540 C 48.063 241.478,45.691 239.932,43.742 240.776 M83.355 240.632 C 83.355 240.703,83.703 240.941,84.129 241.161 C 84.555 241.381,84.903 241.504,84.903 241.433 C 84.903 241.362,84.555 241.123,84.129 240.903 C 83.703 240.683,83.355 240.561,83.355 240.632 M85.161 241.635 C 85.161 241.810,87.016 242.877,87.126 242.766 C 87.178 242.715,86.757 242.412,86.191 242.094 C 85.625 241.776,85.161 241.569,85.161 241.635 M35.375 242.241 C 35.386 242.499,35.451 242.573,35.520 242.406 C 35.611 242.181,35.847 242.173,36.426 242.375 C 37.312 242.684,39.738 242.506,40.439 242.081 C 40.809 241.857,40.746 241.839,40.129 241.996 C 39.108 242.256,36.667 242.248,35.935 241.983 C 35.466 241.812,35.359 241.862,35.375 242.241 M87.871 243.223 C 88.448 243.702,90.082 244.586,89.677 244.200 C 89.535 244.064,88.955 243.693,88.387 243.374 C 87.819 243.055,87.587 242.987,87.871 243.223 M66.975 244.000 C 67.210 245.258,67.912 245.989,70.213 247.370 C 73.364 249.262,75.005 250.172,74.710 249.863 C 74.568 249.715,73.116 248.819,71.484 247.873 C 68.044 245.879,67.766 245.643,67.230 244.258 C 66.918 243.451,66.863 243.395,66.975 244.000 M90.065 244.490 C 90.065 244.610,91.910 245.713,94.968 247.420 C 95.606 247.777,96.013 247.948,95.871 247.801 C 95.729 247.653,94.452 246.869,93.032 246.057 C 91.613 245.246,90.365 244.531,90.258 244.469 C 90.152 244.407,90.065 244.416,90.065 244.490 M36.165 244.903 C 36.165 245.116,36.265 245.523,36.387 245.806 C 36.527 246.132,36.609 246.179,36.609 245.935 C 36.609 245.723,36.509 245.316,36.387 245.032 C 36.247 244.707,36.165 244.659,36.165 244.903 M118.194 244.739 C 118.194 244.800,119.848 245.806,121.871 246.974 C 123.894 248.142,125.955 249.333,126.452 249.622 C 126.948 249.911,127.239 250.022,127.097 249.870 C 126.955 249.718,125.097 248.585,122.968 247.352 C 118.378 244.695,118.194 244.594,118.194 244.739 M48.286 245.600 C 48.180 247.773,49.479 250.173,51.200 250.985 C 51.640 251.192,51.779 251.215,51.509 251.036 C 49.515 249.712,49.131 249.084,48.548 246.194 C 48.419 245.555,48.301 245.288,48.286 245.600 M131.860 246.129 C 131.690 246.661,131.153 248.069,130.667 249.257 C 130.181 250.445,129.835 251.469,129.898 251.532 C 130.002 251.636,131.831 247.130,132.247 245.742 C 132.546 244.748,132.186 245.107,131.860 246.129 M96.258 248.116 C 96.258 248.187,96.606 248.425,97.032 248.645 C 97.458 248.865,97.806 248.987,97.806 248.916 C 97.806 248.846,97.458 248.607,97.032 248.387 C 96.606 248.167,96.258 248.045,96.258 248.116 M37.429 248.645 C 37.415 249.037,40.653 255.540,41.155 256.129 C 41.397 256.413,41.274 256.067,40.881 255.360 C 40.488 254.653,39.553 252.795,38.802 251.231 C 38.052 249.667,37.434 248.503,37.429 248.645 M98.065 249.151 C 98.065 249.222,98.529 249.517,99.097 249.806 C 99.665 250.096,100.129 250.275,100.129 250.204 C 100.129 250.133,99.665 249.838,99.097 249.548 C 98.529 249.259,98.065 249.080,98.065 249.151 M127.484 250.183 C 127.484 250.254,127.948 250.549,128.516 250.839 C 129.084 251.128,129.548 251.307,129.548 251.236 C 129.548 251.165,129.084 250.870,128.516 250.581 C 127.948 250.291,127.484 250.112,127.484 250.183 M75.613 250.438 C 75.613 250.509,75.961 250.748,76.387 250.968 C 76.813 251.188,77.161 251.310,77.161 251.239 C 77.161 251.168,76.813 250.930,76.387 250.710 C 75.961 250.489,75.613 250.367,75.613 250.438 M100.387 250.417 C 100.387 250.486,102.739 251.903,105.613 253.567 C 111.531 256.993,111.453 256.949,111.097 256.588 C 110.909 256.398,102.973 251.728,100.581 250.400 C 100.474 250.340,100.387 250.348,100.387 250.417 M52.129 251.432 C 52.129 251.580,55.353 253.540,58.129 255.079 C 59.087 255.610,59.871 255.991,59.871 255.925 C 59.871 255.859,58.390 254.956,56.581 253.919 C 54.771 252.882,53.029 251.867,52.710 251.664 C 52.390 251.462,52.129 251.357,52.129 251.432 M77.419 251.471 C 77.419 251.542,77.768 251.780,78.194 252.000 C 78.619 252.220,78.968 252.342,78.968 252.271 C 78.968 252.200,78.619 251.962,78.194 251.742 C 77.768 251.522,77.419 251.400,77.419 251.471 M79.355 252.572 C 79.544 252.754,86.461 256.814,88.581 257.988 C 88.687 258.047,88.774 258.040,88.774 257.973 C 88.774 257.906,86.887 256.755,84.581 255.416 C 80.023 252.770,78.958 252.191,79.355 252.572 M60.129 256.116 C 60.129 256.187,60.477 256.425,60.903 256.645 C 61.329 256.865,61.677 256.987,61.677 256.916 C 61.677 256.846,61.329 256.607,60.903 256.387 C 60.477 256.167,60.129 256.045,60.129 256.116 M41.941 257.484 C 45.403 262.923,52.267 269.805,57.013 272.595 C 58.325 273.366,57.907 272.891,56.384 271.880 C 51.279 268.492,46.144 263.411,42.912 258.550 C 41.793 256.867,40.981 255.976,41.941 257.484 M61.935 257.148 C 61.935 257.219,62.284 257.457,62.710 257.677 C 63.135 257.898,63.484 258.020,63.484 257.949 C 63.484 257.878,63.135 257.640,62.710 257.419 C 62.284 257.199,61.935 257.077,61.935 257.148 M113.419 257.994 C 113.561 258.139,115.535 259.329,117.806 260.639 C 120.077 261.948,121.981 263.064,122.038 263.117 C 122.094 263.171,121.658 263.738,121.070 264.376 C 120.481 265.014,120.000 265.614,120.000 265.708 C 120.000 265.802,120.494 265.318,121.097 264.633 C 122.535 262.999,122.629 263.172,119.226 261.188 C 114.968 258.705,113.124 257.690,113.419 257.994 M63.742 258.159 C 63.742 258.305,63.936 258.420,75.613 265.153 C 86.069 271.181,86.996 271.701,86.581 271.295 C 86.439 271.156,82.723 268.975,78.323 266.447 C 73.923 263.919,69.103 261.134,67.613 260.257 C 64.370 258.351,63.742 258.011,63.742 258.159 M89.032 258.180 C 89.032 258.251,89.381 258.489,89.806 258.710 C 90.232 258.930,90.581 259.052,90.581 258.981 C 90.581 258.910,90.232 258.672,89.806 258.452 C 89.381 258.231,89.032 258.109,89.032 258.180 M90.839 259.184 C 90.839 259.249,92.900 260.489,95.419 261.939 C 97.939 263.390,100.377 264.805,100.839 265.084 C 101.300 265.363,101.677 265.529,101.677 265.453 C 101.677 265.328,99.964 264.270,97.548 262.902 C 97.052 262.621,95.426 261.692,93.935 260.838 C 92.445 259.984,91.139 259.236,91.032 259.176 C 90.926 259.115,90.839 259.119,90.839 259.184 M101.935 265.667 C 101.935 265.738,102.400 266.033,102.968 266.323 C 103.535 266.612,104.000 266.791,104.000 266.720 C 104.000 266.649,103.535 266.354,102.968 266.065 C 102.400 265.775,101.935 265.596,101.935 265.667 M118.564 266.863 C 118.005 267.439,116.465 268.738,115.140 269.750 L 112.732 271.590 111.536 270.956 C 110.878 270.608,109.697 269.935,108.912 269.462 C 106.804 268.192,104.101 266.720,104.315 266.959 C 104.642 267.326,112.355 271.742,112.668 271.742 C 113.313 271.742,119.968 266.205,119.675 265.912 C 119.623 265.859,119.122 266.287,118.564 266.863 M86.968 271.600 C 86.968 271.671,87.316 271.909,87.742 272.129 C 88.168 272.349,88.516 272.471,88.516 272.400 C 88.516 272.329,88.168 272.091,87.742 271.871 C 87.316 271.651,86.968 271.529,86.968 271.600 M89.369 272.951 C 89.524 273.201,93.225 275.421,96.581 277.275 C 98.720 278.458,98.788 278.291,95.877 278.993 C 94.532 279.317,93.482 279.633,93.543 279.694 C 93.682 279.833,98.380 278.706,98.645 278.470 C 98.751 278.375,97.183 277.345,95.161 276.180 C 93.138 275.014,90.973 273.755,90.349 273.380 C 89.724 273.006,89.284 272.813,89.369 272.951 M58.065 273.148 C 58.065 273.219,58.413 273.457,58.839 273.677 C 59.265 273.898,59.613 274.020,59.613 273.949 C 59.613 273.878,59.265 273.640,58.839 273.419 C 58.413 273.199,58.065 273.077,58.065 273.148 M59.871 274.209 C 59.871 274.969,72.023 279.552,73.806 279.463 C 74.019 279.453,73.032 279.122,71.613 278.727 C 68.120 277.757,65.795 276.895,62.579 275.378 C 61.089 274.675,59.871 274.149,59.871 274.209 M74.839 279.729 C 75.483 279.948,77.085 280.085,76.882 279.904 C 76.823 279.851,76.194 279.741,75.484 279.659 C 74.614 279.559,74.404 279.581,74.839 279.729 M91.935 279.920 C 92.184 279.985,92.590 279.985,92.839 279.920 C 93.087 279.855,92.884 279.802,92.387 279.802 C 91.890 279.802,91.687 279.855,91.935 279.920 M77.616 280.183 C 77.937 280.244,78.401 280.242,78.648 280.177 C 78.895 280.113,78.632 280.062,78.065 280.065 C 77.497 280.068,77.295 280.121,77.616 280.183 M89.742 280.182 C 90.061 280.244,90.584 280.244,90.903 280.182 C 91.223 280.121,90.961 280.070,90.323 280.070 C 89.684 280.070,89.423 280.121,89.742 280.182 M80.326 280.443 C 80.718 280.503,81.299 280.501,81.616 280.440 C 81.934 280.378,81.613 280.330,80.903 280.332 C 80.194 280.334,79.934 280.384,80.326 280.443 M87.032 280.443 C 87.423 280.502,88.061 280.502,88.452 280.443 C 88.842 280.384,88.523 280.335,87.742 280.335 C 86.961 280.335,86.642 280.384,87.032 280.443 " stroke="none" fill="#28d8dc" fill-rule="evenodd"></path></g></svg>