<svg xmlns="http://www.w3.org/2000/svg" xmlns:xlink="http://www.w3.org/1999/xlink" viewBox="0 0 90 90"><defs><style>.cls-1{fill:url(#radial-gradient);}.cls-2{fill:#5c1411;}.cls-3{fill:#ffdd3b;}.cls-4{fill:#ffaf1a;}.cls-5{fill:#fbfaf9;}.cls-6{fill:#00d8f9;}.cls-7{fill:#16242c;}</style><radialGradient id="radial-gradient" cx="-0.72" cy="-408.43" r="57.24" gradientTransform="matrix(0.76, 0.65, -0.65, 0.76, -219.88, 326.31)" gradientUnits="userSpaceOnUse"><stop offset="0.07" stop-color="#fff"/><stop offset="0.37" stop-color="#fdfdfd"/><stop offset="0.53" stop-color="#f5f5f5"/><stop offset="0.66" stop-color="#e7e7e7"/><stop offset="0.77" stop-color="#d4d4d4"/><stop offset="0.87" stop-color="#bbb"/><stop offset="0.94" stop-color="#a3a3a3"/></radialGradient></defs><g id="Layer_2" data-name="Layer 2"><g id="Layer_1-2" data-name="Layer 1"><path class="cls-1" d="M76.56,68.55a37.9,37.9,0,1,1-4-53.45A37.9,37.9,0,0,1,76.56,68.55Z"/><circle class="cls-2" cx="45" cy="45" r="45"/><path class="cls-3" d="M86.85,44.79A41.79,41.79,0,1,1,45.58,2.9,41.87,41.87,0,0,1,86.85,44.79ZM73.34,65.66v0l0,0,.11-.13a19,19,0,0,0,2.92-4.69A17.48,17.48,0,0,0,78.58,56,39.87,39.87,0,0,0,80,50.14c1.43-1.38,2.83-2.79,4.29-4.14A2.08,2.08,0,0,0,85,43.46c-.73-1.87-1.41-3.77-2.1-5.66q-3-8.32-6.06-16.64A1.74,1.74,0,0,0,75,19.9a17,17,0,0,0-1.89,0c-.65.06-.91-.18-1.11-.81a5.57,5.57,0,0,0-6.13-4.17c-.7,0-1.4.11-2.1.17.16-.42-.22-.49-.44-.63a34.05,34.05,0,0,0-7.17-3.32A39.69,39.69,0,0,0,49,9.62a33.15,33.15,0,0,0-8.9.13,36.08,36.08,0,0,0-5.71,1.32,33.09,33.09,0,0,0-6.13,2.6c-.21.12-.48.17-.43.5-.31-.07-.62-.12-.92-.2a8.88,8.88,0,0,0-4-.37c-2.38.47-3.64,2.15-4.47,4.27-.27.67-.14,1.64-.78,1.95a5.66,5.66,0,0,1-2.15.08c-1.43,0-1.82.28-2.31,1.63C10.56,28.72,8,35.92,5.28,43.09A2.51,2.51,0,0,0,6,46.24c1.44,1.27,2.77,2.65,4.14,4A35.47,35.47,0,0,0,11.49,56c.33,1.14.82,2.22,1.23,3.33a15.16,15.16,0,0,0,1.22,2.16,31.18,31.18,0,0,0,3.2,5,47.82,47.82,0,0,0,4.05,4.26,37.71,37.71,0,0,0,9.47,6.26,32.43,32.43,0,0,0,7.53,2.35c.86.16,1.77.61,2.71.22l0,0,.12.12a22.79,22.79,0,0,1,2.64,2.37,1.79,1.79,0,0,0,2.79,0A31.68,31.68,0,0,1,49,79.75a.09.09,0,0,0,.08,0,.06.06,0,0,1,.07-.07,3.47,3.47,0,0,0,1.91-.12,33.66,33.66,0,0,0,6-1.54,35,35,0,0,0,7.55-3.83,35.4,35.4,0,0,0,6.94-6,6.1,6.1,0,0,0,1.59-2.28.07.07,0,0,1,.07-.06A.18.18,0,0,0,73.34,65.66Z"/><path class="cls-2" d="M10.17,50.23c-1.37-1.34-2.7-2.72-4.14-4a2.51,2.51,0,0,1-.75-3.15C8,35.92,10.56,28.72,13.2,21.53c.49-1.35.88-1.62,2.31-1.63a5.66,5.66,0,0,0,2.15-.08c.64-.31.51-1.28.78-1.95.83-2.12,2.09-3.8,4.47-4.27a8.88,8.88,0,0,1,4,.37c.3.08.61.13.92.2a.36.36,0,0,0,.1.11,22.41,22.41,0,0,1,7.75,5.3,1.19,1.19,0,0,0,.92.31c6,0,11.95,0,17.92,0a1.6,1.6,0,0,0,1.06-.37,25.22,25.22,0,0,1,5.08-3.25c1-.48,2.1-.7,3.11-1.17.7-.06,1.4-.14,2.1-.17A5.57,5.57,0,0,1,72,19.1c.2.63.46.87,1.11.81a17,17,0,0,1,1.89,0,1.74,1.74,0,0,1,1.83,1.26q3,8.32,6.06,16.64c.69,1.89,1.37,3.79,2.1,5.66A2.08,2.08,0,0,1,84.32,46c-1.46,1.35-2.86,2.76-4.29,4.14-.82.76-1.62,1.52-2.45,2.27a1.22,1.22,0,0,0-.41,1c0,.9,0,1.8,0,2.69a29.4,29.4,0,0,1-.76,4.66,19,19,0,0,1-2.92,4.69c-.08,0-.13,0-.11.13l0,0v0c-.08,0-.11,0-.08.09a.07.07,0,0,0-.07.06c-.79.66-1.56,1.37-2.38,2a35.15,35.15,0,0,1-13,5.83c-1.62.41-3.32.47-4.55,2s-2.8,2.61-4.07,4c0,0-.07,0-.07.06h-.06l0,.06a31.68,31.68,0,0,0-2.56,2.35,1.79,1.79,0,0,1-2.79,0A22.79,22.79,0,0,0,41,79.76q0-.14-.12-.12l0,0a1.8,1.8,0,0,0-.24-.35c-1.74-1.67-3.49-3.32-5.22-5a2.61,2.61,0,0,0-1.35-.64,51.06,51.06,0,0,1-10.58-3.49,18.42,18.42,0,0,1-9.76-9.76,19.15,19.15,0,0,1-1.51-7.24c0-.42.11-.89-.25-1.24C11.39,51.34,10.78,50.79,10.17,50.23Zm32.5,26.32c.59.54,1.2,1,1.75,1.61s.84.57,1.3,0a6.17,6.17,0,0,1,.79-.74.72.72,0,0,0,.59-.21c.58-.59,1.17-1.16,1.75-1.74.14-.14.29-.29.2-.51s-.31-.2-.5-.2H44.91a3.51,3.51,0,0,1-1.22-.08,6.46,6.46,0,0,0-2.43-.18.45.45,0,0,0-.49.5A5.11,5.11,0,0,0,42.67,76.55ZM11.15,46.47c.11.44.53.67.74,1.05.09.17.5.5.79.35a1,1,0,0,0,.5-1,5.42,5.42,0,0,1,.41-2c.49-1.55,1.17-3,1.79-4.56a26.6,26.6,0,0,1,2.37-4.32A4,4,0,0,0,18.08,33c-.23-1.25-.29-2.52-.43-3.76a49.67,49.67,0,0,1-.06-5.32c0-.28.11-.61-.26-.77a1.26,1.26,0,0,0-1.66.63,5.64,5.64,0,0,0-.43,1.95l-3,8.35C11.08,37.17,10,40.29,8.8,43.4a.83.83,0,0,0,.29,1.05C9.79,45.1,10.46,45.8,11.15,46.47Zm5.3,11.36A13.58,13.58,0,0,0,20.29,64a21.14,21.14,0,0,0,7.22,4.13c9.75,3.59,19.69,4.58,29.85,2.09a29.29,29.29,0,0,0,12-5.61c2.15-1.77,3.83-3.87,4.17-6.77a18.57,18.57,0,0,0,0-6.73A34.57,34.57,0,0,0,68.4,38.19,3,3,0,0,1,68,35.72a48.37,48.37,0,0,0,1.39-11.56,10.94,10.94,0,0,0-.83-4.48,2.14,2.14,0,0,0-2.18-1.39A10.26,10.26,0,0,0,63,19a23.29,23.29,0,0,0-7.84,5.46A2,2,0,0,1,52.8,25a24,24,0,0,0-15.8-.6,1.85,1.85,0,0,1-2.14-.63,26.71,26.71,0,0,0-3.66-3.55A13.69,13.69,0,0,0,24.6,17a2.16,2.16,0,0,0-2.68,1.45,13.24,13.24,0,0,0-1.13,5.32,52.38,52.38,0,0,0,.67,10.9A3,3,0,0,1,21,36.89a31.49,31.49,0,0,0-4.78,10.65A18.84,18.84,0,0,0,16.45,57.83ZM73.34,23.27c-.61-.09-.62.32-.6.77a50.49,50.49,0,0,1-1.07,10.62c-.14.79-.55,1.56,0,2.49a34,34,0,0,1,3.75,8c.32,1,.61,1.94.91,2.91.14.46.3.62.73.21,1.34-1.32,2.7-2.62,4.06-3.92a.65.65,0,0,0,.17-.82c-1.26-3.42-2.47-6.85-3.72-10.28-1.13-3.12-2.3-6.24-3.44-9.37A.75.75,0,0,0,73.34,23.27Z"/><path class="cls-4" d="M63.73,15.1c-1,.47-2.11.69-3.11,1.17a25.22,25.22,0,0,0-5.08,3.25,1.6,1.6,0,0,1-1.06.37c-6,0-11.94,0-17.92,0a1.19,1.19,0,0,1-.92-.31,22.41,22.41,0,0,0-7.75-5.3.36.36,0,0,1-.1-.11c-.05-.33.22-.38.43-.5a33.09,33.09,0,0,1,6.13-2.6,36.08,36.08,0,0,1,5.71-1.32A33.15,33.15,0,0,1,49,9.62a39.69,39.69,0,0,1,7.16,1.53,34.05,34.05,0,0,1,7.17,3.32C63.51,14.61,63.89,14.68,63.73,15.1Z"/><path class="cls-4" d="M10.17,50.23c.61.56,1.22,1.11,1.82,1.68.36.35.24.82.25,1.24a19.15,19.15,0,0,0,1.51,7.24,18.42,18.42,0,0,0,9.76,9.76,51.06,51.06,0,0,0,10.58,3.49,2.61,2.61,0,0,1,1.35.64c1.73,1.67,3.48,3.32,5.22,5a1.8,1.8,0,0,1,.24.35c-.94.39-1.85-.06-2.71-.22a32.43,32.43,0,0,1-7.53-2.35,37.71,37.71,0,0,1-9.47-6.26,47.82,47.82,0,0,1-4.05-4.26,31.18,31.18,0,0,1-3.2-5,15.16,15.16,0,0,1-1.22-2.16c-.41-1.11-.9-2.19-1.23-3.33A35.47,35.47,0,0,1,10.17,50.23Z"/><path class="cls-4" d="M49.18,79.63c1.27-1.43,2.87-2.56,4.07-4s2.93-1.55,4.55-2a35.15,35.15,0,0,0,13-5.83c.82-.62,1.59-1.33,2.38-2a6.1,6.1,0,0,1-1.59,2.28,35.4,35.4,0,0,1-6.94,6A35,35,0,0,1,57.11,78a33.66,33.66,0,0,1-6,1.54A3.47,3.47,0,0,1,49.18,79.63Z"/><path class="cls-4" d="M76.4,60.78a29.4,29.4,0,0,0,.76-4.66c0-.89,0-1.79,0-2.69a1.22,1.22,0,0,1,.41-1c.83-.75,1.63-1.51,2.45-2.27A39.87,39.87,0,0,1,78.58,56,17.48,17.48,0,0,1,76.4,60.78Z"/><path class="cls-4" d="M73.37,65.6c0-.08,0-.12.11-.13Z"/><path class="cls-4" d="M73.26,65.75c0-.08,0-.11.08-.09A.18.18,0,0,1,73.26,65.75Z"/><path class="cls-4" d="M40.92,79.64q.13,0,.12.12Z"/><path class="cls-4" d="M49,79.75l0-.06h.06S49.07,79.75,49,79.75Z"/><path class="cls-4" d="M16.45,57.83a18.84,18.84,0,0,1-.26-10.29A31.49,31.49,0,0,1,21,36.89a3,3,0,0,0,.49-2.26,52.38,52.38,0,0,1-.67-10.9,13.24,13.24,0,0,1,1.13-5.32A2.16,2.16,0,0,1,24.6,17a13.69,13.69,0,0,1,6.6,3.22,26.71,26.71,0,0,1,3.66,3.55,1.85,1.85,0,0,0,2.14.63,24,24,0,0,1,15.8.6,2,2,0,0,0,2.38-.52A23.29,23.29,0,0,1,63,19a10.26,10.26,0,0,1,3.34-.69,2.14,2.14,0,0,1,2.18,1.39,10.94,10.94,0,0,1,.83,4.48A48.37,48.37,0,0,1,68,35.72a3,3,0,0,0,.42,2.47,34.57,34.57,0,0,1,5.15,12.92,18.57,18.57,0,0,1,0,6.73.74.74,0,0,0-.56-.11c-2.27.2-4.54.4-6.81.62a12.68,12.68,0,0,1-2.54,0,20.64,20.64,0,0,1-5-1,21.82,21.82,0,0,1-4.15-2A27,27,0,0,0,52,53.81a16,16,0,0,0-7.09-1.54,14.85,14.85,0,0,0-9.29,2.66c-1,0-1.51.76-2.27,1.1,0,0,0,.14,0,.21a20,20,0,0,1-5.13,1.86c-2.95.62-5.89.21-8.82-.12A19.44,19.44,0,0,0,16.45,57.83Zm45.2-29.74c.22.54.75.77,1.1,1.18s.46.63.92.55c.53.54,1,1.08,1.6,1.59.25.23.61.48.73-.12a22.53,22.53,0,0,0,.55-6.44c-.1-1.11-.62-2.26-1.49-2.31a5.11,5.11,0,0,0-1.74.14A13,13,0,0,0,60,24.59c-.58.12-.89.61-1.22,1a.54.54,0,0,0,.21.81c.93.47,1.59,1.35,2.62,1.66ZM31.93,44.71a4.42,4.42,0,1,0,4.41,4.46A4.38,4.38,0,0,0,31.93,44.71Zm25,0a4.42,4.42,0,1,0,4.44,4.36A4.39,4.39,0,0,0,56.93,44.71ZM23.45,26.12a27.29,27.29,0,0,0,.25,3.61c0,.21,0,.5.19.59s.46-.15.61-.3a21.76,21.76,0,0,1,2.22-2,33.28,33.28,0,0,1,3.86-2.69c.52-.31.58-.67.12-1.09-.68-.61-1.32-1.28-2.05-1.83a5.9,5.9,0,0,0-2.39-1.15,1.76,1.76,0,0,0-2.32,1.29A9.14,9.14,0,0,0,23.45,26.12ZM55.2,39.5a4.42,4.42,0,0,0-4.15,2.69,2.41,2.41,0,0,0,.29,2.59c.76.68,1.49.22,2.2-.14,1.14-.56,2.27-1.15,3.42-1.71a1.45,1.45,0,0,0,.9-2A2.52,2.52,0,0,0,55.2,39.5Zm-21.7,0a3.49,3.49,0,0,0-2.26.83,1.37,1.37,0,0,0,.19,2.38c1.34.75,2.7,1.48,4.08,2.17a1.53,1.53,0,0,0,1.6,0,1.8,1.8,0,0,0,.69-1.74C37.65,41,35.41,39.62,33.5,39.51Z"/><path class="cls-5" d="M16.45,57.83A19.44,19.44,0,0,1,19.4,58c2.93.33,5.87.74,8.82.12a20,20,0,0,0,5.13-1.86,3.77,3.77,0,0,0,2.3-1.31,14.85,14.85,0,0,1,9.29-2.66A16,16,0,0,1,52,53.81a27,27,0,0,1,2.46,1.51,21.82,21.82,0,0,0,4.15,2,20.64,20.64,0,0,0,5,1,12.68,12.68,0,0,0,2.54,0c2.27-.22,4.54-.42,6.81-.62a.74.74,0,0,1,.56.11c-.34,2.9-2,5-4.17,6.77a29.29,29.29,0,0,1-12,5.61c-10.16,2.49-20.1,1.5-29.85-2.09A21.14,21.14,0,0,1,20.29,64,13.58,13.58,0,0,1,16.45,57.83Zm28.61-3.68h0c-.8,0-1.6,0-2.4,0a1.19,1.19,0,0,0-1.28,1.29,3.56,3.56,0,0,0,1.73,3.39c.63.42.65.61.08,1.1a1.53,1.53,0,0,1-1.3.35,1.68,1.68,0,0,1-1.35-1.6,1.28,1.28,0,0,0-1.39-1.26A1.33,1.33,0,0,0,38,59a4,4,0,0,0,2.29,3.49,3.92,3.92,0,0,0,4.21-.3c.41-.28.67-.35,1.07,0a3.6,3.6,0,0,0,1.73.72,4.17,4.17,0,0,0,4.8-4A1.3,1.3,0,0,0,51,57.45a1.28,1.28,0,0,0-1.41,1.09,4.76,4.76,0,0,1-.11.64,1.59,1.59,0,0,1-2.74.58c-.3-.32-.35-.56.13-.83a3.51,3.51,0,0,0,1.87-3.31c0-1-.38-1.41-1.41-1.46C46.57,54.13,45.82,54.15,45.06,54.15Z"/><path class="cls-6" d="M73.34,23.27a.75.75,0,0,1,.84.56c1.14,3.13,2.31,6.25,3.44,9.37,1.25,3.43,2.46,6.86,3.72,10.28a.65.65,0,0,1-.17.82c-1.36,1.3-2.72,2.6-4.06,3.92-.43.41-.59.25-.73-.21-.3-1-.59-1.95-.91-2.91a34,34,0,0,0-3.75-8c-.6-.93-.19-1.7,0-2.49A50.49,50.49,0,0,0,72.74,24C72.72,23.59,72.73,23.18,73.34,23.27Z"/><path class="cls-6" d="M11.15,46.47c-.69-.67-1.36-1.37-2.06-2A.83.83,0,0,1,8.8,43.4c1.16-3.11,2.28-6.23,3.41-9.34l3-8.35A10,10,0,0,0,16,23.76c.19-.51.56-.45.94-.43s.38.38.37.66A59,59,0,0,0,18,34.53a1.54,1.54,0,0,1-.29,1.09,38.18,38.18,0,0,0-3.91,8,22.63,22.63,0,0,0-.9,3.22c-.15.75-.33.78-.94.26C11.67,46.88,11.51,46.54,11.15,46.47Z"/><path class="cls-6" d="M46.51,77.43a6.17,6.17,0,0,0-.79.74c-.46.56-.84.47-1.3,0s-1.16-1.07-1.75-1.61a6.12,6.12,0,0,0-1.14-1.19c-.12-.14-.36-.25-.26-.47s.3-.1.46-.08a47.9,47.9,0,0,0,6.34.15c.18,0,.42-.06.5.18s-.12.3-.23.42A24.82,24.82,0,0,0,46.51,77.43Z"/><path class="cls-7" d="M11.15,46.47c.36.07.52.41.77.62.61.52.79.49.94-.26a22.63,22.63,0,0,1,.9-3.22,38.18,38.18,0,0,1,3.91-8A1.54,1.54,0,0,0,18,34.53,59,59,0,0,1,17.34,24c0-.28.07-.63-.37-.66s-.75-.08-.94.43a10,10,0,0,1-.79,1.95,5.64,5.64,0,0,1,.43-1.95,1.26,1.26,0,0,1,1.66-.63c.37.16.26.49.26.77a49.67,49.67,0,0,0,.06,5.32c.14,1.24.2,2.51.43,3.76a4,4,0,0,1-.33,3.07,26.6,26.6,0,0,0-2.37,4.32c-.62,1.51-1.3,3-1.79,4.56a5.42,5.42,0,0,0-.41,2,1,1,0,0,1-.5,1c-.29.15-.7-.18-.79-.35C11.68,47.14,11.26,46.91,11.15,46.47Z"/><path class="cls-7" d="M46.51,77.43a24.82,24.82,0,0,1,1.83-1.87c.11-.12.29-.22.23-.42s-.32-.19-.5-.18a47.9,47.9,0,0,1-6.34-.15c-.16,0-.38-.1-.46.08s.14.33.26.47a6.12,6.12,0,0,1,1.14,1.19A5.11,5.11,0,0,1,40.77,75a.45.45,0,0,1,.49-.5,6.46,6.46,0,0,1,2.43.18,3.51,3.51,0,0,0,1.22.08h3.64c.19,0,.41,0,.5.2s-.06.37-.2.51c-.58.58-1.17,1.15-1.75,1.74A.72.72,0,0,1,46.51,77.43Z"/><path class="cls-2" d="M31.93,44.71a4.42,4.42,0,1,1-4.42,4.36A4.38,4.38,0,0,1,31.93,44.71ZM30.67,46a1.93,1.93,0,0,0-2,2,2,2,0,1,0,2-2Z"/><path class="cls-2" d="M56.93,44.71a4.42,4.42,0,1,1-4.4,4.39A4.39,4.39,0,0,1,56.93,44.71ZM55.75,46a1.92,1.92,0,0,0-2,2,2,2,0,0,0,2,2,2,2,0,0,0,2-2A1.94,1.94,0,0,0,55.75,46Z"/><path class="cls-5" d="M23.45,26.12a9.14,9.14,0,0,1,.49-3.53,1.76,1.76,0,0,1,2.32-1.29,5.9,5.9,0,0,1,2.39,1.15c.73.55,1.37,1.22,2.05,1.83.46.42.4.78-.12,1.09a33.28,33.28,0,0,0-3.86,2.69,21.76,21.76,0,0,0-2.22,2c-.15.15-.34.41-.61.3s-.16-.38-.19-.59A27.29,27.29,0,0,1,23.45,26.12Z"/><path class="cls-5" d="M60,24.59a13,13,0,0,1,3.3-1.91,5.11,5.11,0,0,1,1.74-.14c.87.05,1.39,1.2,1.49,2.31A22.53,22.53,0,0,1,66,31.29c-.12.6-.48.35-.73.12-.55-.51-1.07-1.05-1.6-1.59a4.91,4.91,0,0,0-2-1.73h0a2.83,2.83,0,0,0-.2-.28,19.46,19.46,0,0,0-2-1.49c-.44-.32-.62-.61,0-.95A1.08,1.08,0,0,0,60,24.59Z"/><path class="cls-5" d="M55.2,39.5A2.52,2.52,0,0,1,57.86,41a1.45,1.45,0,0,1-.9,2c-1.15.56-2.28,1.15-3.42,1.71-.71.36-1.44.82-2.2.14a2.41,2.41,0,0,1-.29-2.59A4.42,4.42,0,0,1,55.2,39.5Z"/><path class="cls-5" d="M33.5,39.51c1.91.11,4.15,1.51,4.3,3.67a1.8,1.8,0,0,1-.69,1.74,1.53,1.53,0,0,1-1.6,0c-1.38-.69-2.74-1.42-4.08-2.17a1.37,1.37,0,0,1-.19-2.38A3.49,3.49,0,0,1,33.5,39.51Z"/><path class="cls-3" d="M60,24.59a1.08,1.08,0,0,1-.6.77c-.63.34-.45.63,0,.95a19.46,19.46,0,0,1,2,1.49,2.83,2.83,0,0,1,.2.28c-1-.31-1.69-1.19-2.62-1.66a.54.54,0,0,1-.21-.81C59.13,25.2,59.44,24.71,60,24.59Z"/><path class="cls-3" d="M35.65,54.93a3.77,3.77,0,0,1-2.3,1.31c0-.07,0-.19,0-.21C34.14,55.69,34.69,54.88,35.65,54.93Z"/><path class="cls-3" d="M61.65,28.09a4.91,4.91,0,0,1,2,1.73c-.46.08-.68-.25-.92-.55S61.87,28.63,61.65,28.09Z"/><path class="cls-2" d="M45.06,54.15c.76,0,1.51,0,2.26,0,1,.05,1.38.44,1.41,1.46a3.51,3.51,0,0,1-1.87,3.31c-.48.27-.43.51-.13.83a1.59,1.59,0,0,0,2.74-.58,4.76,4.76,0,0,0,.11-.64A1.28,1.28,0,0,1,51,57.45a1.3,1.3,0,0,1,1.12,1.39,4.17,4.17,0,0,1-4.8,4,3.6,3.6,0,0,1-1.73-.72c-.4-.33-.66-.26-1.07,0a3.92,3.92,0,0,1-4.21.3A4,4,0,0,1,38,59a1.33,1.33,0,0,1,1.14-1.52,1.28,1.28,0,0,1,1.39,1.26,1.68,1.68,0,0,0,1.35,1.6,1.53,1.53,0,0,0,1.3-.35c.57-.49.55-.68-.08-1.1a3.56,3.56,0,0,1-1.73-3.39,1.19,1.19,0,0,1,1.28-1.29c.8,0,1.6,0,2.4,0Z"/><path class="cls-5" d="M30.67,46a1.94,1.94,0,0,1,2,2,2,2,0,0,1-4,0A1.93,1.93,0,0,1,30.67,46Z"/><path class="cls-5" d="M55.75,46a1.94,1.94,0,0,1,2,2,2,2,0,0,1-2,2,2,2,0,0,1-2-2A1.92,1.92,0,0,1,55.75,46Z"/></g></g></svg>