<?xml version="1.0" encoding="utf-8"?>
<!-- Generator: Adobe Illustrator 25.1.0, SVG Export Plug-In . SVG Version: 6.00 Build 0)  -->
<svg version="1.1" id="Capa_1" xmlns="http://www.w3.org/2000/svg" xmlns:xlink="http://www.w3.org/1999/xlink" x="0px" y="0px"
	 viewBox="0 0 595.3 841.9" style="enable-background:new 0 0 595.3 841.9;" xml:space="preserve">
<style type="text/css">
	.st0{fill-rule:evenodd;clip-rule:evenodd;fill:url(#SVGID_1_);}
	.st1{fill-rule:evenodd;clip-rule:evenodd;fill:#373435;}
	.st2{fill-rule:evenodd;clip-rule:evenodd;fill:url(#SVGID_2_);}
	.st3{fill-rule:evenodd;clip-rule:evenodd;fill:url(#SVGID_3_);}
	.st4{fill-rule:evenodd;clip-rule:evenodd;fill:url(#SVGID_4_);}
	.st5{fill-rule:evenodd;clip-rule:evenodd;fill:url(#SVGID_5_);}
	.st6{fill-rule:evenodd;clip-rule:evenodd;fill:url(#SVGID_6_);}
	.st7{fill-rule:evenodd;clip-rule:evenodd;fill:#2ED8A7;}
</style>
<linearGradient id="SVGID_1_" gradientUnits="userSpaceOnUse" x1="73.0218" y1="434.0657" x2="523.1454" y2="434.0657">
	<stop  offset="0.459" style="stop-color:#10E9AA"/>
	<stop  offset="1" style="stop-color:#16DAD3"/>
</linearGradient>
<circle class="st0" cx="298.1" cy="434.1" r="225.1"/>
<circle class="st1" cx="297.6" cy="434.1" r="210.8"/>
<linearGradient id="SVGID_2_" gradientUnits="userSpaceOnUse" x1="261.6422" y1="150.7071" x2="380.7694" y2="708.3799">
	<stop  offset="0" style="stop-color:#1FE4AB"/>
	<stop  offset="1" style="stop-color:#16DAD3"/>
</linearGradient>
<path class="st2" d="M138.1,315.6h202.5c14.5,0,15.1,1.3,26-11.8l10.5-10.6c4.7-3.6,11-2.8,14.9,1c4.2,4.2,13.2,15.9,17.4,18.9
	c4.8,3.4,14.6,2.4,21.9,2.4c8.1,0,16.2,0,24.3,0c-0.6-2-7.6-10.3-9.4-12c-2.6-2.6-8-9.3-10.5-11.3c-1.7-1.4-2.4-2-3.9-3.6l-3.9-3.5
	c-7.9-7.7-24.9-19-34-24.2c-26.3-14.7-60.6-25-91.2-25c-25.5,0-37.4,1-61.9,7.8c-7.1,2-14.6,4.9-21.2,7.7c-3.5,1.5-6.6,2.8-10,4.5
	c-7.5,3.8-11.6,6.1-18.8,10.5c-1.5,1-2.6,1.8-4.2,2.8c-1.6,1.1-2.9,1.9-4.5,3l-20,16.3c-1.3,1.3-2.4,2.5-3.8,3.6
	C155.3,294.4,138.9,312.7,138.1,315.6z"/>
<linearGradient id="SVGID_3_" gradientUnits="userSpaceOnUse" x1="96.2686" y1="496.8051" x2="491.9047" y2="496.8051">
	<stop  offset="0" style="stop-color:#27FFFF"/>
	<stop  offset="1" style="stop-color:#00AEC9"/>
</linearGradient>
<path class="st3" d="M299.3,471.1c-7.8,0-11.3-7.1-15.9-11.6c-2.3-2.3-7.6-9.1-9.9-10.8c-3.7-2.7-9.7-2.6-13.2-0.1l-1.6,1.3
	c0,0.1-0.1,0.1-0.2,0.2l-7.2,8.1c-5.1,6.1-10.8,13-20.1,13h-80.7v-28.6l-54.3,54.9l54.3,53.8v-30.2c0.1,0,0.1,0,0.2,0H209
	c4,0,7.5-2.3,9.3-4.7l13.6-14.4c4.9-4.9,5.2-5.2,11.7-5.2c4.1,0,6.3,2.9,8.4,5.2l11.5,12.8c0.8,0.9,0.8,1.2,1.7,2.1
	c2.3,2.3,6.3,4.2,9.8,4.2h200c1.6,0,1.9-2.4,3.2-5.1c1.9-3.9,5.7-14,7.1-18c1.3-4,2.6-8.6,3.8-12.7c0.7-2.7,2.9-11.6,2.9-14H299.3z"
	/>
<linearGradient id="SVGID_4_" gradientUnits="userSpaceOnUse" x1="209.7499" y1="161.7921" x2="328.8772" y2="719.4648">
	<stop  offset="0" style="stop-color:#10E9AA"/>
	<stop  offset="1" style="stop-color:#16DAD3"/>
</linearGradient>
<path class="st4" d="M151.7,569.6c0.4,1.6,1.7,2.4,2.8,3.4c1.2,1.2,2.1,2.1,3.3,3.3l9.9,9.1c6.6,6.1,18.9,14.6,26.3,19.1
	c5.5,3.4,10.9,6.1,16.9,9.1c51.9,26,120.3,26,172.1,0c17.4-8.7,26-14.3,40.9-26.3l15.2-14.1c1.1-1.1,2.5-1.9,3-3.6
	c-70.8,0-141.6,0-212.4,0c-13,0-13.6,0.1-19.7-6.7l-9.9-11.1c-2.8-2.9-3.6-5.5-9.5-6.6c-8.6-1.7-12.8,7.3-18.3,12.8
	C166.9,563.3,163.9,569.6,151.7,569.6z"/>
<linearGradient id="SVGID_5_" gradientUnits="userSpaceOnUse" x1="98.9146" y1="394.8672" x2="505.8306" y2="394.8672">
	<stop  offset="0" style="stop-color:#27FFFF"/>
	<stop  offset="1" style="stop-color:#00AEC9"/>
</linearGradient>
<path class="st5" d="M505.8,395.4l-54.3-54.9v28.7l-74.2-0.5c-3.6,0-7.1,0.1-10.2-0.6c-6.1-1.5-8.1-6-11.8-9.7
	c-6.8-6.7-9.7-14.5-18.9-14.5c-5.2,0-10.2,6.1-13.4,10.1c-2.4,3.1-8.8,10-11.8,11.7c-3.2,1.9-7.7,2.9-12.7,2.9
	c-62.8-0.3-126.5,0-189.3,0c-0.5,2-1.2,3.6-1.8,5.6c-3.8,12.8-6.3,23.3-7.7,36.8c-0.2,1.7-0.8,4.8-0.8,6.7h181.9
	c4.7,0,6.8-2.4,9.2-4.9l10.3-10.7c4.9-4.9,5.6-8.8,14.3-8.8c6,0,10.7,7.7,15,12.3c0.6,0.6,1,1,1.7,1.6c3.6,4.2,7.6,10.4,13.9,10.4
	l106.4-0.5v31.7L505.8,395.4z"/>
<path class="st1" d="M333.3,345.7l-7.6-2.4c-14.8-3.3-31-3.4-45.7,0.3c-2.9,0.8-5.8,1.7-8.6,2.6c-2.6,0.9-5.8,1.9-8.2,3.1
	c-3.6-5.6-7.4-10-11.2-15l-7.5-8.6c-1.5-2-2.6-3.1-4.9-4.8c-11.3-8.6-28.3-5-36.3,8.2c-8.1,13.4-9.4,32.9-9.4,49.9
	c0,3.6-0.3,9.3,0.1,12.7c0.5,3.7-0.1,8.8,0.4,12.8c0.3,1.9,0.3,3.8,0.3,6.3c0,5.9-1.7,6.5-5.2,14.6c-7.4,17.4-14.6,46.1-6,66.3
	c6.8,15.7,16.9,25.9,30.6,35.8c20.7,15,68,35.8,97.3,31.1c31-4.9,70.3-19.8,91.1-41.2c7.9-8,13.7-15,17.5-26.7
	c4-12.1,3.3-26,0.8-39.5c-2.3-12.5-6.3-23-10.9-33.4c-1.3-2.9,0.3-16.7,0.3-21l-0.6-43.2c-1-7.3-0.8-11.6-2.6-19.8
	c-2.5-11.2-7-24.5-18.6-26C371.1,317,334.2,345.7,333.3,345.7z"/>
<linearGradient id="SVGID_6_" gradientUnits="userSpaceOnUse" x1="750.9272" y1="433.404" x2="751.4272" y2="433.404">
	<stop  offset="0.459" style="stop-color:#10E9AA"/>
	<stop  offset="1" style="stop-color:#16DAD3"/>
</linearGradient>
<path class="st6" d="M338,359.2l-14-4c-13.7-2.9-28.5-2.9-42.1,0.3c-2.6,0.6-5.3,1.5-7.9,2.3c-2.4,0.8-5.4,1.6-7.5,2.6
	c-3.3-4.8-6.8-8.6-10.3-13.1l-6.9-7.5c-1.4-1.7-7.9-7.2-10.1-8.7c-10.4-7.4-20.4-8.8-27.8,2.6c-7.5,11.6-8.6,37.5-8.6,52.3
	c0,3.1-0.3,8.1,0.1,11.1c0.5,3.2-0.1,7.7,0.4,11.1c0.2,1.7,0.3,3.3,0.3,5.5c0.1,5.2-1.6,5.7-4.7,12.7c-6.8,15.1-13.5,40-5.6,57.6
	c6.3,13.6,15.6,22.5,28.1,31.1c19.1,13,62.5,31.1,89.5,27c28.5-4.3,64.7-17.3,83.8-35.8c7.2-7,12.6-13.1,16.1-23.2
	c3.7-10.6,3-22.6,0.7-34.4c-2-10.8-5.8-20-10-29c-1.3-2.6,0.3-14.6,0.3-18.3l-0.6-37.5c-1-6.3-0.8-10.2-2.4-17.2
	c-2.4-9.7-6.4-21.3-17.1-22.6C363.4,322,338.7,359.2,338,359.2z"/>
<path class="st1" d="M287.7,454.9c-2,8.5,7.7,12.6,15.4,13.4c-2.7,4.9-10.9,9.4-19.4,6.4c-3.2-1.1-5.9-3.6-7.6-5.9
	c-1.8-2.6-2.9-8-7.2-4c-1,4.2,3,8.5,4.9,10.3c1.5,1.5,2.2,2.3,4.2,3.5c1.8,1,4,1.5,5.4,2.6c0.1,28.7,24.9,36.8,36.4,20.3
	c4.2-6,4.4-11.4,5.4-19.6c3.1-2.2,6.1-0.5,13.1-7.9c1.2-1.3,4.7-4.9,2.3-7.2c-3-3.1-5.4,1.6-6.5,3c-8.6,9.7-20.8,7.7-28.8-1.4
	c8-0.8,16.7-4.3,15.7-13C317.3,442.4,291.8,442.8,287.7,454.9z"/>
<path class="st1" d="M242.6,418.3c1,2.2,4.5,5.9,5.8,7.7c-7,3.6-10.5,7.9-10.5,17.2c0,8.2,5.2,16.5,13,16.6
	c8.2,0.1,13.6-9.5,13.2-17.5l-0.6-5.4c4,0.6,6.7,0.8,7.7-3.1c-3.6-2.4-4.1,0.3-14.3-7.7c-2.2-1.7-4.1-3.5-6.2-5.1
	C249.2,419.8,245.2,416.8,242.6,418.3z"/>
<path class="st1" d="M343.1,433.7c0.8,3.1,1.9,3.5,5.5,3.5c-2.6,20.1,10.7,26.7,19.4,20.1c6.9-5.2,9.1-20,0.6-28.3
	c-1.3-1.2-1.9-1.4-3.3-2.4c1.7-2.8,4.6-4.9,6.3-8.1c-5.6-0.9-8.1,2.5-13.9,7.3c-3.9,3.2-7.2,5.8-12.2,7.2l-2,0.7
	C343.3,433.5,343.2,433.6,343.1,433.7z"/>
<path class="st1" d="M295.7,499.4c3.2,5.9,16.2,5.9,18-0.6c-2.9-1.3-4.4-3.3-9.2-3.2C301.6,495.7,297.3,497,295.7,499.4z"/>
<path class="st1" d="M304.9,450.4c0.1,1.3-0.5,1.5,3.4,2.8c1.5,0.5,5.1,1.3,5.6-0.2C314.7,451.2,307.5,448.8,304.9,450.4z"/>
<path class="st7" d="M296.7,501.4c3.2,5.9,16.1,5.9,17.9-0.6c-2.9-1.3-4.4-3.2-9.2-3.1C302.6,497.7,298.2,499,296.7,501.4z"/>
<path class="st1" d="M226.2,389c16.3-18.6,19.7-16.9,19.7-16.9c0.8-0.8-14.3-1.5-17.8-16.2c-0.1,0,2.6,9.3,0.5,19.4
	S218.7,397.7,226.2,389z"/>
<path class="st1" d="M379.5,355.1c-16.3,18.6-19.7,17-19.7,17c-0.8,0.8,14.3,1.5,17.8,16.1c0.1,0-2.6-9.3-0.5-19.4
	C379.2,358.8,387,346.5,379.5,355.1z"/>
<ellipse transform="matrix(0.9996 -2.878082e-02 2.878082e-02 0.9996 -12.6741 7.5128)" class="st7" cx="254.6" cy="444" rx="1.9" ry="5.2"/>
<ellipse transform="matrix(0.9996 -2.878082e-02 2.878082e-02 0.9996 -12.632 10.4387)" class="st7" cx="356.3" cy="444" rx="1.9" ry="5.2"/>
</svg>
