<?xml version="1.0" encoding="utf-8"?>
<!-- Generator: Adobe Illustrator 25.2.1, SVG Export Plug-In . SVG Version: 6.00 Build 0)  -->
<svg version="1.1" id="Layer_1" xmlns="http://www.w3.org/2000/svg" xmlns:xlink="http://www.w3.org/1999/xlink" x="0px" y="0px"
	 viewBox="0 0 1024 1024" style="enable-background:new 0 0 1024 1024;" xml:space="preserve">
<style type="text/css">
	.st0{fill:url(#SVGID_1_);}
	.st1{fill:#FFFFFF;}
</style>
<linearGradient id="SVGID_1_" gradientUnits="userSpaceOnUse" x1="0.1" y1="511.6" x2="1024.1" y2="511.6">
	<stop  offset="0" style="stop-color:#833AB4"/>
	<stop  offset="0.35" style="stop-color:#FD1D1D"/>
	<stop  offset="1" style="stop-color:#FCB045"/>
</linearGradient>
<rect x="0.1" y="-0.4" class="st0" width="1024" height="1024"/>
<g>
	<path class="st1" d="M221.1,453.8c6.1-11.8,14.3-20.8,24.7-27.1c10.4-6.3,22-9.5,34.9-9.5c11.2,0,21,2.3,29.5,6.8
		c8.4,4.5,15.2,10.2,20.2,17.1v-21.4h38.3V570h-38.3v-22c-4.9,7.1-11.6,12.9-20.2,17.5c-8.6,4.6-18.5,6.9-29.7,6.9
		c-12.7,0-24.2-3.3-34.6-9.8c-10.4-6.5-18.6-15.7-24.7-27.6c-6.1-11.9-9.1-25.5-9.1-40.9C212,479,215,465.5,221.1,453.8z M324.9,471
		c-3.6-6.6-8.5-11.7-14.7-15.2c-6.2-3.5-12.8-5.3-19.8-5.3c-7.1,0-13.6,1.7-19.5,5.2c-6,3.4-10.8,8.5-14.5,15.1
		c-3.7,6.6-5.6,14.4-5.6,23.5c0,9.1,1.9,17,5.6,23.8c3.7,6.8,8.6,12,14.7,15.6c6.1,3.6,12.5,5.4,19.4,5.4c7.1,0,13.7-1.8,19.8-5.3
		c6.2-3.5,11-8.6,14.7-15.2c3.6-6.6,5.4-14.5,5.4-23.8S328.6,477.6,324.9,471z"/>
	<path class="st1" d="M464.1,424c8.6-4.6,18.4-6.9,29.5-6.9c12.8,0,24.5,3.2,34.9,9.5c10.4,6.3,18.6,15.3,24.7,27
		c6.1,11.7,9.1,25.2,9.1,40.6c0,15.4-3,29-9.1,40.9c-6.1,11.9-14.3,21-24.7,27.6c-10.4,6.5-22,9.8-34.9,9.8c-11,0-20.8-2.3-29.2-6.8
		c-8.4-4.5-15.3-10.2-20.5-17.1v93.1h-38V419.6h38v21.7C448.7,434.4,455.5,428.7,464.1,424z M517.8,470.7
		c-3.7-6.6-8.6-11.6-14.7-15.1c-6.1-3.4-12.6-5.2-19.7-5.2c-6.9,0-13.3,1.8-19.4,5.3c-6.1,3.5-11,8.6-14.7,15.3
		c-3.7,6.7-5.6,14.6-5.6,23.6c0,9.1,1.9,16.9,5.6,23.6c3.7,6.7,8.6,11.8,14.7,15.3c6.1,3.5,12.5,5.3,19.4,5.3
		c7.1,0,13.6-1.8,19.7-5.4c6.1-3.6,10.9-8.8,14.7-15.5c3.7-6.7,5.6-14.7,5.6-23.9C523.4,485.2,521.5,477.3,517.8,470.7z"/>
	<path class="st1" d="M634.2,450.8v72.8c0,5.1,1.2,8.7,3.7,11c2.4,2.3,6.6,3.4,12.4,3.4h17.6v32h-23.9c-32,0-48.1-15.6-48.1-46.7
		v-72.5H578v-31.2h17.9v-37.2h38.3v37.2h33.7v31.2H634.2z"/>
	<path class="st1" d="M719.7,565.8c-9.8-4.4-17.5-10.5-23.2-18.1s-8.8-16-9.4-25.2h38.3c0.7,5.8,3.6,10.6,8.6,14.4
		c5,3.8,11.2,5.7,18.6,5.7c7.2,0,12.9-1.4,17-4.3c4.1-2.9,6.1-6.6,6.1-11.1c0-4.9-2.5-8.6-7.5-11c-5-2.4-12.9-5.1-23.8-8
		c-11.2-2.7-20.4-5.5-27.6-8.4c-7.2-2.9-13.3-7.3-18.5-13.3c-5.2-6-7.7-14-7.7-24.2c0-8.3,2.4-15.9,7.2-22.8
		c4.8-6.9,11.7-12.3,20.6-16.3c9-4,19.5-6,31.6-6c17.9,0,32.2,4.5,42.9,13.4c10.7,9,16.6,21,17.6,36.2h-36.4c-0.5-6-3-10.7-7.5-14.3
		c-4.4-3.5-10.4-5.3-17.8-5.3c-6.9,0-12.2,1.3-15.9,3.8c-3.7,2.5-5.6,6.1-5.6,10.6c0,5.1,2.5,8.9,7.6,11.5c5.1,2.6,12.9,5.3,23.6,8
		c10.9,2.7,19.8,5.5,26.9,8.4c7.1,2.9,13.2,7.4,18.3,13.4c5.2,6.1,7.8,14.1,8,24c0,8.7-2.4,16.5-7.2,23.3
		c-4.8,6.9-11.7,12.3-20.6,16.2c-9,3.9-19.4,5.8-31.4,5.8C740.5,572.4,729.5,570.2,719.7,565.8z"/>
</g>
</svg>
