<svg id="图层_1" data-name="图层 1" xmlns="http://www.w3.org/2000/svg" xmlns:xlink="http://www.w3.org/1999/xlink" viewBox="0 0 2190.32 2277.39"><defs><style>.cls-1,.cls-2,.cls-4{stroke-miterlimit:10;}.cls-1,.cls-4{stroke-width:10px;}.cls-1{fill:url(#未命名的渐变_20);stroke:url(#未命名的渐变_55);}.cls-2{fill:#fff;stroke-width:15px;stroke:url(#未命名的渐变_6);}.cls-3{fill:#13192b;}.cls-4{fill:none;stroke:url(#未命名的渐变_6-2);}</style><linearGradient id="未命名的渐变_20" x1="449.8" y1="17891.58" x2="1858.79" y2="16871.97" gradientTransform="matrix(1, 0, 0, -1, 5.01, 18522.25)" gradientUnits="userSpaceOnUse"><stop offset="0" stop-color="#527fa0"/><stop offset="0.15" stop-color="#4f7599"/><stop offset="0.4" stop-color="#485b85"/><stop offset="0.42" stop-color="#475883"/><stop offset="0.65" stop-color="#3f3c6e"/><stop offset="0.89" stop-color="#3d3368"/></linearGradient><linearGradient id="未命名的渐变_55" x1="1829.36" y1="16702" x2="445.26" y2="18086.09" gradientTransform="matrix(1, 0, 0, -1, 5.01, 18522.25)" gradientUnits="userSpaceOnUse"><stop offset="0" stop-color="#361854"/><stop offset="0.32" stop-color="#413f71" stop-opacity="0.3"/><stop offset="1" stop-color="#5dc0f7"/></linearGradient><linearGradient id="未命名的渐变_6" x1="1744.92" y1="1719.16" x2="539.72" y2="513.97" gradientUnits="userSpaceOnUse"><stop offset="0" stop-color="#361854"/><stop offset="0.32" stop-color="#413f71" stop-opacity="0.3"/><stop offset="0.43" stop-color="#fff" stop-opacity="0"/><stop offset="0.59" stop-color="#fff" stop-opacity="0"/><stop offset="1" stop-color="#5dc0f7"/></linearGradient><linearGradient id="未命名的渐变_6-2" x1="1741.91" y1="1724.94" x2="534.49" y2="517.52" xlink:href="#未命名的渐变_6"/></defs><path class="cls-1" d="M2087,1363.66c-130.1,521.7-658.5,839.3-1180.3,709.2s-839.1-658.5-709-1180.2,658.5-839.4,1180.1-709.3S2217,842,2087,1363.66Z"/><circle class="cls-2" cx="1142.32" cy="1116.56" r="844.7"/><path class="cls-3" d="M1983,1046.76h-18.4q-301.8,0-603.6.2c-23.9,0-42.9-7.7-58.3-26-16.6-19.8-34-38.9-51.3-58.2-25.6-28.5-55.1-28.8-81.8-1q-31.35,32.4-62.2,65.3c-11.8,12.6-25.5,19.6-43.2,19.6q-379.5-.15-758.8-.1h-12.3c4.1-28.8,6.4-56.6,12.1-83.6,7.8-37.1,18.7-73.5,27.5-110.4,3-12.4,9.1-16,22.1-16,263,.5,525.9.1,788.9.6,36.4.1,65.6-11.6,88.5-40.2,13.5-16.9,28.2-32.9,43-48.6,22.5-23.9,52-23.2,74.2,1.4,18.4,20.4,36.9,40.7,54.6,61.7,15.5,18.4,34.9,25.7,58.6,25.7,153.7-.3,307.4.1,461-.5,12.9,0,18,3.8,21.9,16C1965.32,914.66,1983.92,1006.76,1983,1046.76Z"/><path class="cls-3" d="M376.52,1493.66c-32.7-68.7-56.9-139.1-70.7-215.5h19.5c173.2,0,346.4-.3,519.6.3,34.7.1,62.5-11.4,84.5-38.1,14.1-17,28.9-33.5,44-49.8,22-23.9,52.9-23.7,74.8.4,18.5,20.3,36.9,40.7,54.5,61.7,15.4,18.3,34.5,26,58.4,26q395.25-.45,790.5-.2h18.7c.5,33.5-26.8,119.2-68.5,215.5h-16.9q-411.9,0-823.7.2c-24.9,0-44.7-9.3-60.9-27.2-18.5-20.4-36.3-41.1-54.7-61.5-24.1-26.7-53.2-27.5-78.4-2-20.8,21-41.6,42.1-61.6,63.8-17.4,18.9-37.5,27.3-63.8,27.1-116.2-1-232.4-.5-348.5-.5Z"/><path class="cls-3" d="M467.61,599.53c182.18-219.74,412.1-342.47,704.07-332.68,267.11,8.9,476.14,131.23,645.4,336.34-7.76.89-11.14,1.58-14.52,1.58q-73.24.15-146.48.1c-20,0-36.6-7.32-49.93-22.35-18.59-21.26-37.49-42.33-56.38-63.29-22.28-24.53-52.81-25.22-76-1.68-20.88,21.26-41.66,42.72-61.85,64.57-14.32,15.73-31.13,23-52.71,23q-437.06-.6-874.22-.2H469.69Z"/><path class="cls-3" d="M517.82,1702.66c39.3-1.1,64.4-19.6,85.3-46,11.1-14.1,23.6-27,35.6-40.4,23.7-26.4,53.8-26.4,77.9.2,17.8,19.6,35.5,39,52.4,59.3,15.8,18.9,35.2,26.7,59.7,26.7q454.5-.45,909.1-.2h17.3c.5,1.4,1.1,2.7,1.6,4.1-148,151.1-324,247-538,265.4C943.42,1995.66,712.82,1901.06,517.82,1702.66Z"/><path class="cls-4" d="M1961.62,1326.56c-113.4,454.8-574,731.5-1028.8,618.1s-731.4-574.1-618-1028.8,574-731.7,1028.7-618.2,731.4,574.1,618.1,1028.9Z"/></svg>