<svg id="图层_1" data-name="图层 1" xmlns="http://www.w3.org/2000/svg" xmlns:xlink="http://www.w3.org/1999/xlink" viewBox="0 0 2190.32 2277.39"><defs><style>.cls-1,.cls-2{stroke-miterlimit:10;stroke-width:10px;}.cls-1{fill:url(#未命名的渐变_18);stroke:url(#未命名的渐变_3);}.cls-2{fill:#141c23;stroke:url(#未命名的渐变_60);}.cls-3{fill:#fff;}</style><linearGradient id="未命名的渐变_18" x1="394.47" y1="17881.54" x2="1820.08" y2="16849.91" gradientTransform="matrix(1, 0, 0, -1, 5.01, 18522.25)" gradientUnits="userSpaceOnUse"><stop offset="0" stop-color="#527fa0"/><stop offset="0.15" stop-color="#4f7599"/><stop offset="0.4" stop-color="#485b85"/><stop offset="0.42" stop-color="#475883"/><stop offset="0.65" stop-color="#3f3c6e"/><stop offset="0.89" stop-color="#3d3368"/></linearGradient><linearGradient id="未命名的渐变_3" x1="1790.3" y1="16677.94" x2="389.99" y2="18078.25" gradientTransform="matrix(1, 0, 0, -1, 5.01, 18522.25)" gradientUnits="userSpaceOnUse"><stop offset="0" stop-color="#361854"/><stop offset="0.32" stop-color="#413f71" stop-opacity="0.3"/><stop offset="0.43" stop-color="#fff" stop-opacity="0"/><stop offset="0.59" stop-color="#fff" stop-opacity="0"/><stop offset="1" stop-color="#5dc0f7"/></linearGradient><linearGradient id="未命名的渐变_60" x1="1722.17" y1="1771.15" x2="468.1" y2="517.09" gradientUnits="userSpaceOnUse"><stop offset="0" stop-color="#361854"/><stop offset="0.32" stop-color="#413f71" stop-opacity="0.3"/><stop offset="0.43" stop-color="#fff" stop-opacity="0"/><stop offset="1" stop-color="#5dc0f7"/></linearGradient></defs><path class="cls-1" d="M2050.94,1382.4c-131.6,527.9-666.3,849.2-1194.2,717.5s-849-666.3-717.3-1194.1,666.2-849.3,1194-717.6,849.1,666.3,717.5,1194.2Z"/><path class="cls-2" d="M1095.14,2025c488.2,0,880.9-392.8,880.9-880.9s-392.8-880.9-880.9-880.9S214.24,656,214.24,1144.1,606.94,2025,1095.14,2025Z"/><path class="cls-3" d="M730.89,1386.32a35.83,35.83,0,0,1,25.3-10.47h872.4a17.8,17.8,0,0,1,17.84,17.84,18,18,0,0,1-5.19,12.64L1468.87,1578.7a35.79,35.79,0,0,1-25.3,10.47H571.17a17.8,17.8,0,0,1-17.84-17.84,18,18,0,0,1,5.19-12.64Z"/><path class="cls-3" d="M730.89,742.82a36.68,36.68,0,0,1,25.3-10.47h872.4a17.81,17.81,0,0,1,17.84,17.84,18.05,18.05,0,0,1-5.19,12.65L1468.87,935.21a35.83,35.83,0,0,1-25.3,10.47H571.17a17.81,17.81,0,0,1-17.84-17.84,18,18,0,0,1,5.19-12.65Z"/><path class="cls-3" d="M1468.87,1062.43a35.83,35.83,0,0,0-25.3-10.47H571.17a17.81,17.81,0,0,0-17.84,17.84,18,18,0,0,0,5.19,12.65l172.37,172.37a35.83,35.83,0,0,0,25.3,10.47h872.4a17.81,17.81,0,0,0,17.84-17.84,18.05,18.05,0,0,0-5.19-12.65Z"/></svg>