<svg id="图层_1" data-name="图层 1" xmlns="http://www.w3.org/2000/svg" xmlns:xlink="http://www.w3.org/1999/xlink" viewBox="0 0 2190.32 2277.39"><defs><style>.cls-1,.cls-2{stroke-miterlimit:10;stroke-width:10px;}.cls-1{fill:url(#未命名的渐变_18);stroke:url(#未命名的渐变_3);}.cls-2{fill:#141c23;stroke:url(#未命名的渐变_60);}.cls-3{fill:#fff;}</style><linearGradient id="未命名的渐变_18" x1="389.75" y1="13276.06" x2="1815.36" y2="12244.43" gradientTransform="matrix(1, 0, 0, -1, 5.01, 13927.46)" gradientUnits="userSpaceOnUse"><stop offset="0" stop-color="#527fa0"/><stop offset="0.15" stop-color="#4f7599"/><stop offset="0.4" stop-color="#485b85"/><stop offset="0.42" stop-color="#475883"/><stop offset="0.65" stop-color="#3f3c6e"/><stop offset="0.89" stop-color="#3d3368"/></linearGradient><linearGradient id="未命名的渐变_3" x1="1785.58" y1="12072.46" x2="385.26" y2="13472.78" gradientTransform="matrix(1, 0, 0, -1, 5.01, 13927.46)" gradientUnits="userSpaceOnUse"><stop offset="0" stop-color="#361854"/><stop offset="0.32" stop-color="#413f71" stop-opacity="0.3"/><stop offset="0.43" stop-color="#fff" stop-opacity="0"/><stop offset="0.59" stop-color="#fff" stop-opacity="0"/><stop offset="1" stop-color="#5dc0f7"/></linearGradient><linearGradient id="未命名的渐变_60" x1="1717.45" y1="1781.84" x2="463.38" y2="527.78" gradientUnits="userSpaceOnUse"><stop offset="0" stop-color="#361854"/><stop offset="0.32" stop-color="#413f71" stop-opacity="0.3"/><stop offset="0.43" stop-color="#fff" stop-opacity="0"/><stop offset="1" stop-color="#5dc0f7"/></linearGradient></defs><path class="cls-1" d="M2046.21,1393.09c-131.59,527.9-666.29,849.2-1194.2,717.5S3,1444.29,134.71,916.49s666.21-849.3,1194-717.6,849.1,666.3,717.5,1194.2Z"/><path class="cls-2" d="M1090.42,2035.69c488.2,0,880.9-392.8,880.9-880.9s-392.8-880.9-880.9-880.9-880.91,392.8-880.91,880.9S602.21,2035.69,1090.42,2035.69Z"/><path class="cls-3" d="M1290.46,1272.18c0-108.79-65.27-146.09-195.83-161.63-93.25-12.44-111.9-37.3-111.9-80.82s31.09-71.49,93.25-71.49c56,0,87,18.65,102.58,65.27a23.37,23.37,0,0,0,21.76,15.54h49.73c12.44,0,21.76-9.32,21.76-21.75v-3.11a155.3,155.3,0,0,0-139.88-127.45v-74.6c0-12.43-9.32-21.76-24.86-24.87h-46.63c-12.43,0-21.76,9.33-24.87,24.87v71.49C942.32,896.07,883.26,958.24,883.26,1036c0,102.58,62.17,143,192.72,158.53,87,15.54,115,34.19,115,83.92s-43.53,83.93-102.58,83.93c-80.82,0-108.8-34.2-118.13-80.82-3.1-12.43-12.42-18.65-21.75-18.65H895.69c-12.43,0-21.75,9.32-21.75,21.76v3.11c12.43,77.7,62.16,133.66,164.74,149.2v74.6c0,12.43,9.33,21.76,24.87,24.87h46.62c12.44,0,21.76-9.33,24.88-24.87v-74.6c93.25-15.54,155.41-80.82,155.41-164.75Z"/><path class="cls-3" d="M926.78,1598.56c-242.46-87-366.79-357.46-276.65-596.81,46.63-130.55,149.21-230,276.65-276.64,12.44-6.22,18.65-15.54,18.65-31.09V650.5c0-12.43-6.21-21.76-18.65-24.86-3.11,0-9.33,0-12.44,3.1C619.05,722,457.41,1036,550.66,1331.24c56,174.07,189.62,307.74,363.68,363.69,12.44,6.21,24.88,0,28-12.44,3.11-3.1,3.11-6.21,3.11-12.43v-43.52C945.43,1617.21,936.1,1604.79,926.78,1598.56Zm329.49-969.82c-12.43-6.21-24.87,0-28,12.44-3.11,3.11-3.11,6.21-3.11,12.43v43.52c0,12.44,9.32,24.86,18.65,31.09,242.45,87,366.79,357.46,276.64,596.81-46.62,130.55-149.2,230-276.64,276.65-12.44,6.21-18.65,15.53-18.65,31.08v43.52c0,12.43,6.21,21.76,18.65,24.86,3.11,0,9.32,0,12.43-3.1,295.3-93.25,456.94-407.21,363.69-702.5-56-177.18-192.73-310.85-363.69-366.8Z"/></svg>