<?xml version="1.0" encoding="UTF-8"?>
<!DOCTYPE svg PUBLIC "-//W3C//DTD SVG 1.1//EN" "http://www.w3.org/Graphics/SVG/1.1/DTD/svg11.dtd">
<svg xmlns="http://www.w3.org/2000/svg" version="1.1" width="100px" height="100px" style="shape-rendering:geometricPrecision; text-rendering:geometricPrecision; image-rendering:optimizeQuality; fill-rule:evenodd; clip-rule:evenodd" xmlns:xlink="http://www.w3.org/1999/xlink">
<g><path style="opacity:0.967" fill="#f0c481" d="M 39.5,-0.5 C 46.1667,-0.5 52.8333,-0.5 59.5,-0.5C 78.9626,4.29518 91.6292,16.2952 97.5,35.5C 95.6064,34.9524 93.9397,33.9524 92.5,32.5C 91.8319,34.9688 91.1653,37.3021 90.5,39.5C 90.6653,35.8183 90.4986,32.1516 90,28.5C 89.7679,27.2625 89.2679,26.2625 88.5,25.5C 88.1667,24.5 87.5,23.8333 86.5,23.5C 84.3121,17.2387 79.9787,14.9054 73.5,16.5C 73.6236,17.1067 73.9569,17.44 74.5,17.5C 77.8805,19.8797 80.5472,22.8797 82.5,26.5C 81.2073,27.6448 80.0407,27.3115 79,25.5C 78.5078,26.549 78.6744,27.549 79.5,28.5C 79.0431,29.2975 78.3764,29.6309 77.5,29.5C 77.0183,28.5837 76.685,27.5837 76.5,26.5C 77.4228,25.1637 77.9228,23.8304 78,22.5C 75.9838,23.9552 75.1505,25.9552 75.5,28.5C 75.1667,28.5 74.8333,28.5 74.5,28.5C 74.9844,25.2118 73.9844,22.5452 71.5,20.5C 65.2197,14.7927 57.7197,12.1261 49,12.5C 46.413,12.5552 43.913,12.8885 41.5,13.5C 41.2454,12.0639 40.9121,10.5639 40.5,9C 38.8876,8.27969 37.3876,8.44636 36,9.5C 33.5216,7.36056 31.0216,5.36056 28.5,3.5C 32.2477,2.14207 35.9143,0.808737 39.5,-0.5 Z"/></g>
<g><path style="opacity:0.937" fill="#f1be73" d="M 28.5,3.5 C 31.0216,5.36056 33.5216,7.36056 36,9.5C 37.3876,8.44636 38.8876,8.27969 40.5,9C 40.9121,10.5639 41.2454,12.0639 41.5,13.5C 35.6964,14.4018 30.6964,16.9018 26.5,21C 26.7284,21.3988 27.0618,21.5654 27.5,21.5C 27.1583,22.3382 26.4916,22.6716 25.5,22.5C 24.0597,23.3629 22.7264,23.3629 21.5,22.5C 20.438,24.0217 19.7713,25.6883 19.5,27.5C 18.1054,29.0544 17.4387,28.721 17.5,26.5C 18.0021,22.4738 20.0021,20.6405 23.5,21C 23.0426,20.586 22.7093,20.086 22.5,19.5C 26.5838,16.377 25.9171,15.2103 20.5,16C 18.1192,16.2233 16.4525,17.39 15.5,19.5C 14.8333,19.8333 14.1667,20.1667 13.5,20.5C 13.5654,20.0618 13.3988,19.7284 13,19.5C 12,20.8333 11,22.1667 10,23.5C 9.32924,22.7476 8.4959,22.4142 7.5,22.5C 12.2585,13.7439 19.2585,7.41059 28.5,3.5 Z"/></g>
<g><path style="opacity:1" fill="#b78e61" d="M 71.5,20.5 C 63.8687,15.8427 55.5353,13.8427 46.5,14.5C 41.5879,14.2503 37.2546,15.5837 33.5,18.5C 31.2163,18.9752 29.2163,19.9752 27.5,21.5C 27.0618,21.5654 26.7284,21.3988 26.5,21C 30.6964,16.9018 35.6964,14.4018 41.5,13.5C 43.913,12.8885 46.413,12.5552 49,12.5C 57.7197,12.1261 65.2197,14.7927 71.5,20.5 Z"/></g>
<g><path style="opacity:1" fill="#d34446" d="M 74.5,17.5 C 77.7553,17.4911 80.4219,19.1578 82.5,22.5C 83.6888,23.4287 85.0222,23.762 86.5,23.5C 87.5,23.8333 88.1667,24.5 88.5,25.5C 88.631,26.2389 88.4643,26.9056 88,27.5C 87.5831,26.244 86.7498,25.5774 85.5,25.5C 84.5084,25.3284 83.8417,25.6618 83.5,26.5C 83.1667,26.5 82.8333,26.5 82.5,26.5C 80.5472,22.8797 77.8805,19.8797 74.5,17.5 Z"/></g>
<g><path style="opacity:1" fill="#ea9b76" d="M 86.5,23.5 C 85.0222,23.762 83.6888,23.4287 82.5,22.5C 80.4219,19.1578 77.7553,17.4911 74.5,17.5C 73.9569,17.44 73.6236,17.1067 73.5,16.5C 79.9787,14.9054 84.3121,17.2387 86.5,23.5 Z"/></g>
<g><path style="opacity:1" fill="#f8c65e" d="M 46.5,14.5 C 56.7271,15.3029 65.5605,19.3029 73,26.5C 73.4643,27.0944 73.631,27.7611 73.5,28.5C 61.9348,17.5202 48.6015,14.8535 33.5,20.5C 32.537,20.0302 32.537,19.3635 33.5,18.5C 37.2546,15.5837 41.5879,14.2503 46.5,14.5 Z"/></g>
<g><path style="opacity:1" fill="#c2484a" d="M 19.5,27.5 C 19.5299,28.4972 19.0299,29.1639 18,29.5C 16.699,27.8446 15.199,26.5113 13.5,25.5C 12.2223,25.7822 11.2223,26.4489 10.5,27.5C 11.0115,24.9785 12.0115,22.6451 13.5,20.5C 14.1667,20.1667 14.8333,19.8333 15.5,19.5C 16.4525,17.39 18.1192,16.2233 20.5,16C 25.9171,15.2103 26.5838,16.377 22.5,19.5C 22.7093,20.086 23.0426,20.586 23.5,21C 20.0021,20.6405 18.0021,22.4738 17.5,26.5C 17.4387,28.721 18.1054,29.0544 19.5,27.5 Z"/></g>
<g><path style="opacity:1" fill="#fea47e" d="M 15.5,19.5 C 17.4944,18.6503 19.4944,18.1503 21.5,18C 19.0039,19.5541 16.8372,21.3874 15,23.5C 14.5,23.3333 14,23.1667 13.5,23C 14.8228,22.1841 15.4894,21.0174 15.5,19.5 Z"/></g>
<g><path style="opacity:1" fill="#e3a141" d="M 73.5,28.5 C 73.8333,28.5 74.1667,28.5 74.5,28.5C 74.8333,28.5 75.1667,28.5 75.5,28.5C 76.1495,30.4352 76.4828,32.4352 76.5,34.5C 74.1261,31.126 71.1261,28.4593 67.5,26.5C 64.6797,23.9193 61.3464,22.0859 57.5,21C 43.4444,17.7412 32.4444,21.9079 24.5,33.5C 23.8068,29.9137 24.1402,26.247 25.5,22.5C 26.4916,22.6716 27.1583,22.3382 27.5,21.5C 29.2163,19.9752 31.2163,18.9752 33.5,18.5C 32.537,19.3635 32.537,20.0302 33.5,20.5C 48.6015,14.8535 61.9348,17.5202 73.5,28.5 Z"/></g>
<g><path style="opacity:1" fill="#fae389" d="M 46.5,14.5 C 55.5353,13.8427 63.8687,15.8427 71.5,20.5C 73.9844,22.5452 74.9844,25.2118 74.5,28.5C 74.1667,28.5 73.8333,28.5 73.5,28.5C 73.631,27.7611 73.4643,27.0944 73,26.5C 65.5605,19.3029 56.7271,15.3029 46.5,14.5 Z"/></g>
<g><path style="opacity:1" fill="#5f6e89" d="M 67.5,26.5 C 68.9093,28.4169 70.576,30.2502 72.5,32C 72.0426,32.414 71.7093,32.914 71.5,33.5C 72.4465,35.059 73.1132,36.7257 73.5,38.5C 73.2528,39.7133 72.5862,40.38 71.5,40.5C 71.1788,38.9519 70.1788,38.2852 68.5,38.5C 67.596,37.791 67.2627,36.791 67.5,35.5C 64.7835,35.3215 62.1168,34.8215 59.5,34C 60.5634,32.8118 61.8967,32.3118 63.5,32.5C 63.5,31.5 63.5,30.5 63.5,29.5C 60.4121,29.6386 57.7454,30.6386 55.5,32.5C 52.031,31.3 48.6977,31.3 45.5,32.5C 44.1667,32.5 42.8333,32.5 41.5,32.5C 40.3579,30.0283 38.3579,29.0283 35.5,29.5C 35.5,30.5 35.5,31.5 35.5,32.5C 37.099,32.2322 38.4324,32.5655 39.5,33.5C 35.6855,35.2715 32.0188,36.9381 28.5,38.5C 28.4729,40.1993 27.8062,41.5326 26.5,42.5C 24.9731,42.573 23.9731,41.9063 23.5,40.5C 25.9587,32.1125 31.292,26.2791 39.5,23C 41.0657,22.235 42.3991,22.4017 43.5,23.5C 40.8662,24.6584 41.0329,25.6584 44,26.5C 45.0386,25.7562 45.5386,24.7562 45.5,23.5C 45.3893,22.8826 45.056,22.3826 44.5,22C 52.6787,21.0025 60.3454,22.5025 67.5,26.5 Z"/></g>
<g><path style="opacity:1" fill="#db7939" d="M 41.5,32.5 C 42.5042,34.6773 41.8375,35.0107 39.5,33.5C 38.4324,32.5655 37.099,32.2322 35.5,32.5C 35.5,31.5 35.5,30.5 35.5,29.5C 38.3579,29.0283 40.3579,30.0283 41.5,32.5 Z"/></g>
<g><path style="opacity:1" fill="#fb9268" d="M 20.5,32.5 C 16.3523,38.2311 13.6856,37.5645 12.5,30.5C 12.7284,28.7927 13.0617,27.126 13.5,25.5C 15.199,26.5113 16.699,27.8446 18,29.5C 19.0299,29.1639 19.5299,28.4972 19.5,27.5C 20.7899,26.9423 21.6232,25.9423 22,24.5C 22.0448,27.2196 21.5448,29.8862 20.5,32.5 Z"/></g>
<g><path style="opacity:0.955" fill="#f0c47e" d="M 97.5,35.5 C 98.1667,36.8333 98.8333,38.1667 99.5,39.5C 99.5,46.1667 99.5,52.8333 99.5,59.5C 98.2266,63.6509 96.5599,67.6509 94.5,71.5C 92.8333,70.1667 91.1667,68.8333 89.5,67.5C 90.4922,64.2214 90.6588,60.8881 90,57.5C 89.6174,56.944 89.1174,56.6107 88.5,56.5C 87.6167,51.8969 87.2834,47.2303 87.5,42.5C 88.7281,41.6935 89.7281,40.6935 90.5,39.5C 91.1653,37.3021 91.8319,34.9688 92.5,32.5C 93.9397,33.9524 95.6064,34.9524 97.5,35.5 Z"/></g>
<g><path style="opacity:1" fill="#faa878" d="M 55.5,32.5 C 56.492,36.5699 54.992,38.5699 51,38.5C 46.0379,38.8488 44.2046,36.8488 45.5,32.5C 48.6977,31.3 52.031,31.3 55.5,32.5 Z"/></g>
<g><path style="opacity:1" fill="#584c72" d="M 67.5,26.5 C 71.1261,28.4593 74.1261,31.126 76.5,34.5C 77.6414,36.5487 77.6414,38.5487 76.5,40.5C 75.5,40.8333 74.8333,41.5 74.5,42.5C 73.8333,42.1667 73.1667,41.8333 72.5,41.5C 71.8333,41.5 71.5,41.1667 71.5,40.5C 72.5862,40.38 73.2528,39.7133 73.5,38.5C 73.1132,36.7257 72.4465,35.059 71.5,33.5C 71.7093,32.914 72.0426,32.414 72.5,32C 70.576,30.2502 68.9093,28.4169 67.5,26.5 Z"/></g>
<g><path style="opacity:1" fill="#ed875f" d="M 82.5,26.5 C 82.8333,26.5 83.1667,26.5 83.5,26.5C 82.8535,28.1561 82.1869,29.8228 81.5,31.5C 82.1244,34.746 83.2911,35.0793 85,32.5C 85.4966,30.1902 85.6633,27.8568 85.5,25.5C 86.7498,25.5774 87.5831,26.244 88,27.5C 88.4643,26.9056 88.631,26.2389 88.5,25.5C 89.2679,26.2625 89.7679,27.2625 90,28.5C 90.4986,32.1516 90.6653,35.8183 90.5,39.5C 89.7281,40.6935 88.7281,41.6935 87.5,42.5C 89.3496,38.3546 89.8496,34.0213 89,29.5C 87.429,38.6414 83.929,39.6414 78.5,32.5C 78.4431,31.391 78.1098,30.391 77.5,29.5C 78.3764,29.6309 79.0431,29.2975 79.5,28.5C 78.6744,27.549 78.5078,26.549 79,25.5C 80.0407,27.3115 81.2073,27.6448 82.5,26.5 Z"/></g>
<g><path style="opacity:1" fill="#fbb586" d="M 85.5,25.5 C 85.6633,27.8568 85.4966,30.1902 85,32.5C 83.2911,35.0793 82.1244,34.746 81.5,31.5C 82.1869,29.8228 82.8535,28.1561 83.5,26.5C 83.8417,25.6618 84.5084,25.3284 85.5,25.5 Z"/></g>
<g><path style="opacity:1" fill="#c0393a" d="M 25.5,22.5 C 24.1402,26.247 23.8068,29.9137 24.5,33.5C 22.2869,35.5416 21.6202,37.875 22.5,40.5C 22.1667,40.5 21.8333,40.5 21.5,40.5C 18.5,41.5 16.5,43.5 15.5,46.5C 15.5,46.8333 15.5,47.1667 15.5,47.5C 14.7281,46.3065 13.7281,45.3065 12.5,44.5C 9.46484,39.0586 8.79817,33.392 10.5,27.5C 9.70796,33.0236 11.0413,37.857 14.5,42C 15.9961,42.5074 17.1627,42.0074 18,40.5C 18.7479,38.0913 19.9145,35.9246 21.5,34C 21.4301,33.2352 21.0967,32.7352 20.5,32.5C 21.5448,29.8862 22.0448,27.2196 22,24.5C 21.6232,25.9423 20.7899,26.9423 19.5,27.5C 19.7713,25.6883 20.438,24.0217 21.5,22.5C 22.7264,23.3629 24.0597,23.3629 25.5,22.5 Z"/></g>
<g><path style="opacity:1" fill="#c42f31" d="M 77.5,29.5 C 78.1098,30.391 78.4431,31.391 78.5,32.5C 79.0585,37.3187 81.2251,41.3187 85,44.5C 85.3826,43.944 85.8826,43.6107 86.5,43.5C 86.2178,44.7777 85.5511,45.7777 84.5,46.5C 83.5,48.1667 82.1667,49.5 80.5,50.5C 79.8333,50.5 79.1667,50.5 78.5,50.5C 76.0272,50.3957 75.3606,49.3957 76.5,47.5C 75.675,46.6143 74.675,46.281 73.5,46.5C 73.3713,44.7839 73.038,43.1172 72.5,41.5C 73.1667,41.8333 73.8333,42.1667 74.5,42.5C 76.1404,46.1849 78.807,47.5183 82.5,46.5C 83.521,45.9984 83.6877,45.3317 83,44.5C 81.4293,42.0771 79.2626,40.7438 76.5,40.5C 77.6414,38.5487 77.6414,36.5487 76.5,34.5C 76.4828,32.4352 76.1495,30.4352 75.5,28.5C 75.1505,25.9552 75.9838,23.9552 78,22.5C 77.9228,23.8304 77.4228,25.1637 76.5,26.5C 76.685,27.5837 77.0183,28.5837 77.5,29.5 Z"/></g>
<g><path style="opacity:1" fill="#f8543b" d="M 13.5,25.5 C 13.0617,27.126 12.7284,28.7927 12.5,30.5C 13.6856,37.5645 16.3523,38.2311 20.5,32.5C 21.0967,32.7352 21.4301,33.2352 21.5,34C 19.9145,35.9246 18.7479,38.0913 18,40.5C 17.1627,42.0074 15.9961,42.5074 14.5,42C 11.0413,37.857 9.70796,33.0236 10.5,27.5C 11.2223,26.4489 12.2223,25.7822 13.5,25.5 Z"/></g>
<g><path style="opacity:1" fill="#4b3c6b" d="M 67.5,26.5 C 60.3454,22.5025 52.6787,21.0025 44.5,22C 45.056,22.3826 45.3893,22.8826 45.5,23.5C 44.8333,23.5 44.1667,23.5 43.5,23.5C 42.3991,22.4017 41.0657,22.235 39.5,23C 31.292,26.2791 25.9587,32.1125 23.5,40.5C 23.1667,40.5 22.8333,40.5 22.5,40.5C 21.6202,37.875 22.2869,35.5416 24.5,33.5C 32.4444,21.9079 43.4444,17.7412 57.5,21C 61.3464,22.0859 64.6797,23.9193 67.5,26.5 Z"/></g>
<g><path style="opacity:1" fill="#e5c54b" d="M 43.5,23.5 C 44.1667,23.5 44.8333,23.5 45.5,23.5C 45.5386,24.7562 45.0386,25.7562 44,26.5C 41.0329,25.6584 40.8662,24.6584 43.5,23.5 Z"/></g>
<g><path style="opacity:1" fill="#e84a34" d="M 87.5,42.5 C 86.8333,42.5 86.5,42.8333 86.5,43.5C 85.8826,43.6107 85.3826,43.944 85,44.5C 81.2251,41.3187 79.0585,37.3187 78.5,32.5C 83.929,39.6414 87.429,38.6414 89,29.5C 89.8496,34.0213 89.3496,38.3546 87.5,42.5 Z"/></g>
<g><path style="opacity:0.971" fill="#f0af5c" d="M 13.5,20.5 C 12.0115,22.6451 11.0115,24.9785 10.5,27.5C 8.79817,33.392 9.46484,39.0586 12.5,44.5C 11.931,48.3293 12.5977,51.6627 14.5,54.5C 14.1788,56.0481 13.1788,56.7148 11.5,56.5C 11.5654,56.0618 11.3988,55.7284 11,55.5C 10.1482,56.5707 9.31491,57.5707 8.5,58.5C 4.90927,56.8777 1.90927,54.5443 -0.5,51.5C -0.5,47.5 -0.5,43.5 -0.5,39.5C 0.73077,36.3133 1.89744,32.98 3,29.5C 4.02594,26.7613 5.52594,24.428 7.5,22.5C 8.4959,22.4142 9.32924,22.7476 10,23.5C 11,22.1667 12,20.8333 13,19.5C 13.3988,19.7284 13.5654,20.0618 13.5,20.5 Z"/></g>
<g><path style="opacity:1" fill="#f2744d" d="M 68.5,38.5 C 68.9175,39.2216 69.5842,39.7216 70.5,40C 69.6667,40.8333 68.8333,41.6667 68,42.5C 67.5831,41.244 66.7498,40.5774 65.5,40.5C 64.2486,38.439 62.5819,38.1057 60.5,39.5C 59.1854,41.1986 59.1854,42.8653 60.5,44.5C 56.8105,43.285 52.9772,42.285 49,41.5C 45.9639,42.9828 42.7972,43.9828 39.5,44.5C 39.6602,42.8008 39.4935,41.1341 39,39.5C 36.2179,37.9889 34.3845,38.8223 33.5,42C 34.0717,44.0736 35.405,45.2402 37.5,45.5C 34.6946,46.3195 31.6946,46.8195 28.5,47C 27.944,47.3826 27.6107,47.8826 27.5,48.5C 27.1667,48.5 26.8333,48.5 26.5,48.5C 26.9349,46.2967 26.9349,44.2967 26.5,42.5C 27.8062,41.5326 28.4729,40.1993 28.5,38.5C 32.0188,36.9381 35.6855,35.2715 39.5,33.5C 41.8375,35.0107 42.5042,34.6773 41.5,32.5C 42.8333,32.5 44.1667,32.5 45.5,32.5C 44.2046,36.8488 46.0379,38.8488 51,38.5C 54.992,38.5699 56.492,36.5699 55.5,32.5C 57.7454,30.6386 60.4121,29.6386 63.5,29.5C 63.5,30.5 63.5,31.5 63.5,32.5C 61.8967,32.3118 60.5634,32.8118 59.5,34C 62.1168,34.8215 64.7835,35.3215 67.5,35.5C 67.2627,36.791 67.596,37.791 68.5,38.5 Z"/></g>
<g><path style="opacity:1" fill="#4f243c" d="M 39.5,44.5 C 38.8333,44.8333 38.1667,45.1667 37.5,45.5C 35.405,45.2402 34.0717,44.0736 33.5,42C 34.3845,38.8223 36.2179,37.9889 39,39.5C 39.4935,41.1341 39.6602,42.8008 39.5,44.5 Z"/></g>
<g><path style="opacity:1" fill="#582840" d="M 65.5,40.5 C 66.2436,43.9496 64.9103,45.6162 61.5,45.5C 60.8333,45.5 60.5,45.1667 60.5,44.5C 59.1854,42.8653 59.1854,41.1986 60.5,39.5C 62.5819,38.1057 64.2486,38.439 65.5,40.5 Z"/></g>
<g><path style="opacity:1" fill="#f26243" d="M 68.5,38.5 C 70.1788,38.2852 71.1788,38.9519 71.5,40.5C 71.5,41.1667 71.8333,41.5 72.5,41.5C 73.038,43.1172 73.3713,44.7839 73.5,46.5C 74.675,46.281 75.675,46.6143 76.5,47.5C 75.3606,49.3957 76.0272,50.3957 78.5,50.5C 78.2178,51.7777 77.5511,52.7777 76.5,53.5C 75.8333,53.8333 75.1667,54.1667 74.5,54.5C 76.0974,52.2436 75.4307,50.9103 72.5,50.5C 70.8525,48.6736 68.8525,47.3403 66.5,46.5C 65.8333,46.5 65.1667,46.5 64.5,46.5C 63.209,46.7373 62.209,46.404 61.5,45.5C 64.9103,45.6162 66.2436,43.9496 65.5,40.5C 66.7498,40.5774 67.5831,41.244 68,42.5C 68.8333,41.6667 69.6667,40.8333 70.5,40C 69.5842,39.7216 68.9175,39.2216 68.5,38.5 Z"/></g>
<g><path style="opacity:1" fill="#f54534" d="M 76.5,40.5 C 79.2626,40.7438 81.4293,42.0771 83,44.5C 83.6877,45.3317 83.521,45.9984 82.5,46.5C 78.807,47.5183 76.1404,46.1849 74.5,42.5C 74.8333,41.5 75.5,40.8333 76.5,40.5 Z"/></g>
<g><path style="opacity:1" fill="#fc7d5c" d="M 21.5,40.5 C 22.1606,45.1679 20.1606,47.1679 15.5,46.5C 16.5,43.5 18.5,41.5 21.5,40.5 Z"/></g>
<g><path style="opacity:1" fill="#b66951" d="M 87.5,42.5 C 87.2834,47.2303 87.6167,51.8969 88.5,56.5C 87.2794,55.9717 86.1127,55.305 85,54.5C 82.9189,55.3331 80.7522,55.3331 78.5,54.5C 79.1667,53.8333 79.8333,53.1667 80.5,52.5C 82.1439,52.2865 83.6439,52.6198 85,53.5C 85.7958,50.9615 85.6291,48.6282 84.5,46.5C 85.5511,45.7777 86.2178,44.7777 86.5,43.5C 86.5,42.8333 86.8333,42.5 87.5,42.5 Z"/></g>
<g><path style="opacity:1" fill="#894146" d="M 12.5,44.5 C 13.7281,45.3065 14.7281,46.3065 15.5,47.5C 16.5274,49.1942 17.8608,50.5275 19.5,51.5C 19.5,52.1667 19.5,52.8333 19.5,53.5C 17.7085,53.366 16.0418,53.6993 14.5,54.5C 12.5977,51.6627 11.931,48.3293 12.5,44.5 Z"/></g>
<g><path style="opacity:1" fill="#e14338" d="M 21.5,40.5 C 21.8333,40.5 22.1667,40.5 22.5,40.5C 22.8333,40.5 23.1667,40.5 23.5,40.5C 23.9731,41.9063 24.9731,42.573 26.5,42.5C 26.9349,44.2967 26.9349,46.2967 26.5,48.5C 24.6732,49.6912 23.0066,51.0245 21.5,52.5C 20.8333,52.1667 20.1667,51.8333 19.5,51.5C 17.8608,50.5275 16.5274,49.1942 15.5,47.5C 15.5,47.1667 15.5,46.8333 15.5,46.5C 20.1606,47.1679 22.1606,45.1679 21.5,40.5 Z"/></g>
<g><path style="opacity:1" fill="#d49548" d="M 84.5,46.5 C 85.6291,48.6282 85.7958,50.9615 85,53.5C 83.6439,52.6198 82.1439,52.2865 80.5,52.5C 80.5,51.8333 80.5,51.1667 80.5,50.5C 82.1667,49.5 83.5,48.1667 84.5,46.5 Z"/></g>
<g><path style="opacity:1" fill="#3a0d4a" d="M 19.5,51.5 C 20.1667,51.8333 20.8333,52.1667 21.5,52.5C 22.5,52.8333 23.1667,53.5 23.5,54.5C 22.0413,54.5674 20.7079,54.2341 19.5,53.5C 19.5,52.8333 19.5,52.1667 19.5,51.5 Z"/></g>
<g><path style="opacity:1" fill="#4b1841" d="M 78.5,50.5 C 79.1667,50.5 79.8333,50.5 80.5,50.5C 80.5,51.1667 80.5,51.8333 80.5,52.5C 79.8333,53.1667 79.1667,53.8333 78.5,54.5C 77.5084,54.6716 76.8417,54.3382 76.5,53.5C 77.5511,52.7777 78.2178,51.7777 78.5,50.5 Z"/></g>
<g><path style="opacity:1" fill="#e24d2d" d="M 19.5,53.5 C 20.7079,54.2341 22.0413,54.5674 23.5,54.5C 25.2503,55.6594 26.2503,57.326 26.5,59.5C 22.9472,60.9552 19.4472,60.6219 16,58.5C 15.7216,59.4158 15.2216,60.0825 14.5,60.5C 13.2921,61.2341 11.9587,61.5674 10.5,61.5C 10.366,59.7085 10.6993,58.0418 11.5,56.5C 13.1788,56.7148 14.1788,56.0481 14.5,54.5C 16.0418,53.6993 17.7085,53.366 19.5,53.5 Z"/></g>
<g><path style="opacity:1" fill="#db482b" d="M 76.5,53.5 C 76.8417,54.3382 77.5084,54.6716 78.5,54.5C 80.7522,55.3331 82.9189,55.3331 85,54.5C 86.1127,55.305 87.2794,55.9717 88.5,56.5C 88.5191,58.0603 88.8524,59.5603 89.5,61C 88.5227,62.497 87.5227,63.997 86.5,65.5C 86.685,66.5837 87.0183,67.5837 87.5,68.5C 87.44,69.0431 87.1067,69.3764 86.5,69.5C 85.9106,66.1631 84.9106,62.9965 83.5,60C 81.7184,59.8782 80.0518,60.3782 78.5,61.5C 76.6264,60.7148 74.6264,60.0482 72.5,59.5C 73.4408,57.9505 74.1075,56.2838 74.5,54.5C 75.1667,54.1667 75.8333,53.8333 76.5,53.5 Z"/></g>
<g><path style="opacity:0.896" fill="#f1ae55" d="M -0.5,51.5 C 1.90927,54.5443 4.90927,56.8777 8.5,58.5C 8.80907,62.2214 9.80907,65.7214 11.5,69C 11.8333,69.1667 12.1667,69.3333 12.5,69.5C 12.9385,66.7051 13.9385,64.3717 15.5,62.5C 15.5569,63.609 15.8902,64.609 16.5,65.5C 16.335,68.8499 16.5017,72.1832 17,75.5C 18.439,77.448 20.2723,78.7814 22.5,79.5C 24.8034,79.1237 25.1368,78.1237 23.5,76.5C 23.3284,75.5084 23.6618,74.8417 24.5,74.5C 25.2026,76.7157 26.5359,78.549 28.5,80C 33.3697,83.2724 38.7031,85.1057 44.5,85.5C 49.3555,86.452 54.3555,86.6187 59.5,86C 57.2115,86.8221 54.8782,87.4888 52.5,88C 56.9749,90.6499 60.9749,93.8166 64.5,97.5C 62.6943,98.0241 61.0276,98.6908 59.5,99.5C 52.8333,99.5 46.1667,99.5 39.5,99.5C 18.5,93.8333 5.16667,80.5 -0.5,59.5C -0.5,56.8333 -0.5,54.1667 -0.5,51.5 Z"/></g>
<g><path style="opacity:1" fill="#5a1335" d="M 72.5,59.5 C 74.6264,60.0482 76.6264,60.7148 78.5,61.5C 78.5,61.8333 78.5,62.1667 78.5,62.5C 78.1667,62.5 77.8333,62.5 77.5,62.5C 75.5,62.1667 73.5,61.8333 71.5,61.5C 71.3284,60.5084 71.6618,59.8417 72.5,59.5 Z"/></g>
<g><path style="opacity:1" fill="#f9a234" d="M 60.5,44.5 C 60.5,45.1667 60.8333,45.5 61.5,45.5C 62.209,46.404 63.209,46.7373 64.5,46.5C 59.4998,53.9786 52.4998,56.4786 43.5,54C 40.8936,53.2082 38.8936,51.7082 37.5,49.5C 32.8118,50.1072 32.4785,51.9406 36.5,55C 40.5002,56.5178 44.8335,58.0178 49.5,59.5C 55.6087,57.948 60.942,55.1146 65.5,51C 65.0426,50.586 64.7093,50.086 64.5,49.5C 65.6119,48.7348 66.2786,47.7348 66.5,46.5C 68.8525,47.3403 70.8525,48.6736 72.5,50.5C 68.8976,60.6531 61.5642,65.3198 50.5,64.5C 38.3742,65.2748 30.7076,59.9415 27.5,48.5C 27.6107,47.8826 27.944,47.3826 28.5,47C 31.6946,46.8195 34.6946,46.3195 37.5,45.5C 38.1667,45.1667 38.8333,44.8333 39.5,44.5C 42.7972,43.9828 45.9639,42.9828 49,41.5C 52.9772,42.285 56.8105,43.285 60.5,44.5 Z"/></g>
<g><path style="opacity:1" fill="#fbb636" d="M 64.5,46.5 C 65.1667,46.5 65.8333,46.5 66.5,46.5C 66.2786,47.7348 65.6119,48.7348 64.5,49.5C 64.7093,50.086 65.0426,50.586 65.5,51C 60.942,55.1146 55.6087,57.948 49.5,59.5C 44.8335,58.0178 40.5002,56.5178 36.5,55C 32.4785,51.9406 32.8118,50.1072 37.5,49.5C 38.8936,51.7082 40.8936,53.2082 43.5,54C 52.4998,56.4786 59.4998,53.9786 64.5,46.5 Z"/></g>
<g><path style="opacity:1" fill="#ae3d1d" d="M 37.5,49.5 C 38.3739,48.4749 39.5405,47.8082 41,47.5C 46.8196,50.1359 52.653,50.1359 58.5,47.5C 59.5,48 60.5,48.5 61.5,49C 57.3683,50.0448 53.2017,50.8782 49,51.5C 45.1912,50.6782 41.3579,50.0115 37.5,49.5 Z"/></g>
<g><path style="opacity:1" fill="#b83a2e" d="M 11.5,56.5 C 10.6993,58.0418 10.366,59.7085 10.5,61.5C 11.9587,61.5674 13.2921,61.2341 14.5,60.5C 14.8333,61.1667 15.1667,61.8333 15.5,62.5C 13.9385,64.3717 12.9385,66.7051 12.5,69.5C 12.1667,69.3333 11.8333,69.1667 11.5,69C 9.80907,65.7214 8.80907,62.2214 8.5,58.5C 9.31491,57.5707 10.1482,56.5707 11,55.5C 11.3988,55.7284 11.5654,56.0618 11.5,56.5 Z"/></g>
<g><path style="opacity:1" fill="#f06d22" d="M 26.5,48.5 C 26.8333,48.5 27.1667,48.5 27.5,48.5C 30.7076,59.9415 38.3742,65.2748 50.5,64.5C 61.5642,65.3198 68.8976,60.6531 72.5,50.5C 75.4307,50.9103 76.0974,52.2436 74.5,54.5C 74.1075,56.2838 73.4408,57.9505 72.5,59.5C 71.6618,59.8417 71.3284,60.5084 71.5,61.5C 70.1147,62.6138 68.6147,63.6138 67,64.5C 65.4931,63.4652 63.9931,63.6319 62.5,65C 63.4158,65.2784 64.0825,65.7784 64.5,66.5C 62.2986,67.5664 59.9653,68.233 57.5,68.5C 56.448,68.6495 55.448,68.4828 54.5,68C 56.1667,67.6667 57.8333,67.3333 59.5,67C 54.8092,66.3504 50.1425,66.5171 45.5,67.5C 40.6207,67.1992 36.2874,65.5325 32.5,62.5C 31.914,62.7093 31.414,63.0426 31,63.5C 29.9609,62.2899 28.7942,61.2899 27.5,60.5C 27.5,59.8333 27.1667,59.5 26.5,59.5C 26.2503,57.326 25.2503,55.6594 23.5,54.5C 23.1667,53.5 22.5,52.8333 21.5,52.5C 23.0066,51.0245 24.6732,49.6912 26.5,48.5 Z"/></g>
<g><path style="opacity:1" fill="#cf7954" d="M 88.5,56.5 C 89.1174,56.6107 89.6174,56.944 90,57.5C 90.6588,60.8881 90.4922,64.2214 89.5,67.5C 88.8333,67.8333 88.1667,68.1667 87.5,68.5C 87.0183,67.5837 86.685,66.5837 86.5,65.5C 87.5227,63.997 88.5227,62.497 89.5,61C 88.8524,59.5603 88.5191,58.0603 88.5,56.5 Z"/></g>
<g><path style="opacity:1" fill="#fc8354" d="M 23.5,62.5 C 25.337,62.6395 25.6704,63.3061 24.5,64.5C 22.9291,65.3094 21.2624,65.6427 19.5,65.5C 20.2623,63.7376 21.5956,62.7376 23.5,62.5 Z"/></g>
<g><path style="opacity:1" fill="#e54b26" d="M 71.5,61.5 C 73.5,61.8333 75.5,62.1667 77.5,62.5C 79.4099,63.684 79.7432,65.184 78.5,67C 76.1902,67.4966 73.8568,67.6633 71.5,67.5C 69.4176,67.528 67.5843,66.8613 66,65.5C 65.6174,66.056 65.1174,66.3893 64.5,66.5C 64.0825,65.7784 63.4158,65.2784 62.5,65C 63.9931,63.6319 65.4931,63.4652 67,64.5C 68.6147,63.6138 70.1147,62.6138 71.5,61.5 Z"/></g>
<g><path style="opacity:1" fill="#e45324" d="M 27.5,60.5 C 28.7942,61.2899 29.9609,62.2899 31,63.5C 31.414,63.0426 31.914,62.7093 32.5,62.5C 36.2874,65.5325 40.6207,67.1992 45.5,67.5C 50.1425,66.5171 54.8092,66.3504 59.5,67C 57.8333,67.3333 56.1667,67.6667 54.5,68C 55.448,68.4828 56.448,68.6495 57.5,68.5C 49.2612,70.1991 41.0946,69.5325 33,66.5C 31.4672,66.7728 29.9672,67.1062 28.5,67.5C 25.8127,67.6641 23.146,67.4974 20.5,67C 19.944,66.6174 19.6107,66.1174 19.5,65.5C 21.2624,65.6427 22.9291,65.3094 24.5,64.5C 25.6704,63.3061 25.337,62.6395 23.5,62.5C 24.8333,61.8333 26.1667,61.1667 27.5,60.5 Z"/></g>
<g><path style="opacity:1" fill="#8b3b45" d="M 26.5,59.5 C 27.1667,59.5 27.5,59.8333 27.5,60.5C 26.1667,61.1667 24.8333,61.8333 23.5,62.5C 21.5956,62.7376 20.2623,63.7376 19.5,65.5C 19.6107,66.1174 19.944,66.6174 20.5,67C 23.146,67.4974 25.8127,67.6641 28.5,67.5C 28.5569,68.609 28.8902,69.609 29.5,70.5C 27.712,70.2148 26.0453,70.5481 24.5,71.5C 26.6729,74.068 29.0062,76.4013 31.5,78.5C 28.7052,77.937 26.3718,76.6037 24.5,74.5C 23.6618,74.8417 23.3284,75.5084 23.5,76.5C 22.8826,76.3893 22.3826,76.056 22,75.5C 21.8138,72.9644 21.3138,70.631 20.5,68.5C 19.2719,67.6935 18.2719,66.6935 17.5,65.5C 17.1667,65.5 16.8333,65.5 16.5,65.5C 15.8902,64.609 15.5569,63.609 15.5,62.5C 15.1667,61.8333 14.8333,61.1667 14.5,60.5C 15.2216,60.0825 15.7216,59.4158 16,58.5C 19.4472,60.6219 22.9472,60.9552 26.5,59.5 Z"/></g>
<g><path style="opacity:1" fill="#fe7d3f" d="M 17.5,65.5 C 18.2719,66.6935 19.2719,67.6935 20.5,68.5C 20.8841,70.6648 20.2174,72.3315 18.5,73.5C 17.52,70.9135 17.1866,68.2469 17.5,65.5 Z"/></g>
<g><path style="opacity:1" fill="#351949" d="M 71.5,67.5 C 71.5,68.1667 71.5,68.8333 71.5,69.5C 57.6656,79.6337 43.6656,79.967 29.5,70.5C 28.8902,69.609 28.5569,68.609 28.5,67.5C 29.9672,67.1062 31.4672,66.7728 33,66.5C 41.0946,69.5325 49.2612,70.1991 57.5,68.5C 59.9653,68.233 62.2986,67.5664 64.5,66.5C 65.1174,66.3893 65.6174,66.056 66,65.5C 67.5843,66.8613 69.4176,67.528 71.5,67.5 Z"/></g>
<g><path style="opacity:1" fill="#b76a56" d="M 80.5,65.5 C 80.5,64.8333 80.8333,64.5 81.5,64.5C 84.0766,68.6519 83.91,72.9852 81,77.5C 80.3292,78.2524 79.4959,78.5858 78.5,78.5C 81.5028,74.4512 82.1695,70.1178 80.5,65.5 Z"/></g>
<g><path style="opacity:1" fill="#953b3d" d="M 77.5,62.5 C 77.8333,62.5 78.1667,62.5 78.5,62.5C 80.0269,62.427 81.0269,63.0937 81.5,64.5C 80.8333,64.5 80.5,64.8333 80.5,65.5C 79.8397,67.3437 78.8397,69.0104 77.5,70.5C 78.3616,73.1506 77.695,75.4839 75.5,77.5C 75.7373,76.209 75.404,75.209 74.5,74.5C 74.5,73.8333 74.1667,73.5 73.5,73.5C 73.6775,72.3052 74.0109,71.1385 74.5,70C 73.8235,68.3167 72.8235,68.1501 71.5,69.5C 71.5,68.8333 71.5,68.1667 71.5,67.5C 73.8568,67.6633 76.1902,67.4966 78.5,67C 79.7432,65.184 79.4099,63.684 77.5,62.5 Z"/></g>
<g><path style="opacity:1" fill="#d63c3c" d="M 16.5,65.5 C 16.8333,65.5 17.1667,65.5 17.5,65.5C 17.1866,68.2469 17.52,70.9135 18.5,73.5C 20.2174,72.3315 20.8841,70.6648 20.5,68.5C 21.3138,70.631 21.8138,72.9644 22,75.5C 22.3826,76.056 22.8826,76.3893 23.5,76.5C 25.1368,78.1237 24.8034,79.1237 22.5,79.5C 20.2723,78.7814 18.439,77.448 17,75.5C 16.5017,72.1832 16.335,68.8499 16.5,65.5 Z"/></g>
<g><path style="opacity:1" fill="#9f624c" d="M 24.5,74.5 C 26.3718,76.6037 28.7052,77.937 31.5,78.5C 34.0925,80.7148 37.0925,82.3814 40.5,83.5C 44.7828,84.4922 49.1161,84.8256 53.5,84.5C 50.7131,85.4767 47.7131,85.81 44.5,85.5C 38.7031,85.1057 33.3697,83.2724 28.5,80C 26.5359,78.549 25.2026,76.7157 24.5,74.5 Z"/></g>
<g><path style="opacity:1" fill="#d7933e" d="M 73.5,73.5 C 69.2357,77.4665 64.2357,80.1332 58.5,81.5C 57.5084,81.3284 56.8417,81.6618 56.5,82.5C 47.7654,83.3665 39.432,82.0332 31.5,78.5C 29.0062,76.4013 26.6729,74.068 24.5,71.5C 26.0453,70.5481 27.712,70.2148 29.5,70.5C 43.6656,79.967 57.6656,79.6337 71.5,69.5C 72.8235,68.1501 73.8235,68.3167 74.5,70C 74.0109,71.1385 73.6775,72.3052 73.5,73.5 Z"/></g>
<g><path style="opacity:1" fill="#c66e35" d="M 47.5,72.5 C 49.337,72.6395 49.6704,73.3061 48.5,74.5C 47.7025,74.0431 47.3691,73.3764 47.5,72.5 Z"/></g>
<g><path style="opacity:1" fill="#bb7137" d="M 59.5,71.5 C 61.337,71.6395 61.6704,72.3061 60.5,73.5C 59.7025,73.0431 59.3691,72.3764 59.5,71.5 Z"/></g>
<g><path style="opacity:1" fill="#ea5c3a" d="M 80.5,65.5 C 82.1695,70.1178 81.5028,74.4512 78.5,78.5C 77.2918,79.782 75.9584,79.782 74.5,78.5C 74.6236,77.8933 74.9569,77.56 75.5,77.5C 77.695,75.4839 78.3616,73.1506 77.5,70.5C 78.8397,69.0104 79.8397,67.3437 80.5,65.5 Z"/></g>
<g><path style="opacity:1" fill="#72314d" d="M 73.5,73.5 C 74.1667,73.5 74.5,73.8333 74.5,74.5C 70.9166,77.5669 66.9166,80.0669 62.5,82C 60.9343,82.765 59.6009,82.5983 58.5,81.5C 64.2357,80.1332 69.2357,77.4665 73.5,73.5 Z"/></g>
<g><path style="opacity:1" fill="#9a5743" d="M 74.5,74.5 C 72.6065,78.8843 69.2731,81.7176 64.5,83C 60.8865,83.9358 57.2198,84.4358 53.5,84.5C 55.246,83.9987 56.246,83.3321 56.5,82.5C 56.8417,81.6618 57.5084,81.3284 58.5,81.5C 59.6009,82.5983 60.9343,82.765 62.5,82C 66.9166,80.0669 70.9166,77.5669 74.5,74.5 Z"/></g>
<g><path style="opacity:0.938" fill="#efb669" d="M 87.5,68.5 C 88.1667,68.1667 88.8333,67.8333 89.5,67.5C 91.1667,68.8333 92.8333,70.1667 94.5,71.5C 88.5455,84.7848 78.5455,93.4515 64.5,97.5C 60.9749,93.8166 56.9749,90.6499 52.5,88C 54.8782,87.4888 57.2115,86.8221 59.5,86C 54.3555,86.6187 49.3555,86.452 44.5,85.5C 47.7131,85.81 50.7131,85.4767 53.5,84.5C 57.2198,84.4358 60.8865,83.9358 64.5,83C 69.2731,81.7176 72.6065,78.8843 74.5,74.5C 75.404,75.209 75.7373,76.209 75.5,77.5C 74.9569,77.56 74.6236,77.8933 74.5,78.5C 75.9584,79.782 77.2918,79.782 78.5,78.5C 79.4959,78.5858 80.3292,78.2524 81,77.5C 83.91,72.9852 84.0766,68.6519 81.5,64.5C 81.0269,63.0937 80.0269,62.427 78.5,62.5C 78.5,62.1667 78.5,61.8333 78.5,61.5C 80.0518,60.3782 81.7184,59.8782 83.5,60C 84.9106,62.9965 85.9106,66.1631 86.5,69.5C 87.1067,69.3764 87.44,69.0431 87.5,68.5 Z"/></g>
<g><path style="opacity:1" fill="#843d47" d="M 31.5,78.5 C 39.432,82.0332 47.7654,83.3665 56.5,82.5C 56.246,83.3321 55.246,83.9987 53.5,84.5C 49.1161,84.8256 44.7828,84.4922 40.5,83.5C 37.0925,82.3814 34.0925,80.7148 31.5,78.5 Z"/></g>
<g><path style="opacity:1" fill="#e95b6f" d="M 68.5,82.5 C 69.5,82.5 70.5,82.5 71.5,82.5C 70.7542,86.31 69.7542,86.31 68.5,82.5 Z"/></g>
<g><path style="opacity:1" fill="#d94c58" d="M 28.5,85.5 C 29.8333,85.5 31.1667,85.5 32.5,85.5C 32.5,86.5 32.5,87.5 32.5,88.5C 31.1667,88.5 29.8333,88.5 28.5,88.5C 28.5,87.5 28.5,86.5 28.5,85.5 Z"/></g>
<g><path style="opacity:1" fill="#da415d" d="M 35.5,86.5 C 39.31,87.7542 39.31,88.7542 35.5,89.5C 35.5,88.5 35.5,87.5 35.5,86.5 Z"/></g>
<g><path style="opacity:1" fill="#e34963" d="M 65.5,88.5 C 67.4646,88.9483 67.7979,89.9483 66.5,91.5C 65.6143,90.675 65.281,89.675 65.5,88.5 Z"/></g>
</svg>
