<?xml version="1.0" encoding="UTF-8"?>
<!DOCTYPE svg PUBLIC "-//W3C//DTD SVG 1.1//EN" "http://www.w3.org/Graphics/SVG/1.1/DTD/svg11.dtd">
<!-- Creator: CorelDRAW X7 -->
<svg xmlns="http://www.w3.org/2000/svg" xml:space="preserve" width="99px" height="100px" version="1.1" style="shape-rendering:geometricPrecision; text-rendering:geometricPrecision; image-rendering:optimizeQuality; fill-rule:evenodd; clip-rule:evenodd"
viewBox="0 0 99 100"
 xmlns:xlink="http://www.w3.org/1999/xlink">
 <defs>
  <style type="text/css">
   <![CDATA[
    .fil0 {fill:black}
    .fil1 {fill:#FF6A00}
   ]]>
  </style>
 </defs>
 <g id="Layer_x0020_1">
  <metadata id="CorelCorpID_0Corel-Layer"/>
  <path class="fil0" d="M20 13c1,0 1,0 1,0 0,0 0,0 -1,0z"/>
  <path class="fil0" d="M20 14c0,0 0,0 0,-1 0,1 0,1 0,1z"/>
  <path class="fil0" d="M19 15c0,0 0,-1 1,-1 -1,0 -1,1 -1,1z"/>
  <path class="fil0" d="M18 16c0,-1 0,-1 1,-1 -1,0 -1,0 -1,1z"/>
  <path class="fil0" d="M17 16c0,0 1,0 1,0 0,0 -1,0 -1,0z"/>
  <path class="fil0" d="M16 17c1,0 1,0 1,0 0,0 0,0 -1,0z"/>
  <path class="fil0" d="M16 18c0,0 0,0 0,-1 0,1 0,1 0,1z"/>
  <path class="fil0" d="M15 19c0,0 0,-1 1,-1 -1,0 -1,1 -1,1z"/>
  <path class="fil0" d="M14 20c0,0 1,-1 1,-1 0,0 -1,1 -1,1z"/>
  <path class="fil0" d="M14 21c0,-1 0,-1 0,-1 0,0 0,0 0,1z"/>
  <path class="fil0" d="M13 22c0,-1 0,-1 1,-1 -1,0 -1,0 -1,1z"/>
  <path class="fil0" d="M12 23c0,-1 1,-1 1,-1 0,0 -1,0 -1,1z"/>
  <path class="fil0" d="M12 23c0,0 0,0 0,0 0,0 0,0 0,0z"/>
  <path class="fil0" d="M11 24c0,0 0,0 1,0 -1,0 -1,0 -1,0z"/>
  <path class="fil0" d="M11 25c0,0 0,0 0,-1 0,1 0,1 0,1z"/>
  <path class="fil0" d="M10 26c0,0 0,0 0,-1 0,1 0,1 0,1z"/>
  <path class="fil0" d="M9 27c1,0 1,0 1,-1 0,1 0,1 -1,1z"/>
  <path class="fil0" d="M9 28c0,0 0,0 0,-1 0,1 0,1 0,1z"/>
  <path class="fil0" d="M8 29c1,0 1,0 1,-1 0,1 0,1 -1,1z"/>
  <path class="fil0" d="M6 62c0,0 0,-1 0,-1 0,0 0,1 0,1z"/>
  <path class="fil0" d="M7 63c0,0 0,0 -1,-1 1,1 1,1 1,1z"/>
  <path class="fil0" d="M7 64c0,0 0,0 0,-1 0,1 0,1 0,1z"/>
  <path class="fil0" d="M8 65c-1,0 -1,0 -1,-1 0,1 0,1 1,1z"/>
  <path class="fil0" d="M8 66c0,0 0,0 0,-1 0,1 0,1 0,1z"/>
  <path class="fil0" d="M8 67c0,0 0,0 0,-1 0,1 0,1 0,1z"/>
  <path class="fil0" d="M9 68c0,0 0,0 -1,-1 1,1 1,1 1,1z"/>
  <path class="fil0" d="M9 69c0,0 0,0 0,-1 0,1 0,1 0,1z"/>
  <path class="fil0" d="M10 70c0,0 0,0 -1,-1 1,1 1,1 1,1z"/>
  <path class="fil0" d="M10 71c0,0 0,0 0,-1 0,1 0,1 0,1 0,0 0,0 0,0z"/>
  <path class="fil0" d="M11 72c0,0 0,0 0,-1 0,1 0,1 0,1z"/>
  <path class="fil0" d="M12 73c-1,0 -1,0 -1,-1 0,1 0,1 1,1z"/>
  <path class="fil0" d="M12 74c0,0 0,0 0,-1 0,1 0,1 0,1z"/>
  <path class="fil0" d="M13 75c0,0 -1,0 -1,-1 0,1 1,1 1,1z"/>
  <path class="fil0" d="M14 76c-1,0 -1,-1 -1,-1 0,0 0,1 1,1z"/>
  <path class="fil0" d="M14 77c0,0 0,-1 0,-1 0,0 0,1 0,1z"/>
  <path class="fil0" d="M15 78c0,0 -1,-1 -1,-1 0,0 1,1 1,1z"/>
  <path class="fil0" d="M16 79c-1,-1 -1,-1 -1,-1 0,0 0,0 1,1z"/>
  <path class="fil0" d="M16 79c0,0 0,0 0,0 0,0 0,0 0,0z"/>
  <path class="fil0" d="M17 80c0,0 0,0 -1,0 1,0 1,0 1,0z"/>
  <path class="fil0" d="M18 81c0,0 -1,0 -1,-1 0,1 1,1 1,1z"/>
  <path class="fil0" d="M19 82c-1,0 -1,-1 -1,-1 0,0 0,1 1,1z"/>
  <path class="fil0" d="M19 83c0,-1 0,-1 0,-1 0,0 0,0 0,1z"/>
  <path class="fil0" d="M20 83c0,0 0,0 0,0 0,0 0,0 0,0z"/>
  <path class="fil0" d="M21 84c0,0 0,0 -1,-1 1,1 1,1 1,1z"/>
  <path class="fil0" d="M22 85c0,0 -1,-1 -1,-1 0,0 1,1 1,1z"/>
  <path class="fil0" d="M23 85c0,0 -1,0 -1,0 0,0 1,0 1,0z"/>
  <path class="fil0" d="M24 86c0,0 -1,0 -1,-1 0,1 1,1 1,1z"/>
  <path class="fil0" d="M25 87c-1,0 -1,-1 -1,-1 0,0 0,1 1,1z"/>
  <path class="fil0" d="M26 87c-1,0 -1,0 -1,0 0,0 0,0 1,0z"/>
  <path class="fil0" d="M27 88c-1,0 -1,0 -1,-1 0,1 0,1 1,1z"/>
  <path class="fil0" d="M28 88c-1,0 -1,0 -1,0 0,0 0,0 1,0z"/>
  <path class="fil0" d="M58 94c-3,0 -5,1 -7,1 -9,0 -17,-3 -23,-6 0,0 0,0 0,0l-2 1c-8,-4 -14,-11 -19,-20l-4 -1c-1,-3 -2,-6 -3,-9l4 0 2 0 0 0c0,0 0,0 0,0 -1,-4 -2,-8 -2,-12 0,-6 2,-13 4,-19 0,0 0,0 0,0l-1 -2c3,-6 8,-12 13,-16l2 1 0 0c8,-6 18,-10 29,-10 0,0 0,0 0,0l0 -2c0,0 0,0 0,0 10,0 20,3 28,9l5 0c1,1 2,2 4,3l-3 3c9,8 14,20 14,33 0,17 -8,31 -20,40l-1 4c-6,4 -13,7 -20,8l-1 -4 0 -2c0,0 0,0 1,0z"/>
  <path class="fil0" d="M59 94c-1,0 -1,0 -1,0 0,0 0,0 1,0z"/>
  <path class="fil0" d="M60 94c0,0 -1,0 -1,0 0,0 1,0 1,0z"/>
  <path class="fil0" d="M61 93c0,1 -1,1 -1,1 0,0 1,0 1,-1z"/>
  <path class="fil0" d="M62 93c0,0 -1,0 -1,0 0,0 1,0 1,0z"/>
  <path class="fil0" d="M63 93c0,0 0,0 -1,0 1,0 1,0 1,0z"/>
  <path class="fil0" d="M64 93c0,0 0,0 -1,0 1,0 1,0 1,0z"/>
  <path class="fil0" d="M65 92c0,0 0,0 -1,1 1,-1 1,-1 1,-1z"/>
  <path class="fil0" d="M67 92c-1,0 -1,0 -2,0 1,0 1,0 2,0z"/>
  <path class="fil0" d="M68 91c-1,1 -1,1 -1,1 0,0 0,0 1,-1z"/>
  <path class="fil0" d="M69 91c-1,0 -1,0 -1,0 0,0 0,0 1,0z"/>
  <path class="fil0" d="M70 91c-1,0 -1,0 -1,0 0,0 0,0 1,0z"/>
  <path class="fil0" d="M71 90c-1,0 -1,0 -1,1 0,-1 0,-1 1,-1z"/>
  <path class="fil0" d="M72 90c-1,0 -1,0 -1,0 0,0 0,0 1,0z"/>
  <path class="fil0" d="M73 89c-1,0 -1,0 -1,1 0,-1 0,-1 1,-1z"/>
  <path class="fil0" d="M74 89c-1,0 -1,0 -1,0 0,0 0,0 1,0z"/>
  <path class="fil0" d="M75 88c-1,0 -1,0 -1,0 0,0 0,0 1,0z"/>
  <path class="fil0" d="M76 87c-1,1 -1,1 -1,1 0,0 0,0 1,-1z"/>
  <path class="fil0" d="M76 87c0,0 0,0 0,0 0,0 0,0 0,0z"/>
  <path class="fil0" d="M77 86c0,0 0,1 -1,1 1,0 1,-1 1,-1z"/>
  <path class="fil0" d="M78 85c0,1 0,1 -1,1 1,0 1,0 1,-1z"/>
  <path class="fil0" d="M79 85c0,0 0,0 -1,0 1,0 1,0 1,0z"/>
  <path class="fil0" d="M80 84c0,0 -1,1 -1,1 0,0 0,0 0,0 0,0 1,-1 1,-1z"/>
  <path class="fil0" d="M81 83c0,1 -1,1 -1,1 0,0 1,0 1,-1z"/>
  <path class="fil0" d="M82 83c-1,0 -1,0 -1,0 0,0 0,0 1,0z"/>
  <path class="fil0" d="M82 82c0,0 0,0 0,1 0,-1 0,-1 0,-1z"/>
  <path class="fil0" d="M83 81c0,0 0,1 0,1 0,0 0,-1 0,-1z"/>
  <path class="fil0" d="M84 80c0,1 0,1 -1,1 1,0 1,0 1,-1z"/>
  <path class="fil0" d="M85 79c0,1 -1,1 -1,1 0,0 1,0 1,-1z"/>
  <path class="fil0" d="M85 79c0,0 0,0 0,0 0,0 0,0 0,0z"/>
  <path class="fil0" d="M86 78c0,0 0,0 0,1 0,-1 0,-1 0,-1z"/>
  <path class="fil0" d="M87 77c0,0 0,0 -1,1 1,-1 1,-1 1,-1z"/>
  <path class="fil0" d="M88 76c-1,0 -1,1 -1,1 0,0 0,-1 1,-1z"/>
  <path class="fil0" d="M88 75c0,1 0,1 0,1 0,0 0,0 0,-1z"/>
  <path class="fil0" d="M89 74c0,1 0,1 -1,1 1,0 1,0 1,-1z"/>
  <path class="fil0" d="M90 73c-1,1 -1,1 -1,1 0,0 0,0 1,-1z"/>
  <path class="fil0" d="M90 72c0,1 0,1 0,1 0,0 0,0 0,-1z"/>
  <path class="fil0" d="M91 71c-1,1 -1,1 -1,1 0,0 0,0 1,-1z"/>
  <path class="fil0" d="M91 70c0,1 0,1 0,1 0,0 0,0 0,-1z"/>
  <path class="fil0" d="M92 69c0,1 -1,1 -1,1 0,0 1,0 1,-1z"/>
  <path class="fil0" d="M92 69c0,0 0,0 0,0 0,0 0,0 0,0z"/>
  <path class="fil0" d="M93 68c0,0 -1,0 -1,0 0,0 1,0 1,0z"/>
  <path class="fil0" d="M93 66c0,1 0,1 0,1 0,0 0,0 0,-1z"/>
  <path class="fil0" d="M94 65c0,1 -1,1 -1,1 0,0 1,0 1,-1z"/>
  <path class="fil0" d="M94 64c0,1 0,1 0,1 0,0 0,0 0,-1z"/>
  <path class="fil0" d="M94 63c0,1 0,1 0,1 0,0 0,0 0,-1z"/>
  <path class="fil0" d="M95 62c0,1 0,1 -1,1 1,0 1,0 1,-1z"/>
  <path class="fil0" d="M95 61c0,0 0,1 0,1 0,0 0,-1 0,-1z"/>
  <path class="fil0" d="M95 60c0,0 0,1 0,1 0,0 0,-1 0,-1z"/>
  <path class="fil0" d="M96 59c0,0 -1,1 -1,1 0,0 1,-1 1,-1z"/>
  <path class="fil0" d="M96 58c0,0 0,0 0,1 0,-1 0,-1 0,-1z"/>
  <path class="fil0" d="M96 57c0,0 0,0 0,1 0,-1 0,-1 0,-1z"/>
  <path class="fil0" d="M96 56c0,0 0,0 0,1 0,-1 0,-1 0,-1z"/>
  <path class="fil0" d="M96 54c0,1 0,1 0,1 0,0 0,0 0,-1z"/>
  <path class="fil0" d="M97 53c0,0 0,1 -1,1 1,0 1,-1 1,-1z"/>
  <path class="fil0" d="M97 52c0,0 0,1 0,1 0,0 0,-1 0,-1z"/>
  <path class="fil0" d="M97 51c0,0 0,1 0,1 0,0 0,-1 0,-1z"/>
  <path class="fil0" d="M97 50c0,0 0,0 0,1 0,-1 0,-1 0,-1z"/>
  <path class="fil0" d="M97 47c0,1 0,1 0,1 0,1 0,1 0,1 0,0 0,0 0,-1 0,0 0,0 0,-1z"/>
  <path class="fil0" d="M97 46c0,0 0,1 0,1 0,0 0,-1 0,-1z"/>
  <path class="fil0" d="M97 45c0,0 0,1 0,1 0,0 0,-1 0,-1z"/>
  <path class="fil0" d="M97 44c0,0 0,0 0,1 0,-1 0,-1 0,-1z"/>
  <path class="fil0" d="M96 43c1,0 1,0 1,1 0,-1 0,-1 -1,-1z"/>
  <path class="fil0" d="M96 41c0,1 0,1 0,1 0,0 0,0 0,-1z"/>
  <path class="fil0" d="M96 40c0,1 0,1 0,1 0,0 0,0 0,-1z"/>
  <path class="fil0" d="M96 39c0,0 0,1 0,1 0,0 0,-1 0,-1z"/>
  <path class="fil0" d="M96 38c0,0 0,1 0,1 0,0 0,-1 0,-1z"/>
  <path class="fil0" d="M95 37c0,0 1,1 1,1 0,0 -1,-1 -1,-1z"/>
  <path class="fil0" d="M95 36c0,0 0,0 0,1 0,-1 0,-1 0,-1z"/>
  <path class="fil0" d="M95 35c0,0 0,0 0,1 0,-1 0,-1 0,-1z"/>
  <path class="fil0" d="M94 34c1,0 1,0 1,1 0,-1 0,-1 -1,-1z"/>
  <path class="fil0" d="M94 33c0,0 0,0 0,0 0,0 0,0 0,0z"/>
  <path class="fil0" d="M94 32c0,0 0,0 0,0 0,0 0,0 0,0z"/>
  <path class="fil0" d="M93 30c0,1 0,1 1,1 -1,0 -1,0 -1,-1z"/>
  <path class="fil0" d="M93 29c0,1 0,1 0,1 0,0 0,0 0,-1z"/>
  <path class="fil0" d="M92 28c0,1 1,1 1,1 0,0 -1,0 -1,-1z"/>
  <path class="fil0" d="M92 27c0,1 0,1 0,1 0,0 0,0 0,-1z"/>
  <path class="fil0" d="M91 26c0,1 1,1 1,1 0,0 -1,0 -1,-1z"/>
  <path class="fil0" d="M91 25c0,1 0,1 0,1 0,0 0,0 0,-1z"/>
  <path class="fil0" d="M90 24c0,1 1,1 1,1 0,0 -1,0 -1,-1z"/>
  <path class="fil0" d="M90 24c0,0 0,0 0,0 0,0 0,0 0,0z"/>
  <path class="fil0" d="M89 23c0,0 0,0 1,0 -1,0 -1,0 -1,0z"/>
  <path class="fil0" d="M88 22c1,0 1,0 1,1 0,-1 0,-1 -1,-1z"/>
  <path class="fil0" d="M88 21c0,0 0,0 0,1 0,-1 0,-1 0,-1z"/>
  <path class="fil0" d="M87 20c0,0 0,0 1,1 -1,-1 -1,-1 -1,-1z"/>
  <path class="fil0" d="M86 19c1,0 1,1 1,1 0,0 0,-1 -1,-1z"/>
  <path class="fil0" d="M86 18c0,0 0,1 0,1 0,0 0,-1 0,-1z"/>
  <path class="fil0" d="M85 17c0,1 0,1 1,1 -1,0 -1,0 -1,-1z"/>
  <path class="fil0" d="M84 16c0,1 1,1 1,1 0,0 -1,0 -1,-1z"/>
  <path class="fil0" d="M83 16c1,0 1,0 1,0 0,0 0,0 0,0 0,0 -1,0 -1,0z"/>
  <path class="fil0" d="M83 15c0,0 0,0 0,1 0,-1 0,-1 0,-1z"/>
  <path class="fil0" d="M82 14c0,0 0,1 0,1 0,0 0,-1 0,-1z"/>
  <path class="fil0" d="M81 13c0,1 0,1 1,1 -1,0 -1,0 -1,-1z"/>
  <path class="fil0" d="M80 13c0,0 1,0 1,0 0,0 -1,0 -1,0z"/>
  <path class="fil0" d="M79 12c0,0 1,0 1,1 0,-1 -1,-1 -1,-1z"/>
  <path class="fil0" d="M78 11c1,1 1,1 1,1 0,0 0,0 -1,-1z"/>
  <path class="fil0" d="M77 11c1,0 1,0 1,0 0,0 0,0 -1,0z"/>
  <path class="fil0" d="M76 10c1,0 1,0 1,1 0,-1 0,-1 -1,-1z"/>
  <path class="fil0" d="M76 9c0,1 0,1 0,1 0,0 0,0 0,0 0,0 0,0 0,-1z"/>
  <path class="fil0" d="M75 9c0,0 0,0 0,0 0,0 0,0 0,0z"/>
  <path class="fil0" d="M74 8c0,0 0,1 1,1 -1,0 -1,-1 -1,-1z"/>
  <path class="fil0" d="M73 8c0,0 0,0 1,0 -1,0 -1,0 -1,0z"/>
  <path class="fil0" d="M72 7c0,0 0,1 1,1 -1,0 -1,-1 -1,-1z"/>
  <path class="fil0" d="M71 7c0,0 0,0 1,0 -1,0 -1,0 -1,0z"/>
  <path class="fil0" d="M70 6c0,0 0,1 1,1 -1,0 -1,-1 -1,-1z"/>
  <path class="fil0" d="M69 6c0,0 0,0 1,0 -1,0 -1,0 -1,0z"/>
  <path class="fil0" d="M68 5c0,1 0,1 1,1 -1,0 -1,0 -1,-1z"/>
  <path class="fil0" d="M67 5c0,0 0,0 1,0 -1,0 -1,0 -1,0z"/>
  <path class="fil0" d="M65 5c1,0 1,0 1,0 0,0 0,0 -1,0z"/>
  <path class="fil0" d="M64 4c1,0 1,0 1,1 0,-1 0,-1 -1,-1z"/>
  <path class="fil0" d="M63 4c1,0 1,0 1,0 0,0 0,0 -1,0z"/>
  <path class="fil0" d="M62 4c1,0 1,0 1,0 0,0 0,0 -1,0z"/>
  <path class="fil0" d="M61 3c0,0 1,1 1,1 0,0 -1,-1 -1,-1z"/>
  <path class="fil0" d="M60 3c0,0 1,0 1,0 0,0 -1,0 -1,0z"/>
  <path class="fil0" d="M59 3c0,0 1,0 1,0 0,0 -1,0 -1,0z"/>
  <path class="fil0" d="M58 3c0,0 0,0 1,0 -1,0 -1,0 -1,0z"/>
  <path class="fil0" d="M57 3c0,0 0,0 1,0 -1,0 -1,0 -1,0z"/>
  <path class="fil0" d="M55 2c1,0 1,0 1,1 0,-1 0,-1 -1,-1z"/>
  <path class="fil0" d="M54 2c1,0 1,0 1,0 0,0 0,0 -1,0z"/>
  <path class="fil0" d="M53 2c0,0 1,0 1,0 0,0 -1,0 -1,0z"/>
  <path class="fil0" d="M52 2c0,0 1,0 1,0 0,0 -1,0 -1,0z"/>
  <path class="fil0" d="M51 2c0,0 0,0 1,0 -1,0 -1,0 -1,0z"/>
  <circle class="fil1" cx="51" cy="48" r="45"/>
  <circle class="fil0" cx="51" cy="48" r="44"/>
  <path class="fil1" d="M55 66l-3 0c-2,0 -4,0 -4,0 0,1 1,3 2,4 1,4 4,7 8,9 2,0 6,0 9,0 4,-1 7,-4 9,-7 1,-3 1,-6 1,-14 0,-8 0,-10 -2,-14 -1,-3 -5,-6 -9,-6 -2,-1 -6,0 -8,0 -5,2 -8,6 -10,11 -1,5 -3,7 -7,7 -2,0 -2,0 -3,-1 -2,-1 -3,-2 -4,-5 -1,-1 -1,-1 -1,-8 0,-7 0,-8 1,-9 1,-3 2,-4 4,-5 1,-1 1,-1 3,-1 1,0 2,0 3,1 2,1 4,3 4,5l1 0 3 0 3 0 0 -1c-1,-5 -4,-9 -9,-11 -1,0 -2,0 -5,0 -3,0 -4,0 -6,1 -5,1 -8,6 -8,12l-1 2 -2 0 -2 0 0 2 0 1 2 0 2 0 0 2 0 2 -2 0 -2 0 0 2 0 1 2 0 2 0 0 1c0,1 1,2 1,3 1,6 4,10 9,12 2,0 6,1 8,0 6,-1 10,-5 11,-11 1,-3 1,-4 3,-5 2,-2 5,-3 8,-1 2,0 3,2 4,4 0,2 0,2 0,9 0,6 0,8 0,9 -1,3 -3,5 -7,6 -3,0 -6,-2 -7,-6l-1 -1z"/>
 </g>
</svg>
