<?xml version="1.0" encoding="utf-8"?>
<!-- Generator: Adobe Illustrator 27.0.0, SVG Export Plug-In . SVG Version: 6.00 Build 0)  -->
<svg version="1.1" id="Layer_1" xmlns="http://www.w3.org/2000/svg" xmlns:xlink="http://www.w3.org/1999/xlink" x="0px" y="0px"
	 viewBox="0 0 500 500" style="enable-background:new 0 0 500 500;" xml:space="preserve">
<style type="text/css">
	.st0{fill:url(#SVGID_1_);}
	.st1{fill:url(#SVGID_00000020375107521937912260000011260913331620413079_);}
	.st2{fill:url(#SVGID_00000125560694830102820620000017722232723539514046_);}
	.st3{fill:url(#SVGID_00000163050913283567828420000005952301608392188838_);}
</style>
<linearGradient id="SVGID_1_" gradientUnits="userSpaceOnUse" x1="158.3344" y1="272.5282" x2="341.5303" y2="455.7092" gradientTransform="matrix(1 0 0 -1 0 502)">
	<stop  offset="0" style="stop-color:#0000FF"/>
	<stop  offset="0.6" style="stop-color:#8032FF"/>
	<stop  offset="1" style="stop-color:#D855FF"/>
</linearGradient>
<path class="st0" d="M417.6,151.1c-1.4-11.9-3.8-23.5-7.4-34.9c-0.9-2.7-1.9-3.5-4.7-3.5c-30.5,0.1-61,0-91.5,0.1
	c-4.6,0-8.3-1.5-11.3-5c-3.6-4.2-7.3-8.4-11-12.5c-4.2-4.6-10.3-4.7-14.6-0.2c-3.1,3.3-6.1,6.6-9,10.1c-4.4,5.4-9.9,7.6-16.8,7.6
	c-26-0.1-52,0-78,0s-53,0-79.5-0.1c-2.2,0-3.1,0.7-3.7,2.7c-3.8,11.8-6.2,23.9-7.7,36.1c-0.3,2.5,0.4,2.9,2.7,2.9
	c49.8-0.1,99.6-0.1,149.3,0c3.9,0,6.9-1.3,9.4-4.1c4.2-4.5,8.5-9,12.8-13.4c4.7-4.8,10.6-4.6,15.1,0.3c3.7,4.1,7.4,8.2,11,12.5
	c2.9,3.3,6.4,4.8,10.8,4.8c40.4,0,80.7-0.1,121.1,0C417.5,154.4,417.9,153.6,417.6,151.1L417.6,151.1z"/>
<linearGradient id="SVGID_00000107571531017443562150000000170700430505261219_" gradientUnits="userSpaceOnUse" x1="160.4089" y1="198.6759" x2="339.7593" y2="378.0263" gradientTransform="matrix(1 0 0 -1 0 502)">
	<stop  offset="0" style="stop-color:#0000FF"/>
	<stop  offset="0.6" style="stop-color:#8032FF"/>
	<stop  offset="1" style="stop-color:#D855FF"/>
</linearGradient>
<path style="fill:url(#SVGID_00000107571531017443562150000000170700430505261219_);" d="M255.2,199.7c-5.5,0-9.7-1.7-13.1-5.9
	c-3.1-3.8-6.5-7.4-9.8-11.1c-4.8-5.4-10.8-5.4-15.7,0c-2.8,3.1-5.6,6.2-8.3,9.4c-4.4,5.3-9.9,7.6-16.8,7.5
	c-34.7-0.1-69.4,0-104.1-0.1c-2.5,0-2.9,0.6-2.4,2.9c2.8,12.8,6.7,25.2,12.3,37.1c0.6,1.3,1,2.2,2.8,2.2c24.8-0.1,49.7,0,74.5-0.1
	c3.2,0,5.8-1.2,8-3.6c4.4-4.7,8.8-9.3,13.3-13.8c5-5,10.7-4.8,15.6,0.5c3.2,3.6,6.6,7.1,9.5,10.9c3.6,4.5,8,6.1,13.7,6.1
	c53.7-0.1,107.4-0.1,161,0.1c4.6,0,6.7-1.4,8.4-5.5c4.8-11.9,8.9-23.9,11.2-36.8h-3.9C359.5,199.7,307.4,199.6,255.2,199.7
	L255.2,199.7z"/>
<linearGradient id="SVGID_00000036931663618165318360000002196418784402052783_" gradientUnits="userSpaceOnUse" x1="181.9369" y1="367.8855" x2="317.9203" y2="503.8688" gradientTransform="matrix(1 0 0 -1 0 502)">
	<stop  offset="0" style="stop-color:#0000FF"/>
	<stop  offset="0.6" style="stop-color:#8032FF"/>
	<stop  offset="1" style="stop-color:#D855FF"/>
</linearGradient>
<path style="fill:url(#SVGID_00000036931663618165318360000002196418784402052783_);" d="M293.7,67.5c4.3,0,7.6-1.5,10.5-4.6
	c4-4.4,8.2-8.7,12.3-13c4.6-4.7,10.7-4.5,15.2,0.4c3.9,4.3,7.6,8.6,11.5,12.9c2.5,2.8,5.7,4.2,9.4,4.3c10.5,0,21,0,31.8,0
	C357.1,28.9,301.2-6.4,231.7,1c-23,2.4-44.7,9.5-64.8,21c-20.2,11.5-37.2,26.5-51.6,45.5C175.3,67.4,234.5,67.4,293.7,67.5
	L293.7,67.5z"/>
<linearGradient id="SVGID_00000148637817702046629080000007556627180435201930_" gradientUnits="userSpaceOnUse" x1="158.8756" y1="67.986" x2="341.2296" y2="250.325" gradientTransform="matrix(1 0 0 -1 0 502)">
	<stop  offset="0" style="stop-color:#0000FF"/>
	<stop  offset="0.6" style="stop-color:#8032FF"/>
	<stop  offset="1" style="stop-color:#D855FF"/>
</linearGradient>
<path style="fill:url(#SVGID_00000148637817702046629080000007556627180435201930_);" d="M311,283.3c-20.3,0-40.7,0-61,0
	c-20.3,0-40.7,0-61,0c-5.3,0-9.5-1.6-12.9-5.7c-3.3-4-6.8-7.9-10.4-11.8c-4.4-4.8-10.5-4.7-14.8,0.1c-2.5,2.8-5.1,5.5-7.5,8.5
	c-4.2,5.2-9.2,8.8-16.2,9c1.5,0,8.1,8.3,9.7,9.8c14.2,13.1,31.4,21.7,49,29.3c15.3,6.6,39.4,11.8,45.5,29.3c4.9,14,3,29.8-5.3,42.1
	c-7.3,10.8-17.6,19.2-24.2,30.5c-10.2,17.8-8.9,40.4,4,56.5c10.3,12.8,27.2,19.3,44.1,19.3c16.9,0,33.8-6.4,44.1-19.3
	c12.9-16.1,14.2-38.7,4-56.5c-6.5-11.3-16.9-19.7-24.2-30.5c-8.3-12.3-10.2-28-5.3-42.1c6.1-17.6,30.2-22.8,45.5-29.3
	c17.6-7.6,34.8-16.1,49-29.3c1.6-1.5,9.7-9.8,9.7-9.8C365.8,283.1,316.4,283.3,311,283.3L311,283.3z"/>
</svg>
