<?xml version="1.0" encoding="UTF-8"?><svg id="Layer_1" xmlns="http://www.w3.org/2000/svg" xmlns:xlink="http://www.w3.org/1999/xlink" viewBox="0 0 500 500"><defs><style>.cls-1{fill:url(#linear-gradient);}.cls-2{fill:url(#linear-gradient-3);}.cls-3{fill:url(#linear-gradient-4);}.cls-4{fill:url(#linear-gradient-2);}</style><linearGradient id="linear-gradient" x1="188.61" y1="236.24" x2="311.3" y2="113.56" gradientUnits="userSpaceOnUse"><stop offset="0" stop-color="blue"/><stop offset=".6" stop-color="#8032ff"/><stop offset="1" stop-color="#d855ff"/></linearGradient><linearGradient id="linear-gradient-2" x1="189.98" y1="285.71" x2="310.11" y2="165.58" xlink:href="#linear-gradient"/><linearGradient id="linear-gradient-3" x1="204.4" y1="172.39" x2="295.48" y2="81.31" xlink:href="#linear-gradient"/><linearGradient id="linear-gradient-4" x1="188.95" y1="373.25" x2="311.09" y2="251.12" xlink:href="#linear-gradient"/></defs><path class="cls-1" d="M362.25,183.75c-.95-7.95-2.53-15.75-4.94-23.39-.57-1.8-1.27-2.35-3.14-2.34-20.43,.07-40.85,.03-61.28,.06-3.07,0-5.58-.98-7.59-3.35-2.41-2.83-4.9-5.6-7.39-8.35-2.82-3.11-6.87-3.18-9.76-.12-2.07,2.19-4.1,4.43-6.01,6.77-2.93,3.59-6.66,5.08-11.24,5.06-17.41-.06-34.82-.02-52.23-.02s-35.52,.02-53.28-.04c-1.47,0-2.06,.45-2.5,1.8-2.53,7.9-4.18,15.98-5.16,24.21-.2,1.65,.27,1.94,1.83,1.94,33.34-.05,66.69-.05,100.03-.01,2.58,0,4.59-.88,6.32-2.74,2.82-3.03,5.67-6.03,8.57-8.99,3.13-3.19,7.13-3.1,10.13,.19,2.5,2.75,4.97,5.52,7.4,8.34,1.92,2.23,4.28,3.2,7.21,3.19,27.03-.03,54.05-.04,81.08,.03,1.91,0,2.14-.59,1.94-2.24Z"/><path class="cls-4" d="M253.5,216.32c-3.67,0-6.5-1.13-8.8-3.97-2.08-2.56-4.34-4.97-6.54-7.42-3.22-3.6-7.26-3.59-10.51,.02-1.88,2.09-3.77,4.16-5.55,6.32-2.93,3.56-6.64,5.06-11.25,5.05-23.24-.08-46.49-.01-69.73-.08-1.7,0-1.94,.4-1.6,1.97,1.85,8.59,4.51,16.9,8.24,24.86,.4,.85,.69,1.48,1.89,1.48,16.64-.05,33.29-.03,49.93-.04,2.14,0,3.91-.82,5.39-2.4,2.93-3.12,5.91-6.2,8.92-9.24,3.35-3.38,7.2-3.24,10.42,.33,2.16,2.4,4.39,4.74,6.39,7.27,2.39,3.01,5.37,4.11,9.17,4.1,35.96-.07,71.91-.09,107.86,.05,3.1,.01,4.51-.91,5.63-3.69,3.2-7.94,5.94-15.98,7.47-24.63h-2.61c-34.9,0-69.8-.03-104.7,.04Z"/><path class="cls-2" d="M279.26,127.76c2.9,0,5.11-1.01,7.03-3.11,2.69-2.95,5.47-5.83,8.26-8.69,3.08-3.15,7.18-3.03,10.15,.26,2.58,2.86,5.12,5.76,7.68,8.65,1.68,1.89,3.8,2.84,6.31,2.85,7.02,.02,14.04,0,21.31,0-18.29-25.82-55.74-49.45-102.29-44.51-15.43,1.64-29.93,6.35-43.43,14.06-13.51,7.71-24.93,17.75-34.53,30.45,40.19,0,79.85-.02,119.51,.03Z"/><path class="cls-3" d="M290.86,272.28c-13.61-.02-27.23,0-40.84-.01-13.61,0-27.23,0-40.84,.01-3.57,0-6.37-1.04-8.65-3.83-2.21-2.71-4.58-5.31-6.95-7.89-2.93-3.19-7.03-3.15-9.92,.05-1.7,1.87-3.44,3.71-5.01,5.68-2.78,3.5-6.13,5.9-10.86,6,.98-.02,5.4,5.56,6.47,6.55,9.5,8.79,21.06,14.53,32.84,19.61,10.24,4.41,26.4,7.88,30.48,19.65,3.26,9.41,2.03,19.94-3.54,28.17-4.88,7.21-11.82,12.84-16.18,20.43-6.84,11.93-5.98,27.06,2.65,37.84,6.87,8.59,18.19,12.9,29.52,12.9,11.32,0,22.65-4.3,29.52-12.9,8.63-10.78,9.49-25.91,2.65-37.84-4.36-7.6-11.3-13.22-16.18-20.43-5.57-8.24-6.8-18.77-3.54-28.17,4.08-11.77,20.24-15.24,30.48-19.65,11.78-5.08,23.34-10.81,32.84-19.61,1.07-.99,6.47-6.55,6.47-6.55-4.74-.1-37.83,0-41.4,0Z"/></svg>