<svg width="101" height="101" viewBox="0 0 101 101" fill="none" xmlns="http://www.w3.org/2000/svg">
<rect y="1" width="100" height="100" fill="#C89514"/>
<g opacity="0.78">
<path d="M76.4098 8.12959C77.3613 8.70356 78.2978 9.32284 79.204 9.95723C79.4306 10.0176 79.642 10.0932 79.8535 10.1536L83.4481 13.3104C84.4148 14.1714 85.3663 15.0625 86.2725 16.0141L88.2813 18.2043L87.949 19.8355L87.8735 20.1981L87.798 20.5606L87.4657 22.2372L87.4204 22.4486L86.8163 25.4393L86.484 27.0706L86.1819 28.5508L85.321 32.8254V38.0969L82.8289 43.9574L80.6539 49.0476L81.0164 60.2098L80.6539 71.3418C80.6539 71.3418 80.1102 75.9202 76.4098 80.3156C72.3469 85.1339 65.6258 85.9478 63.8284 85.9478C63.179 85.9478 62.3181 85.9478 61.3816 85.9176H61.3061C61.2759 85.9176 61.2608 85.9176 61.2306 85.9176C59.101 85.8723 56.4881 85.7514 54.4642 85.5098C52.6819 85.2983 51.3528 84.9811 51.1565 84.528C50.8997 83.8936 49.5857 84.9962 47.6826 85.8421C46.3837 86.4311 44.7978 86.8994 43.076 86.6124C43.0458 86.6124 43.0156 86.5973 42.9854 86.5973C42.9552 86.5973 42.9401 86.5822 42.9098 86.5822C42.3208 86.4765 41.7167 86.265 41.1125 85.9478C43.076 86.6124 31.7029 83.7175 31.7029 83.7175C31.7029 83.7175 21.2512 78.6372 20.4356 71.3418C19.62 64.0463 19.62 50.2559 19.62 50.2559L19.3028 49.3346L15.9649 39.5016L15.5722 35.5593L14.7113 26.98L14.5602 25.394L14.3941 23.7778L14.1373 21.2403L14.0769 20.6059L13.9863 19.7298L18.3966 16.6787L23.3355 12.4646L26.4317 10.6218L28.4707 9.08117C29.6639 10.1989 30.8118 11.9057 31.7029 12.7516C32.9716 13.9448 33.8174 14.7453 33.8174 14.7453L34.0591 15.0172L36.1736 17.3735L37.2762 18.597L41.1125 22.8715H60.989L64.4326 19.5033L65.6107 18.3553L67.8913 16.1199L70.1267 13.9297L71.8334 12.2531L73.8271 10.2895L74.7937 9.33795L74.9901 9.14159L75.2166 8.93013L75.3073 8.8395L76.1833 7.97855L76.4098 8.12959Z" fill="black"/>
</g>
<path d="M41.9583 85.0717C41.9583 85.0717 49.2383 98.2126 61.6233 85.7061C61.6233 85.691 55.5667 82.1415 41.9583 85.0717Z" fill="#E0E2D5"/>
<path d="M61.6384 85.6457C61.6384 85.6457 61.578 85.6004 61.4572 85.5551C61.0343 85.3436 59.8713 84.8452 57.9229 84.4373C56.3672 84.105 54.298 83.8483 51.7002 83.8634H51.6851C51.6398 83.8634 51.5945 83.8634 51.5491 83.8634C51.5038 83.8634 51.4434 83.8634 51.3981 83.8634C48.7852 83.9087 45.6436 84.2108 41.9734 85.0113L41.8979 85.0264L41.9281 85.0868C41.9281 85.1019 42.1244 85.4342 42.4869 85.9327C42.6229 86.129 42.8041 86.3556 43.0005 86.6124C43.3327 87.0353 43.7556 87.5035 44.239 87.9718C45.0395 88.7572 46.0514 89.5578 47.2446 90.1468C48.1055 90.5849 49.057 90.9021 50.1143 91.0531C50.5221 91.1135 50.9299 91.1437 51.3377 91.1437C52.8632 91.1437 54.4339 90.751 56.0198 89.9807C57.8021 89.1197 59.6145 87.7754 61.4572 85.9478C61.5327 85.8723 61.6082 85.8119 61.6686 85.7363L61.7139 85.691L61.6384 85.6457ZM55.6724 90.026C53.7694 90.902 51.9116 91.2192 50.0992 90.9625C49.1477 90.8265 48.2867 90.5546 47.5014 90.177C46.2477 89.588 45.1905 88.7723 44.3447 87.9567C43.8765 87.5036 43.4687 87.0504 43.1364 86.6426C42.94 86.4009 42.7739 86.1744 42.6229 85.9629C42.3208 85.54 42.1244 85.2228 42.0489 85.1019C45.6738 84.3316 48.7701 84.0144 51.3679 83.9691C51.4283 83.9691 51.4736 83.9691 51.534 83.9691C51.5793 83.9691 51.6247 83.9691 51.6851 83.9691C51.7304 83.9691 51.7606 83.9691 51.8059 83.9691C54.2678 83.954 56.2464 84.1957 57.7568 84.4978C59.6145 84.8754 60.7775 85.3436 61.291 85.5853C61.4118 85.6457 61.5025 85.691 61.5478 85.7061C61.4723 85.7816 61.3816 85.8723 61.3061 85.9478C59.388 87.8207 57.5151 89.1801 55.6724 90.026Z" fill="black"/>
<path d="M49.0721 61.2369C49.0721 61.2369 37.7142 69.1516 39.1339 75.8429C40.5537 82.5342 40.9615 85.978 42.789 85.978C44.6166 85.978 49.2836 86.3858 51.2018 84.5582L52.108 80.7065C52.108 80.7065 47.2446 86.416 61.4421 85.5702C61.4421 85.5702 68.284 77.8669 61.4421 69.1969C54.6001 60.527 53.135 55.3612 53.135 55.3612L53.7392 48.4736C53.7392 48.4736 56.0501 47.4616 51.7455 41.586L51.2018 28.2034L49.0721 43.61L46.0363 49.8934C46.0363 49.8783 52.9538 58.0649 49.0721 61.2369Z" fill="#F4F4F5"/>
<path d="M51.2622 80.7519C56.1587 80.7519 60.1281 77.8575 60.1281 74.2872C60.1281 70.7168 56.1587 67.8224 51.2622 67.8224C46.3657 67.8224 42.3963 70.7168 42.3963 74.2872C42.3963 77.8575 46.3657 80.7519 51.2622 80.7519Z" fill="#262626"/>
<path d="M51.2622 82.5191C53.3309 82.5191 55.0079 80.842 55.0079 78.7732C55.0079 76.7044 53.3309 75.0273 51.2622 75.0273C49.1935 75.0273 47.5165 76.7044 47.5165 78.7732C47.5165 80.842 49.1935 82.5191 51.2622 82.5191Z" fill="#1E1E1D"/>
<path d="M45.0244 70.8131C44.8884 70.934 44.7676 71.0548 44.6468 71.1907C44.5561 71.2965 44.4051 71.4324 44.39 71.5683C44.3296 71.8553 44.6921 71.9007 44.9035 71.8704C45.1452 71.8402 45.3868 71.7043 45.5228 71.4928C45.6436 71.3116 45.704 71.0246 45.553 70.8433C45.1905 70.4204 44.4957 71.2058 44.9488 71.5079C45.115 71.6137 45.3868 71.5835 45.4624 71.372C45.553 71.1303 45.2207 71.0397 45.0395 71.1152C44.7676 71.2361 44.7827 71.5835 44.9639 71.7798C45.1905 72.0366 45.6587 72.0819 45.9759 72.1725C46.0967 72.2027 46.2327 72.0366 46.1118 71.9309C45.9306 71.7798 45.7342 71.6288 45.553 71.4777C45.5077 71.5532 45.4624 71.6288 45.4171 71.7194C45.6436 71.7798 45.8702 71.8402 46.0967 71.9006C46.2327 71.9309 46.4139 72.0064 46.5347 71.8855C46.6253 71.7949 46.6253 71.6439 46.5498 71.5381C46.4441 71.3871 46.1873 71.4022 46.1118 71.2663C46.0816 71.3418 46.0514 71.4022 46.0212 71.4777C46.1269 71.4626 46.2175 71.5683 46.2175 71.6741C46.2175 71.7798 46.142 71.8553 46.0514 71.9006C45.8551 71.9913 45.553 71.8704 45.5983 71.6288C45.5983 71.5986 45.6436 71.4777 45.6889 71.5079C45.7191 71.523 45.7342 71.6137 45.7342 71.6288C45.7644 71.7043 45.7946 71.7949 45.84 71.8704C45.9306 72.0366 46.0665 72.1876 46.2024 72.3085C46.8821 72.8673 47.8034 72.822 48.6341 72.7465C48.755 72.7314 48.8456 72.5501 48.7097 72.4897C48.2414 72.2783 47.7279 72.1272 47.2144 72.0517C47.0634 72.0366 46.8972 72.0366 46.8066 72.1725C46.7915 72.2027 46.7764 72.2481 46.7764 72.2783C46.7613 72.3387 46.7764 72.3387 46.8217 72.2783C46.8066 72.2632 46.7915 72.2632 46.7764 72.2481C46.6707 72.1423 46.58 72.0668 46.5196 71.9158C46.4441 71.9762 46.3686 72.0366 46.2931 72.0819C46.7613 72.6408 47.5165 72.6559 48.181 72.6257C48.3623 72.6257 48.3623 72.3387 48.181 72.3387C47.592 72.3538 46.9123 72.3689 46.4894 71.8704C46.3837 71.7345 46.2024 71.9007 46.2629 72.0366C46.3535 72.233 46.5045 72.4444 46.716 72.5199C46.7915 72.5501 46.8821 72.5501 46.9425 72.5048C46.9727 72.4746 47.0029 72.4444 47.018 72.4142C47.0331 72.3991 47.0331 72.3085 47.0483 72.2934C47.1087 72.2481 47.3352 72.3236 47.3805 72.3236C47.5014 72.3538 47.6222 72.3689 47.7581 72.3991C48.03 72.4746 48.3019 72.5653 48.5586 72.6861C48.5888 72.5955 48.6039 72.5048 48.6341 72.4293C48.0753 72.4746 47.4863 72.535 46.9425 72.3538C46.716 72.2783 46.4894 72.1574 46.3082 71.9913C46.2326 71.9158 46.1571 71.8251 46.0967 71.7345C46.0212 71.6137 46.0061 71.4928 45.9608 71.372C45.8853 71.2058 45.6889 71.1605 45.5228 71.2512C45.3415 71.3569 45.2811 71.5835 45.3264 71.7798C45.4322 72.2027 45.9759 72.3236 46.2931 72.0517C46.6707 71.7496 46.4441 71.1152 45.9306 71.2058C45.84 71.2209 45.8098 71.3418 45.84 71.4173C45.8702 71.4928 45.9306 71.5532 46.0061 71.5835C46.0363 71.5986 46.0816 71.6137 46.1269 71.6288C46.1722 71.6439 46.2024 71.659 46.2478 71.6741C46.3233 71.6892 46.3384 71.6892 46.278 71.6741C46.0212 71.5835 45.7342 71.5381 45.4624 71.4626C45.3415 71.4324 45.2056 71.5986 45.3264 71.7043C45.5077 71.8553 45.704 72.0064 45.8853 72.1574C45.9306 72.0819 45.9759 72.0064 46.0212 71.9158C45.7946 71.8553 45.5681 71.81 45.3566 71.7345C45.266 71.7043 45.1603 71.659 45.115 71.5683C45.0848 71.523 45.0697 71.4475 45.0999 71.4022C45.1301 71.372 45.1754 71.372 45.2056 71.4022C45.1905 71.3569 45.1754 71.3116 45.1754 71.2663C45.1603 71.3418 45.0546 71.2965 45.0546 71.221C45.0546 71.1454 45.2056 70.9642 45.2962 71.0246C45.4624 71.1303 45.2056 71.4324 45.1301 71.4928C45.0546 71.5533 44.979 71.5835 44.8884 71.5986C44.8431 71.6137 44.7978 71.6137 44.7374 71.6137C44.7072 71.6137 44.6921 71.6137 44.6619 71.5986C44.6317 71.5835 44.6317 71.5835 44.677 71.5986C44.7223 71.4928 44.8582 71.372 44.9337 71.2814C45.0244 71.1907 45.115 71.1001 45.2056 71.0246C45.3566 70.9038 45.1603 70.6923 45.0244 70.8131Z" fill="white"/>
<path d="M48.7097 72.3387C48.7701 72.2028 48.8305 71.9762 48.9815 71.9309C49.1477 71.8705 49.3591 71.8705 49.5253 71.8554C49.8877 71.8252 50.2502 71.8101 50.6127 71.8252C51.3377 71.8403 52.0476 71.9611 52.7574 72.1575C52.7725 72.0668 52.7877 71.9762 52.7877 71.8856C51.4434 71.9158 50.1143 71.9309 48.7701 71.8856C48.7852 71.9762 48.8003 72.0668 48.8003 72.1575C49.5404 71.946 50.3258 72.0215 51.0809 72.1575C51.1111 72.0668 51.1262 71.9762 51.1565 71.8856C50.1898 71.7345 49.1477 71.5986 48.2565 72.1121C48.1659 72.1575 48.1659 72.2632 48.2263 72.3387C48.3623 72.4898 48.5435 72.5351 48.7399 72.5502C49.0117 72.5653 49.2836 72.5502 49.5555 72.5502C50.1445 72.5502 50.7184 72.5502 51.3075 72.5502C51.4887 72.5502 51.4887 72.2632 51.3075 72.2632C50.794 72.2632 50.2804 72.2632 49.7669 72.2632C49.5102 72.2632 49.2534 72.2632 48.9966 72.2632C48.8003 72.2632 48.5586 72.2934 48.4227 72.1273C48.4076 72.2028 48.4076 72.2783 48.3925 72.3538C49.2081 71.8856 50.1898 72.0215 51.0809 72.1575C51.2622 72.1877 51.3377 71.9158 51.1565 71.8856C50.356 71.7345 49.5253 71.659 48.7399 71.8856C48.5888 71.9309 48.619 72.1575 48.7701 72.1575C50.1143 72.1877 51.4434 72.1877 52.7877 72.1575C52.9387 72.1575 52.984 71.9309 52.8179 71.8856C52.0325 71.659 51.2169 71.5382 50.4013 71.5382C49.9935 71.5382 49.5857 71.5533 49.1779 71.6137C49.0268 71.6288 48.8305 71.6288 48.7097 71.7345C48.5737 71.8403 48.5133 72.0517 48.4529 72.2028C48.3774 72.3538 48.619 72.5049 48.7097 72.3387Z" fill="white"/>
<path d="M51.4585 72.5502C51.6398 72.5502 51.6398 72.2632 51.4585 72.2632C51.2773 72.2632 51.2773 72.5502 51.4585 72.5502Z" fill="white"/>
<path d="M50.4164 72.2178C50.2351 72.1423 50.0539 72.0668 49.8726 71.9913C49.7065 71.9309 49.5253 71.8251 49.344 71.7949C49.0117 71.7647 48.9664 72.2481 48.6039 72.1423C48.5888 72.233 48.5737 72.3236 48.5737 72.4142C49.8273 72.4293 51.0658 72.4595 52.3194 72.4746C52.3194 72.384 52.3194 72.2934 52.3194 72.1876C52.0174 72.2028 51.7153 72.2027 51.4132 72.2178C51.2773 72.2178 51.2018 72.4142 51.3377 72.4746C52.1533 72.8522 53.0595 72.958 53.9204 72.7465C54.0262 72.7163 54.0564 72.5804 53.9808 72.5048C53.4824 72.0668 52.8783 71.8251 52.2137 71.7949C52.0778 71.7949 52.0174 71.9913 52.1382 72.0517C52.4252 72.1876 52.7121 72.3236 52.9991 72.4595C53.0142 72.3689 53.0142 72.2934 53.0293 72.2028C52.7272 72.3085 52.4101 72.3236 52.0929 72.2632C51.9116 72.233 51.8361 72.4897 52.0174 72.535C52.395 72.6408 52.7877 72.6861 53.1652 72.671C53.4069 72.6559 53.8751 72.671 53.9808 72.3689C54.0866 72.0668 53.6335 71.9158 53.422 71.8402C53.0746 71.7043 52.7121 71.659 52.3496 71.6741C52.3647 71.7647 52.3799 71.8553 52.3799 71.946C52.8028 71.81 53.3012 71.659 53.7392 71.8251C53.8449 71.8554 53.9355 71.9158 54.0111 71.9913C54.147 72.1272 54.0111 72.2632 53.8902 72.3538C53.6788 72.5048 53.422 72.535 53.1803 72.4595C53.1955 72.5502 53.1955 72.6257 53.2106 72.7163C53.573 72.5502 53.9506 72.4746 54.3584 72.4897C54.4944 72.5048 54.5548 72.2934 54.434 72.233C54.0564 72.0366 53.6788 71.8402 53.3012 71.6439C53.2861 71.7345 53.2861 71.81 53.271 71.9007C53.86 71.7798 54.4642 71.9158 54.9626 72.2481C54.9626 72.1725 54.9626 72.0819 54.9626 72.0064C54.6605 72.1725 54.3282 72.233 53.9808 72.1725C53.9808 72.2632 53.9808 72.3538 53.9808 72.4444C54.3735 72.384 54.7511 72.3991 55.1438 72.4444C55.1136 72.3538 55.0985 72.2632 55.0683 72.1876C54.9777 72.2481 54.8115 72.3689 54.6907 72.2934C54.5397 72.2027 54.8267 72.097 54.9022 72.0819C55.1287 72.0517 55.3402 72.1423 55.5516 72.2178C55.9141 72.3387 56.337 72.4142 56.6542 72.1272C56.6995 72.0819 56.7146 71.9762 56.6542 71.9309C56.0349 71.4022 55.1891 71.4173 54.4037 71.4777C54.2376 71.4928 54.2225 71.6892 54.3735 71.7496C54.9475 71.9913 55.5667 72.1121 56.2011 72.097C56.3823 72.097 56.3823 71.81 56.2011 71.81C56.0651 71.81 55.9443 71.81 55.8084 71.81C55.6271 71.81 55.6271 72.097 55.8084 72.097C55.9443 72.097 56.0651 72.097 56.2011 72.097C56.2011 72.0064 56.2011 71.9158 56.2011 71.81C55.5969 71.8251 55.0079 71.7043 54.4491 71.4777C54.434 71.5684 54.4189 71.659 54.4189 71.7496C55.0985 71.7043 55.899 71.6439 56.4578 72.1121C56.4578 72.0517 56.4578 71.9762 56.4578 71.9158C56.2162 72.1423 55.8386 71.9913 55.5516 71.9007C55.2647 71.81 54.9475 71.7194 54.6605 71.8402C54.434 71.9309 54.2527 72.1725 54.4189 72.3991C54.6152 72.671 54.9626 72.5502 55.1891 72.3991C55.31 72.3236 55.2496 72.1574 55.1136 72.1423C54.7058 72.0819 54.298 72.097 53.8751 72.1574C53.7392 72.1725 53.7392 72.4142 53.8751 72.4293C54.298 72.5048 54.7058 72.4293 55.0683 72.233C55.174 72.1725 55.1589 72.0517 55.0683 71.9913C54.5095 71.6137 53.8298 71.4777 53.1652 71.6137C53.0444 71.6439 53.0293 71.81 53.135 71.8705C53.5126 72.0668 53.8902 72.2632 54.2678 72.4595C54.298 72.3689 54.3131 72.2783 54.3433 72.2028C53.8902 72.1725 53.4673 72.2632 53.0595 72.4595C52.9387 72.5199 52.984 72.6861 53.0897 72.7163C53.422 72.822 53.7845 72.7616 54.0715 72.5501C54.3584 72.3387 54.4793 72.0366 54.1923 71.7647C53.6788 71.2965 52.8934 71.4777 52.3043 71.659C52.1533 71.7043 52.1835 71.946 52.3345 71.9309C52.5913 71.9158 52.833 71.946 53.0746 72.0064C53.1803 72.0366 53.3012 72.0668 53.3918 72.1121C53.4522 72.1423 53.5126 72.1725 53.5579 72.2028C53.6032 72.233 53.6788 72.2481 53.6184 72.2934C53.5428 72.3538 53.3465 72.3538 53.2559 72.3538C53.1199 72.3689 52.984 72.3689 52.8632 72.3689C52.5913 72.3689 52.3194 72.3236 52.0476 72.2481C52.0174 72.3387 52.0023 72.4293 51.9721 72.5199C52.3345 72.5804 52.697 72.5653 53.0595 72.4595C53.1652 72.4293 53.2106 72.2632 53.0897 72.2028C52.8028 72.0668 52.5158 71.9309 52.2288 71.7949C52.1986 71.8856 52.1835 71.9762 52.1533 72.0517C52.7272 72.0819 53.2861 72.2934 53.7241 72.6861C53.7392 72.6106 53.7694 72.535 53.7845 72.4444C52.9991 72.6408 52.1533 72.5653 51.4132 72.2028C51.383 72.2934 51.3679 72.384 51.3377 72.4595C51.6398 72.4444 51.9418 72.4444 52.2439 72.4293C52.4252 72.4293 52.4252 72.1574 52.2439 72.1423C50.9903 72.1272 49.7518 72.097 48.4982 72.0819C48.3321 72.0819 48.317 72.3085 48.468 72.3538C48.6039 72.3991 48.7248 72.3991 48.8607 72.3387C49.0117 72.2783 49.057 72.1876 49.1628 72.0819C49.2987 71.946 49.5555 72.1272 49.6914 72.1876C49.8877 72.2632 50.0841 72.3387 50.2653 72.4142C50.507 72.5502 50.5825 72.2783 50.4164 72.2178Z" fill="white"/>
<path d="M56.6089 71.4324C57.0167 71.3267 57.349 71.6892 57.4849 72.0366C57.5604 72.233 57.6057 72.4595 57.6511 72.671C57.6964 72.8825 57.7719 73.109 57.7719 73.3356C57.7719 73.3809 57.7719 73.4715 57.7417 73.5017C57.6813 73.5471 57.6208 73.4715 57.5755 73.4262C57.4396 73.2601 57.3641 73.0335 57.2735 72.8522C57.1828 72.6408 57.0922 72.4293 57.0167 72.2028C56.9714 72.097 56.9412 71.9913 56.911 71.8705C56.8959 71.81 56.8808 71.7647 56.8657 71.7043C56.8657 71.6892 56.8506 71.6439 56.8355 71.6137C56.8355 71.5986 56.8355 71.5986 56.8203 71.5835C56.775 71.5986 56.7599 71.6137 56.7901 71.6137C56.7901 71.6288 56.8808 71.6741 56.8959 71.6892C56.9412 71.7345 56.9714 71.7798 57.0016 71.8251C57.062 71.9158 57.1224 72.0215 57.1677 72.1272C57.2584 72.3387 57.3037 72.5804 57.2886 72.8069C57.3792 72.7767 57.4698 72.7616 57.5453 72.7314C57.4094 72.4293 57.2886 72.1121 57.1526 71.81C57.1224 71.7194 56.9865 71.7194 56.9261 71.7798C56.7297 71.9762 56.8657 72.233 56.9412 72.4444C57.062 72.7314 57.1979 73.0335 57.349 73.3205C57.3792 73.3809 57.4849 73.4111 57.5453 73.3658C57.7417 73.2299 57.8776 72.9127 57.6964 72.7012C57.6208 72.6106 57.4698 72.5955 57.3943 72.7012C57.3188 72.822 57.4094 72.958 57.5302 72.958C57.7115 72.9731 57.7115 72.6861 57.5302 72.671H57.5151C57.5604 72.7012 57.5906 72.7163 57.6359 72.7465C57.6359 72.7616 57.636 72.7918 57.6511 72.8069C57.636 72.8371 57.6057 72.8674 57.5906 72.8976C57.5604 72.8976 57.5151 72.8976 57.4849 72.8976C57.4849 72.9127 57.4849 72.9278 57.4849 72.9429C57.4849 72.958 57.4849 72.9882 57.4698 73.0184C57.4547 73.0637 57.4245 73.109 57.3792 73.1392C57.4396 73.1543 57.5151 73.1694 57.5755 73.1845C57.4698 72.9731 57.3641 72.7465 57.2584 72.5199C57.213 72.4142 57.1526 72.3085 57.1224 72.1876C57.1073 72.1272 57.062 72.0366 57.1073 71.9913C57.0318 71.9762 56.9563 71.9762 56.8808 71.9611C57.0167 72.2632 57.1375 72.5804 57.2735 72.8825C57.3339 73.0184 57.5302 72.9429 57.5302 72.8069C57.5453 72.5199 57.4849 72.233 57.3641 71.9611C57.2735 71.7496 57.1073 71.4626 56.8808 71.3569C56.7901 71.3116 56.6693 71.3116 56.5938 71.372C56.473 71.4777 56.5183 71.6288 56.5485 71.7496C56.6391 72.0517 56.7448 72.3538 56.8657 72.6559C56.9865 72.9429 57.1073 73.2299 57.2584 73.4866C57.3792 73.683 57.6359 73.8793 57.8625 73.6981C58.0437 73.5622 58.0286 73.2903 57.9984 73.0939C57.938 72.7767 57.8776 72.4595 57.8021 72.1423C57.7115 71.8402 57.5755 71.5382 57.3339 71.3267C57.1073 71.1454 56.8052 71.0397 56.5183 71.1303C56.3521 71.2059 56.4277 71.4777 56.6089 71.4324Z" fill="white"/>
<path d="M58.8895 72.233C58.9046 72.233 58.9197 72.2179 58.9348 72.2179C58.9348 72.233 58.9197 72.233 58.8895 72.233C58.9197 72.2179 58.9499 72.2179 58.965 72.233C58.9499 72.233 58.9348 72.233 58.9348 72.233C58.9499 72.233 58.9499 72.233 58.965 72.233H58.9801C58.9499 72.2179 58.9953 72.233 58.9953 72.2481C59.0104 72.2481 59.0104 72.2632 59.0255 72.2632C59.0104 72.1876 59.0104 72.1121 58.9953 72.0366C58.9953 72.0366 58.9953 72.0366 58.9801 72.0517C58.9953 72.0215 59.0104 72.0366 58.9953 72.0366C58.9802 72.0517 59.0406 72.0215 59.0104 72.0215H58.9953C59.0104 72.0215 59.0255 72.0215 59.0255 72.0215H59.0104C59.0255 72.0215 59.0406 72.0215 59.0406 72.0215H59.0255H59.0104C59.0104 72.0215 59.0406 72.0366 59.0255 72.0366C59.0104 72.0215 58.9953 72.0215 58.9801 72.0064C58.9499 71.9913 58.9197 71.9611 58.8744 71.946C58.7687 71.8856 58.6479 71.8554 58.5421 71.9309C58.4515 71.9913 58.3911 72.1121 58.4062 72.2179C58.4062 72.2934 58.4364 72.3538 58.4817 72.3991C58.527 72.4444 58.5724 72.4746 58.6328 72.5048C58.7536 72.5502 58.9046 72.52 59.0255 72.4444C59.0859 72.3991 59.1161 72.3236 59.0708 72.2481C59.0255 72.1877 58.9499 72.1574 58.8744 72.2028C58.8593 72.2028 58.8442 72.2179 58.8442 72.2179H58.8291C58.814 72.2179 58.8593 72.2028 58.8442 72.2179C58.814 72.233 58.7989 72.233 58.7687 72.233C58.7838 72.233 58.7989 72.233 58.7989 72.233C58.7687 72.233 58.7385 72.233 58.7234 72.233C58.7385 72.233 58.7536 72.233 58.7536 72.233C58.7385 72.233 58.7385 72.233 58.7234 72.233C58.7234 72.233 58.6781 72.2179 58.7083 72.233C58.7385 72.2481 58.7083 72.233 58.6932 72.2179C58.6932 72.2179 58.663 72.1876 58.6781 72.2179C58.663 72.2028 58.6932 72.2481 58.6781 72.233V72.2179C58.6781 72.2028 58.6781 72.2028 58.6781 72.1877C58.6781 72.2028 58.6781 72.2179 58.6781 72.2179C58.6781 72.2028 58.6781 72.1725 58.6781 72.1574C58.6781 72.1725 58.6781 72.1877 58.6781 72.1877C58.6781 72.1726 58.6932 72.1574 58.6932 72.1423C58.6932 72.1423 58.6781 72.1725 58.6781 72.1574V72.1423L58.6932 72.1272C58.6932 72.1272 58.663 72.1574 58.6781 72.1423C58.663 72.1574 58.663 72.1423 58.6781 72.1423C58.6781 72.1423 58.6781 72.1423 58.6932 72.1423C58.7083 72.1272 58.6781 72.1574 58.6781 72.1574C58.6932 72.1574 58.7083 72.1574 58.7083 72.1574C58.6932 72.1574 58.6781 72.1574 58.6781 72.1574C58.6932 72.1574 58.6932 72.1574 58.7083 72.1574C58.7234 72.1574 58.7536 72.1725 58.7234 72.1574C58.6932 72.1423 58.7234 72.1574 58.7385 72.1574C58.7536 72.1574 58.7536 72.1725 58.7687 72.1725C58.7989 72.1877 58.8291 72.2179 58.8744 72.233C58.9197 72.2632 58.9802 72.2783 59.0255 72.2783C59.0859 72.2783 59.1463 72.2481 59.1916 72.2028C59.2218 72.1726 59.2369 72.1272 59.2369 72.0819C59.2369 72.0366 59.2067 72.0064 59.1765 71.9762C59.0859 71.9007 58.9499 71.8856 58.8291 71.9158C58.7536 71.946 58.7083 72.0064 58.7234 72.0819C58.7385 72.2028 58.814 72.2632 58.8895 72.233Z" fill="white"/>
<path d="M61.14 46.3439C67.9366 39.1391 70.6704 37.5229 73.6156 49.0778C69.4621 46.3439 65.2935 45.4225 61.14 46.3439Z" fill="#F9F7EB"/>
<path d="M39.1792 46.3439C32.3826 39.1391 29.6488 37.5229 26.7036 49.0778C30.8722 46.3439 35.0257 45.4225 39.1792 46.3439Z" fill="#F9F8EB"/>
<path d="M28.803 53.9414C28.803 53.9414 33.1378 45.0147 39.1792 53.4279C39.1792 53.4279 34.5877 62.6567 28.803 53.9414Z" fill="white"/>
<path d="M61.14 53.2013C61.14 53.2013 65.4747 44.2746 71.5162 52.6878C71.5162 52.6878 66.9247 61.9166 61.14 53.2013Z" fill="white"/>
<path d="M66.3357 55.6784C68.1541 55.6784 69.6283 54.2042 69.6283 52.3857C69.6283 50.5671 68.1541 49.0929 66.3357 49.0929C64.5172 49.0929 63.0431 50.5671 63.0431 52.3857C63.0431 54.2042 64.5172 55.6784 66.3357 55.6784Z" fill="#171815"/>
<path d="M33.9987 57.053C35.8171 57.053 37.2913 55.5787 37.2913 53.7602C37.2913 51.9416 35.8171 50.4674 33.9987 50.4674C32.1802 50.4674 30.7061 51.9416 30.7061 53.7602C30.7061 55.5787 32.1802 57.053 33.9987 57.053Z" fill="#171815"/>
<path d="M64.055 52.0383C64.3118 51.7362 64.5987 51.4643 64.9159 51.2226C64.9763 51.1773 65.0217 51.0565 65.0217 50.9809C65.0217 50.8903 64.9763 50.7846 64.9159 50.7393C64.8555 50.6789 64.7649 50.6335 64.6743 50.6335C64.6441 50.6335 64.6139 50.6486 64.5836 50.6486C64.5232 50.6638 64.4779 50.694 64.4326 50.7393C64.1154 50.9809 63.8285 51.2528 63.5717 51.5549C63.5113 51.6304 63.466 51.706 63.466 51.7966C63.466 51.8872 63.5113 51.9929 63.5717 52.0383C63.6321 52.0987 63.7227 52.144 63.8134 52.144C63.8889 52.1289 63.9946 52.0987 64.055 52.0383Z" fill="white"/>
<path d="M64.9008 54.3794C64.8857 54.4248 64.8555 54.455 64.8555 54.5003C64.8404 54.5456 64.8404 54.5909 64.8404 54.6362C64.8404 54.6966 64.8404 54.7571 64.8555 54.8175C64.8555 54.8326 64.8706 54.8477 64.8706 54.8628C64.8857 54.9081 64.9008 54.9534 64.931 54.9836C64.9763 55.0591 65.0367 55.1196 65.1123 55.1649C65.1878 55.2102 65.2784 55.2253 65.369 55.2404C65.4143 55.2404 65.4596 55.2404 65.4899 55.2253C65.5352 55.2102 65.5805 55.1951 65.6107 55.18C65.6409 55.1649 65.6862 55.1347 65.7164 55.1045C65.7315 55.0893 65.7315 55.0893 65.7466 55.0742C65.7768 55.044 65.807 55.0138 65.8221 54.9685C65.8372 54.9383 65.8523 54.893 65.8674 54.8477C65.8977 54.7571 65.8977 54.6664 65.8674 54.5758C65.8523 54.5305 65.8372 54.5003 65.8221 54.455C65.7768 54.3794 65.7466 54.3643 65.6711 54.3039C65.6258 54.2737 65.5805 54.2586 65.5352 54.2586C65.4899 54.2435 65.4445 54.2435 65.3992 54.2586C65.3539 54.2737 65.3086 54.2888 65.2784 54.319C65.2331 54.3492 65.2029 54.3794 65.1878 54.4248C65.1727 54.455 65.1576 54.4852 65.1576 54.5154C65.1425 54.5758 65.1425 54.6362 65.1576 54.6966C65.1727 54.7268 65.1878 54.7571 65.1878 54.7873C65.218 54.8477 65.2633 54.8779 65.3086 54.9081C65.2784 54.893 65.2633 54.8779 65.2331 54.8477L65.2482 54.8628C65.2331 54.8326 65.218 54.8175 65.1878 54.7873L65.2029 54.8024C65.1878 54.7722 65.1727 54.7419 65.1727 54.7117C65.1727 54.7268 65.1727 54.7268 65.1878 54.7419C65.1878 54.7117 65.1727 54.6815 65.1727 54.6513C65.1727 54.6664 65.1727 54.6815 65.1727 54.6815C65.1727 54.6513 65.1878 54.6211 65.1878 54.5909C65.1878 54.606 65.1878 54.6211 65.1727 54.6362C65.1878 54.606 65.2029 54.5758 65.2029 54.5456C65.2029 54.5607 65.1878 54.5758 65.1727 54.5909C65.1878 54.5607 65.2029 54.5456 65.2331 54.5154C65.218 54.5305 65.218 54.5456 65.2029 54.5456C65.2331 54.5305 65.2482 54.5154 65.2784 54.4852C65.2633 54.5003 65.2633 54.5003 65.2482 54.5003C65.2784 54.4852 65.3086 54.4701 65.3388 54.4701C65.3237 54.4701 65.3086 54.4852 65.3086 54.4852C65.3388 54.4852 65.369 54.4701 65.3992 54.4701C65.3841 54.4701 65.369 54.4701 65.369 54.4701C65.3992 54.4701 65.4294 54.4852 65.4596 54.4852C65.4445 54.4852 65.4294 54.4852 65.4143 54.4701C65.4445 54.4852 65.4747 54.5003 65.505 54.5003C65.4898 54.5003 65.4748 54.4852 65.4748 54.4852C65.505 54.5003 65.5201 54.5154 65.5503 54.5456C65.5352 54.5305 65.5201 54.5305 65.5201 54.5154C65.5352 54.5456 65.5503 54.5607 65.5805 54.5909C65.5654 54.5758 65.5654 54.5607 65.5503 54.5456C65.5654 54.5758 65.5805 54.606 65.5805 54.6362C65.5654 54.6211 65.5654 54.5909 65.5654 54.5758C65.5654 54.606 65.5805 54.6362 65.5805 54.6664C65.5805 54.6513 65.5805 54.6211 65.5805 54.606C65.5805 54.6362 65.5654 54.6664 65.5654 54.6966C65.5654 54.6815 65.5805 54.6513 65.5805 54.6362C65.5654 54.6664 65.5503 54.6966 65.5503 54.7268C65.5503 54.7268 65.5503 54.7117 65.5654 54.7117C65.5956 54.6664 65.6107 54.6211 65.6107 54.5758C65.6258 54.5305 65.6258 54.4852 65.6107 54.4399C65.5956 54.3945 65.5805 54.3492 65.5503 54.319C65.5201 54.2737 65.4899 54.2435 65.4445 54.2284C65.4143 54.2133 65.3841 54.1982 65.3539 54.1982C65.2935 54.1831 65.2331 54.1831 65.1727 54.1982C65.1425 54.2133 65.1123 54.2284 65.0821 54.2284C64.9763 54.2888 64.931 54.319 64.9008 54.3794Z" fill="white"/>
<path d="M67.7252 52.4159C67.7101 52.4159 67.7101 52.4159 67.695 52.4159C67.6497 52.4159 67.6195 52.4008 67.5742 52.4008C67.5289 52.4008 67.4987 52.4159 67.4534 52.4159C67.4382 52.4159 67.4382 52.4159 67.4231 52.4159C67.3929 52.431 67.3476 52.4461 67.3174 52.4612C67.3023 52.4612 67.3023 52.4763 67.2872 52.4763C67.257 52.4914 67.2268 52.5216 67.1966 52.5367L67.1815 52.5518C67.1513 52.582 67.1211 52.6273 67.0909 52.6575C67.0607 52.7028 67.0456 52.7482 67.0305 52.7935C67.0305 52.8086 67.0153 52.8237 67.0153 52.8388C67.0153 52.8841 67.0002 52.9294 67.0002 52.9747C67.0002 53.02 67.0153 53.0503 67.0153 53.0956C67.0153 53.1107 67.0153 53.1107 67.0153 53.1258C67.0304 53.156 67.0456 53.2013 67.0607 53.2315C67.0758 53.2617 67.106 53.2919 67.1211 53.3221C67.1513 53.3523 67.1966 53.3826 67.2268 53.4128L67.2419 53.4279C67.2721 53.443 67.3174 53.4581 67.3476 53.4732C67.3929 53.4883 67.4383 53.4883 67.4836 53.4883C67.5289 53.4883 67.5591 53.4732 67.6044 53.4732C67.6195 53.4732 67.6195 53.4732 67.6346 53.4732C67.6497 53.4732 67.6497 53.4732 67.6648 53.4581C67.695 53.443 67.7403 53.4279 67.7705 53.4128C67.8158 53.3977 67.8461 53.3523 67.8914 53.3221C67.9216 53.2919 67.9669 53.2466 67.982 53.2164C68.0122 53.1711 68.0273 53.1258 68.0424 53.0805C68.0424 53.0654 68.0424 53.0654 68.0575 53.0502C68.0575 53.02 68.0726 52.9747 68.0726 52.9445V52.9294C68.0726 52.8841 68.0575 52.8388 68.0575 52.8086C68.0575 52.7935 68.0575 52.7935 68.0424 52.7784C68.0273 52.7331 68.0122 52.6877 67.982 52.6575C67.9518 52.6122 67.9216 52.582 67.8763 52.5669C67.8309 52.5367 67.7856 52.5216 67.7403 52.5216C67.695 52.5065 67.6497 52.5065 67.6044 52.5216C67.5742 52.5367 67.544 52.5518 67.5138 52.5518C67.4534 52.582 67.4231 52.6273 67.3929 52.6726C67.3778 52.7028 67.3627 52.7331 67.3627 52.7633C67.3476 52.8237 67.3476 52.8841 67.3627 52.9445C67.3627 52.9596 67.3627 52.9596 67.3778 52.9747C67.3778 52.9445 67.3627 52.9143 67.3627 52.8841C67.3627 52.8992 67.3627 52.9143 67.3627 52.9294C67.3627 52.8992 67.3778 52.869 67.3778 52.8388C67.3778 52.8539 67.3778 52.869 67.3627 52.8841C67.3778 52.8539 67.3929 52.8237 67.3929 52.7935C67.3929 52.8086 67.3778 52.8237 67.3627 52.8388C67.3778 52.8086 67.3929 52.7935 67.4231 52.7633C67.408 52.7784 67.3929 52.7935 67.3778 52.8086C67.408 52.7935 67.4231 52.7784 67.4534 52.7482C67.4382 52.7633 67.4231 52.7784 67.3929 52.7784C67.4231 52.7633 67.4534 52.7482 67.4836 52.7482C67.4685 52.7633 67.4382 52.7633 67.4231 52.7633C67.4534 52.7633 67.4836 52.7482 67.5138 52.7482C67.4987 52.7482 67.4836 52.7482 67.4685 52.7482C67.4987 52.7482 67.5289 52.7633 67.5591 52.7633C67.544 52.7633 67.5289 52.7633 67.5138 52.7482C67.544 52.7633 67.5742 52.7784 67.6044 52.7784C67.5893 52.7784 67.5742 52.7633 67.5742 52.7633C67.6044 52.7784 67.6195 52.7935 67.6497 52.8237C67.6346 52.8086 67.6346 52.8086 67.6195 52.7935C67.6346 52.8237 67.6497 52.8388 67.6799 52.869C67.6648 52.8539 67.6648 52.8539 67.6648 52.8388C67.6799 52.869 67.695 52.8992 67.695 52.9294C67.695 52.9143 67.6799 52.8992 67.6799 52.8841C67.6799 52.9143 67.695 52.9445 67.695 52.9747C67.695 52.9596 67.695 52.9445 67.695 52.9294C67.695 52.9596 67.6799 52.9898 67.6799 53.02C67.6799 53.0049 67.695 52.9747 67.695 52.9596C67.6799 52.9898 67.6648 53.02 67.6648 53.0502C67.6799 53.0351 67.6799 53.0049 67.695 52.9898C67.6799 53.02 67.6648 53.0351 67.6346 53.0654C67.6497 53.0503 67.6648 53.0351 67.6799 53.02C67.6497 53.0351 67.6346 53.0503 67.6044 53.0805C67.6195 53.0654 67.6346 53.0654 67.6497 53.0502C67.6195 53.0654 67.5893 53.0805 67.5591 53.0805C67.5742 53.0805 67.5893 53.0654 67.6044 53.0654C67.5742 53.0654 67.544 53.0805 67.5138 53.0805C67.5289 53.0805 67.544 53.0805 67.5591 53.0805C67.5289 53.0805 67.4987 53.0654 67.4685 53.0654C67.4836 53.0654 67.4836 53.0654 67.4987 53.0654C67.544 53.0805 67.5893 53.0805 67.6346 53.0654C67.6799 53.0654 67.7252 53.0502 67.7705 53.02C67.8158 53.0049 67.8461 52.9747 67.8763 52.9294C67.9065 52.8992 67.9216 52.8539 67.9367 52.8086C67.9367 52.7784 67.9518 52.7482 67.9518 52.718C67.9518 52.6575 67.9367 52.5971 67.9065 52.5367C67.8914 52.5065 67.8763 52.4914 67.8461 52.4612C67.8461 52.4612 67.7856 52.431 67.7252 52.4159Z" fill="white"/>
<path d="M32.2315 52.7029C32.5487 52.5216 32.8508 52.3404 33.168 52.144C33.319 52.0534 33.3945 51.8268 33.2888 51.6607C33.1831 51.4945 32.9716 51.4341 32.8055 51.5398C32.4883 51.7211 32.1862 51.9023 31.8691 52.0987C31.718 52.1893 31.6425 52.4159 31.7482 52.582C31.854 52.7331 32.0654 52.7935 32.2315 52.7029Z" fill="white"/>
<path d="M30.3134 52.2346C30.1472 52.6878 30.0566 53.1862 30.0566 53.6695C30.0566 53.8508 30.2227 54.032 30.404 54.0169C30.6003 54.0018 30.7514 53.8659 30.7514 53.6695C30.7514 53.5638 30.7665 53.443 30.7665 53.3372C30.7665 53.307 30.7665 53.2617 30.7816 53.2315C30.7967 53.1711 30.7967 53.1258 30.8118 53.0654C30.8571 52.8388 30.9175 52.6273 30.993 52.4159C31.0535 52.2497 30.9175 52.0232 30.7514 51.9778C30.555 51.9476 30.3889 52.0534 30.3134 52.2346Z" fill="white"/>
<path d="M33.1227 55.5123C33.5758 55.5123 33.5758 54.8024 33.1227 54.8024C32.6696 54.8024 32.6696 55.5123 33.1227 55.5123Z" fill="white"/>
<path d="M35.7658 54.3644C36.2189 54.3644 36.2189 53.6544 35.7658 53.6544C35.3127 53.6544 35.3127 54.3644 35.7658 54.3644Z" fill="white"/>
<path d="M37.7897 53.4128C38.2428 53.4128 38.2428 52.7029 37.7897 52.7029C37.3366 52.7029 37.3366 53.4128 37.7897 53.4128Z" fill="white"/>
<path d="M79.8686 10.1536C79.8233 10.214 79.7931 10.2744 79.7477 10.3348C79.491 10.6973 79.2342 11.0598 78.9624 11.377C78.9019 11.4526 78.8264 11.5281 78.766 11.6036C78.7509 11.6187 78.7358 11.6338 78.7207 11.6489C78.6754 11.7093 78.615 11.7547 78.5697 11.8151C78.3431 12.0416 78.1014 12.2682 77.7994 12.3739C77.6181 12.4344 77.4369 12.4646 77.2405 12.4797C77.0744 12.4948 76.8931 12.4797 76.727 12.4797C74.9901 12.389 73.5854 12.6458 71.8787 12.2984C72.8454 11.9208 73.6459 11.3317 74.3708 10.6218C74.688 10.3197 74.9901 9.97232 75.2771 9.64002C75.3375 9.5645 75.3979 9.50409 75.4583 9.42856C75.5187 9.35304 75.5791 9.27752 75.6395 9.18689C75.6848 9.12647 75.7453 9.06606 75.7906 8.99053C76.002 8.70355 76.2135 8.41656 76.4249 8.12958C77.3765 8.70355 78.3129 9.32283 79.2191 9.95722C79.4306 10.0176 79.642 10.0932 79.8686 10.1536Z" fill="#333333"/>
<path d="M86.2876 16.0141C85.608 15.6063 84.9887 15.1079 84.445 14.549C84.0674 14.1563 83.7351 13.7333 83.4632 13.3104C84.4299 14.1714 85.3814 15.0776 86.2876 16.0141Z" fill="#333333"/>
<path d="M80.4727 48.2168L78.2223 39.1391C77.8749 37.7494 77.5275 36.3145 76.9385 35.0004C74.9901 30.6655 70.6251 27.7956 67.1211 25.4846L67.2721 25.243C70.8064 27.569 75.2166 30.454 77.1801 34.8796C77.7843 36.2239 78.1467 37.6739 78.4941 39.0635L80.7446 48.1413L80.4727 48.2168Z" fill="#2B2B2B"/>
<path d="M21.0397 43.8063C21.0397 41.586 22.535 39.6073 23.6375 38.1572L28.1837 32.1457C29.2561 30.7259 30.3738 29.2607 31.8388 28.1732C32.2768 27.8409 32.7753 27.5388 33.2435 27.2367C34.7992 26.2398 36.4153 25.2127 36.6418 23.4908L36.9137 23.521C36.6871 25.3789 35.0106 26.4362 33.3945 27.4633C32.9263 27.7654 32.443 28.0675 32.005 28.3847C30.5701 29.442 29.4676 30.892 28.4103 32.2967L23.8641 38.3083C22.7917 39.7281 21.3267 41.6615 21.3267 43.7761L21.0397 43.8063Z" fill="#2B2B2B"/>
<g opacity="0.13">
<path d="M38.3485 49.0325C37.8199 50.1351 37.8803 51.268 38.5298 52.3102C38.8017 52.7482 39.1339 53.1409 39.4662 53.5185C39.6173 53.6847 39.7532 53.8659 39.9042 54.0321C39.6777 53.7451 40.0251 54.2284 40.0855 54.3191C40.2969 54.6514 40.0704 54.1378 40.1459 54.4852C40.1761 54.6362 40.1308 54.2586 40.1308 54.1982C40.161 54.0472 40.161 54.0472 40.1157 54.2133C40.1459 54.1529 40.161 54.0925 40.1912 54.0472C40.2667 53.9263 40.2969 53.8659 40.2063 54.017C40.2818 53.9112 40.4026 53.8961 40.2214 54.0019C40.0251 54.1227 39.8287 54.2284 39.6173 54.3342C38.5902 54.8477 37.6085 55.4972 37.3517 56.7056C37.1554 57.642 37.6236 58.6087 38.5751 58.8655C39.4511 59.1072 40.5386 58.5634 40.7349 57.642C40.8255 57.2493 40.4782 58.065 40.6594 57.7327C40.599 57.8384 40.4328 57.8686 40.6443 57.7629C40.75 57.7025 40.8558 57.642 40.9615 57.5816C41.324 57.3853 41.7016 57.2342 42.0338 57.0077C43.1666 56.2524 43.8161 55.0441 43.5442 53.6696C43.3479 52.7029 42.7135 51.9325 42.0943 51.1924C41.9734 51.0414 41.8375 50.8903 41.7167 50.7393C41.5958 50.6034 41.6411 50.6185 41.7318 50.7544C41.6865 50.6789 41.626 50.6034 41.5807 50.5278C41.5505 50.4825 41.3693 50.1502 41.4901 50.3919C41.5958 50.6034 41.475 50.3768 41.475 50.3164C41.4901 50.4825 41.4599 50.6789 41.3995 50.7997C41.8073 49.9388 41.626 48.8966 40.7651 48.3981C39.9797 47.945 38.7714 48.1715 38.3485 49.0325Z" fill="#816C44"/>
</g>
<g opacity="0.13">
<path d="M59.7052 48.2017C59.0708 49.0476 58.4364 49.8934 57.8021 50.7242C57.1073 51.6455 56.4428 52.5065 56.3823 53.7149C56.2615 56.2524 58.4667 57.7477 60.6114 58.4425C62.1217 58.9259 63.7227 57.0076 62.7561 55.6482C62.3634 55.1045 61.9556 54.6664 61.4572 54.2133C61.2759 54.0471 61.0947 53.8055 60.8983 53.6544C60.9588 53.6997 60.9134 53.7904 60.8983 53.8659C59.6598 53.6997 58.4062 53.5336 57.1677 53.3674C57.1979 55.1347 58.2552 56.2826 59.3729 57.5212C59.7354 57.929 60.0676 58.4879 60.4754 58.9863C60.989 59.6207 61.6082 60.0134 62.3634 60.3155C63.3149 60.6931 64.4477 59.8926 64.7045 58.9863C65.0065 57.8988 64.3269 57.0378 63.3753 56.6451C63.5868 56.7357 63.5566 56.766 63.4207 56.5998C63.1941 56.3128 63.4207 56.6451 63.2243 56.343C62.9222 55.8748 62.59 55.4217 62.2275 54.9987C61.9103 54.6211 61.5176 54.2888 61.2155 53.8961C61.14 53.8055 61.0796 53.7148 61.0041 53.5336C60.989 53.5034 60.9588 53.1862 60.9588 53.3372C60.9437 52.4008 60.2489 51.5851 59.3125 51.4643C58.4213 51.3586 57.4245 51.8872 57.2281 52.8237C56.9865 53.9565 57.2282 55.0138 57.9229 55.9352C58.3609 56.5092 59.1463 57.068 59.4786 57.5212C60.1885 56.5847 60.9134 55.6633 61.6233 54.7268C61.14 54.5758 60.6265 54.3946 60.3244 54.0623C60.2338 53.9565 60.1734 53.8961 60.1583 53.6846C60.1734 53.9867 60.1432 53.9112 60.3093 53.6544C61.1098 52.4008 62.1066 51.2528 62.9978 50.0596C63.617 49.2439 63.1337 47.9298 62.3181 47.4616C61.3364 46.948 60.3244 47.371 59.7052 48.2017Z" fill="#816C44"/>
</g>
<g opacity="0.13">
<path d="M23.3959 12.5099C25.5255 14.8964 28.0478 16.7694 30.6759 18.5668C32.881 20.0772 35.0861 21.7085 36.3851 24.095C37.1855 23.2945 37.986 22.494 38.7865 21.6934C36.808 20.47 34.8445 19.2314 32.8659 18.0079C31.6274 17.2376 30.3436 18.2798 30.2228 19.5335C30.0113 21.6028 29.9811 23.6872 30.1623 25.7565C30.2832 27.1159 31.5519 27.9014 32.8055 27.2821C34.0893 26.6477 35.2674 25.7867 36.2944 24.7898C36.959 24.1554 36.9892 22.932 36.2944 22.2976C35.7356 21.784 35.1617 21.2705 34.6028 20.7418C33.908 20.1074 32.8055 20.047 32.1107 20.7418C31.4613 21.3913 31.4008 22.5846 32.1107 23.2341C32.6695 23.7476 33.2435 24.2612 33.8023 24.7898C33.8023 23.9591 33.8023 23.1283 33.8023 22.2976C32.9716 23.0981 32.0503 23.7174 31.0232 24.2461C31.8993 24.7596 32.7904 25.2581 33.6664 25.7716C33.4851 23.6872 33.5154 21.6179 33.7268 19.5486C32.8508 20.0621 31.9597 20.5606 31.0837 21.0741C33.0622 22.2976 35.0257 23.5362 37.0043 24.7596C38.5449 25.7263 40.2214 23.8534 39.4058 22.358C37.9407 19.6694 35.5543 17.736 33.0924 16.0141C31.8388 15.1381 30.5399 14.3224 29.3618 13.3709C28.1082 12.3589 26.9453 11.2562 25.8729 10.0479C25.2385 9.33796 24.0302 9.39838 23.3808 10.0479C22.7011 10.7276 22.7615 11.8 23.3959 12.5099Z" fill="#816C44"/>
</g>
<g opacity="0.13">
<path d="M27.1869 54.6513C28.7275 53.4128 30.2378 51.9627 31.9295 50.9356C32.6997 50.4674 33.4549 50.271 34.3612 50.407C35.4335 50.558 36.4908 50.845 37.548 51.0716C38.9678 51.3737 39.5719 49.1986 38.1522 48.8965C35.8262 48.3981 33.47 47.5824 31.2196 48.7606C30.2832 49.2439 29.4676 49.9689 28.652 50.6184C27.64 51.4341 26.6432 52.2497 25.6312 53.0503C25.163 53.4279 25.2385 54.2435 25.6312 54.6362C26.0541 55.1196 26.7036 55.044 27.1869 54.6513Z" fill="#816C44"/>
</g>
<path d="M51.6247 84.1202L51.4887 84.0899C51.67 83.1988 51.8814 81.5373 51.7153 80.6159C51.67 80.3138 51.5945 80.0117 51.4887 79.7248L51.6247 79.6794C51.7304 79.9815 51.8059 80.2836 51.8512 80.5857C52.0174 81.5373 51.8059 83.2139 51.6247 84.1202Z" fill="#1F1C1F"/>
<g opacity="0.35">
<path d="M98.718 47.1746C98.8841 49.3799 98.8992 51.6153 98.7633 53.8961C97.1019 80.5706 74.1292 100.856 47.456 99.1944C20.7829 97.5329 0.4987 74.559 2.16011 47.8845C2.20542 47.1142 2.26583 46.3439 2.35645 45.6038C4.15379 69.3178 23.1995 88.6817 47.6071 90.2073C73.5099 91.7932 95.9238 72.7163 98.718 47.1746Z" fill="#371A45"/>
</g>
<path d="M92.3442 23.5814C91.1208 21.7236 89.7766 19.9262 88.2964 18.2043C88.1756 18.0683 88.0547 17.9324 87.9339 17.7964C87.3902 17.1923 86.8464 16.5881 86.2725 16.0141C85.3663 15.0776 84.4148 14.1714 83.4481 13.3104C82.2549 12.2531 81.0164 11.2562 79.7326 10.3348C79.5514 10.214 79.3852 10.078 79.204 9.95721C78.2978 9.30772 77.3613 8.70354 76.4098 8.12957C76.3494 8.09936 76.289 8.05405 76.2286 8.02384C69.4319 3.93053 61.7139 1.49871 53.5579 0.98516C43.6046 0.365877 33.908 2.66176 25.4802 7.5556C22.6256 9.20199 19.9069 11.1656 17.3695 13.401C7.35578 22.2371 1.38982 34.4416 0.559121 47.7788C-0.271581 61.1009 4.13869 73.9548 12.9743 83.9691C14.2733 85.4342 15.6326 86.8087 17.0674 88.0926C17.3997 88.3947 17.732 88.6817 18.0794 88.9838C19.1215 89.875 20.1788 90.7057 21.2814 91.5062C28.8483 96.9589 37.8048 100.191 47.3503 100.78C48.4076 100.841 49.4497 100.886 50.4919 100.886C61.2608 100.886 71.3199 97.4272 79.5665 91.5062C79.9139 91.2646 80.2461 91.0078 80.5784 90.7661C81.1675 90.313 81.7565 89.8598 82.3304 89.3916C83.1158 88.7421 83.871 88.0624 84.6262 87.3676C87.6167 84.5733 90.2599 81.4164 92.4952 77.9575C96.9961 71.0095 99.8205 62.8379 100.364 54.0018C101.029 43.1115 98.2195 32.5384 92.3442 23.5814ZM47.5467 97.5933C40.2516 97.1402 33.319 95.0407 27.1567 91.5062C23.8641 89.6182 20.7981 87.3072 18.0039 84.6186C17.0977 83.7425 16.2065 82.8212 15.3607 81.8545C14.8019 81.2201 14.2733 80.5857 13.7597 79.9362C7.82399 72.4595 4.36525 63.4874 3.746 54.0471C3.61007 52.0383 3.61007 50.0143 3.746 47.9752C3.86683 45.9965 4.10849 44.0631 4.47097 42.1448C5.06002 39.0333 5.95114 36.0124 7.12922 33.1124C7.65785 31.7983 8.262 30.5144 8.91146 29.2607C10.3765 26.4362 12.1436 23.7778 14.1826 21.2856C14.6509 20.7267 15.1191 20.1678 15.6175 19.6241C16.5086 18.6272 17.4601 17.6605 18.4419 16.7391C18.7742 16.4219 19.1215 16.1047 19.4689 15.8026C20.7527 14.6698 22.097 13.6125 23.4714 12.6307C24.4531 11.9359 25.45 11.2864 26.4619 10.6822C29.966 8.58271 33.7117 6.96653 37.6085 5.8488C41.7167 4.68576 46.0061 4.08158 50.3711 4.08158C51.3528 4.08158 52.3496 4.11179 53.3465 4.1722C58.1797 4.47429 62.8618 5.5014 67.257 7.17799C69.5376 8.05405 71.7428 9.11136 73.8573 10.3348C74.0234 10.4255 74.1896 10.5312 74.3406 10.6218C75.3223 11.2109 76.2739 11.8302 77.2103 12.4797C80.231 14.5943 83.0252 17.0865 85.5173 19.9111C86.197 20.6814 86.8464 21.4517 87.4506 22.2522C87.6016 22.4486 87.7527 22.645 87.9037 22.8564C89.5953 25.107 91.0755 27.5086 92.314 29.9857C92.7671 30.8769 93.1749 31.7832 93.5676 32.7045C94.066 33.8978 94.5191 35.1062 94.9269 36.3296C95.3045 37.4776 95.6217 38.6255 95.9087 39.7885C96.2712 41.2688 96.5581 42.7792 96.7696 44.3048C97.0716 46.4345 97.2227 48.6095 97.2227 50.7846C97.2227 51.7664 97.1925 52.7633 97.1321 53.7602C97.0867 54.3794 97.0414 54.9836 96.981 55.5878C96.4071 61.2671 94.8212 66.6141 92.4197 71.4928C90.1693 76.0544 87.2089 80.193 83.6747 83.7425C82.9195 84.4978 82.1492 85.2379 81.3487 85.9327C80.9409 86.2952 80.5331 86.6426 80.1253 86.9749C79.9743 87.1108 79.8081 87.2317 79.642 87.3676C79.4154 87.5489 79.1738 87.7301 78.9472 87.9114C77.2707 89.2103 75.5036 90.3885 73.6609 91.4458C66.0185 95.9016 57.0167 98.1824 47.5467 97.5933Z" fill="#F9F8EB"/>
<path d="M36.2189 17.4188C35.8866 17.4642 35.5694 17.5095 35.2372 17.5699C35.2372 17.5699 35.2523 17.5699 35.2523 17.585C35.3278 17.6454 35.3882 17.6907 35.4637 17.7511C35.4939 17.7662 35.5241 17.7964 35.5392 17.8116L35.5543 17.8267C35.645 17.9022 35.7507 17.9928 35.8413 18.0683C35.9319 18.1438 36.0075 18.2194 36.0981 18.2949C36.1736 18.3704 36.2642 18.4459 36.3397 18.5064C36.4153 18.5819 36.5059 18.6574 36.5814 18.7329C36.8231 18.7027 37.0647 18.6725 37.3064 18.6272L36.2189 17.4188ZM36.2189 17.4188C35.8866 17.4642 35.5694 17.5095 35.2372 17.5699C35.2372 17.5699 35.2523 17.5699 35.2523 17.585C35.3278 17.6454 35.3882 17.6907 35.4637 17.7511C35.4939 17.7662 35.5241 17.7964 35.5392 17.8116L35.5543 17.8267C35.645 17.9022 35.7507 17.9928 35.8413 18.0683C35.9319 18.1438 36.0075 18.2194 36.0981 18.2949C36.1736 18.3704 36.2642 18.4459 36.3397 18.5064C36.4153 18.5819 36.5059 18.6574 36.5814 18.7329C36.8231 18.7027 37.0647 18.6725 37.3064 18.6272L36.2189 17.4188ZM36.2189 17.4188C35.8866 17.4642 35.5694 17.5095 35.2372 17.5699C35.2372 17.5699 35.2523 17.5699 35.2523 17.585C35.3278 17.6454 35.3882 17.6907 35.4637 17.7511C35.4939 17.7662 35.5241 17.7964 35.5392 17.8116L35.5543 17.8267C35.645 17.9022 35.7507 17.9928 35.8413 18.0683C35.9319 18.1438 36.0075 18.2194 36.0981 18.2949C36.1736 18.3704 36.2642 18.4308 36.3397 18.5064C36.4153 18.5819 36.5059 18.6574 36.5814 18.7329C36.8231 18.7027 37.0647 18.6725 37.3064 18.6272L36.2189 17.4188ZM99.1409 49.9236C99.0351 48.6398 98.869 47.371 98.6424 46.1626C98.6424 46.1626 98.6424 46.1626 98.6424 46.1475C98.4763 45.2564 98.2799 44.3954 98.0383 43.5496C97.3284 40.9818 96.3165 38.5802 94.9873 36.3598C94.217 35.0609 93.3561 33.8223 92.3744 32.6441C90.713 30.6352 88.7646 28.7774 86.5293 27.1008C86.4084 27.0102 86.2725 26.9195 86.1517 26.8138C80.7899 22.9018 73.8271 20.0621 65.656 18.3855C61.4723 17.5246 56.9714 16.9808 52.1986 16.7542C46.5045 16.4824 41.1578 16.7089 36.234 17.4037C35.9017 17.449 35.5845 17.4944 35.2523 17.5548C34.4518 17.6756 33.6513 17.8267 32.8659 17.9777C32.1258 18.1136 31.4008 18.2798 30.6759 18.4459C30.6305 18.4459 30.6003 18.461 30.555 18.4761C25.6161 19.6392 21.221 21.346 17.4601 23.5664C16.4633 24.1554 15.5269 24.7747 14.6206 25.4242C11.5999 27.6144 9.1078 30.1821 7.14432 33.0973C5.49802 35.5442 4.22931 38.2328 3.32309 41.1782C2.9757 42.2959 2.68873 43.4438 2.46218 44.622C2.11479 46.4194 1.87313 48.2924 1.78251 50.2559C1.78251 50.3466 1.76741 50.4523 1.76741 50.5429C1.3294 59.8473 3.82151 68.9402 9.00207 76.8549C9.37966 77.444 9.90829 78.0935 10.5578 78.7732C10.9353 79.1659 11.3431 79.5586 11.7812 79.9664C12.1285 80.2836 12.491 80.6008 12.8837 80.9331C14.3035 82.1264 16.0253 83.3649 17.9888 84.5884C22.0819 87.1562 27.2473 89.6635 33.0169 91.476C37.7293 92.9563 42.8494 93.9683 48.1357 94.1646C48.9362 94.1948 49.7216 94.21 50.5221 94.21C57.2885 94.21 63.768 93.1224 69.4923 91.476C72.9662 90.464 76.153 89.2557 78.9623 87.9416C79.2191 87.8208 79.4607 87.6999 79.7024 87.5791C79.929 87.4734 80.1404 87.3676 80.3519 87.2619C81.8169 86.5218 83.146 85.7665 84.3392 84.9962C84.7319 84.7394 85.1246 84.4827 85.4871 84.2259C85.9251 83.9087 86.348 83.6066 86.7407 83.2894C87.9037 82.3832 88.825 81.492 89.5047 80.631C90.5619 79.3018 91.5437 77.9273 92.4348 76.4924C96.4977 70.0428 98.8086 62.7322 99.1711 55.1196C99.307 53.3524 99.2768 51.6002 99.1409 49.9236ZM13.7748 79.9362C12.0983 78.5315 10.8598 77.2325 10.15 76.1148C5.24126 68.6079 2.80956 59.9832 3.12674 51.1622C3.12674 50.981 3.14184 50.7997 3.14184 50.6185C3.27778 47.5976 3.73089 44.7579 4.48607 42.1297C6.2532 35.9671 9.69684 30.9222 14.7717 27.0102C15.8289 26.1945 16.9466 25.4393 18.1398 24.7294C21.6136 22.6752 25.6614 21.0741 30.1774 19.9564C30.7967 19.8053 31.4159 19.6543 32.0352 19.5335C32.8659 19.3522 33.6966 19.2012 34.5575 19.0501C35.2221 18.9293 35.9017 18.8236 36.5814 18.7329C36.8231 18.7027 37.0647 18.6725 37.3064 18.6272C40.5537 18.2043 43.9822 17.9928 47.5769 17.9928C49.057 17.9928 50.5825 18.023 52.1231 18.0985C56.488 18.31 60.6113 18.7782 64.4628 19.5184C72.8302 21.1194 79.9139 23.944 85.321 27.8862C85.623 28.0977 85.91 28.3243 86.2121 28.5508C87.7678 29.7592 89.1724 31.0582 90.426 32.4478C91.1208 33.2181 91.7702 34.0186 92.3593 34.8494C94.4134 37.689 95.8935 40.8459 96.7998 44.3048C97.4492 46.7819 97.8117 49.4252 97.8721 52.2195C97.8721 52.5065 97.8872 52.7935 97.8872 53.0805C97.8872 53.73 97.8721 54.3946 97.8419 55.0592C97.5247 61.69 95.6821 68.0792 92.465 73.8491C91.302 75.9184 89.9729 77.8971 88.4625 79.7852C87.5563 80.9331 85.9251 82.3076 83.7049 83.7577C82.4664 84.5582 81.0315 85.3889 79.4305 86.1895C79.4003 86.2046 79.3701 86.2197 79.3399 86.2348C75.2166 88.3041 69.9756 90.2375 63.9946 91.476C59.1614 92.4729 53.8298 93.0167 48.1961 92.8052C44.7676 92.6693 41.4297 92.2011 38.2126 91.476C35.509 90.8719 32.9112 90.0864 30.4493 89.1802C23.3959 86.6124 17.5054 83.0629 13.7748 79.9362ZM36.2189 17.4188C35.8866 17.4642 35.5694 17.5095 35.2372 17.5699C35.2372 17.5699 35.2523 17.5699 35.2523 17.585C35.3278 17.6454 35.3882 17.6907 35.4637 17.7511C35.4939 17.7662 35.5241 17.7964 35.5392 17.8116L35.5543 17.8267C35.645 17.9022 35.7507 17.9928 35.8413 18.0683C35.9319 18.1438 36.0075 18.2194 36.0981 18.2949C36.1736 18.3704 36.2642 18.4459 36.3397 18.5064C36.4153 18.5819 36.5059 18.6574 36.5814 18.7329C36.8231 18.7027 37.0647 18.6725 37.3064 18.6272L36.2189 17.4188ZM36.2189 17.4188C35.8866 17.4642 35.5694 17.5095 35.2372 17.5699C35.2372 17.5699 35.2523 17.5699 35.2523 17.585C35.3278 17.6454 35.3882 17.6907 35.4637 17.7511C35.4939 17.7662 35.5241 17.7964 35.5392 17.8116L35.5543 17.8267C35.645 17.9022 35.7507 17.9928 35.8413 18.0683C35.9319 18.1438 36.0075 18.2194 36.0981 18.2949C36.1736 18.3704 36.2642 18.4459 36.3397 18.5064C36.4153 18.5819 36.5059 18.6574 36.5814 18.7329C36.8231 18.7027 37.0647 18.6725 37.3064 18.6272L36.2189 17.4188Z" fill="#F9F8EB"/>
<g opacity="0.35">
<path d="M91.0535 31.3281C96.657 37.2038 99.7683 45.0732 99.3001 55.1177C98.847 64.5731 95.3732 73.2128 89.7697 80.2364C85.5709 85.4927 68.9417 94.2684 48.9444 93.5132C41.891 93.2413 35.1397 91.5345 29.2794 89.1933C53.8833 89.6012 74.1374 78.8317 79.3482 72.3065C86.4469 63.3949 90.8723 52.4291 91.4311 40.4361C91.5972 37.2189 91.4613 34.1829 91.0535 31.3281Z" fill="#F9F8EB"/>
</g>
<path d="M94.504 33.9733L94.3832 33.8525L94.2926 33.7014C86.7105 21.935 71.3199 14.6698 52.0778 13.7635C32.7149 12.8422 16.7201 18.8537 8.18648 30.2274L8.09585 30.3331C7.58233 30.8769 6.72142 30.9222 6.16258 30.4086C5.63395 29.9102 5.58864 29.1097 6.02665 28.5508C15.1191 16.4672 31.9597 10.078 52.1986 11.0296C72.3318 11.9812 88.523 19.6996 96.5732 32.2212L95.4404 32.9613L94.504 33.9733Z" fill="#F9F8EB"/>
</svg>
