<svg version="1.1" id="Layer_1" xmlns="http://www.w3.org/2000/svg" xmlns:xlink="http://www.w3.org/1999/xlink" x="0px" y="0px"
	 width="100%" viewBox="0 0 100 100" enable-background="new 0 0 100 100" xml:space="preserve">
<path fill="#95928F" opacity="1.000000" stroke="none" 
	d="
M101.000000,38.000000 
	C101.000000,59.333328 101.000000,80.166656 101.000000,100.999992 
	C84.333344,101.000000 67.666687,101.000000 51.000034,101.000000 
	C34.333374,101.000000 17.666710,101.000000 1.000036,101.000000 
	C1.000024,67.666695 1.000024,34.333385 1.000012,1.000059 
	C34.333298,1.000039 67.666595,1.000039 100.999947,1.000020 
	C101.000000,13.166667 101.000000,25.333334 101.000000,38.000000 
M89.997597,30.011951 
	C89.997597,30.011951 89.980148,30.024378 89.891975,29.312115 
	C88.253479,27.204176 86.614983,25.096235 84.662651,22.399567 
	C81.424637,19.304789 78.186623,16.210011 74.180733,13.065324 
	C72.452698,12.727561 70.724655,12.389798 69.010933,11.993567 
	C69.010933,11.993567 69.014664,11.933490 68.875450,11.235904 
	C67.324745,10.130715 65.905830,8.400462 64.198021,8.040382 
	C59.528145,7.055768 54.736568,6.648377 49.127865,6.008955 
	C43.423420,7.346923 37.718971,8.684891 31.383930,10.305094 
	C24.112906,13.902357 18.098137,18.890751 13.493681,26.444862 
	C12.318828,28.940094 11.143973,31.435326 9.454674,34.436401 
	C8.326077,38.280933 7.197481,42.125465 6.032927,46.872101 
	C6.031516,49.576717 6.030105,52.281330 6.042087,55.747433 
	C6.687231,57.834057 7.332376,59.920681 7.988484,62.755013 
	C8.654582,64.508064 9.320681,66.261124 10.067325,68.586380 
	C10.370876,69.058151 10.674428,69.529915 11.010992,70.734451 
	C16.010017,81.900047 24.401627,89.259247 36.549168,93.513802 
	C39.372208,94.043541 42.195244,94.573280 45.672241,95.568901 
	C48.787312,95.704765 51.902386,95.840630 55.830112,95.973511 
	C60.261154,94.402870 64.692200,92.832230 69.759506,90.924019 
	C72.184929,89.643127 74.610359,88.362236 77.688538,86.922966 
	C79.477440,85.328636 81.266350,83.734314 83.639336,81.795937 
	C84.863380,79.992119 86.087418,78.188301 87.922699,76.073135 
	C89.611168,72.717323 91.299629,69.361511 93.125031,65.255074 
	C94.059769,60.198689 94.994507,55.142300 95.976250,49.258942 
	C95.648155,47.176624 95.320053,45.094307 94.993469,42.219574 
	C93.333656,39.148426 91.673843,36.077274 90.225952,32.497292 
	C90.475151,32.005974 90.724350,31.514660 90.729881,30.608603 
	C90.529984,30.349092 90.281609,30.150074 89.997597,30.011951 
z"/>
<path fill="#A7987C" opacity="1.000000" stroke="none" 
	d="
M36.006836,93.012863 
	C24.401627,89.259247 16.010017,81.900047 11.291912,70.532570 
	C13.604897,72.212044 16.657982,73.745720 17.443230,76.051651 
	C18.814552,80.078651 21.470150,81.780930 25.283215,83.098671 
	C30.695143,80.898605 35.073883,81.173653 38.383350,86.451797 
	C38.806412,87.126526 40.700325,87.125465 41.879055,87.028145 
	C44.267220,86.830978 46.632229,86.353264 49.168068,86.217361 
	C51.986980,89.921371 47.016441,88.330246 46.629585,90.005127 
	C45.853436,90.008118 45.409767,90.011940 44.577435,90.078415 
	C41.461464,91.098335 38.734150,92.055603 36.006836,93.012863 
z"/>
<path fill="#C9BBA3" opacity="1.000000" stroke="none" 
	d="
M95.929245,50.085915 
	C94.994507,55.142300 94.059769,60.198689 92.686020,65.642349 
	C90.475121,66.629356 88.703232,67.229088 85.268578,68.391609 
	C86.272949,60.872723 87.133179,54.432980 88.196960,47.770115 
	C85.929138,45.694294 83.457748,43.841595 81.067268,41.660995 
	C82.760124,40.227844 84.372078,39.122597 86.226318,38.270844 
	C89.622147,42.378197 92.775696,46.232056 95.929245,50.085915 
z"/>
<path fill="#BAAA90" opacity="1.000000" stroke="none" 
	d="
M24.995544,82.986153 
	C21.470150,81.780930 18.814552,80.078651 17.443230,76.051651 
	C16.657982,73.745720 13.604897,72.212044 11.275406,70.166183 
	C10.674428,69.529915 10.370876,69.058151 10.451141,68.299011 
	C13.643006,68.183342 16.057276,68.133987 16.336021,64.216270 
	C16.420033,63.035526 18.308527,61.983166 19.730326,60.841320 
	C21.056068,60.884754 22.021908,60.958866 23.013618,61.370419 
	C24.022110,63.389698 25.004728,65.071533 26.018391,67.114746 
	C27.688307,69.301758 29.327179,71.127411 31.094269,73.182434 
	C31.627634,73.964584 32.032776,74.517349 32.279903,75.412079 
	C30.703436,76.181831 29.284988,76.609619 27.552473,76.949844 
	C26.289404,75.767731 25.400480,74.611984 24.370092,73.600327 
	C23.693253,72.935783 22.812187,72.479248 22.022579,71.929558 
	C21.576130,72.661240 21.046906,73.355545 20.696890,74.130768 
	C18.677908,78.602440 22.722097,78.629364 24.999800,80.328026 
	C24.997705,81.467346 24.996624,82.226753 24.995544,82.986153 
z"/>
<path fill="#A9997E" opacity="1.000000" stroke="none" 
	d="
M19.370419,60.871994 
	C18.308527,61.983166 16.420033,63.035526 16.336021,64.216270 
	C16.057276,68.133987 13.643006,68.183342 10.410868,68.012909 
	C9.320681,66.261124 8.654582,64.508064 8.270980,62.210423 
	C9.104320,58.727264 11.294487,55.689373 8.063460,52.696854 
	C8.401272,51.942478 8.702965,51.473373 9.440496,51.004578 
	C11.910965,50.999405 13.945594,50.993919 16.014282,51.214985 
	C16.227163,51.691971 16.405985,51.942413 16.584806,52.192852 
	C16.787390,52.003937 16.989975,51.815022 17.192558,51.626106 
	C16.791180,51.410824 16.389803,51.195541 15.987253,50.649212 
	C15.988579,49.876690 15.991076,49.435219 16.345791,48.942795 
	C18.077616,48.592190 19.457220,48.292526 20.925699,48.346237 
	C21.018032,49.422241 21.021494,50.144867 21.036171,51.260990 
	C20.994135,52.439137 20.940886,53.223782 20.564638,54.020683 
	C15.904427,55.472397 21.048426,57.367744 19.805155,59.146423 
	C19.527372,59.842194 19.448895,60.357094 19.370419,60.871994 
z"/>
<path fill="#A39682" opacity="1.000000" stroke="none" 
	d="
M49.993183,6.012397 
	C54.736568,6.648377 59.528145,7.055768 64.198021,8.040382 
	C65.905830,8.400462 67.324745,10.130715 68.528488,11.606043 
	C66.793663,11.997238 65.405800,12.018293 63.717628,11.895729 
	C61.301189,10.888744 59.624027,10.658185 60.975121,13.798887 
	C61.474346,14.959376 62.357544,15.954687 63.057701,17.354137 
	C63.032711,18.121143 63.015633,18.559340 62.658913,19.002571 
	C59.551029,18.337152 56.782795,17.666702 53.853088,16.665031 
	C52.205635,15.552032 50.732521,14.744413 49.229908,13.996013 
	C47.832695,13.300109 46.404049,12.667322 45.210861,11.755853 
	C46.952717,9.674104 48.472950,7.843250 49.993183,6.012397 
z"/>
<path fill="#D4C5AE" opacity="1.000000" stroke="none" 
	d="
M87.993401,47.993240 
	C87.133179,54.432980 86.272949,60.872723 85.268578,68.391609 
	C88.703232,67.229088 90.475121,66.629356 92.617554,66.017662 
	C91.299629,69.361511 89.611168,72.717323 87.486656,75.837692 
	C86.249855,72.399498 84.933998,69.752754 80.974777,69.535461 
	C80.561264,66.640388 80.140694,64.176811 79.731346,61.347927 
	C79.812141,60.255219 79.881721,59.527805 80.117432,58.493763 
	C80.516998,55.777287 80.750443,53.367447 80.937378,50.591759 
	C80.961342,49.492390 81.031807,48.758869 81.532600,48.020668 
	C83.973083,48.008400 85.983246,48.000820 87.993401,47.993240 
z"/>
<path fill="#BFAF94" opacity="1.000000" stroke="none" 
	d="
M46.962063,90.005959 
	C47.016441,88.330246 51.986980,89.921371 49.177410,85.862915 
	C49.342808,83.910957 49.660149,82.539597 50.325691,81.129257 
	C51.136482,81.143234 51.599068,81.196190 52.118034,81.562881 
	C52.949455,83.300171 53.724491,84.723709 54.307739,85.794991 
	C56.130215,85.481743 57.785526,84.804794 59.317066,85.017807 
	C62.270020,85.428513 65.153023,86.342110 67.903664,87.308914 
	C67.046577,88.340279 66.350861,89.109932 65.323997,90.245918 
	C66.978355,90.688187 68.050797,90.974884 69.123238,91.261581 
	C64.692200,92.832230 60.261154,94.402870 55.542625,95.661522 
	C54.914085,94.607010 54.769127,93.481628 54.197678,93.188942 
	C51.856541,91.989845 49.385368,91.044624 46.962063,90.005959 
z"/>
<path fill="#B3A58E" opacity="1.000000" stroke="none" 
	d="
M85.984032,38.017349 
	C84.372078,39.122597 82.760124,40.227844 80.898148,41.909843 
	C80.366791,42.771790 80.085464,43.056980 79.579422,43.276840 
	C79.354713,43.211506 78.988632,42.919903 79.058197,42.632576 
	C78.365143,39.979534 77.602531,37.613823 76.899780,34.868347 
	C77.692406,31.382401 78.425171,28.276220 79.465958,25.165138 
	C80.183105,25.124348 80.592224,25.088455 81.230286,25.301594 
	C84.036812,27.542282 85.756943,31.167057 89.980148,30.024378 
	C89.980148,30.024378 89.997597,30.011951 90.116585,30.216179 
	C90.437172,30.675726 90.683167,30.876705 90.973557,31.023346 
	C90.724350,31.514660 90.475151,32.005974 89.959869,33.036053 
	C89.099808,34.713211 88.505836,35.851608 87.631653,37.031818 
	C86.895638,37.388203 86.439835,37.702774 85.984032,38.017349 
z"/>
<path fill="#93846C" opacity="1.000000" stroke="none" 
	d="
M9.004657,51.004272 
	C8.702965,51.473373 8.401272,51.942478 7.991708,53.001793 
	C7.265456,54.056652 6.647075,54.521301 6.028694,54.985947 
	C6.030105,52.281330 6.031516,49.576717 6.405450,46.357864 
	C11.103312,41.476509 12.146328,37.582767 9.969120,33.930557 
	C11.143973,31.435326 12.318828,28.940094 14.122206,26.163490 
	C16.496040,25.591671 18.241348,25.301224 20.099586,25.265953 
	C20.473612,26.013247 20.734705,26.505365 20.763924,27.230179 
	C20.355331,28.309647 20.178610,29.156422 19.630592,30.014420 
	C12.357816,31.562527 14.831546,36.727737 15.006094,41.253155 
	C15.001942,41.501568 14.992475,41.998375 14.731823,42.212967 
	C12.648999,45.286461 10.826828,48.145367 9.004657,51.004272 
z"/>
<path fill="#90826C" opacity="1.000000" stroke="none" 
	d="
M81.001343,25.052563 
	C80.592224,25.088455 80.183105,25.124348 79.097481,25.067972 
	C72.429955,25.176359 67.254135,23.273970 62.998558,18.997538 
	C63.015633,18.559340 63.032711,18.121143 63.357727,17.268532 
	C63.783096,15.249194 63.900517,13.644272 64.017944,12.039350 
	C65.405800,12.018293 66.793663,11.997238 68.598091,11.954836 
	C69.014664,11.933490 69.010933,11.993567 68.927811,12.347692 
	C68.928772,15.414730 68.046219,18.805176 69.349014,20.663874 
	C70.873917,22.839453 74.231323,22.834368 76.322899,20.688585 
	C75.812065,17.873528 75.380333,15.494379 74.948608,13.115231 
	C78.186623,16.210011 81.424637,19.304789 84.493362,22.742373 
	C83.216499,23.740974 82.108925,24.396769 81.001343,25.052563 
z"/>
<path fill="#9E917D" opacity="1.000000" stroke="none" 
	d="
M19.986656,25.010777 
	C18.241348,25.301224 16.496040,25.591671 14.375870,25.942394 
	C18.098137,18.890751 24.112906,13.902357 31.764818,10.478392 
	C33.100220,12.092129 34.054733,13.532567 34.741051,15.218437 
	C32.509319,15.463868 30.545790,15.463868 28.306856,15.463868 
	C28.187439,17.193569 28.090750,18.594078 27.761204,20.224209 
	C26.685896,20.636791 25.843445,20.819754 24.627836,21.023035 
	C23.502209,22.362638 22.749741,23.681921 21.662277,25.001127 
	C20.880407,25.004292 20.433533,25.007534 19.986656,25.010777 
z"/>
<path fill="#DCCDB6" opacity="1.000000" stroke="none" 
	d="
M80.967728,69.966942 
	C84.933998,69.752754 86.249855,72.399498 87.181038,75.993362 
	C86.087418,78.188301 84.863380,79.992119 83.322083,81.597473 
	C82.202988,79.721405 81.401138,78.043800 80.623055,76.415916 
	C78.016602,77.838974 76.024086,78.926834 74.076515,79.631714 
	C74.795570,75.875969 75.469666,72.503220 76.494461,69.154984 
	C78.219345,69.441978 79.593536,69.704460 80.967728,69.966942 
z"/>
<path fill="#958671" opacity="1.000000" stroke="none" 
	d="
M35.009247,14.973005 
	C34.054733,13.532567 33.100220,12.092129 32.080116,10.337275 
	C37.718971,8.684891 43.423420,7.346923 49.560524,6.010675 
	C48.472950,7.843250 46.952717,9.674104 44.866055,11.768139 
	C43.523460,12.696502 42.747299,13.361684 41.608177,14.032225 
	C39.833878,14.353149 38.422535,14.668715 36.677456,14.982327 
	C35.898891,14.977918 35.454071,14.975461 35.009247,14.973005 
z"/>
<path fill="#847762" opacity="1.000000" stroke="none" 
	d="
M74.564667,13.090277 
	C75.380333,15.494379 75.812065,17.873528 76.322899,20.688585 
	C74.231323,22.834368 70.873917,22.839453 69.349014,20.663874 
	C68.046219,18.805176 68.928772,15.414730 68.920654,12.376926 
	C70.724655,12.389798 72.452698,12.727561 74.564667,13.090277 
z"/>
<path fill="#E0D4BF" opacity="1.000000" stroke="none" 
	d="
M74.031555,80.014694 
	C76.024086,78.926834 78.016602,77.838974 80.623055,76.415916 
	C81.401138,78.043800 82.202988,79.721405 83.030045,81.769501 
	C81.266350,83.734314 79.477440,85.328636 77.152710,86.731743 
	C75.741341,85.026398 74.865791,83.512276 73.995850,81.667465 
	C74.011490,80.896088 74.021523,80.455391 74.031555,80.014694 
z"/>
<path fill="#DCCDB6" opacity="1.000000" stroke="none" 
	d="
M73.990250,81.998154 
	C74.865791,83.512276 75.741341,85.026398 76.826340,86.810928 
	C74.610359,88.362236 72.184929,89.643127 69.441376,91.092804 
	C68.050797,90.974884 66.978355,90.688187 65.323997,90.245918 
	C66.350861,89.109932 67.046577,88.340279 68.142944,87.182327 
	C69.001160,86.504524 69.458725,86.215019 70.245483,85.884888 
	C71.713203,84.562225 72.851730,83.280190 73.990250,81.998154 
z"/>
<path fill="#AA9A7E" opacity="1.000000" stroke="none" 
	d="
M46.629585,90.005127 
	C49.385368,91.044624 51.856541,91.989845 54.197678,93.188942 
	C54.769127,93.481628 54.914085,94.607010 55.136295,95.663010 
	C51.902386,95.840630 48.787312,95.704765 45.237350,95.056564 
	C44.857006,93.034744 44.911549,91.525253 44.966095,90.015770 
	C45.409767,90.011940 45.853436,90.008118 46.629585,90.005127 
z"/>
<path fill="#9A8C74" opacity="1.000000" stroke="none" 
	d="
M87.911865,36.990005 
	C88.505836,35.851608 89.099808,34.713211 89.853912,33.290470 
	C91.673843,36.077274 93.333656,39.148426 94.615318,42.611237 
	C92.128731,40.998600 90.020294,38.994301 87.911865,36.990005 
z"/>
<path fill="#AB9D86" opacity="1.000000" stroke="none" 
	d="
M87.631653,37.031815 
	C90.020294,38.994301 92.128731,40.998600 94.614563,43.007446 
	C95.320053,45.094307 95.648155,47.176624 95.952744,49.672424 
	C92.775696,46.232056 89.622147,42.378197 86.226318,38.270844 
	C86.439835,37.702774 86.895638,37.388203 87.631653,37.031815 
z"/>
<path fill="#A1947F" opacity="1.000000" stroke="none" 
	d="
M81.230286,25.301594 
	C82.108925,24.396769 83.216499,23.740974 84.650284,23.036736 
	C86.614983,25.096235 88.253479,27.204176 89.936066,29.668247 
	C85.756943,31.167057 84.036812,27.542282 81.230286,25.301594 
z"/>
<path fill="#C3B399" opacity="1.000000" stroke="none" 
	d="
M44.577435,90.078415 
	C44.911549,91.525253 44.857006,93.034744 44.910370,94.823624 
	C42.195244,94.573280 39.372208,94.043541 36.278000,93.263336 
	C38.734150,92.055603 41.461464,91.098335 44.577435,90.078415 
z"/>
<path fill="#877B65" opacity="1.000000" stroke="none" 
	d="
M9.711897,34.183479 
	C12.146328,37.582767 11.103312,41.476509 6.423428,45.906815 
	C7.197481,42.125465 8.326077,38.280933 9.711897,34.183479 
z"/>
<path fill="#9F8F75" opacity="1.000000" stroke="none" 
	d="
M6.035391,55.366692 
	C6.647075,54.521301 7.265456,54.056652 7.955589,53.287067 
	C11.294487,55.689373 9.104320,58.727264 8.265498,61.836571 
	C7.332376,59.920681 6.687231,57.834057 6.035391,55.366692 
z"/>
<path fill="#A1947F" opacity="1.000000" stroke="none" 
	d="
M90.851715,30.815975 
	C90.683167,30.876705 90.437172,30.675726 90.110168,30.215977 
	C90.281609,30.150074 90.529984,30.349092 90.851715,30.815975 
z"/>
<path fill="#B6A58A" opacity="1.000000" stroke="none" 
	d="
M49.977486,81.168236 
	C49.660149,82.539597 49.342808,83.910957 49.016129,85.636765 
	C46.632229,86.353264 44.267220,86.830978 41.879055,87.028145 
	C40.700325,87.125465 38.806412,87.126526 38.383350,86.451797 
	C35.073883,81.173653 30.695143,80.898605 25.283215,83.098671 
	C24.996624,82.226753 24.997705,81.467346 25.268780,80.356445 
	C29.004959,81.126038 26.857950,77.844078 27.866543,77.037407 
	C29.284988,76.609619 30.703436,76.181831 32.593590,75.611168 
	C38.702698,77.368271 44.340092,79.268250 49.977486,81.168236 
z"/>
<path fill="#DBCFBC" opacity="1.000000" stroke="none" 
	d="
M79.804131,43.342175 
	C80.085464,43.056980 80.366791,42.771790 80.817245,42.237747 
	C83.457748,43.841595 85.929138,45.694294 88.196960,47.770119 
	C85.983246,48.000820 83.973083,48.008400 81.471771,47.672493 
	C80.588455,46.000057 80.196289,44.671116 79.804131,43.342175 
z"/>
<path fill="#FBF9F7" opacity="1.000000" stroke="none" 
	d="
M79.579422,43.276840 
	C80.196289,44.671116 80.588455,46.000057 81.041443,47.677174 
	C81.031807,48.758869 80.961342,49.492390 80.491158,50.527023 
	C77.538712,50.828140 74.985977,50.828140 72.505615,50.828140 
	C72.108986,53.774567 71.808189,56.009094 71.432442,58.800396 
	C74.447441,58.800396 77.199371,58.800396 79.951302,58.800396 
	C79.881721,59.527805 79.812141,60.255219 79.500160,61.570831 
	C78.180252,63.695686 77.102753,65.232338 75.565872,66.729340 
	C67.805710,65.125313 62.076553,69.177345 55.553871,72.030624 
	C50.486805,71.348404 45.201817,71.851944 41.435093,69.699081 
	C36.314720,66.772545 31.418909,66.237663 25.987345,66.753372 
	C25.004728,65.071533 24.022110,63.389698 23.019146,61.046738 
	C22.999386,59.954239 22.999971,59.522858 23.406790,58.957294 
	C26.004065,58.823109 28.195108,58.823109 30.733253,58.823109 
	C30.117476,55.640072 29.668051,53.316929 29.194193,50.867493 
	C26.232599,50.867493 23.628777,50.867493 21.024956,50.867493 
	C21.021494,50.144867 21.018032,49.422241 21.018848,47.978729 
	C21.362738,45.782738 21.702351,44.307625 22.473349,42.884426 
	C26.115658,42.402428 29.962244,44.698479 32.731857,40.851868 
	C33.256832,40.933853 33.467289,40.963593 33.771244,41.309624 
	C34.201546,42.407925 34.538353,43.189938 34.918312,44.400444 
	C35.262039,48.044395 35.696995,51.254265 35.831066,54.476654 
	C36.022549,59.078915 36.551441,63.363361 42.114655,65.159584 
	C44.834217,66.657860 47.383263,67.844101 50.339325,69.062714 
	C51.824303,69.022171 52.902256,68.949257 54.182190,69.103470 
	C56.959404,67.423653 59.534637,65.516716 62.443710,63.594765 
	C64.387245,60.983032 67.947174,57.530155 67.251511,55.945522 
	C64.892853,50.572826 67.600174,46.501438 69.177910,41.844162 
	C69.543495,41.585728 69.682564,41.472469 70.099915,41.700638 
	C73.248337,42.334679 76.118484,42.627289 78.988632,42.919903 
	C78.988632,42.919903 79.354713,43.211506 79.579422,43.276840 
z"/>
<path fill="#F4F4F2" opacity="1.000000" stroke="none" 
	d="
M50.325691,81.129257 
	C44.340092,79.268250 38.702698,77.368271 32.751610,75.269211 
	C32.032776,74.517349 31.627634,73.964584 31.233837,72.880890 
	C33.233856,69.959381 35.065292,69.569099 37.299580,72.277008 
	C38.105820,73.254166 39.863857,73.874771 41.204800,73.905502 
	C46.188637,74.019684 51.179646,73.820702 56.599731,73.818237 
	C61.019840,73.958374 65.008179,74.019592 68.964798,74.380219 
	C68.901558,75.078506 68.870033,75.477402 68.556412,76.066750 
	C62.870094,77.921188 57.465874,79.585167 52.061653,81.249146 
	C51.599068,81.196190 51.136482,81.143234 50.325691,81.129257 
z"/>
<path fill="#3D3D3C" opacity="1.000000" stroke="none" 
	d="
M56.167961,73.739304 
	C51.179646,73.820702 46.188637,74.019684 41.204800,73.905502 
	C39.863857,73.874771 38.105820,73.254166 37.299580,72.277008 
	C35.065292,69.569099 33.233856,69.959381 31.105618,72.651505 
	C29.327179,71.127411 27.688307,69.301758 26.018391,67.114746 
	C31.418909,66.237663 36.314720,66.772545 41.435093,69.699081 
	C45.201817,71.851944 50.486805,71.348404 55.600327,72.456596 
	C56.126270,73.169487 56.147114,73.454391 56.167961,73.739304 
z"/>
<path fill="#CBBBA1" opacity="1.000000" stroke="none" 
	d="
M27.552473,76.949844 
	C26.857950,77.844078 29.004959,81.126038 25.269794,79.976532 
	C22.722097,78.629364 18.677908,78.602440 20.696890,74.130768 
	C21.046906,73.355545 21.576130,72.661240 22.022579,71.929558 
	C22.812187,72.479248 23.693253,72.935783 24.370092,73.600327 
	C25.400480,74.611984 26.289404,75.767731 27.552473,76.949844 
z"/>
<path fill="#F9F8F6" opacity="1.000000" stroke="none" 
	d="
M23.000557,59.091480 
	C22.999971,59.522858 22.999386,59.954239 22.993271,60.709297 
	C22.021908,60.958866 21.056068,60.884754 19.730324,60.841320 
	C19.448895,60.357094 19.527372,59.842194 20.173887,59.219131 
	C21.223591,59.006889 21.705257,58.902809 22.404140,58.833542 
	C22.621357,58.868355 23.000559,59.091480 23.000557,59.091480 
z"/>
<path fill="#A5957A" opacity="1.000000" stroke="none" 
	d="
M22.041965,42.832516 
	C21.702351,44.307625 21.362738,45.782738 20.929974,47.625355 
	C19.457220,48.292526 18.077616,48.592190 16.347044,48.527893 
	C15.661542,46.108746 15.327008,44.053562 14.992475,41.998375 
	C14.992475,41.998375 15.001942,41.501568 15.354915,41.142498 
	C17.139221,37.190018 18.570555,33.596607 20.001888,30.003195 
	C20.178610,29.156422 20.355331,28.309647 21.096916,27.231087 
	C22.105598,26.997911 22.549417,26.996523 22.998726,27.249237 
	C23.009310,27.672661 23.014406,27.841984 23.016027,28.411087 
	C23.743649,30.910498 24.474745,33.010124 25.079145,35.433907 
	C23.982290,38.116215 23.012129,40.474365 22.041965,42.832516 
z"/>
<path fill="#272726" opacity="1.000000" stroke="none" 
	d="
M23.406792,58.957294 
	C23.000559,59.091480 22.621357,58.868355 22.343483,58.483715 
	C21.672951,56.735527 21.280294,55.371979 20.887638,54.008430 
	C20.940886,53.223782 20.994135,52.439137 21.036171,51.260990 
	C23.628777,50.867493 26.232599,50.867493 29.194193,50.867493 
	C29.668051,53.316929 30.117476,55.640072 30.733253,58.823109 
	C28.195108,58.823109 26.004065,58.823109 23.406792,58.957294 
z"/>
<path fill="#9F8F75" opacity="1.000000" stroke="none" 
	d="
M14.731823,42.212967 
	C15.327008,44.053562 15.661542,46.108746 15.994824,48.578838 
	C15.991076,49.435219 15.988579,49.876690 15.992774,50.658817 
	C15.999466,50.999470 15.980222,50.988438 15.980222,50.988438 
	C13.945594,50.993919 11.910965,50.999405 9.440496,51.004578 
	C10.826828,48.145367 12.648999,45.286461 14.731823,42.212967 
z"/>
<path fill="#A69A86" opacity="1.000000" stroke="none" 
	d="
M20.564636,54.020683 
	C21.280294,55.371979 21.672951,56.735527 22.126266,58.448902 
	C21.705257,58.902809 21.223591,59.006889 20.373192,59.038261 
	C21.048426,57.367744 15.904427,55.472397 20.564636,54.020683 
z"/>
<path fill="#A69A86" opacity="1.000000" stroke="none" 
	d="
M15.993945,50.989864 
	C16.389803,51.195541 16.791180,51.410824 17.192558,51.626106 
	C16.989975,51.815022 16.787390,52.003937 16.584806,52.192852 
	C16.405985,51.942413 16.227163,51.691971 16.014282,51.214985 
	C15.980222,50.988438 15.999466,50.999470 15.993945,50.989864 
z"/>
<path fill="#9A8B72" opacity="1.000000" stroke="none" 
	d="
M62.658913,19.002571 
	C67.254135,23.273970 72.429955,25.176359 78.789459,25.072872 
	C78.425171,28.276220 77.692406,31.382401 76.531403,34.797390 
	C75.361893,34.992153 74.620628,34.878113 73.875366,34.413330 
	C73.086281,32.716976 72.624222,30.875195 71.457558,30.115625 
	C67.410019,27.480413 63.117733,25.221111 58.812881,22.481522 
	C56.119762,21.818640 53.444149,20.915932 50.964321,21.294785 
	C46.607460,21.960400 41.402256,19.531487 37.830826,24.633583 
	C36.762405,25.070452 35.910152,25.260500 34.954239,25.103849 
	C34.549911,23.844498 34.249249,22.931841 33.973415,21.660290 
	C35.335789,19.535370 36.673332,17.769344 38.288776,16.126301 
	C39.704613,15.838792 40.842541,15.428303 42.345104,15.066506 
	C46.403870,16.187790 49.700348,19.650227 54.014557,16.996252 
	C56.782795,17.666702 59.551029,18.337152 62.658913,19.002571 
z"/>
<path fill="#8C7E66" opacity="1.000000" stroke="none" 
	d="
M53.853088,16.665031 
	C49.700348,19.650227 46.403870,16.187790 42.345509,14.818639 
	C41.981281,14.522078 41.971134,14.026865 41.971134,14.026865 
	C42.747299,13.361684 43.523460,12.696502 44.644432,12.019033 
	C46.404049,12.667322 47.832695,13.300109 49.229908,13.996013 
	C50.732521,14.744413 52.205635,15.552032 53.853088,16.665031 
z"/>
<path fill="#9A8B72" opacity="1.000000" stroke="none" 
	d="
M63.717621,11.895729 
	C63.900517,13.644272 63.783096,15.249194 63.365646,16.939724 
	C62.357544,15.954687 61.474346,14.959376 60.975121,13.798887 
	C59.624027,10.658185 61.301189,10.888744 63.717621,11.895729 
z"/>
<path fill="#333231" opacity="1.000000" stroke="none" 
	d="
M80.117432,58.493763 
	C77.199371,58.800396 74.447441,58.800396 71.432442,58.800396 
	C71.808189,56.009094 72.108986,53.774567 72.505615,50.828140 
	C74.985977,50.828140 77.538712,50.828140 80.537659,50.892872 
	C80.750443,53.367447 80.516998,55.777287 80.117432,58.493763 
z"/>
<path fill="#C7BAA4" opacity="1.000000" stroke="none" 
	d="
M76.025253,66.768990 
	C77.102753,65.232338 78.180252,63.695686 79.488937,61.936131 
	C80.140694,64.176811 80.561264,66.640388 80.974777,69.535461 
	C79.593536,69.704460 78.219345,69.441978 76.354919,69.032135 
	C75.864677,68.884766 75.587982,68.640846 75.666733,68.329620 
	C75.838745,67.601929 75.931999,67.185463 76.025253,66.768990 
z"/>
<path fill="#B09F83" opacity="1.000000" stroke="none" 
	d="
M52.118034,81.562881 
	C57.465874,79.585167 62.870094,77.921188 68.881020,76.161888 
	C71.659630,77.335777 72.996666,78.650597 71.028801,81.347992 
	C70.173492,82.520386 70.258408,84.378723 69.916290,85.925514 
	C69.458725,86.215019 69.001160,86.504524 68.304306,86.920609 
	C65.153023,86.342110 62.270020,85.428513 59.317066,85.017807 
	C57.785526,84.804794 56.130215,85.481743 54.307739,85.794991 
	C53.724491,84.723709 52.949455,83.300171 52.118034,81.562881 
z"/>
<path fill="#292726" opacity="1.000000" stroke="none" 
	d="
M73.879356,34.764069 
	C74.620628,34.878113 75.361893,34.992153 76.471542,35.177155 
	C77.602531,37.613823 78.365143,39.979534 79.058197,42.632576 
	C76.118484,42.627289 73.248337,42.334679 70.097443,41.444153 
	C69.255592,40.145084 68.694481,39.443924 68.002045,38.365585 
	C67.624046,36.932220 67.377373,35.876030 67.551857,34.818321 
	C69.941795,34.799221 71.910576,34.781643 73.879356,34.764069 
z"/>
<path fill="#9F8F75" opacity="1.000000" stroke="none" 
	d="
M19.630592,30.014420 
	C18.570555,33.596607 17.139221,37.190018 15.359068,40.894085 
	C14.831546,36.727737 12.357816,31.562527 19.630592,30.014420 
z"/>
<path fill="#9F8F75" opacity="1.000000" stroke="none" 
	d="
M22.993237,26.995134 
	C22.549417,26.996523 22.105598,26.997911 21.328789,26.998392 
	C20.734705,26.505365 20.473612,26.013247 20.099586,25.265953 
	C20.433533,25.007534 20.880407,25.004292 21.879189,25.192848 
	C22.618475,25.921476 22.805855,26.458305 22.993237,26.995134 
z"/>
<path fill="#B1A28A" opacity="1.000000" stroke="none" 
	d="
M33.948582,22.019186 
	C34.249249,22.931841 34.549911,23.844498 34.829849,25.302338 
	C34.327396,26.256012 33.845673,26.664499 33.109718,27.152246 
	C32.583542,27.451723 32.311600,27.671938 31.767956,28.089077 
	C30.041212,30.444508 28.586172,32.603016 26.813183,34.835388 
	C26.065435,34.976086 25.635637,35.042919 25.205839,35.109756 
	C24.474745,33.010124 23.743649,30.910498 23.389980,28.404034 
	C25.987326,27.986393 27.450048,27.409145 26.339626,24.736452 
	C25.832975,23.516985 25.443575,22.248802 25.000996,21.002714 
	C25.843445,20.819754 26.685896,20.636791 28.124140,20.243938 
	C30.462816,20.695761 32.205700,21.357473 33.948582,22.019186 
z"/>
<path fill="#A99B85" opacity="1.000000" stroke="none" 
	d="
M33.973415,21.660290 
	C32.205700,21.357473 30.462816,20.695761 28.356998,20.014317 
	C28.090750,18.594078 28.187439,17.193569 28.306856,15.463868 
	C30.545790,15.463868 32.509319,15.463868 34.741051,15.218436 
	C35.454071,14.975461 35.898891,14.977918 36.803307,15.189240 
	C37.466900,15.655849 37.716228,15.857587 38.010872,16.003321 
	C36.673332,17.769344 35.335789,19.535370 33.973415,21.660290 
z"/>
<path fill="#AB9C85" opacity="1.000000" stroke="none" 
	d="
M24.627834,21.023035 
	C25.443575,22.248802 25.832975,23.516985 26.339626,24.736452 
	C27.450048,27.409145 25.987326,27.986393 23.393456,28.004253 
	C23.014406,27.841984 23.009310,27.672661 22.998726,27.249237 
	C22.805855,26.458305 22.618475,25.921476 22.214184,25.192926 
	C22.749741,23.681921 23.502209,22.362638 24.627834,21.023035 
z"/>
<path fill="#C7BAA4" opacity="1.000000" stroke="none" 
	d="
M70.245483,85.884888 
	C70.258408,84.378723 70.173492,82.520386 71.028801,81.347992 
	C72.996666,78.650597 71.659630,77.335777 69.163116,75.971428 
	C68.870033,75.477402 68.901558,75.078506 69.276733,74.246315 
	C71.609589,72.088951 73.598785,70.364899 75.587982,68.640846 
	C75.587982,68.640846 75.864677,68.884766 76.004219,69.007614 
	C75.469666,72.503220 74.795570,75.875969 74.076508,79.631714 
	C74.021523,80.455391 74.011490,80.896088 73.995850,81.667473 
	C72.851730,83.280190 71.713203,84.562225 70.245483,85.884888 
z"/>
<path fill="#9E917D" opacity="1.000000" stroke="none" 
	d="
M38.288776,16.126301 
	C37.716228,15.857587 37.466900,15.655849 37.137047,15.191195 
	C38.422535,14.668715 39.833878,14.353149 41.608177,14.032224 
	C41.971134,14.026865 41.981281,14.522078 41.980877,14.769945 
	C40.842541,15.428303 39.704613,15.838792 38.288776,16.126301 
z"/>
<path fill="#DD8F3F" opacity="1.000000" stroke="none" 
	d="
M68.951401,41.989334 
	C67.600174,46.501438 64.892853,50.572826 67.251511,55.945522 
	C67.947174,57.530155 64.387245,60.983032 62.318253,63.350891 
	C61.334831,62.412868 60.810711,61.703701 60.573990,60.899719 
	C60.574635,59.869888 60.287880,58.934875 59.391079,57.982796 
	C58.023373,58.242176 57.265713,58.518620 56.341049,58.878548 
	C52.508045,51.810581 52.481903,51.798054 47.717766,55.059376 
	C40.008163,55.277702 42.295776,60.783978 41.944134,64.847557 
	C36.551441,63.363361 36.022549,59.078915 35.831066,54.476654 
	C35.696995,51.254265 35.262039,48.044395 35.259876,44.538765 
	C36.852993,44.063053 39.078388,44.216782 39.289963,43.636391 
	C40.574402,40.112926 43.381767,36.603714 40.532707,32.546883 
	C40.607788,32.482548 40.802513,32.448067 41.153156,32.549675 
	C41.746357,32.671280 41.988911,32.691277 42.465981,32.975071 
	C46.071682,36.158886 45.050686,44.737061 53.183342,41.459480 
	C54.705349,40.846088 56.174438,39.815685 57.325871,38.642101 
	C58.709404,37.231953 59.726868,35.462643 60.969238,34.275417 
	C61.715721,38.057961 62.395790,41.413925 63.317539,45.962540 
	C65.263550,43.853855 66.119499,42.926350 67.304787,41.998100 
	C68.073219,41.994682 68.512306,41.992008 68.951401,41.989334 
M55.288776,47.210487 
	C55.625069,48.698841 55.816631,50.250542 56.417412,51.623127 
	C56.540405,51.904125 58.337376,51.765247 59.095848,51.341839 
	C59.576359,51.073605 59.958054,49.461735 59.703632,49.242653 
	C58.511684,48.216244 57.083641,47.464016 55.288776,47.210487 
z"/>
<path fill="#272726" opacity="1.000000" stroke="none" 
	d="
M75.666733,68.329620 
	C73.598785,70.364899 71.609589,72.088951 69.308456,73.946915 
	C65.008179,74.019592 61.019840,73.958374 56.599731,73.818230 
	C56.147114,73.454391 56.126270,73.169487 56.058971,72.458618 
	C62.076553,69.177345 67.805710,65.125313 75.565872,66.729340 
	C75.931999,67.185463 75.838745,67.601929 75.666733,68.329620 
z"/>
<path fill="#2F2D2C" opacity="1.000000" stroke="none" 
	d="
M25.079145,35.433910 
	C25.635637,35.042919 26.065435,34.976086 27.241909,34.936989 
	C30.629686,35.055119 33.270790,35.145508 35.756172,35.494759 
	C34.752476,37.104710 33.904495,38.455795 32.829849,40.012009 
	C32.541237,40.411304 32.479286,40.605465 32.417339,40.799625 
	C29.962244,44.698479 26.115658,42.402428 22.473351,42.884426 
	C23.012129,40.474365 23.982290,38.116215 25.079145,35.433910 
z"/>
<path fill="#EDE9DF" opacity="1.000000" stroke="none" 
	d="
M42.114655,65.159584 
	C42.295776,60.783978 40.008163,55.277702 47.719078,55.436401 
	C47.939365,57.232662 47.695419,58.605747 47.602425,59.988983 
	C47.553280,60.719925 47.767029,61.468540 47.854218,62.583534 
	C48.541672,64.982040 49.236992,67.006195 49.932308,69.030350 
	C47.383263,67.844101 44.834217,66.657860 42.114655,65.159584 
z"/>
<path fill="#E9AA8A" opacity="1.000000" stroke="none" 
	d="
M33.056515,39.806877 
	C33.904495,38.455795 34.752476,37.104710 36.039635,35.320648 
	C37.805080,34.128853 39.131351,33.370033 40.457623,32.611217 
	C43.381767,36.603714 40.574402,40.112926 39.289963,43.636391 
	C39.078388,44.216782 36.852993,44.063053 35.216721,44.110275 
	C34.538353,43.189938 34.201546,42.407925 33.744614,41.081081 
	C33.439297,40.289909 33.249973,40.046783 33.056515,39.806877 
z"/>
<path fill="#EDE9DF" opacity="1.000000" stroke="none" 
	d="
M56.508057,58.795067 
	C57.265713,58.518620 58.023373,58.242176 59.415646,58.358982 
	C60.129036,59.499664 60.207813,60.247097 60.286591,60.994530 
	C60.810711,61.703701 61.334831,62.412868 61.984413,63.365913 
	C59.534637,65.516716 56.959404,67.423653 54.247032,68.726730 
	C54.432983,66.610207 54.756077,65.097534 55.232422,63.339943 
	C55.759804,61.661709 56.133930,60.228390 56.508057,58.795067 
z"/>
<path fill="#E1AE9C" opacity="1.000000" stroke="none" 
	d="
M55.079166,63.584854 
	C54.756077,65.097534 54.432983,66.610207 54.045052,68.499619 
	C52.902256,68.949257 51.824303,69.022171 50.339325,69.062714 
	C49.236992,67.006195 48.541672,64.982040 48.210777,62.445091 
	C51.181210,60.759243 53.658203,60.093929 55.079166,63.584854 
z"/>
<path fill="#DC8F3E" opacity="1.000000" stroke="none" 
	d="
M69.177910,41.844162 
	C68.512306,41.992008 68.073219,41.994682 67.363205,41.656624 
	C67.439323,40.458179 67.786346,39.600471 68.133369,38.742764 
	C68.694481,39.443924 69.255592,40.145084 69.819168,41.102730 
	C69.682564,41.472469 69.543495,41.585728 69.177910,41.844162 
z"/>
<path fill="#F9F8F6" opacity="1.000000" stroke="none" 
	d="
M32.829849,40.012009 
	C33.249973,40.046783 33.439297,40.289909 33.651115,40.764793 
	C33.467289,40.963593 33.256832,40.933853 32.731857,40.851868 
	C32.479286,40.605465 32.541237,40.411304 32.829849,40.012009 
z"/>
<path fill="#F9F8F6" opacity="1.000000" stroke="none" 
	d="
M40.532707,32.546883 
	C39.131351,33.370033 37.805080,34.128853 36.195351,35.061783 
	C33.270790,35.145508 30.629686,35.055119 27.559858,34.863129 
	C28.586172,32.603016 30.041212,30.444508 32.042702,28.063982 
	C32.847420,27.585640 33.105686,27.329313 33.363953,27.072987 
	C33.845673,26.664499 34.327396,26.256012 34.933510,25.649036 
	C35.910152,25.260500 36.762405,25.070452 38.255161,24.540369 
	C45.569965,23.739820 52.244259,23.279310 58.918556,22.818800 
	C63.117733,25.221111 67.410019,27.480413 71.457558,30.115625 
	C72.624222,30.875195 73.086281,32.716976 73.875366,34.413330 
	C71.910576,34.781643 69.941795,34.799221 67.507210,34.839294 
	C67.041405,34.861790 67.105072,34.935173 67.070709,34.650227 
	C66.713722,34.208134 66.391083,34.050987 66.033234,33.932384 
	C65.998009,33.970928 66.050133,33.879822 65.988464,33.529442 
	C64.903656,32.840500 63.880520,32.501930 62.686760,32.117424 
	C62.248970,32.081898 62.065983,32.211327 61.630466,32.596622 
	C61.168270,33.147041 61.042786,33.560608 60.945465,33.939171 
	C60.973629,33.904167 60.902828,33.848839 60.902828,33.848839 
	C59.726868,35.462643 58.709404,37.231953 57.325871,38.642101 
	C56.174438,39.815685 54.705349,40.846088 53.183342,41.459480 
	C45.050686,44.737061 46.071682,36.158886 42.346939,32.784420 
	C41.596424,32.369335 41.199471,32.408703 40.802513,32.448067 
	C40.802513,32.448067 40.607788,32.482548 40.532707,32.546883 
z"/>
<path fill="#66625C" opacity="1.000000" stroke="none" 
	d="
M58.812881,22.481522 
	C52.244259,23.279310 45.569965,23.739820 38.471336,24.293547 
	C41.402256,19.531487 46.607460,21.960400 50.964321,21.294785 
	C53.444149,20.915932 56.119762,21.818640 58.812881,22.481522 
z"/>
<path fill="#E5A689" opacity="1.000000" stroke="none" 
	d="
M61.967175,32.459770 
	C62.065983,32.211327 62.248970,32.081898 62.745209,32.525173 
	C63.999565,33.279182 65.024849,33.579502 66.050133,33.879822 
	C66.050133,33.879822 65.998009,33.970928 65.798470,34.347172 
	C66.100975,34.794003 66.603027,34.864590 67.105072,34.935173 
	C67.105072,34.935173 67.041405,34.861790 67.086052,34.840816 
	C67.377373,35.876030 67.624046,36.932220 68.002045,38.365585 
	C67.786346,39.600471 67.439323,40.458179 67.033875,41.657368 
	C66.119499,42.926350 65.263550,43.853855 63.317539,45.962540 
	C62.395790,41.413925 61.715721,38.057961 60.969238,34.275417 
	C60.902828,33.848839 60.973629,33.904167 61.221218,33.772713 
	C61.634930,33.247433 61.801052,32.853600 61.967175,32.459770 
z"/>
<path fill="#A99B85" opacity="1.000000" stroke="none" 
	d="
M33.109718,27.152248 
	C33.105686,27.329313 32.847420,27.585640 32.314404,27.867060 
	C32.311600,27.671938 32.583542,27.451723 33.109718,27.152248 
z"/>
<path fill="#766D67" opacity="1.000000" stroke="none" 
	d="
M55.232422,63.339943 
	C53.658203,60.093929 51.181210,60.759243 48.218643,62.070740 
	C47.767029,61.468540 47.553280,60.719925 47.602425,59.988983 
	C47.695419,58.605747 47.939365,57.232662 48.119282,55.478333 
	C52.481903,51.798054 52.508045,51.810581 56.341049,58.878551 
	C56.133930,60.228390 55.759804,61.661709 55.232422,63.339943 
z"/>
<path fill="#DC8F3E" opacity="1.000000" stroke="none" 
	d="
M55.514355,46.912170 
	C57.083641,47.464016 58.511684,48.216244 59.703632,49.242653 
	C59.958054,49.461735 59.576359,51.073605 59.095848,51.341839 
	C58.337376,51.765247 56.540405,51.904125 56.417412,51.623127 
	C55.816631,50.250542 55.625069,48.698841 55.514355,46.912170 
z"/>
<path fill="#DC8F3E" opacity="1.000000" stroke="none" 
	d="
M60.573990,60.899719 
	C60.207813,60.247097 60.129036,59.499664 60.025692,58.376045 
	C60.287880,58.934875 60.574635,59.869888 60.573990,60.899719 
z"/>
<path fill="#E9AA8A" opacity="1.000000" stroke="none" 
	d="
M41.153156,32.549679 
	C41.199471,32.408703 41.596424,32.369335 42.112427,32.520622 
	C41.988911,32.691277 41.746357,32.671280 41.153156,32.549679 
z"/>
<path fill="#292726" opacity="1.000000" stroke="none" 
	d="
M65.988464,33.529442 
	C65.024849,33.579502 63.999565,33.279182 62.915833,32.571114 
	C63.880520,32.501930 64.903656,32.840500 65.988464,33.529442 
z"/>
<path fill="#292726" opacity="1.000000" stroke="none" 
	d="
M67.070709,34.650227 
	C66.603027,34.864590 66.100975,34.794003 65.833694,34.308628 
	C66.391083,34.050987 66.713722,34.208134 67.070709,34.650227 
z"/>
<path fill="#DD8F3F" opacity="1.000000" stroke="none" 
	d="
M61.630466,32.596622 
	C61.801052,32.853600 61.634930,33.247433 61.193054,33.807716 
	C61.042786,33.560608 61.168270,33.147041 61.630466,32.596622 
z"/>
</svg>