<?xml version="1.0" encoding="utf-8"?>
<!-- Generator: Adobe Adobe Illustrator 28.5.0, SVG Export Plug-In . SVG Version: 6.00 Build 0)  -->
<svg version="1.1" id="Layer_1" xmlns="http://www.w3.org/2000/svg" xmlns:xlink="http://www.w3.org/1999/xlink" x="0px" y="0px"
	 width="100px" height="100px" viewBox="0 0 100 100" style="enable-background:new 0 0 100 100;" xml:space="preserve">
<style type="text/css">
	.st0{fill:#FFFFFF;}
	.st1{fill:#9F9767;}
	.st2{fill:#030203;}
	.st3{fill:#6C653E;}
	.st4{fill:#7D6122;}
	.st5{fill:#342D24;}
	.st6{fill:#DAC47B;}
	.st7{fill:#140905;}
	.st8{fill:#6E5822;}
	.st9{fill:#383326;}
	.st10{fill:#2B1A09;}
	.st11{fill:#614A1E;}
	.st12{fill:#37332E;}
	.st13{fill:#8B814D;}
	.st14{fill:#896624;}
	.st15{fill:#4A330C;}
	.st16{fill:#38342D;}
	.st17{fill:#0C0A09;}
	.st18{fill:#B9AC75;}
	.st19{fill:#68623C;}
	.st20{fill:#796122;}
	.st21{fill:#1D1B15;}
	.st22{fill:#A18326;}
	.st23{fill:#3B3821;}
	.st24{fill:#403C25;}
	.st25{fill:#3F2A0C;}
	.st26{fill:#7F7743;}
	.st27{fill:#776025;}
	.st28{fill:#8C8452;}
	.st29{fill:#666336;}
	.st30{fill:#383529;}
	.st31{fill:#302B24;}
	.st32{fill:#6E664E;}
	.st33{fill:#16100C;}
	.st34{fill:#746C4A;}
	.st35{fill:#9B7920;}
	.st36{fill:#201D19;}
	.st37{fill:#595433;}
	.st38{fill:#756A45;}
	.st39{fill:#4F4823;}
	.st40{fill:#767350;}
	.st41{fill:#88835C;}
	.st42{fill:#795F29;}
	.st43{fill:#201B18;}
	.st44{fill:#746227;}
	.st45{fill:#5E5938;}
	.st46{fill:#676141;}
	.st47{fill:#231F0B;}
	.st48{fill:#313125;}
	.st49{fill:#544D28;}
	.st50{fill:#2D2B1B;}
	.st51{fill:#363020;}
	.st52{fill:#3D2B0F;}
	.st53{fill:#373223;}
	.st54{fill:#1B1910;}
	.st55{fill:#645D3B;}
	.st56{fill:#130F0D;}
	.st57{fill:#AFA273;}
	.st58{fill:#4B3C20;}
	.st59{fill:#201D11;}
	.st60{fill:#9C955E;}
	.st61{fill:#1B150E;}
	.st62{fill:#C3BF87;}
	.st63{fill:#8C8867;}
	.st64{fill:#26200F;}
	.st65{fill:#CAC17D;}
	.st66{fill:#3A332F;}
	.st67{fill:#5B5640;}
	.st68{fill:#A29965;}
	.st69{fill:#67644A;}
	.st70{fill:#A8A272;}
	.st71{fill:#CEC39E;}
	.st72{fill:#5D5B37;}
	.st73{fill:#8E865D;}
	.st74{fill:#6A5F3B;}
	.st75{fill:#C8C0A5;}
	.st76{fill:#352C32;}
	.st77{fill:#88806D;}
	.st78{fill:#B0AE8F;}
	.st79{fill:#454036;}
	.st80{fill:#A9A273;}
	.st81{fill:#292321;}
	.st82{fill:#D8C583;}
	.st83{fill:#BAAE76;}
	.st84{fill:#BCAE76;}
	.st85{fill:#B7A76F;}
	.st86{fill:#D1BF85;}
	.st87{fill:#8A8255;}
	.st88{fill:#837C4E;}
	.st89{fill:#817948;}
	.st90{fill:#837B4B;}
	.st91{fill:#7D714A;}
	.st92{fill:#948A58;}
	.st93{fill:#BBAD75;}
	.st94{fill:#C0B279;}
	.st95{fill:#8C865F;}
	.st96{fill:#7D7643;}
	.st97{fill:#5F5B3D;}
	.st98{fill:#6D6840;}
	.st99{fill:#B3A571;}
	.st100{fill:#363326;}
	.st101{fill:#332E24;}
	.st102{fill:#625B2E;}
	.st103{fill:#6D644E;}
	.st104{fill:#59533F;}
	.st105{fill:#ACA57B;}
	.st106{fill:#958A67;}
	.st107{fill:#574C34;}
	.st108{fill:#756B4C;}
	.st109{fill:#050404;}
	.st110{fill:#635D35;}
	.st111{fill:#100D0C;}
	.st112{fill:#090709;}
	.st113{fill:#333325;}
	.st114{fill:#8F8457;}
	.st115{fill:#34311B;}
	.st116{fill:#CFC185;}
	.st117{fill:#817748;}
	.st118{fill:#4D4C2E;}
	.st119{fill:#A69A6C;}
	.st120{fill:#A29663;}
	.st121{fill:#655F31;}
	.st122{fill:#070403;}
	.st123{fill:#3D290E;}
	.st124{fill:#3A301B;}
	.st125{fill:#655A28;}
	.st126{fill:#958E64;}
	.st127{fill:#180F09;}
	.st128{fill:#5E5942;}
	.st129{fill:#9D7F12;}
	.st130{fill:#A28A22;}
	.st131{fill:#C4A54F;}
	.st132{fill:#997824;}
	.st133{fill:#7B6120;}
	.st134{fill:#28130A;}
	.st135{fill:#38280C;}
	.st136{fill:#28170A;}
	.st137{fill:#614818;}
	.st138{fill:#8C6A24;}
	.st139{fill:#88671E;}
	.st140{fill:#645A2E;}
	.st141{fill:#886820;}
	.st142{fill:#3E2D07;}
	.st143{fill:#593D16;}
	.st144{fill:#6E5B2B;}
	.st145{fill:#765821;}
	.st146{fill:#775E1D;}
	.st147{fill:#3B280B;}
	.st148{fill:#63593E;}
	.st149{fill:#3C391D;}
	.st150{fill:#161406;}
	.st151{fill:#423B1C;}
	.st152{fill:#5F5E37;}
	.st153{fill:#756D4B;}
	.st154{fill:#A07725;}
	.st155{fill:#06030C;}
	.st156{fill:#090802;}
	.st157{fill:#9F956E;}
	.st158{fill:#403A30;}
	.st159{fill:#6B6243;}
	.st160{fill:#593615;}
	.st161{fill:#79694A;}
	.st162{fill:#5C5433;}
	.st163{fill:#593A11;}
	.st164{fill:#BCAD7F;}
	.st165{fill:#90835F;}
	.st166{fill:#948E66;}
	.st167{fill:#6A633F;}
	.st168{fill:#201810;}
	.st169{fill:#92824F;}
	.st170{fill:#57462C;}
	.st171{fill:#40350F;}
	.st172{fill:#A5A05F;}
	.st173{fill:#7C7457;}
	.st174{fill:#5C5329;}
	.st175{fill:#030302;}
	.st176{fill:#A69E7B;}
	.st177{fill:#080804;}
	.st178{fill:#B1A378;}
	.st179{fill:#9B916B;}
	.st180{fill:#3F3A24;}
	.st181{fill:#9E8F5D;}
	.st182{fill:#BDAE7B;}
	.st183{fill:#2B251E;}
	.st184{fill:#606146;}
	.st185{fill:#635C45;}
	.st186{fill:#6C5721;}
	.st187{fill:#573A09;}
	.st188{fill:#7A7146;}
	.st189{fill:#53493F;}
	.st190{fill:#403B16;}
	.st191{fill:#473838;}
	.st192{fill:#A1976B;}
	.st193{fill:#CCC189;}
	.st194{fill:#847B5B;}
	.st195{fill:#383224;}
	.st196{fill:#463E2D;}
	.st197{fill:#70663D;}
	.st198{fill:#0F0E09;}
	.st199{fill:#767241;}
	.st200{fill:#342C1A;}
	.st201{fill:#584F3A;}
	.st202{fill:#D2BC7A;}
	.st203{fill:#9D752C;}
	.st204{fill:#98905D;}
	.st205{fill:#C0B78A;}
	.st206{fill:#5F523F;}
	.st207{fill:#A28A71;}
	.st208{fill:#6D4E10;}
	.st209{fill:#BEA25D;}
	.st210{fill:#9D7A16;}
	.st211{fill:#53350D;}
	.st212{fill:#37332F;}
	.st213{fill:#3E2D2A;}
	.st214{fill:#241D1C;}
	.st215{fill:#6B5D5C;}
	.st216{fill:#6C5A2C;}
	.st217{fill:#5C4F3E;}
	.st218{fill:#323021;}
	.st219{fill:#3F331E;}
	.st220{fill:#CCBA8C;}
	.st221{fill:#A09571;}
	.st222{fill:#847249;}
	.st223{fill:#B1A165;}
	.st224{fill:#887D62;}
	.st225{fill:#998A5A;}
	.st226{fill:#B59644;}
	.st227{fill:#57390D;}
	.st228{fill:#B79F67;}
	.st229{fill:#D5BD95;}
	.st230{fill:#453D30;}
	.st231{fill:#6F5F35;}
	.st232{fill:#C6BE89;}
	.st233{fill:#604A25;}
	.st234{fill:#8F8167;}
	.st235{fill:#B4AF7F;}
	.st236{fill:#5E5836;}
	.st237{fill:#2E1C23;}
	.st238{fill:#C8C180;}
	.st239{fill:#6B6149;}
	.st240{fill:#B8B399;}
	.st241{fill:#86866E;}
</style>
<g>
	<g>
		<path d="M0.09,99.89C0,66.63,0,33.45,0,0.25c33.31,0,66.62,0,100,0c0,33.06,0,66.14,0,99.39c-0.28,0.46-0.59,0.33-0.88,0.33
			c-32.85,0.01-65.69,0.01-98.54,0.01C0.45,99.98,0.31,99.98,0.09,99.89z"/>
		<path class="st0" d="M0,99.99c33.27-0.18,66.54-0.18,99.91-0.18c-0.09,0.73-0.45,0.33-0.71,0.33c-4.8,0.03-9.6,0.02-14.4,0.02
			C56.53,100.16,28.27,100.16,0,99.99z"/>
		<path class="st1" d="M33.54,17.27c1.06-3.05,2.64-4.13,4.58-4.25c0.37,1.36-0.37,1.33-0.71,1.96c-0.04,0.83-0.35,1.16-0.67,1.65
			c-0.32,0.54-0.65,0.43-1.02,0.21c-0.02,0.86-0.17,1.49-0.47,1.83c0.06,0.75,0.36,1.14,0.46,1.83c-0.64,0.87-0.68,1.93-0.16,3.05
			c0.22,0.48,0.38,0.87,0.07,1.52c-0.21,0.43,0.12,0.67,0.41,0.83c0.15,0.11,0.22,0.22,0.31,0.47c0.14,1.52,0.03,2.95,0.18,4.37
			c0.13,1.3,0.58,2.14,1.56,2.23c0.37-0.28,0.68-0.27,1.06,0c0.2,0.3,0.23,0.59,0.2,1.04c-0.12,0.52-0.29,0.78-0.53,1.12
			c-0.61,0.4-1.15,0.33-1.78,0.17c-0.39-0.3-0.68-0.63-1.11-0.76c-0.68-0.53-0.82-1.51-0.93-2.66c0.15-2.08-0.3-3.58-1.17-4.89
			c-0.1-0.22-0.14-0.37-0.15-0.65c0.08-0.69-0.27-1.13-0.12-1.77c0.07-0.29-0.14,0.09-0.28-0.06c-0.25-0.15-0.39-0.38-0.53-0.77
			c0.09-1.37-0.11-2.51-0.44-3.73c0-0.35,0.03-0.69,0.16-0.67C33.26,19.43,33.34,18.34,33.54,17.27z"/>
		<path class="st1" d="M39.74,13.87c1.18-0.28,2.29-0.26,3.43,0.37c0.41,2,0.93,3.66,2.11,4.48c0.12,0.4,0.19,0.7,0.24,1.14
			c-0.02,0.39-0.08,0.58-0.25,0.7c0.02,0.15,0.16-0.03,0.3,0.1c-0.03,1.16,0.15,2.23,0.1,3.44c-0.17,0.59-0.19,1.11-0.18,1.75
			c-0.65,1.6-0.2,3.38-0.46,5.08c-0.06,0.23-0.1,0.36-0.14,0.6c0.01,0.18,0.02,0.25,0.03,0.43c0,0.51-0.09,0.86-0.22,1.31
			c-0.26,0.71-0.52,1.27-0.9,1.81c-0.35,0.25-0.6,0.11-0.86-0.34c-0.2-0.43-0.4-0.32-0.66-0.22c-0.75-0.34-1.41,0.16-2.16,0.13
			c-0.17-0.04-0.27-0.08-0.42-0.21c-0.28-1.66,0.1-2.19,1.15-1.73c0.24-0.29,0.16-0.89,0.41-1.3c0.3-0.34,0.47-0.81,0.78-0.89
			c0.39,0.36,0.61,1.1,1.11,1.32c0.19,0.2,0.28,0.45,0.43,0.59c0.26-0.4,0.07-0.77-0.04-1.26c-0.06-0.26-0.07-0.42-0.05-0.69
			c0.08-0.38,0.22-0.58,0.27-0.86c0.11-0.53-0.08-0.22-0.24-0.17c-0.57-0.18-0.45-0.77-0.31-1.47c0.83-1.45,0.38-3.11,0.3-4.56
			c-0.07-1.18-0.1-2.59-0.78-3.48c-0.21-0.28-0.16-0.87-0.1-1.52c-0.19,0.75-0.44,0.76-0.79,0.43c-0.08-0.14-0.11-0.21-0.15-0.4
			c-0.07-1.26-0.51-1.67-1.07-1.6c-0.35,0.04-0.35-0.32-0.43-0.74c-0.07,0.4-0.1,0.84-0.46,0.74c-0.16-0.41-0.19-0.77-0.21-1.28
			C39.53,14.92,39.55,14.43,39.74,13.87z"/>
		<path class="st2" d="M49.97,29.4c0.3-0.3,0.56-0.48,0.89-0.71c0.25,1.19,0.44,2.32,0.22,3.65c-0.18,1.1-0.17,2.24,0.28,3.32
			c0.51,1.22,0.06,2.25-0.5,3.17c-0.23-0.21-0.42-0.4-0.52-0.86c-0.01-0.26-0.01-0.4,0.01-0.66c0.02-0.4,0.03-0.68,0.02-1.08
			c-0.02-0.39-0.03-0.67-0.16-1c-0.06-0.15-0.08-0.22-0.13-0.39c-0.04-0.27-0.06-0.43,0.02-0.77c-0.16,0.44-0.08,0.76-0.15,1.15
			c-0.13,0.6-0.32,0.95-0.46,1.01c0.12-0.11,0.18,0.25,0.28,0.67c0.03,0.57-0.05,0.98-0.19,1.49c-0.27,0.76-0.63,1.19-1,1.77
			c-0.2,0.3-0.38,0.42-0.64,0.45c-0.34-0.06-0.61-0.16-0.95-0.23c-0.5-0.39-0.85-0.93-1.13-1.78c-0.04-0.69,0.01-1.28-0.11-1.97
			c-0.04-0.78-0.03-1.43-0.03-2.07c0-1.3,0.26-2.29,1.01-2.72c0.35-0.2,0.68-0.51,0.85-1.32c0.35-0.83,0.72-1.28,1.32-0.93
			c0.44,0.43,0.56,1.26,0.99,1.64C50.24,30.66,49.89,30.06,49.97,29.4z"/>
		<path class="st3" d="M48.53,45.18c0.12,0.47,0.19,0.84,0.27,1.34c0.65,2.04,0.46,3.77-0.43,5.43c-0.1,0.1-0.15,0.13-0.27,0.16
			c-0.44-0.36-0.75-0.36-0.99,0.49c-0.11,0.19-0.19,0.26-0.33,0.32c-0.23,0.04-0.37,0.17-0.52,0.47c-0.09,0.09-0.13,0.11-0.24,0.1
			c-0.43-0.65-0.82-0.72-1.32-0.23c-0.38-0.05-0.68,0.13-1.05,0.09c-0.11-0.04-0.15-0.06-0.26-0.15c-0.68-1.03-1.42-1.62-2.24-2.19
			c-0.39-1.67-0.33-1.8,0.85-2.06c0.26-0.02,0.44-0.12,0.7-0.15c0.56,0.42,1.05,0.74,1.64,0.14c0.16-0.06,0.26-0.05,0.42,0.05
			c0.09,0.13,0.12,0.2,0.16,0.4c0.03,0.39-0.01,0.63-0.14,0.95c-0.13,0.34-0.42,0.57-0.06,0.83c0.6,0.44,1.19,0.52,1.77-0.39
			c0.42-0.45,0.8-0.74,1.2-0.96c0.42-0.22,0.46-0.7,0.04-1.28c-0.19-0.53-0.25-1.02-0.38-1.61c-0.53-1.22-1.12-2.22-1.36-3.77
			c0.27-1.54,0.45-1.62,0.97-0.59c0.27,0.52,0.42,1.15,0.62,1.87C47.85,45.09,48.2,44.94,48.53,45.18z"/>
		<path class="st4" d="M57.09,62.56c1.12,1.09,2.01,2.53,2.89,3.98c0.22,0.36,0.46,0.62,0.73,1.01c0.53,0.63,0.49,1.32,0.18,2.03
			c-0.38,0.88-0.75,1.8-1.39,2.4c-0.17,0.08-0.26,0.09-0.43,0.02c-0.08-2.69-1.21-3.96-2.23-5.52c-0.13-0.18-0.19-0.3-0.28-0.55
			c-0.08-0.45-0.03-0.78,0.01-1.23c0.09-0.69,0.17-1.25,0.31-1.9C56.95,62.63,56.98,62.58,57.09,62.56z"/>
		<path class="st5" d="M45.42,59.25c-0.21,0.28-0.47,0.73-0.63,0.41c-0.76-1.63-2.19-1.84-2.73-4.09c-0.41-0.42-0.91-0.56-0.75-1.75
			c0.14-0.35,0.28-0.51,0.5-0.69c0.45-0.22,0.82-0.24,1.26-0.01c0.39,0.67,0.59,1.54,1.24,1.6c0.79,0.47,1.54,0.28,2.35,0.33
			c0.3,0.03,0.51,0.11,0.74,0.45c0.13,1.21-0.42,1.39-0.84,1.91c-0.12,0.08-0.16,0.1-0.28,0.14c-0.41,0.02-0.76-0.34-1.1,0.08
			C44.97,58.28,45.38,58.61,45.42,59.25z"/>
		<path class="st6" d="M65.21,85.16c-0.04,0.39-0.14,0.47-0.34,0.44c-0.51-0.2-0.95-0.41-1.42-0.48c-0.49-0.07-0.79-0.58-0.65-1.68
			c0.18-0.98,0.16-1.95,0.57-2.79c0.57-0.75,0.94-1.86,1.76-1.84c0.17,0.04,0.26,0.09,0.42,0.19c0.32,0.32,0.53,0.68,0.71,1.25
			C66.37,82.24,65.44,83.38,65.21,85.16z"/>
		<path class="st7" d="M61.75,68.01c0.11-0.4-0.12-1.05,0.4-0.83c0.58,0.46,1.13-0.19,1.72,0.15c0.16,0.05,0.25,0.09,0.4,0.18
			c0.15,0.1,0.23,0.17,0.35,0.36c-0.01,1.12,0.36,1.85,0.64,2.77c0.27,2.05-0.66,0.6-0.96,1.19c-0.1,0.11-0.14,0.14-0.25,0.19
			c-0.11,0-0.16-0.01-0.26-0.08c-0.72-0.45-1.32-1.76-2.14-0.38c-0.1,0.11-0.14,0.14-0.26,0.21c-0.78-0.03-0.86-0.63-0.46-1.52
			C61.25,69.57,61.68,69.07,61.75,68.01z"/>
		<path class="st8" d="M67.75,69.43c0.22-0.06,0.48-0.12,0.53,0.03c0.69,2.43,1.6,4.78,0.92,7.87c-0.45-0.32-0.88-0.82-1.49-0.34
			c-0.51-0.01-0.93,0.22-1.43,0.36c-0.21-0.09-0.33-0.22-0.49-0.46c-0.17-0.37-0.23-0.69-0.3-1.14c0.49-1.28,1.16-1.75,1.97-1.49
			c0.63,0.21,0.94-0.27,0.73-1.35c-0.13-0.71-0.23-1.46-0.51-2.21C67.59,70.22,67.6,69.87,67.75,69.43z"/>
		<path class="st9" d="M32.44,31.53c-0.82-1.08-0.92-2.51-0.86-4.18c-0.06-0.3-0.09-0.47-0.06-0.78c0.44-0.57,0.62,0.03,0.82,0.47
			c0.23,0.5,0.44,1.03,0.7,1.64c0.32,0.99,0.57,1.91,0.98,2.79c0.42,1.21,1.21,1.99,0.86,3.73c-0.59,0.71-0.98,0.61-1.32-0.51
			C33.25,33.63,32.62,32.9,32.44,31.53z"/>
		<path class="st10" d="M61.74,67.87c0.1,0.88,0.24,1.78-0.4,2.15c0.12,0.5-1.08,0.83,0.01,1.46c0.14,0.59-0.14,0.8-0.35,1.22
			c-0.15,0.33-0.22,0.6-0.32,0.98c-0.29,0.62-0.21,1.32-0.4,2c-0.87,0.8-0.92-0.84-1.41-1.38c-0.08-0.16-0.1-0.23-0.14-0.43
			c0-0.29,0.03-0.44,0.12-0.67c0.22-0.41,0.31-0.85,0.49-1.3c0.49-0.9,0.91-1.77,1.39-2.53c0.34-0.53,0.21-0.99,0.05-1.63
			C61.09,67.49,61.42,67.23,61.74,67.87z"/>
		<path class="st11" d="M60.05,84.48c-1.32-0.26-1.47-2.23-1.87-3.99c-0.17-0.48-0.33-0.84-0.33-1.47c0.11-0.9,0.27-1.64,0.22-2.46
			c-0.03-0.47,0.02-0.91,0.41-1.08c0.75,0.55,0.78,2.04,1.39,2.86c0.4,0.83,0.22,1.61,0.07,2.5c-0.17,0.55-0.5,0.42-0.66,0.77
			c-0.06,0.49,0.16,0.69,0.37,1.02C59.97,83.17,60.16,83.68,60.05,84.48z"/>
		<path class="st12" d="M47.45,56.03c-0.14-0.46-0.33-0.52-0.6-0.54c-0.13-0.14-0.19-0.27-0.28-0.52c-0.12-0.52-0.18-0.93-0.17-1.49
			c0.02-0.3,0.05-0.47,0.15-0.71c0.14-0.1,0.23-0.1,0.38-0.12c0.32-0.39,0.6-0.7,1-0.76c0.07,0.04,0.16,0.05,0.21,0.06
			c0.42,0.21,0.83,0.31,0.98,1.21c0.01,0.1,0,0.27,0.05,0.29c0.15,0.03,0.25,0.06,0.38,0.23c0.12,0.82-0.06,1.41-0.35,2.06
			c-0.04,0.18-0.07,0.23-0.13,0.34c-0.14,0.16-0.24,0.27-0.36,0.48c-0.08,0.11-0.11,0.15-0.21,0.21
			C48.07,56.79,47.78,56.48,47.45,56.03z"/>
		<path class="st13" d="M45.69,24.46c-0.41-0.97-0.13-2.12-0.58-2.96c-0.13-0.24,0.29-0.31,0.46-0.63c0.03-0.3-0.02-0.48-0.13-0.72
			c-0.1-0.36-0.17-0.64-0.23-1.03c0.08-0.25,0.17-0.31,0.35-0.2c0.9,1.15,1.14,2.98,1.78,4.27c0.26,0.53-0.02,0.99,0.2,1.47
			c0.1,0.7-0.3,0.84-0.44,1.41c-0.52,0.47-0.61-0.25-0.81-0.83c-0.06-0.13-0.09-0.18-0.16-0.3C45.98,24.78,45.88,24.69,45.69,24.46z
			"/>
		<path class="st14" d="M60.06,84.61c-0.05-0.62-0.26-1.08-0.44-1.69c-0.09-0.66-0.09-1.19,0.12-1.79
			c-0.06-0.87,0.33-1.59,0.08-2.48c-0.26-0.65-0.25-1.18,0.03-1.8c0.42-0.29,0.49,0.23,0.63,0.75c-0.03,0.82,0.18,1.44,0.2,1.92
			c-0.05,0.43,0.18,0.24,0.05,0.27c-0.04,0.01-0.04-0.04-0.03-0.16c0.01-0.48,0.09-0.9,0.39-1.23c0.11-0.05,0.16-0.05,0.27-0.01
			c0.63,0.83,0.51,1.76,0.26,2.74c-0.15,0.59-0.2,1.25-0.42,1.91c-0.03,0.26-0.04,0.4-0.08,0.65c0.02,0.26-0.27,0.25-0.06,0.58
			c0.02,0.18,0.01,0.26-0.03,0.43c-0.17,0.34-0.33,0.45-0.59,0.3C60.29,84.84,60.2,84.73,60.06,84.61z"/>
		<path class="st15" d="M67.78,69.21c0.03,0.5,0.03,0.87,0.04,1.39c0.23,3.02-0.14,3.71-1.72,3.21c-0.33-0.6-0.14-1.06,0.04-1.63
			c0.23-0.61,0.23-1.17,0.24-1.86c0.01-0.2,0.01-0.28,0.04-0.48c0.07-0.33,0.12-0.53,0.27-0.62c-0.18,0.04-0.35,0.13-0.58-0.03
			C66,69.06,65.97,69,65.93,68.81c0.09-0.62-0.17-1.25,0.22-1.65C67.06,66.95,67.6,67.53,67.78,69.21z"/>
		<path class="st16" d="M52.13,54.73c0.65,0.32,0.89,1.25,1.28,2.02c0.1,1.05,0.05,1.98,0.02,3.06c-0.06,0.6-0.17,1.01-0.44,1.4
			c-0.23,0.08-0.34-0.1-0.51-0.33c-0.3-0.37-0.61-0.32-0.91-0.72c-0.14-0.33-0.18-0.59-0.21-1.01c-0.03-0.83,0.16-1.47,0.16-2.3
			C51.59,55.91,51.4,54.94,52.13,54.73z"/>
		<path class="st17" d="M33.41,38.62c-0.02-0.82-0.9-1.6,0.12-2.23c1.21-0.01,1.58,1.79,2.29,2.98c0.18,0.35,0.26,0.66,0.36,1.09
			c0.12,0.62,0.22,1.12,0.13,1.78c-0.09,0.27-0.17,0.37-0.34,0.46c-0.12,0.04-0.17,0.04-0.29,0.04c-0.12-0.03-0.17-0.05-0.28-0.13
			C34.64,41.37,33.95,40.19,33.41,38.62z"/>
		<path class="st18" d="M39.73,13.7c0.07,0.54,0.07,1.02,0.07,1.64c-0.26,0.54-0.45,1.02-0.52,1.75c-0.04,0.44-0.07,0.76-0.19,1.16
			c-0.65,0.44-0.97-0.3-1.31-1.09c-0.07-0.22,0.02-0.51-0.23-0.46c-0.48-0.46-0.16-1.18-0.31-1.84c-0.24-0.45-0.21-0.8,0.08-0.65
			c0.53,0.28,0.69-0.28,0.88-1.03C38.67,13.38,39.21,13.13,39.73,13.7z"/>
		<path class="st19" d="M33.74,26.02c0.05,0.23,0.05,0.39,0.06,0.67c0.07,0.51,0.23,0.82,0.31,1.34c0.01,0.2,0.01,0.29-0.01,0.49
			c-0.05,0.19-0.08,0.26-0.15,0.41c-0.09,0.13-0.14,0.17-0.25,0.24c-0.21,0.06-0.35,0.03-0.52-0.18c-0.34-1.45-0.89-2.46-1.52-3.53
			c-0.05-0.09-0.07-0.06-0.08-0.05c-0.29-1.19-0.18-2.42-0.07-3.8c0.08-0.69,0.12-1.23,0.21-1.85c0.27,0,0.36,0.28,0.42,0.73
			c-0.02,1.2,0.27,2.07,0.62,3.02c0.16,0.26,0.28,0.44,0.41,0.71C32.93,25.28,33.45,25.49,33.74,26.02z"/>
		<path class="st20" d="M67.55,76.88c0.4-0.71,0.89-0.34,1.32-0.79c0.08,0.48,0.14,0.85,0.25,1.3C68.72,79,68.74,80.89,68,82.2
			c-0.27,0.48-0.44,1.17-0.94,1.29c-0.26-0.37-0.14-0.73-0.05-1.19c0.07-0.23,0.12-0.36,0.2-0.57c0.08-0.21,0.13-0.33,0.2-0.55
			c0.05-0.17,0.07-0.23,0.13-0.4c0.42-1.03-0.17-1.72-0.17-2.68C67.37,77.61,67.39,77.28,67.55,76.88z"/>
		<path class="st21" d="M35.82,39.5c-0.35,0.06-0.64-0.25-0.69-0.63c-0.18-1.44-0.96-1.57-1.5-2.39c-0.28-1.37-1.16-2.01-1.13-3.57
			c0.01-0.39-0.08-0.79-0.12-1.33c0.64,0.54,0.95,1.81,1.34,2.79c0.31,0.78,0.51,0.94,1.06,0.98c0.24,0.57,0.41,0.99,0.78,1.21
			c0.08,0.13,0.11,0.19,0.17,0.37c0.1,0.58,0.08,1.07,0.16,1.66c0.02,0.2,0.03,0.28,0.03,0.49C35.91,39.27,35.89,39.35,35.82,39.5z"
			/>
		<path class="st22" d="M67.21,82.01c-0.06,0.49-0.13,0.86-0.21,1.34c-0.42,1.12-1.06,1.46-1.73,1.9c-0.53-0.65-0.16-1.55,0.02-1.8
			c0.57-0.77,0.57-1.93,0.87-3.01c0.05-0.64,0.06-1.22,0.47-1.21c0.34,0,0.39,0.54,0.48,0.95C67.23,80.73,67.24,81.3,67.21,82.01z"
			/>
		<path class="st23" d="M51.44,81.46c-0.47-1.25-0.07-2.53-0.21-3.88c0.08-0.38,0.15-0.67,0.36-0.91c0.31-0.17,0.48,0.08,0.69,0.44
			c0.15,0.24,0.24,0.4,0.38,0.66c0.17,0.51,0.16,1.01,0.31,1.54c0.17,0.66,0.08,1.22,0.02,1.89c-0.11,0.57-0.3,0.69-0.62,0.54
			c-0.18-0.09-0.29-0.15-0.48-0.15c-0.1,0.02-0.14,0.02-0.24,0.02C51.56,81.58,51.52,81.56,51.44,81.46z"/>
		<path class="st24" d="M35.78,42.53c0.12-0.08,0.21-0.1,0.37-0.12c0.49-0.57,0.76,0.01,1.12,0.49c0.75,1.76,0.76,2.5,0.03,3.63
			c-0.77-0.48-0.93-1.96-1.57-2.6c-0.17-0.17-0.31-0.4-0.51-0.7c-0.12-0.38-0.05-0.59,0.12-0.85c0.07-0.06,0.16-0.02,0.21,0
			C35.62,42.55,35.67,42.61,35.78,42.53z"/>
		<path class="st25" d="M66.2,67.05c-0.44,0.49,0.38,1.16-0.15,1.54c-0.22,0.03-0.36-0.13-0.57-0.23c-0.3-0.13-0.54-0.19-0.82-0.42
			c-0.15-0.02-0.24-0.02-0.4-0.02c-0.1-0.06-0.13-0.12-0.22-0.26c-0.63-0.12-1.22,0.26-1.81-0.35c1.05-0.48,2.06-1.48,3.21-1.19
			C65.77,66.2,66.15,66.03,66.2,67.05z"/>
		<path class="st26" d="M47.04,26.15c-0.11-0.78,0.11-1.09,0.5-1.33c0.74,0.36,1.15,1.3,1.45,2.57c-0.69,0.95-1.52,1.48-2.07,2.8
			c-0.21-0.04-0.34-0.14-0.52-0.36c-0.38-0.98-0.36-1.67,0.29-2.07c0.24-0.15,0.44-0.49,0.62-0.96c0.03-0.22,0.02-0.33-0.09-0.45
			C47.15,26.28,47.11,26.25,47.04,26.15z"/>
		<path class="st27" d="M54.14,57.59c0.88,0.99,1.21,2.86,2.23,3.6c0.17,0.28,0.19,0.53,0.14,0.93c-0.12,0.34-0.24,0.48-0.45,0.63
			c-0.56,0.17-0.78-0.69-1.22-1.01c-0.21-0.28-0.35-0.53-0.53-0.88C53.9,59.75,53.15,58.81,54.14,57.59z"/>
		<path class="st28" d="M45.62,18.87C45.53,19,45.44,19,45.27,19.01c-1.52-1.07-2.17-2.49-2.08-4.53c0.42-0.12,0.65,0.14,0.89,0.78
			C44.52,16.49,45.09,17.6,45.62,18.87z"/>
		<path class="st29" d="M46.75,30.24c0.59-1.45,1.17-2.57,2.19-2.73c0.25,0.27,0.44,0.55,0.66,0.91c0.11,0.85-0.16,1.28-0.54,1.63
			c-0.48-0.64-0.79-0.13-1.17,0.29c-0.29,0.4-0.53,0.73-0.94,0.59C46.78,30.81,46.72,30.67,46.75,30.24z"/>
		<path class="st30" d="M56.05,80.63c-0.57-0.67-0.78-1.77-1.17-2.77c-0.17,0.04-0.26,0-0.38-0.23c-0.05-0.2-0.07-0.28-0.09-0.5
			c-0.01-0.41,0.02-0.67,0.11-1.04c0.3-0.72,0.62-1.16,1.14-1.2c0.52,0.7,0.5,1.69,0.62,2.73C56.38,78.71,56.4,79.65,56.05,80.63z"
			/>
		<path class="st31" d="M38.88,52.03c-0.19-1.8-1.23-2.87-1.07-4.9c0.08-0.26,0.16-0.32,0.33-0.29c0.3,0.3,0.49,0.65,0.73,1.1
			c0.16,0.52,0.22,0.98,0.42,1.46c0.22,1.31,0.8,1.84,1.37,2.57c0.07,0.4,0.02,0.64-0.17,0.9C39.8,53.35,39.41,52.51,38.88,52.03z"
			/>
		<path class="st32" d="M50.46,62.69c-0.19-0.65-0.56-0.24-0.74-0.62c0.26-1.05,0.59-2.1-0.06-3.24c0.17-0.55,0.47-0.53,0.82-0.66
			c0.12-0.01,0.16-0.01,0.28,0.04c0.24,0.32,0.33,0.72,0.52,1.12c0.06,0.18,0.08,0.26,0.11,0.47c0.09,0.92,0.07,1.69-0.16,2.54
			c-0.07,0.18-0.1,0.25-0.2,0.38c-0.11,0.09-0.16,0.12-0.28,0.14C50.61,62.84,50.56,62.81,50.46,62.69z"/>
		<path class="st33" d="M50.66,55.68c-0.11-0.41-0.18-0.73-0.26-1.1c0.62-0.22,0.87-0.65,0.13-1.43c0.25-0.79,0.65-1.08,1.2-1.18
			c0.11,0.06,0.15,0.12,0.22,0.31c0.05,0.21,0.06,0.3,0.08,0.52c0.02,1.4-0.43,2.48-0.48,3.85c-0.06,0.19-0.09,0.25-0.19,0.38
			c-0.22,0.11-0.35,0.04-0.52-0.21C50.68,56.43,50.72,56.09,50.66,55.68z"/>
		<path class="st34" d="M50.74,62.7c0.08-0.09,0.11-0.09,0.21-0.1c0.15-0.14,0.25-0.18,0.43-0.05c0.32,0.66,0.27,1.35,0.28,2.16
			c0,0.41-0.02,0.67-0.07,1.05c-0.1,0.51-0.3,0.73-0.5,1.09c-0.07,0.14-0.09,0.2-0.16,0.33c-0.14,0.22-0.25,0.32-0.41,0.45
			c-0.1,0.05-0.14,0.05-0.23,0c-0.07-0.92-0.08-1.78-0.08-2.8c0.16-0.46,0.05-0.87,0.18-1.29C50.51,63.24,50.59,63,50.74,62.7z"/>
		<path class="st35" d="M62.96,83.42c-0.15,0.99,0.18,1.63,0.55,1.35c0.59-0.45,0.83,0.36,1.26,0.71c-0.24,0.24-0.51,0.38-0.86,0.54
			c-0.99-0.24-2.06,0.48-2.74-1.38C61.67,83.75,62.19,83.09,62.96,83.42z"/>
		<path class="st36" d="M49.07,53.74c0.1-1.21-0.72-0.83-0.87-1.66c0.67-1.62,0.98-3.26,0.59-5.29c0.82,0.92,0.64,2.38,0.48,3.77
			c-0.12,1.08-0.15,2.06,0.3,3.06C49.45,53.75,49.3,53.75,49.07,53.74z"/>
		<path class="st37" d="M38.27,47.04c-0.16-0.03-0.24-0.03-0.39-0.05c-0.17-0.32-0.36-0.29-0.59-0.37c0.57-1.09,0.39-2.15-0.08-3.34
			c-0.53-1.23,0.03-1.08,0.45-1.15c0.6,0.57,0.66,1.78,1.17,2.5c-0.16,0.65-0.29,1.21-0.27,1.97
			C38.49,46.86,38.43,46.97,38.27,47.04z"/>
		<path class="st38" d="M46.12,57.39c0.08-0.06,0.17-0.1,0.22-0.12c0.77,0.8,1.44,0.21,2.19-0.25c0.22,0.06,0.34,0.19,0.46,0.52
			c-0.86,1.01-1.69,2.21-2.91,1.82C45.71,58.7,45.72,58.06,46.12,57.39z"/>
		<path class="st39" d="M54.23,57.51c-0.89,1.26-0.01,2.07,0.14,3.22c-0.2,0.3-0.37,0.33-0.61,0.37c-0.32-0.07-0.48-0.29-0.52-0.88
			c0.02-1.11-0.14-2.15,0.14-3.25C53.68,57.17,54.14,56.44,54.23,57.51z"/>
		<path class="st40" d="M51.66,76.64c-0.09,0.4-0.09,0.74-0.38,0.81c-0.74-1.05-0.52-2.65-0.85-4.08c-0.01-0.22,0.01-0.28,0.07-0.44
			c0.17-0.3,0.3-0.53,0.55-0.39c0.19,0.5,0.27,0.99,0.51,1.46C51.83,74.89,51.94,75.68,51.66,76.64z"/>
		<path class="st41" d="M32.08,20.85c-0.13-0.37-0.19-0.66-0.27-1.07c0.65-0.66,0.81-2.33,1.7-2.59c0.06,0.76,0.18,1.57,0.01,2.23
			c-0.35,0.63-0.78-0.09-1.11,0.52C32.56,20.56,32.48,20.84,32.08,20.85z"/>
		<path class="st42" d="M61.14,84.51c0.72,1.44,1.75,0.74,2.62,1.47c-1.11,0.39-2.32,1.12-3.35-0.91c0.13-0.21,0.3-0.31,0.52-0.45
			C61.03,84.53,61.06,84.48,61.14,84.51z"/>
		<path class="st43" d="M54.57,77.45c0.05,0.17,0.08,0.26,0.18,0.36c0.18,1.14-0.62,1.1-0.73,2.05c-0.12,0.25-0.23,0.3-0.42,0.18
			c-0.45-1.42-0.26-2.76-0.03-4.23c0.15-0.51,0.31-0.63,0.57-0.24c0.07,0.15,0.1,0.22,0.16,0.38c0.06,0.23,0.08,0.37,0.11,0.61
			c0.02,0.15,0.03,0.21,0.05,0.35c0.01,0.08-0.02,0.24-0.04,0.3c-0.02,0.06-0.1,0.01-0.1,0.08c-0.01,0.07,0.07,0.03,0.11,0.03
			C54.48,77.31,54.55,77.39,54.57,77.45z"/>
		<path class="st44" d="M49.08,57.71c-0.17-0.15-0.28-0.26-0.46-0.41c-0.11-0.18-0.13-0.33-0.08-0.59c0.04-0.16,0.05-0.23,0.06-0.4
			c0.08-0.2,0.17-0.26,0.32-0.35c0.09-0.07,0.12-0.08,0.21-0.09c0.42,0.61,0.5,2.01,1.37,1.39c0.22,0.2,0.24,0.48,0.16,0.93
			c-0.27,0.66-0.59,0.47-0.96,0.52C49.46,58.39,49.3,58.07,49.08,57.71z"/>
		<path class="st45" d="M49.01,30.13c0.16-0.54,0.35-0.98,0.58-1.52c0.13,0.12,0.21,0.35,0.35,0.63c0.32,0.95,0.72,1.85,0.07,2.81
			C49.46,31.83,49.42,30.74,49.01,30.13z"/>
		<path class="st46" d="M46.13,57.26c-0.14,0.6-0.14,1.21-0.13,1.96c-0.15,0.15-0.3,0.17-0.52,0.17c-0.4-0.49-0.66-1.05-0.86-1.76
			C45.08,56.88,45.54,56.72,46.13,57.26z"/>
		<path class="st47" d="M50.43,37.6c0.1,0.42,0.22,0.72,0.35,1.13c-0.47,0.73-0.66,2.11-1.54,1.87c-0.31-0.65-0.1-1.11,0.15-1.67
			c0.25-0.52,0.25-1.19,0.63-1.54c0.11-0.07,0.15-0.09,0.27-0.09C50.39,37.37,50.42,37.43,50.43,37.6z"/>
		<path class="st48" d="M35.38,42.23c-0.02,0.3-0.08,0.5-0.16,0.8c-0.57-1.01-1.11-2.12-1.66-3.22c-0.17-0.34-0.45-0.58-0.2-1.24
			C34.05,39.71,34.69,40.93,35.38,42.23z"/>
		<path class="st49" d="M31.6,25.49c0.89,0.45,1.46,1.48,1.6,3.3c-0.03,0.18-0.07,0.23-0.16,0.21c-0.69-0.53-0.76-1.9-1.36-2.55
			c-0.1-0.08-0.13-0.13-0.14-0.28C31.57,25.91,31.58,25.76,31.6,25.49z"/>
		<path class="st50" d="M50.46,73.23c-0.41-1.07-0.22-2.4-0.61-3.5c-0.17-0.46,0.18-0.75,0.55-0.77c0.16-0.11,0.25-0.14,0.4-0.06
			c0.11,0.2,0.14,0.36,0.14,0.65c-0.03,0.36-0.06,0.6-0.07,0.97c0,0.29,0,0.46,0,0.77c0.03,0.69-0.14,1.18-0.21,1.83
			C50.6,73.23,50.5,73.23,50.46,73.23z"/>
		<path class="st51" d="M46.99,40.44c0.26-0.4,0.49-0.6,0.78-0.18c0.2,0.27,0.37,0.17,0.59,0.17c0.1,0,0.15,0.01,0.24,0.08
			c0.07,0.13,0.09,0.2,0.14,0.36c0.19,0.23,0.26,0.43,0.11,0.78c-0.29,0.45-0.5,0.93-0.92,1.03c-0.11-0.01-0.16-0.02-0.26-0.09
			C47.51,41.79,47.19,41.28,46.99,40.44z"/>
		<path class="st52" d="M57.97,78.83c0.08,0.5,0.15,0.89,0.22,1.4c-0.64-0.02-1.01,1.43-1.74,0.95c-0.22-0.47-0.24-0.88-0.06-1.4
			c0.29-0.56,0.75-0.13,1-0.86c0.09-0.22,0.15-0.33,0.29-0.45C57.83,78.49,57.9,78.58,57.97,78.83z"/>
		<path class="st53" d="M53.74,86.25c0.17,1.52-0.71,0.96-0.93,1.79c-0.43-0.81-1.03-1.24-1.01-2.62c0.57-0.34,0.85,1.19,1.55,0.63
			C53.51,86.06,53.6,86.1,53.74,86.25z"/>
		<path class="st54" d="M41.37,53.62c-0.09,0.95,0.34,1.2,0.6,1.76c-0.86,0.84-1.2-0.33-1.53-1.61
			C40.76,53.16,41.05,52.97,41.37,53.62z"/>
		<path class="st55" d="M53.42,86.3c-0.79,0.89-1.11-0.17-1.57-0.96c-0.28-0.35-0.01-0.6-0.03-0.98c0.1-0.35,0.23-0.32,0.42-0.19
			c0.2,0.23,0.36,0.38,0.57,0.58c0.23,0.32,0.43,0.51,0.64,0.88C53.51,85.9,53.51,86.06,53.42,86.3z"/>
		<path class="st51" d="M48.59,45.14c-0.33-0.06-0.69,0.97-0.99-0.12c-0.18-0.74-0.17-1.36,0.08-2.01c0.45-0.1,0.62,0.75,1.06,0.74
			C48.73,44.23,48.66,44.62,48.59,45.14z"/>
		<path class="st56" d="M48.8,43.68c-0.41,0.41-0.73,0.3-0.98-0.51c-0.12-0.21-0.13-0.37-0.06-0.67c0.41-0.04,0.59-0.72,0.99-0.8
			C48.8,42.32,48.8,42.92,48.8,43.68z"/>
		<path class="st57" d="M50.84,69.11c-0.13-0.11-0.19-0.15-0.31-0.17c-0.13-0.36-0.21-0.74-0.29-1.23c0-0.12,0.09-0.14,0.13-0.16
			c0.29-0.2,0.55-0.26,0.89-0.24c0.12,0.09,0.16,0.15,0.25,0.32c0.08,0.29,0.1,0.48,0.11,0.8c-0.02,0.41-0.07,0.67-0.24,0.94
			C51.15,69.47,51.02,69.36,50.84,69.11z"/>
		<path class="st54" d="M38.83,52.06c0.56-0.39,0.87,0.8,1.5,0.63c0.2,0.24,0.22,0.51,0.12,0.93c-0.05,0.12-0.05,0.12-0.05,0.12
			C39.73,53.68,39.16,53.32,38.83,52.06z"/>
		<path class="st58" d="M56.66,79.48c-0.13,0.53-0.19,0.94-0.27,1.49c-0.12,0.06-0.23-0.01-0.37-0.16
			c-0.11-0.97,0.27-1.83-0.01-2.85c0.09-0.26,0.2-0.33,0.4-0.31C56.86,78.13,56.85,78.72,56.66,79.48z"/>
		<path class="st59" d="M31.48,21.51c0.09,1.16,0.11,2.37,0.11,3.75C30.92,24.21,31.16,22.89,31.48,21.51z"/>
		<path class="st60" d="M56.34,62.32c0.05-0.35,0.06-0.59,0.08-0.95c0.2-0.24,0.4-0.37,0.65-0.52c0.02,0.54,0.04,1,0.07,1.6
			c0.01,0.14-0.05,0.09-0.09,0.09c-0.2,0.28-0.28,0.71-0.6,0.83c-0.1-0.08-0.13-0.14-0.18-0.33C56.25,62.75,56.26,62.59,56.34,62.32
			z"/>
		<path class="st61" d="M51.85,52.43c-0.05-0.14-0.05-0.21-0.05-0.37c-0.01-0.6,0.01-1.08,0.33-1.46c0.12,0,0.17,0.08,0.22,0.27
			c0.05,0.19,0.08,0.28,0.16,0.44c0.06,0.1,0.08,0.15,0.13,0.27c0.02,0.14,0.02,0.2-0.01,0.33c-0.07,0.54,0.08,1.11-0.33,1.46
			c-0.19-0.07-0.25-0.25-0.31-0.57C51.94,52.63,51.92,52.57,51.85,52.43z"/>
		<path class="st62" d="M49.63,38.75c0.07,0.83-0.54,0.88-0.46,1.71c-0.09,0.13-0.17,0.14-0.3,0.16c-0.09,0.05-0.13,0.1-0.22,0.08
			c-0.06-0.06-0.05-0.07-0.05-0.06c-0.1-0.13-0.11-0.32-0.11-0.61c0.26-0.55,0.51-1.01,0.83-1.51
			C49.49,38.4,49.58,38.44,49.63,38.75z"/>
		<path class="st63" d="M51.46,56.94c0.11-1.37,0.23-2.65,0.36-4.08c0.05-0.2,0.09-0.25,0.18-0.23c0.13,0.57,0.07,1.08,0.14,1.68
			c0.04,0.17,0.05,0.23,0.07,0.4C51.5,55,51.92,56,51.79,56.75c-0.03,0.27-0.07,0.34-0.19,0.36C51.55,57.11,51.47,57.02,51.46,56.94
			z"/>
		<path class="st64" d="M53.97,81.65c0.04,0.33,0.04,0.56,0.04,0.89C54,82.73,54,82.81,53.94,82.96c-0.19,0.14-0.33,0.13-0.52,0
			c-0.16-0.23-0.23-0.45-0.31-0.79c-0.04-0.28-0.04-0.45-0.01-0.73c0.11-0.33,0.22-0.48,0.43-0.57
			C53.82,80.92,53.92,81.16,53.97,81.65z"/>
		<path class="st65" d="M54.04,85.48c-0.05,0.07-0.14,0.12-0.19,0.14c-0.23,0.15-0.31-0.04-0.38-0.43c0.01-0.39,0.05-0.64,0.13-1.01
			c0.06-0.19,0.09-0.27,0.17-0.42c0.21-0.18,0.35-0.15,0.56-0.01c0.07,0.05,0.16,0.1,0.2,0.13c0.07,0.09,0.09,0.15,0.15,0.31
			c0.03,0.1,0.02,0.17,0.01,0.2C54.31,84.41,54.4,85.3,54.04,85.48z"/>
		<path class="st66" d="M54.03,81.64c-0.13-0.1-0.24-0.3-0.4-0.56c-0.17-0.3-0.18-0.58-0.06-0.97c0.14-0.12,0.22-0.13,0.37-0.14
			C54.18,80.47,54.28,80.98,54.03,81.64z"/>
		<path class="st67" d="M51.54,81.47c0.08-0.1,0.11-0.1,0.25-0.05c0.12,0.13,0.14,0.2,0.18,0.39c0.04,0.35,0.03,0.59,0,0.94
			c-0.04,0.18-0.06,0.25-0.14,0.39c-0.22-0.23-0.39-0.52-0.57-0.91c0-0.21,0.03-0.3,0.1-0.45c0.02-0.07,0.04-0.07,0.03-0.08
			C51.42,81.65,51.45,81.61,51.54,81.47z"/>
		<path class="st68" d="M54.06,85.59c-0.03-0.66,0.17-1.05,0.57-1.2C54.55,84.89,54.66,85.72,54.06,85.59z"/>
		<path class="st69" d="M52.26,51.34c-0.04-0.25-0.05-0.41-0.06-0.68c0.56-0.73,0.46,0.2,0.5,0.79c-0.1,0.12-0.14,0.12-0.23,0.11
			C52.37,51.52,52.34,51.48,52.26,51.34z"/>
		<path class="st70" d="M50.66,58.33c-0.04-0.27-0.05-0.54-0.07-0.95c0-0.6,0.01-1.06,0.03-1.66c0.23,0,0.15,0.36,0.2,0.75
			c0.15,0.6,0.26,1.1,0.02,1.74C50.77,58.32,50.7,58.33,50.66,58.33z"/>
		<path class="st71" d="M50.58,63.57c-0.14,0.4-0.2,0.72-0.31,1.08c-0.06-0.21-0.07-0.45-0.09-0.83c-0.13-0.48-0.12-0.8,0.16-1.12
			c0.07-0.06,0.06-0.07,0.06-0.09c0-0.01,0.04,0.05,0.07,0.03C50.79,62.75,50.67,63.15,50.58,63.57z"/>
		<path class="st72" d="M51.9,83.92c-0.07-0.23-0.09-0.37-0.11-0.61c-0.01-0.1,0.03-0.18,0.06-0.22c0.2-0.28,0.41-0.29,0.68-0.12
			c0.1,0.14,0.13,0.21,0.17,0.43c0,0.23-0.01,0.32-0.08,0.51C52.36,84.21,52.16,84.05,51.9,83.92z"/>
		<path class="st73" d="M53.56,84.85c0.09,0.27,0.12,0.47,0.2,0.73c0.04,0.22,0.04,0.37,0.03,0.63c-0.1,0.14-0.19,0.16-0.36,0.17
			c-0.06-0.17-0.06-0.33-0.05-0.62c-0.11-0.29-0.23-0.43-0.2-0.83C53.32,84.76,53.41,84.74,53.56,84.85z"/>
		<path class="st59" d="M31.5,26.1c0.07,0.03,0.09,0.09,0.11,0.24c0,0.26-0.01,0.43-0.02,0.73C31.2,26.97,31.04,26.66,31.5,26.1z"/>
		<path class="st74" d="M54.39,83.71c-0.12,0.12-0.28,0.13-0.51,0.16c-0.22-0.33-0.2-0.64,0.05-0.97c0.06-0.07,0.06-0.16,0.07-0.2
			C54.12,82.97,54.24,83.29,54.39,83.71z"/>
		<path class="st75" d="M52.19,54.29c-0.31-0.27-0.15-0.84-0.18-1.47c-0.03-0.2-0.06-0.26-0.03-0.39c0.24,0.12,0.2,0.45,0.24,0.85
			C52.22,53.65,52.21,53.91,52.19,54.29z"/>
		<path class="st76" d="M51.83,83.93c0.21-0.1,0.41-0.08,0.68-0.07c0.1,0.07,0.13,0.14,0.17,0.35c-0.06,0.43-0.19,0.52-0.41,0.42
			c-0.15-0.18-0.23-0.28-0.38-0.38C51.83,84.19,51.83,84.11,51.83,83.93z"/>
		<path class="st77" d="M50.34,62.61c0,0.31-0.07,0.58-0.15,0.97c-0.16-0.12-0.43-0.27-0.31-0.74
			C49.92,62.68,50.14,62.67,50.34,62.61z"/>
		<path class="st78" d="M54.68,55.82c-0.07,0.3-0.11,0.5-0.15,0.7C54.47,56.15,54.13,55.47,54.68,55.82z"/>
		<path class="st79" d="M52.62,51.67c0.01-0.1,0.06-0.11,0.08-0.11c0.01,0.11,0,0.22-0.06,0.37C52.6,51.91,52.61,51.84,52.62,51.67z
			"/>
		<path class="st68" d="M54.75,84.22c-0.05,0.02-0.08-0.04-0.13-0.2C54.72,83.82,54.77,83.94,54.75,84.22z"/>
		<path class="st80" d="M48.61,40.72c0.02-0.08,0.06-0.09,0.15-0.09c0.06,0.01,0.04,0.17,0.03,0.26
			C48.71,40.96,48.66,40.9,48.61,40.72z"/>
		<path class="st81" d="M51.53,81.38c0.03,0.12,0,0.21-0.11,0.3c-0.05,0.02-0.05-0.14-0.04-0.22C51.4,81.38,51.49,81.38,51.53,81.38
			z"/>
		<path class="st81" d="M51.34,81.76c0.04,0.07,0.02,0.18-0.07,0.32C51.23,82.01,51.25,81.9,51.34,81.76z"/>
		<path class="st82" d="M37.73,16.51c0.21,1,0.76,1.18,1.2,1.74c0.95-1.35,1.86-0.87,2.83-0.03c0.05,0.14,0.05,0.2,0.05,0.34
			c0.05,1.16,0.74,1.28,0.95,2.29c0.46,2.21,0.45,4.51,0.64,6.89c0.1,0.56-0.41,1.11,0.15,1.49c0.13,0.31,0.06,0.62,0.1,1.02
			c-0.02,0.26-0.02,0.42-0.02,0.69c-0.03,0.51-0.16,0.79-0.37,1.12c-0.61,0.12-0.99-0.28-1.16-1.17c-0.37-0.27-0.19,0.98-0.63,0.51
			c-0.44-0.58-0.79-0.14-1.19-0.04c-0.37,0.09-0.82-0.05-1.27-0.39c-0.26-0.38-0.5-0.57-0.79-0.84c-0.5-1.52-1.53-1.96-1.96-3.6
			c-0.08-0.19-0.12-0.29-0.2-0.43c-0.19-0.24-0.26-0.51-0.24-0.81c0.22-2.85-0.13-5.87,0.77-8.65c-0.05-0.95,0.73-0.73,0.61-1.77
			C37.59,15.13,37.18,16.19,37.73,16.51z"/>
		<path class="st19" d="M37.81,42.31c-0.23,0.33-0.71-0.42-0.63,0.73c-0.34,0.12-0.44-0.76-0.89-0.64c-0.14-0.51-0.2-1.01-0.27-1.65
			c0.38-0.81,0.66-1.55,0.55-2.64c-0.28-0.23-0.65-0.32-0.91-0.93c-0.05-0.08-0.09-0.24-0.1-0.32c-0.24-0.49-0.45-0.93-0.7-1.49
			c-0.04-0.1-0.05-0.11-0.04-0.12c0.11-1.49-0.51-2.3-0.99-3.38c0.21-1.02-0.27-1.85-0.09-2.84c0.04-0.1,0.04-0.1,0.04-0.1
			c0.03-0.06,0.07-0.11,0.15-0.26c0.05-0.09,0.06-0.1,0.06-0.11c0.67-0.32,0.71,0.7,0.86,1.35c0.12,0.51,0.11,1.12,0.29,1.75
			c0.1,0.96,0.19,1.79,0.64,2.46c0.11,1.07,0.47,1.03,0.93,0.85c0.67,0,1.27-0.01,1.97-0.03c0.25-0.31,0.49-0.3,0.78-0.6
			c0.2-0.1,0.29-0.08,0.44-0.06c0.57,0.98,1.26-0.15,1.85,0.56c0.08,0.16,0.09,0.25,0.11,0.46c-0.24,1.38-0.8,1.78-1.46,1.86
			c-0.59,0.07-1.18,0.24-1.76,0.39c-0.49,0.13-0.78,0.57-0.82,1.6c-0.02,0.8-0.57,1.49,0.05,2.25C37.96,41.76,37.94,42,37.81,42.31z
			"/>
		<path class="st83" d="M36.53,16.58c0.37,0.33,0.38,1.03,0.21,1.34c-0.51,0.94-0.34,2.27-0.69,3.3c-0.2,0.6-0.04,1.23,0.5,1.15
			c-0.48,1.08-0.51,2.25-0.54,3.57c-0.44,0.76-0.65,0.2-0.78-0.42c-0.15-0.69,0.13-0.94,0.47-1.07c-0.98-1.69-1.05-3.27-0.09-3.94
			c-0.61-0.4-0.5-1.41-0.74-2.11c0.86-0.15,0.28-1.97,0.98-2.44C36.07,15.93,35.98,17.27,36.53,16.58z"/>
		<path class="st84" d="M36.2,26.6c0.71,0.79,1.42,1.74,2.12,2.7c0.03,0.04-0.04,0.31-0.1,0.58c-0.18,1.1,0.15,2.14-0.17,3.22
			c-0.06,0.34-0.09,0.56-0.26,0.57c-0.52,0.04-0.71-0.96-1.15-1.18c-0.71-0.37-0.19-1.43-0.34-1.91
			C35.87,29.25,36.29,28.01,36.2,26.6z"/>
		<path class="st85" d="M38.92,30.67c0.67-0.09,1.35,0.86,1.84-0.53c0.28,0.18,0.46,0.56,0.63,1.1c-0.08,0.53-0.2,0.91-0.15,1.43
			c0.1,0.95-0.32,1.06-0.58,0.65c-0.64-1-0.84-0.23-1.06,0.77c0,0.12,0.01,0.16,0.01,0.18c-0.08,0.13-0.18,0.15-0.34,0.02
			c-0.06-0.34-0.07-0.59-0.07-0.96C38.95,32.43,38.56,31.7,38.92,30.67z"/>
		<path class="st86" d="M38.99,30.54c-0.28,0.98,0.5,1.54,0.21,2.53c-0.34,0.14-0.69,0.13-1.11,0.13c0.15-1.04-0.61-2.13,0.03-3.18
			C38.46,30.07,38.8,29.79,38.99,30.54z"/>
		<path class="st87" d="M35.2,31.63c-0.76-0.49-0.35-2.34-1.13-3.05c0.01-0.67-0.55-0.94-0.32-1.71c0.66,0.18,1.52,2.27,1.48,3.41
			C35.22,30.69,35.21,31.09,35.2,31.63z"/>
		<path class="st88" d="M31.96,20.86c0.23-0.11,0.39-0.2,0.44-0.7c0.45,0.86,0.93,1.83,0.42,3.31
			C32.04,23.21,32.03,22.03,31.96,20.86z"/>
		<path class="st89" d="M33.85,26.09c-0.92,0.77-0.65-1.08-1.08-1.42c-0.14-0.11,0.16-0.28,0.36-0.34c0.24-0.12,0.41-0.25,0.71-0.46
			C33.34,24.77,34.21,25.24,33.85,26.09z"/>
		<path class="st90" d="M36.79,34.86c-0.16,0.62-0.59,0.32-0.66,1.06c-0.31-0.51-0.53-0.9-0.36-1.63
			C36.14,34.37,36.56,33.93,36.79,34.86z"/>
		<path class="st91" d="M39.14,34.24c0.15-0.01,0.24,0,0.4,0.04c0,0.76-0.32,0.67-0.68,0.67C38.81,34.61,38.87,34.33,39.14,34.24z"
			/>
		<path class="st92" d="M47.56,26.38c0.16,1.28-0.51,1.73-0.83,1.83c-0.59,0.19-0.29,0.74-0.33,1.3c-0.14,1.59-0.64,2.34-1.54,2.34
			c-0.06-0.08-0.06-0.08-0.06-0.08c-0.02-0.06-0.04-0.12-0.03-0.28c0.12-1.07,0.24-2.02,0.05-3.02c-0.2-1.02,0.27-1.74,0.53-2.65
			c0.31-0.35,0.57-0.6,0.8-1.09c0.61-0.12,0.3,1.16,0.8,1.32c0.07,0.01,0.17,0.02,0.21,0.03C47.29,26.26,47.42,26.22,47.56,26.38z"
			/>
		<path class="st93" d="M43.46,27.83c-0.41-0.71-0.43-1.54-0.45-2.51c-0.04-1.82-0.17-3.69-0.77-5.28
			c-0.22-0.58-0.63-0.41-0.95-0.54c0.01-0.55,0.27-0.53,0.46-0.8c0.59,0.41,0.76-0.29,0.91-1.07c0.03,2.08,1.03,3.36,1.1,5.3
			c0.03,0.7,0.22,1.37,0.04,2.09c-0.18,0.68,0.37,1.14,0.15,1.95C43.84,27.41,43.67,27.54,43.46,27.83z"/>
		<path class="st94" d="M41.86,18.23c-0.6,0.29-1.18,0.67-1.35-0.82c-0.47,0.5-0.9,0.79-1.44,0.86C38.99,17.9,39,17.54,39,17.04
			c0.23-0.51,0.46-0.39,0.75-0.15c0.47-0.63,0.08-1.62,0.42-2.38c0.41,0.54,0.11,1.34,0.3,1.91c0.29,0.03-0.01-0.77,0.38-0.7
			C40.77,17.03,42.23,16.3,41.86,18.23z"/>
		<path class="st95" d="M42.36,34.36c0.24-0.06,0.3-1.28,0.63-0.22c0.08,1.28,0.36,2.36,0.55,3.62c0.04,0.41,0.03,0.68-0.06,1.07
			c-0.18,0.3-0.33,0.37-0.58,0.36c-0.13-0.05-0.18-0.08-0.29-0.19c-0.39-1.13-0.21-2.36-0.48-3.55
			C42.06,34.93,42.44,34.89,42.36,34.36z"/>
		<path class="st96" d="M43.77,35.08c0.12-0.85,0.46-1.27,0.79-1.84c0.18-0.25,0.33-0.33,0.57-0.27c0.45,0.48,0.45,1.07,0.24,1.83
			c-0.32,0.59-0.7,0.78-1.05,1.27c-0.11,0.07-0.16,0.08-0.27,0.06C43.82,35.86,43.75,35.55,43.77,35.08z"/>
		<path class="st97" d="M45.26,33.18c-0.21,0.01-0.35,0-0.56,0c-0.02-0.39,0.03-0.78,0.09-1.3c0.72-0.29,1.16-1.1,1.56-2.19
			c0.17-0.01,0.28,0.06,0.42,0.22C46.8,30,46.8,30,46.8,29.99c-0.19,0.25-0.19,0.64-0.28,1.11C46.21,32.06,45.85,32.76,45.26,33.18z
			"/>
		<path class="st91" d="M42.32,34.24c0.11,0.27,0.3,0.56-0.04,0.72c-0.16-0.01-0.26,0.11-0.41,0.06c-0.48-0.03-0.91-0.17-1.33,0.15
			c-0.32,0.24-0.51,0-0.54-0.76C40.74,34.45,41.48,33.42,42.32,34.24z"/>
		<path class="st98" d="M43.73,34.96c0.13,0.28,0.2,0.56,0.27,0.95c-0.05,0.45-0.16,0.75-0.2,1.21c-0.05,0.33-0.11,0.52-0.28,0.66
			c-0.54-0.97-0.6-2.16-0.57-3.46C43.12,34.77,43.35,34.98,43.73,34.96z"/>
		<path class="st99" d="M43.23,32.23c-0.02-0.53,0.07-0.86,0.34-1.12c0.83,0.65,0.33,1.46,0.16,2.26
			C43.29,33.34,43.44,32.62,43.23,32.23z"/>
		<path class="st13" d="M46.2,24.68c-0.14,0.55-0.01,1.59-0.74,1.11c-0.13-0.52-0.49-1.04,0.07-1.45c0.2,0.25,0.4,0.13,0.61,0.27
			C46.2,24.68,46.2,24.68,46.2,24.68z"/>
		<path class="st82" d="M39.8,16.73c-0.21,1.31-0.46-0.48-0.74,0.17c0.17-0.44,0.02-1.45,0.66-1.43
			C39.8,15.85,39.8,16.22,39.8,16.73z"/>
		<path class="st99" d="M43.69,30.34c-0.15-0.27-0.29-0.55-0.1-0.98c0.14-0.41,0.16-0.9,0.51-0.98
			C44.22,29.16,44.08,29.78,43.69,30.34z"/>
		<path class="st28" d="M45.37,20.16c0.21-0.02,0.44-0.04,0.28,0.56c-0.19,0.01-0.33-0.05-0.48-0.1
			C45.23,20.5,45.29,20.37,45.37,20.16z"/>
		<path class="st96" d="M44.76,31.43c0.04,0.03,0.04,0.09,0.03,0.25c-0.04,0.03-0.08-0.03-0.11-0.1
			C44.68,31.57,44.71,31.5,44.76,31.43z"/>
		<path class="st100" d="M43.45,37.92c0.05-0.3,0.1-0.47,0.15-0.74c0.08-0.21,0.16-0.29,0.32-0.3c0.66,0.65,1.61-0.22,2.01,1.51
			c0.37,0.61,0.69,1.13,1.05,1.75c0.04,0.1,0.02,0.14,0.01,0.16c-0.08,0.29-0.2,0.5-0.36,0.35c-0.34-0.32-0.01,0.27-0.14,0.37
			c-0.31,0.64-0.45,1.27-0.46,2.1c-0.89-0.19-1.05,1.38-1.67,1.89c-0.61-0.76-0.56-1.7-0.31-2.81c0.33-0.82,0.91-0.9,1.21-1.78
			c-0.36-0.62-0.64-0.29-0.97,0.24c-0.14,0.14-0.24,0.17-0.4,0.12c-0.34-0.5-0.33-1.11-0.39-1.83
			C43.47,38.57,43.46,38.31,43.45,37.92z"/>
		<path class="st101" d="M45.22,33.3c0.34-0.79,0.71-1.47,1.14-2.22c0.14-0.2,0.22-0.33,0.4-0.36c0.34-0.11,0.63-0.22,0.99-0.33
			c0.02,0.69,0,1.58-0.47,1.66c-1.31,0.22-1.35,1.77-1.28,3.51c0.01,0.29-0.01,0.58-0.04,1.03c-0.45-0.1-0.44-0.96-0.74-1.53
			C45.15,34.43,45.53,33.96,45.22,33.3z"/>
		<path class="st102" d="M45.12,34.96c0.55,0.21,0.68,0.85,0.77,1.71c0.12,0.58,0.29,1.06,0.09,1.7c-0.54-0.87-1.32-0.48-1.96-1.16
			c0.08-0.35,0.23-0.39,0.42-0.3c-0.17-0.17-0.28-0.37-0.27-0.78C44.39,35.42,44.63,34.95,45.12,34.96z"/>
		<path class="st103" d="M50.14,34.97c0.06,0,0.15,0.02,0.2,0.04c0.18,0.21,0.15,0.48,0.14,0.86c-0.08,0.46-0.08,0.82-0.23,1.23
			c-0.19,0.22-0.34,0.26-0.56,0.09c-0.21-0.66-0.39-1.25,0.04-1.85C49.88,35.16,49.96,35.01,50.14,34.97z"/>
		<path class="st104" d="M50.2,34.84c-0.1,0.25-0.19,0.36-0.35,0.47c0-0.78-0.14-1.59,0.05-2.4C50.7,33.24,50.1,34.13,50.2,34.84z"
			/>
		<path class="st105" d="M49.62,37.24c0.16-0.14,0.3-0.16,0.51-0.19c0.1,0.06,0.13,0.13,0.12,0.31c-0.27,0.46-0.47,0.84-0.57,1.47
			c-0.1-0.04-0.15-0.15-0.24-0.3C49.45,38.1,49.53,37.73,49.62,37.24z"/>
		<path class="st106" d="M50.26,37.46c-0.05-0.05-0.05-0.13-0.06-0.31c0.03-0.41,0.07-0.72,0.16-1.09c0.09-0.11,0.13-0.16,0.18-0.1
			c0.03,0.47,0.03,0.83,0.02,1.32c-0.03,0.19-0.05,0.25-0.11,0.23C50.4,37.44,50.31,37.44,50.26,37.46z"/>
		<path class="st80" d="M48.44,40.03c0.09,0.08,0.12,0.25,0.16,0.52c-0.23,0.06-0.46,0.01-0.73-0.13
			C48.02,40.25,48.2,40.19,48.44,40.03z"/>
		<path class="st107" d="M50.57,35.95c-0.01,0.12-0.09,0.09-0.13,0.07c-0.04-0.27-0.05-0.51-0.06-0.87
			C50.63,35.15,50.58,35.51,50.57,35.95z"/>
		<path class="st108" d="M50.41,37.51c0-0.07,0.07-0.09,0.1-0.1c0.06,0.11,0.05,0.21-0.05,0.29C50.41,37.72,50.41,37.58,50.41,37.51
			z"/>
		<path class="st109" d="M44.34,44.95c0.5-0.85,0.43-2.81,1.6-1.93c0.11,0,0.15-0.03,0.21,0.04c0.37,1.35,0.76,2.54,1.44,3.48
			c-0.29,0.61-0.64,0.98-0.94,1.63c-0.58,0.61-1.31-0.26-1.82,0.89c-0.14,0.05-0.22,0.05-0.36,0.05
			C43.66,47.75,43.62,46.66,44.34,44.95z"/>
		<path class="st110" d="M44.36,44.81c-0.42,1.37-0.33,2.7,0.02,4.17c-0.46,0.91-0.96,1.18-1.53,0.16c0.07-2.33-0.21-3.02-1.46-3.47
			c-0.07-0.16-0.09-0.24-0.11-0.45c0.23-1.75,0.82-3.1,1.22-4.69c0.75,0.35,0.57,1.34,0.57,2.32c0,0.53-0.05,0.94,0.16,1.46
			c0.15-0.63,0.09-1.16,0.02-1.81c-0.04-0.38-0.04-0.64,0-1.03c0.1-0.47,0.21-0.76,0.48-0.87c0.16,0.03,0.24,0.04,0.39,0.05
			c0.2,0.36,0.17,0.76,0.13,1.26C44.16,42.93,43.94,43.86,44.36,44.81z"/>
		<path class="st111" d="M38.21,47.14c0.05-0.19,0.1-0.27,0.17-0.43c0.85-1.21,1.85-0.79,2.86-0.94c0.3,0.16,0.5,0.33,0.71,0.51
			c1.04,0.92,1.08,1.31,0.28,3.05c-0.46,0.25-1.35-0.89-1,1.37c0.07,0.29,0.09,0.48,0.05,0.81c-0.17,0.33-0.32,0.39-0.56,0.29
			c-0.16-0.15-0.24-0.27-0.33-0.55c-0.17-1.59-0.51-2.77-1.51-3.08C38.61,47.85,38.31,47.78,38.21,47.14z"/>
		<path class="st112" d="M46.54,53.29c0.11,0.47,0.16,0.88,0.24,1.4c-0.58,0.78-1.25,0.35-1.95,0.41c-0.15-0.08-0.23-0.14-0.37-0.2
			c-0.09,0.03-0.13,0.06-0.2,0.17c-0.51-0.15-1.11-0.09-1.07-1.56c-0.02-0.32,0.02-0.47,0.17-0.58c0.07,0.01,0.17,0.02,0.22,0.04
			c0.26,0.62,0.6,0.3,0.95,0.39c0.51,0.17,0.93-0.15,1.42-0.1c0.06,0.06,0.16,0.07,0.2,0.06C46.28,53.22,46.38,53.19,46.54,53.29z"
			/>
		<path class="st113" d="M43.42,52.84c-0.05,0.19-0.11,0.28-0.21,0.45c-0.43,0.09-0.82,0.09-1.3,0.09
			c-0.27-0.14-0.34-0.43-0.44-0.83c-0.05-0.23-0.08-0.35-0.13-0.55c-0.05-0.13-0.07-0.18-0.1-0.32c-0.01-0.26-0.01-0.43,0-0.73
			C42.08,51.06,42.79,51.73,43.42,52.84z"/>
		<path class="st114" d="M46.59,50.68c-0.56,2.16-1.52,0.82-2.31,1.08c-0.08-0.56-0.22-1.13,0.26-1.54
			C45.25,50.4,45.93,49.84,46.59,50.68z"/>
		<path class="st115" d="M42.25,49.43c-0.04-0.2-0.07-0.5,0.01-0.64c0.53-1.06,0.44-1.68-0.37-1.95c-0.16-0.05-0.29-0.45-0.46-0.8
			c-0.05-0.17-0.07-0.23-0.05-0.35c0.62-0.32,1.23-0.1,1.49,0.77c0.19,0.65,0.64,1.67-0.04,2.57
			C42.63,49.22,42.47,49.31,42.25,49.43z"/>
		<path class="st116" d="M44.78,49.19c0.15-2.34,1.07-0.87,1.71-1.14c0.63,0.07,0.27,0.7,0.26,1.22c-0.06,0.18-0.09,0.25-0.18,0.39
			c-0.6-0.11-1.16,1.36-1.72-0.09C44.81,49.41,44.8,49.34,44.78,49.19z"/>
		<path class="st117" d="M47.73,48.34c0.37,0.21,0.77,0.56,0.59,1.06c-0.12,0.34-0.14,1.61-0.8,0.99c-0.16-0.15-0.5,0.32-0.82,0.52
			c-0.07,0.01-0.08,0-0.09-0.01c-0.12-0.37-0.15-0.75-0.05-1.28c0.05-0.12,0.05-0.13,0.05-0.13C46.95,49.05,47.05,47.96,47.73,48.34
			z"/>
		<path class="st118" d="M46.19,43.03c-0.01,0.13-0.09,0.08-0.13,0.05c-0.06-0.73-0.31-1.52,0.27-2.05c0.63-0.22,0.74,0.91,1.2,1.28
			c0.09,0.09,0.12,0.09,0.21,0.09c0.05,0.16,0.04,0.32,0.03,0.61c-0.06,0.64-0.11,1.16-0.17,1.79c-0.61-0.33-0.44-1.71-0.97-2.32
			C46.19,41.97,46.23,42.43,46.19,43.03z"/>
		<path class="st119" d="M47.79,48.29c-0.58-0.23-0.54,1.31-1.12,1.19c-0.05-0.44-0.03-0.87-0.05-1.38c0.04-0.94,0.3-1.46,0.9-1.45
			C47.66,47.16,47.73,47.66,47.79,48.29z"/>
		<path class="st120" d="M46.52,49.49c0.08,0.37,0.08,0.75,0.07,1.26c-0.57-0.83-1.3,0.25-1.94-0.45c0.01-0.27,0.08-0.44,0.15-0.73
			C45.35,50.3,45.9,49.25,46.52,49.49z"/>
		<path class="st121" d="M45.99,53.22c-0.4,0.31-0.77,0.94-1.31,0.5c-0.15-0.13-0.18-0.29-0.12-0.58
			C45.08,52.53,45.55,52.02,45.99,53.22z"/>
		<path class="st121" d="M47.99,51.81c-0.27,0.39-0.47,0.96-0.92,0.85C47.04,51.44,47.27,50.8,47.99,51.81z"/>
		<path class="st113" d="M44.57,52.94c0.04,0.24,0.04,0.39,0.04,0.65c-0.33,0.03-0.74,0.48-0.98-0.46
			C43.92,52.95,44.22,52.9,44.57,52.94z"/>
		<path class="st121" d="M46.6,53.25c-0.09,0.11-0.18,0.11-0.34,0.09c-0.02-0.37-0.17-0.98,0.3-0.74
			C46.6,52.83,46.6,52.98,46.6,53.25z"/>
		<path class="st122" d="M56.59,65.67c0.1,0.13,0.15,0.19,0.21,0.37c0.54,1.37,1.06,2.67,1.68,3.82c0.26,0.48,0.48,0.98,0.42,1.83
			c0.08,1.05-0.37,1.67-0.46,2.64c-0.25,0.7-0.53,0.95-0.98,0.62c-0.48-0.49-0.46-1.48-0.89-2.03c-0.42-0.52-0.39-1.38-0.75-2.1
			c-0.1-0.26-0.12-0.33-0.16-0.51c-0.03-0.18-0.04-0.25-0.06-0.44c-0.01-0.18-0.02-0.25-0.03-0.43c-0.04-0.38-0.1-0.63-0.21-0.96
			c-0.04-0.16-0.05-0.23-0.06-0.4c0.02-0.31,0.06-0.51,0.1-0.81c0.03-0.17,0.04-0.24,0.07-0.4c0.08-0.29,0.14-0.47,0.25-0.72
			c0.15-0.3,0.26-0.5,0.44-0.74C56.35,65.31,56.46,65.4,56.59,65.67z"/>
		<path class="st123" d="M58.89,71.89c-0.22-1.89-1.29-2.62-1.72-4.16c-0.12-0.45-0.4-0.76-0.36-1.48c0.94,0.6,1.49,2.13,2.21,3.29
			c0.37,0.6-0.02,1.33,0,2.14C59,71.85,58.97,71.89,58.89,71.89z"/>
		<path class="st11" d="M58.81,71.97c0.02-0.12,0.12-0.14,0.17-0.15c0.13-0.01,0.21-0.01,0.34-0.02c0.05,0.51,0.19,1.09-0.25,1.45
			c-0.11,0.07-0.14,0.11-0.2,0.24c-0.02,0.1-0.02,0.25-0.02,0.33c0.01,0.26-0.02,0.42-0.16,0.61c-0.17,0.09-0.26,0.08-0.42-0.05
			C58.41,73.56,58.39,72.66,58.81,71.97z"/>
		<path class="st124" d="M56.64,65.65c-0.12,0.02-0.23-0.06-0.39-0.18c-0.13,0.08-0.21,0.14-0.37,0.07
			c-0.13-0.18-0.17-0.32-0.18-0.61c0.1-0.5,0.32-0.69,0.62-1.19c0.46-0.02,0.35,0.45,0.43,0.9C56.75,65.01,56.7,65.28,56.64,65.65z"
			/>
		<path class="st125" d="M56.8,64.61c-0.1-0.17-0.2-0.48-0.34-0.86c-0.07-0.11-0.09-0.16-0.09-0.29c0.18-0.35,0.34-0.62,0.58-0.9
			C56.95,63.19,56.88,63.83,56.8,64.61z"/>
		<path class="st126" d="M48.52,56.6c0.06,0.16,0.06,0.3,0.05,0.55c-0.7,0.64-1.38,1.89-2.17,0.23c0.3-0.5,0.62-0.88,0.98-1.35
			C47.82,55.85,48.08,56.48,48.52,56.6z"/>
		<path class="st127" d="M41.14,51.6c0.07-0.01,0.17,0.01,0.21,0.02c0.08,0.06,0.11,0.11,0.19,0.25c0.11,0.48,0.18,0.87,0.27,1.38
			c-0.09,0.24-0.19,0.35-0.35,0.47c-0.35-0.39-0.64-0.22-0.99,0c-0.07-0.25-0.07-0.51-0.06-0.9c0.06-0.3,0.13-0.48,0.19-0.76
			c-0.02-0.18-0.04-0.24-0.01-0.39C40.78,51.61,40.92,51.61,41.14,51.6z"/>
		<path class="st128" d="M44.29,55.17c-0.08-0.02-0.07-0.17-0.06-0.24c0.03-0.15,0.05-0.22,0.13-0.33c0.78,0.46,1.53,0.06,2.34,0.21
			c0.09,0.15,0.09,0.31,0.08,0.57C45.98,55.43,45.16,55.77,44.29,55.17z"/>
		<path class="st129" d="M61.26,84.56c-0.07,0.02-0.17,0.01-0.22,0.01S61,84.4,61,84.31c-0.02-0.15-0.05-0.21-0.04-0.37
			c0.03-0.25,0.03-0.4,0.03-0.67c0.36-0.4,0.68-0.68,0.69-1.56c0.01-0.75,0.2-1.46,0.55-2.12c0.15-0.26,0.27-0.38,0.48-0.45
			c0.39,0.32,0.62,0.79,0.86,1.44c-0.22,0.92-0.46,1.76-0.49,2.84C62.37,83.4,61.92,84.3,61.26,84.56z"/>
		<path class="st130" d="M63.64,80.57c-0.43,0-0.63-0.53-0.83-1.19c0.37-0.6,0.9-0.63,1.09-1.66c0.1-0.52,0.54-0.26,0.9-0.36
			c0.22,0.03,0.34,0.16,0.49,0.47c0.11,0.47,0.11,0.82-0.04,1.27C64.48,78.8,64.31,80.52,63.64,80.57z"/>
		<path class="st131" d="M67.25,82.08c-0.42-0.46-0.12-1.34-0.39-1.91c-0.11-0.23-0.01-0.68-0.35-0.65
			c-0.42,0.03,0.16,0.85-0.29,0.79c-0.23-0.27-0.41-0.55-0.61-0.92c0.18-0.53,0.47-0.87,0.56-1.59c0.19-0.18,0.32-0.15,0.5,0.05
			c0.47,0.91,0.91,1.72,0.94,3.04c0,0.19,0,0.26-0.01,0.43c-0.04,0.14-0.08,0.19-0.15,0.33C67.39,81.84,67.34,81.94,67.25,82.08z"/>
		<path class="st132" d="M66.24,77.69c0.03,0.82,0.17,1.61-0.58,1.6c-0.16,0-0.24-0.02-0.39-0.06c-0.06-0.38-0.07-0.75-0.07-1.25
			c0.06-0.33,0.16-0.47,0.29-0.69c0.07-0.13,0.09-0.19,0.22-0.37c0.21-0.07,0.32-0.02,0.46,0.13C66.27,77.26,66.3,77.41,66.24,77.69
			z"/>
		<path class="st133" d="M60.82,72.6c0.15-0.37,0.35-0.64,0.57-1.01c0.03-0.1,0.12-0.12,0.16-0.13c0.12-0.12,0.21-0.19,0.38-0.17
			c0.81,0.99,1.39,2.38,2.43,2.78c0.18,0.21,0.26,0.41,0.3,0.79c-0.55,0.56-1.2,0.63-1.63,1.69c-0.52,0.14-0.75-0.47-1.06-1.03
			C61.78,74.25,61.65,73.08,60.82,72.6z"/>
		<path class="st134" d="M64.6,68.03c0.29-0.77,0.58,0.06,0.93-0.11c0.19,0.25,0.24,0.57,0.33,0.97c0.09,0.32,0.12,0.55,0.08,0.91
			c-0.12,0.48-0.33,0.6-0.63,0.88C64.74,70.07,64.4,69.3,64.6,68.03z"/>
		<path class="st135" d="M62.05,71.55c-0.15-0.08-0.24-0.09-0.39-0.1c-0.04-0.45,0.05-0.85,0.31-0.95c0.73-0.31,1.28,0.42,1.86,1.32
			c0.01,0.32-0.02,0.4-0.11,0.54C63.02,72.86,62.61,71.98,62.05,71.55z"/>
		<path class="st136" d="M64.2,71.93c-0.03-1.09,0.19-1.31,0.63-0.76c0.2,0.25,0.37,0.64,0.37-0.3c0-0.11,0-0.11,0-0.12
			c0.35-0.37,0.57-0.05,0.69,0.47c0.18,0.79-0.09,1.3-0.51,1.78c-0.23,0.18-0.39,0.21-0.63,0.14C64.43,72.88,64.31,72.49,64.2,71.93
			z"/>
		<path class="st135" d="M64.15,71.81c0.25,0.16,0.4,0.41,0.45,0.94c-0.38,0.9-0.52,0.84-0.85-0.42c0.04-0.14,0.04-0.15,0.05-0.15
			c0.04-0.1,0.08-0.18,0.17-0.29C64,71.83,64.1,71.81,64.15,71.81z"/>
		<path class="st136" d="M63.95,71.82c0.03,0.12-0.01,0.21-0.11,0.31c-0.04-0.02-0.04-0.08-0.04-0.23
			C63.83,71.81,63.87,71.82,63.95,71.82z"/>
		<path class="st134" d="M64.02,67.65c0.04-0.05,0.1,0.01,0.16,0.19C64.13,67.89,64.08,67.82,64.02,67.65z"/>
		<path class="st137" d="M64.56,75.17c-0.02-0.33-0.07-0.51-0.14-0.77c0.1-0.55,0.35-0.76,0.64-1.02c0.32-0.12,0.57-0.03,0.88,0.13
			c0.67,0.23,1.25,0.04,1.79-0.56c-0.04-0.65-0.25-1.32,0.06-2.09c0.99,1.57,1.01,2.65,0.07,4.31c-0.81-1.64-1.47,0.2-2.24,0.45
			C65.17,76.21,64.78,76.33,64.56,75.17z"/>
		<path class="st138" d="M64.52,75.01c0.16,0.98,0.6,0.64,1,0.71c0.26,0.18,0.28,0.5,0.28,0.94c0,0.12,0,0.11,0,0.11
			c-0.03,0.05-0.05,0.1-0.05,0.25c0.03,0.62-0.13,0.83-0.49,0.82c-0.17-0.09-0.27-0.18-0.41-0.31c-0.6-0.44-1.2-0.56-1.81-1.03
			C63.27,75.26,63.72,74.65,64.52,75.01z"/>
		<path class="st139" d="M66.26,77.8c-0.06-0.16-0.06-0.31-0.06-0.57c0.43-0.12,0.77-1.15,1.33-0.47c0.07,0.39,0.07,0.77,0.07,1.29
			c-0.27,0.95-0.57,0.65-0.93,0.17C66.52,78.05,66.42,77.94,66.26,77.8z"/>
		<path class="st20" d="M69.08,75.17c-0.16,0.08-0.22-0.02-0.2-0.24c0.01-0.05,0.04-0.11,0.07-0.12
			C69.08,74.77,69.13,74.88,69.08,75.17z"/>
		<path class="st140" d="M33.72,28.94c0.04,0.92,0.72,1.73,0.14,2.78c-0.29-0.83-0.76-1.5-0.87-2.65c0.03-0.13,0.06-0.13,0.15-0.13
			C33.35,28.93,33.5,28.93,33.72,28.94z"/>
		<path class="st141" d="M60.73,72.57c1.09,0.01,1.41,0.68,1.28,2.65c0.32,1.18,0.24,2.2-0.13,3.31c-0.15,0.18-0.25,0.2-0.41,0.08
			c-0.1-0.08-0.13-0.08-0.21-0.08c-0.18-0.11-0.29-0.28-0.37-0.64c-0.42-1.38-0.6-2.7-0.35-4.24C60.6,73.25,60.64,72.94,60.73,72.57
			z"/>
		<path class="st142" d="M58.56,74.42c0.11-0.2,0.18-0.28,0.27-0.43c0.73-0.1,0.58,1.64,1.3,1.72c0.18,0.35,0.1,0.65-0.06,1.04
			c-0.25,0.51-0.28,1.01-0.27,1.66c-0.63-0.42-0.89-1.45-1.15-2.62C58.43,75.35,58.39,74.97,58.56,74.42z"/>
		<path class="st143" d="M60.07,76.9c-0.01-0.36,0.04-0.66,0.1-1.07c0.12-0.8-0.17-1.62,0.32-2.23c0.13,1.38,0.14,2.81,0.54,4.17
			c-0.15,0.32-0.09,0.83-0.36,0.8c-0.15-0.02-0.19-0.27-0.25-0.61C60.3,77.55,60.21,77.25,60.07,76.9z"/>
		<path class="st142" d="M58.89,73.55c-0.04-0.08-0.02-0.16,0.08-0.24C58.99,73.38,58.96,73.45,58.89,73.55z"/>
		<path class="st144" d="M58.54,74.3c0.06,0.38,0.05,0.75,0.04,1.27c-0.21,0.19-0.41,0.34-0.3,0.78c0.23,0.9-0.04,1.64-0.26,2.51
			c-0.12,0.03-0.17-0.05-0.23-0.22c-0.51-0.85-0.23-2.36-0.92-3.09c-0.04-0.65,0.03-1.06,0.46-0.99c0.32,0,0.6,0.62,0.84-0.17
			C58.31,74.3,58.4,74.3,58.54,74.3z"/>
		<path class="st145" d="M59.71,81.02c0.07,0.54,0.15,1.09-0.07,1.7c-0.8,0.18-0.62-0.81-0.73-1.64
			C59.2,81.06,59.42,81.04,59.71,81.02z"/>
		<path class="st36" d="M49,53.75c-0.05,0.19-0.09,0.37-0.15,0.54c-0.01,0.02-0.13-0.04-0.14-0.1c-0.05-0.26,0.05-0.37,0.23-0.44
			C48.99,53.73,49,53.74,49,53.75z"/>
		<path class="st38" d="M48.93,55.9c-0.03,0.1-0.12,0.21-0.25,0.31C48.7,56.11,48.79,56,48.93,55.9z"/>
		<path class="st92" d="M46.16,24.59c-0.13,0.04-0.31-0.02-0.52-0.17C45.77,24.38,45.95,24.44,46.16,24.59z"/>
		<path class="st35" d="M61.4,78.66c0.08-0.12,0.17-0.12,0.33-0.11c0.33,0.12,0.46,0.52,0.64,0.96c-0.31,1.25-0.69,2.38-0.42,3.89
			c-0.33-0.09-0.57-0.16-0.89-0.23C61.05,81.68,61.92,80.43,61.4,78.66z"/>
		<path class="st146" d="M60.37,77.96c0.19,0.01,0.33,0.7,0.59-0.07c0.1,0.13,0.15,0.3,0.22,0.56c-0.51,0.59-0.16,2.05-1.01,2.67
			C60.64,79.93,60.15,79.02,60.37,77.96z"/>
		<path class="st35" d="M60.96,83.88c0.03,0.03,0.04,0.09,0.04,0.25C60.97,84.12,60.95,84.02,60.96,83.88z"/>
		<path class="st135" d="M66,73.45c-0.23,0.41-0.45,0.28-0.73,0.13c-0.14-0.14-0.17-0.3-0.11-0.6c0.34-0.75,1.17-1.29,0.12-2.22
			c-0.06-0.54,0.11-0.73,0.45-0.72c0.73,0.18,0.43,1.26,0.65,2C66.27,72.56,66.14,72.95,66,73.45z"/>
		<path class="st147" d="M66.46,72.08c-0.76-0.14-0.28-1.29-0.6-1.95c-0.06-0.35-0.05-0.62-0.05-1.02c0.03-0.18,0.07-0.22,0.15-0.2
			c0.24,0.33,0.69-0.45,0.67,0.68c-0.1,0.13-0.13,0.22-0.06,0.41C66.57,70.69,66.54,71.34,66.46,72.08z"/>
		<path class="st135" d="M66,68.89c-0.03,0.09-0.07,0.09-0.15,0.09c-0.23-0.18-0.25-0.5-0.25-0.94c0.12,0.05,0.24,0.23,0.38,0.5
			C66,68.63,66,68.8,66,68.89z"/>
		<path class="st135" d="M66.6,69.95c-0.14,0.05-0.31,0.09-0.32-0.29c0-0.01,0.14-0.02,0.27-0.01C66.6,69.69,66.6,69.86,66.6,69.95z
			"/>
		<path class="st148" d="M53.17,60.22c0.18,0.13,0.34,0.36,0.57,0.6c0.3,0.4,0.29,0.9,0.26,1.55c-0.23,1.5-0.05,3.1-0.85,4.22
			c-0.19,0.08-0.29,0.03-0.44-0.21c-0.12-0.38-0.15-0.67-0.17-1.1c-0.01-0.34-0.01-0.53-0.01-0.86c0-0.43,0-0.72,0-1.16
			c0.01-0.75-0.02-1.35,0.21-2.02C53.02,61,53.05,60.61,53.17,60.22z"/>
		<path class="st149" d="M52.79,61.03c0,0.72,0.01,1.34-0.04,2.2c-0.09,0.22-0.13,0.21-0.22,0.13c-0.17-0.27-0.29-0.49-0.42-0.84
			c-0.07-0.33-0.07-0.55-0.01-0.88c0.14-0.42,0.26-0.73,0.44-1.1C52.66,60.62,52.73,60.78,52.79,61.03z"/>
		<path class="st150" d="M52.55,60.37c0.02,0.48,0.1,0.96-0.32,1.09c-0.23-0.24-0.36-0.37-0.57-0.48c-0.12-0.16-0.15-0.29-0.1-0.64
			C51.91,60.15,52.22,60,52.55,60.37z"/>
		<path class="st151" d="M51.16,57.09c0.1-0.14,0.14-0.15,0.24-0.2c0.06-0.03,0.08-0.05,0.08-0.04c0.2,0.66-0.04,1.31,0.07,2.08
			c0.05,0.39,0.05,0.67,0.06,1.09c0,0.14-0.02,0.14-0.03,0.13c-0.15,0.1-0.24-0.04-0.34-0.33c-0.03-0.15-0.03-0.21-0.04-0.36
			C50.92,58.68,50.97,57.95,51.16,57.09z"/>
		<path class="st152" d="M51.6,58.9c-0.35-0.42-0.17-1.11-0.14-1.9c0.09-0.12,0.16-0.11,0.27-0.1C51.72,57.52,51.67,58.14,51.6,58.9
			z"/>
		<path class="st153" d="M35.61,37.23c0.42-0.43,0.68,0.85,1.2,0.06c-0.13,1.29,0.42,2.76-0.71,3.33c-0.15-0.27-0.22-0.55-0.32-0.93
			c-0.01-0.17,0-0.23,0.02-0.38c0.01-0.09,0.09-0.19,0.09-0.19s-0.02-0.17-0.07-0.21C35.51,38.45,35.64,37.88,35.61,37.23z"/>
		<path class="st48" d="M35.76,42.44c0.01,0.16-0.03,0.29-0.07,0.43c-0.03-0.09-0.06-0.19-0.09-0.37
			C35.63,42.42,35.67,42.42,35.76,42.44z"/>
		<path class="st82" d="M37.8,16.53c0.05-0.18,0.09-0.37,0.15-0.54c0.01-0.02,0.13,0.04,0.14,0.1c0.05,0.27-0.05,0.37-0.24,0.43
			C37.8,16.53,37.8,16.53,37.8,16.53z"/>
		<path class="st140" d="M33.95,28.63c0.02,0.08-0.01,0.16-0.11,0.27C33.82,28.82,33.86,28.73,33.95,28.63z"/>
		<path class="st154" d="M66.64,78.28c0.29-0.61,0.53,0.6,0.91-0.05c-0.02,0.89,0.96,1.65,0.14,2.73
			C67.26,80.2,67.14,79.09,66.64,78.28z"/>
		<path class="st154" d="M67.47,81.71c-0.03-0.08,0-0.17,0.1-0.26C67.59,81.52,67.55,81.61,67.47,81.71z"/>
		<path class="st9" d="M34.82,35.41c0.55-0.27,0.56,0.54,0.72,1.24C35.09,36.78,34.71,36.63,34.82,35.41z"/>
		<path class="st19" d="M35.79,38.96c0.09-0.04,0.18,0,0.26,0.05c-0.05,0.06-0.09,0.13-0.19,0.2C35.82,39.22,35.8,39.04,35.79,38.96
			z"/>
		<path class="st155" d="M53.62,79.84c0,0.42-0.01,0.68-0.03,1.06c-0.13,0.26-0.25,0.39-0.43,0.58c-0.13,0.1-0.2,0.11-0.31,0.02
			c-0.02-0.62,0.01-1.19-0.02-1.83c-0.17-1.55-0.25-3.02,0.23-4.52c0.27-0.39,0.47-0.37,0.71,0.07
			C53.76,76.79,53.49,78.2,53.62,79.84z"/>
		<path class="st156" d="M51.68,76.78c-0.07-0.89-0.01-1.77-0.28-2.72c-0.08-0.29-0.11-0.46-0.12-0.78
			c0.05-0.51,0.13-0.85,0.33-1.24c0.33-0.3,0.6-0.3,0.95-0.06c0.2,0.3,0.25,0.59,0.28,1.04c0,0.35-0.02,0.54-0.08,0.87
			c-0.47,1.1-0.12,2.38-0.49,3.49C52.05,77.26,51.89,77.03,51.68,76.78z"/>
		<path class="st157" d="M52.75,81.49c0.1,0.02,0.17,0.05,0.28,0.06c0.07,0.13,0.09,0.26,0.1,0.55c-0.06,0.24-0.12,0.32-0.22,0.46
			c-0.11,0.22-0.17,0.38-0.29,0.58c-0.24,0.03-0.43,0-0.7-0.06c-0.09-0.38-0.11-0.72-0.12-1.19c0.05-0.24,0.1-0.33,0.27-0.49
			C52.36,81.39,52.53,81.46,52.75,81.49z"/>
		<path class="st158" d="M52.23,77.57c0.06-1.24-0.22-2.47,0.24-3.62c0.51,0.51,0.37,1.3,0.34,2.21c-0.01,0.59-0.01,1.02-0.16,1.56
			C52.48,77.78,52.37,77.72,52.23,77.57z"/>
		<path class="st159" d="M52.59,77.98c0-0.52,0-0.9,0.01-1.43c0.18-0.47,0.05-0.94,0.22-1.38c0.07-0.15,0.11-0.2,0.28-0.2
			c-0.07,1.46-0.32,2.85-0.31,4.48C52.52,79.18,52.63,78.62,52.59,77.98z"/>
		<path class="st67" d="M51.79,81.35c0.09-0.22,0.19-0.33,0.37-0.1c0.03,0.07,0.05,0.12,0.05,0.15c-0.09,0.11-0.18,0.14-0.34,0.06
			C51.81,81.4,51.8,81.37,51.79,81.35z"/>
		<path class="st13" d="M47.64,26.4c-0.16-0.01-0.27-0.07-0.41-0.22C47.38,26.08,47.68,25.37,47.64,26.4z"/>
		<path class="st160" d="M54.73,61.75c0.6-0.44,0.77,0.48,1.24,0.94c0.16,0.52,0.06,0.81-0.18,1.11
			C55.06,63.79,54.73,63.11,54.73,61.75z"/>
		<path class="st160" d="M54.41,60.8c0.18,0.06,0.34,0.14,0.39,0.62c0.01,0.11-0.02,0.17-0.04,0.2c-0.28,0.15-0.42-0.03-0.41-0.63
			C54.38,60.86,54.4,60.82,54.41,60.8z"/>
		<path class="st161" d="M56.33,62.24c0.05,0.16,0.05,0.33,0.03,0.62c-0.14,0.2-0.22,0.08-0.32-0.17C56,62.61,56,62.6,56,62.6
			C56.09,62.48,56.18,62.37,56.33,62.24z"/>
		<path class="st26" d="M46.81,30.61c-0.09,0.22-0.18,0.32-0.34,0.41c-0.06-0.4-0.11-0.84,0.26-1.01
			C46.8,30.16,46.8,30.32,46.81,30.61z"/>
		<path class="st162" d="M55.63,74.9c-0.31,0.44-0.59,0.78-0.98,0.87c-0.1-0.45-0.07-0.65-0.09-0.94c-0.04-0.28-0.11-0.43-0.24-0.61
			c-0.08-0.11-0.1-0.16-0.15-0.31c0.03-0.52,0.22-0.68,0.46-0.9c0.17-0.12,0.29-0.18,0.45-0.3c0.19-0.18,0.32-0.35,0.49-0.59
			c0.1-0.06,0.14-0.07,0.24-0.03c0.09,0.1,0.12,0.16,0.19,0.31c0.14,0.46,0.2,0.83,0.15,1.35C56.11,74.4,55.6,74.17,55.63,74.9z"/>
		<path class="st163" d="M55.66,75.08c-0.28-0.76,0.06-0.86,0.32-1.14c0.09-0.09,0.13-0.13,0.23-0.19c0.11,0,0.16,0.02,0.26,0.1
			c0.12,0.18,0.18,0.3,0.23,0.57c-0.11,0.69-0.31,1.21-0.11,1.89c0.14,0.45,0.22,0.99-0.13,1.47c-0.15,0.05-0.24,0.06-0.39,0.06
			C56.04,76.9,55.83,76.05,55.66,75.08z"/>
		<path class="st164" d="M54.42,77.19c-0.1-0.25-0.15-0.41-0.19-0.66c0.06-0.29,0.11-0.48,0.3-0.48c0.05,0.05,0.09,0.05,0.1,0.03
			c0,0.24-0.01,0.5-0.03,0.9C54.54,77.17,54.51,77.22,54.42,77.19z"/>
		<path class="st165" d="M54.37,77.11c0.03-0.01,0.06,0,0.15,0c0.06,0.06,0.07,0.13,0.08,0.29c-0.03,0.1-0.07,0.11-0.15,0.09
			c-0.07-0.08-0.1-0.14-0.09-0.3C54.39,77.1,54.38,77.12,54.37,77.11z"/>
		<path class="st166" d="M38.82,48.23c1.15-0.49,1.56,0.67,1.73,2.52c-0.3,0.57-0.45,0.1-0.59-0.25c-0.17-0.43-0.31-0.87-0.72-0.91
			C38.75,49.44,38.81,48.87,38.82,48.23z"/>
		<path class="st167" d="M39.19,49.66c0.85-0.99,0.78,0.92,1.32,1.21c0.08,0.17,0.09,0.34,0.12,0.62c0.01,0.18,0,0.24-0.02,0.38
			C39.85,51.8,39.31,51.22,39.19,49.66z"/>
		<path class="st168" d="M51.17,56.93c0.04,0.74,0.03,1.44,0.02,2.28c-0.31,0.18-0.42-0.13-0.42-0.76c0.01-0.61,0.03-1.1,0.05-1.73
			C50.93,56.68,51.02,56.78,51.17,56.93z"/>
		<path class="st169" d="M51.2,59.87c0.09-0.04,0.18,0.07,0.32,0.22c0.07,0.19,0.08,0.34,0.12,0.6c0.03,0.18,0.05,0.25,0.06,0.42
			c-0.05,0.46-0.1,0.82-0.25,1.32c-0.17,0.16-0.25,0.16-0.39,0.17C51.14,61.76,51.26,60.91,51.2,59.87z"/>
		<path class="st170" d="M50.56,63.61c-0.06-0.22-0.05-0.48-0.06-0.86c0.03-0.13,0.08-0.13,0.2-0.12
			C50.79,62.97,50.83,63.32,50.56,63.61z"/>
		<path class="st104" d="M51.98,52.35c0.06,0.02,0.06,0.18,0.04,0.26c-0.01,0.08-0.1,0.08-0.15,0.09c-0.05-0.05-0.06-0.11-0.06-0.25
			C51.85,52.35,51.88,52.34,51.98,52.35z"/>
		<path class="st171" d="M51.44,65.15c-0.04-0.8-0.05-1.53-0.06-2.41c-0.01-0.16,0-0.15,0.01-0.15c0.27-0.21,0.39,0.23,0.62,0.48
			c0.12,0.18,0.18,0.29,0.27,0.52c0.11,0.41,0.12,0.73,0.08,1.17c-0.04,0.19-0.06,0.26-0.14,0.4c-0.23,0.2-0.37-0.04-0.58,0
			C51.56,65.2,51.52,65.21,51.44,65.15z"/>
		<path class="st172" d="M50.86,66.96c0-0.49,0.16-0.71,0.46-0.78c0.1-0.07,0.13-0.12,0.24-0.13c0.09,0.11,0.12,0.18,0.15,0.38
			c0,0.21-0.01,0.29-0.07,0.47c-0.09,0.14-0.13,0.18-0.24,0.25C51.19,67.18,51.05,67.16,50.86,66.96z"/>
		<path class="st173" d="M51.38,67.52c-0.32,0.06-0.57,0.04-0.9,0.01c0.02-0.11,0.12-0.22,0.28-0.34c0.2-0.19,0.36-0.16,0.6-0.08
			C51.43,67.26,51.44,67.35,51.38,67.52z"/>
		<path class="st174" d="M51.42,67.16c-0.18,0.06-0.32,0.05-0.54,0.03c-0.07-0.01-0.08-0.16-0.08-0.23c0.15-0.07,0.3-0.07,0.53-0.06
			C51.43,66.97,51.45,67.03,51.42,67.16z"/>
		<path class="st149" d="M51.63,66.14c-0.06,0.13-0.15,0.08-0.2,0.05c-0.04-0.31-0.04-0.58-0.03-0.98c0.01-0.14,0.1-0.13,0.14-0.14
			C51.73,65.35,51.76,65.67,51.63,66.14z"/>
		<path class="st175" d="M42.64,40.53c-0.23,1.7-0.73,3.07-1.22,4.58c-0.87,0.95-1.71,1.17-2.57-0.12
			c-0.72-0.38-0.75-1.54-1.05-2.48c-0.04-0.37-0.03-0.63-0.04-1.02c-0.21-0.63-0.17-1.16-0.11-1.82c-0.05-2.47,0.31-2.91,2.34-2.93
			c0.68-0.01,1.34,0.01,1.75-1.36c0.45,0.84,0.52,1.95,0.71,3.11C42.42,39.26,42.78,39.76,42.64,40.53z"/>
		<path class="st176" d="M38.74,44.91c0.71-0.34,1.32,1.84,2,0.04c0.03-0.08,0.33,0.18,0.59,0.28c0.08,0.07,0.08,0.13,0.09,0.29
			c0.01,0.09-0.01,0.25-0.01,0.32c-0.9,0.82-1.91,0.23-2.9,0.8C38.67,46.15,37.76,45.11,38.74,44.91z"/>
		<path class="st177" d="M54.33,60.81c0.08,0.34,0.11,0.63,0.35,0.79c0.15,1.01,0.48,1.65,1.03,2.08c0.2,0.23,0.23,0.49,0.14,0.91
			c-0.05,0.26-0.06,0.4-0.1,0.76c-0.14,0.39-0.27,0.5-0.47,0.63c-0.11,0.06-0.16,0.08-0.28,0.1c-0.38-0.04-0.59-0.36-0.6-0.87
			c-0.01-0.95-0.4-1.57-0.61-2.48c-0.01-0.62-0.01-1.11-0.01-1.75C53.96,60.75,54.11,60.43,54.33,60.81z"/>
		<path class="st178" d="M51.46,73.13c-0.04,0.28-0.05,0.43-0.07,0.68c-0.45,0.08-0.34-0.54-0.4-1.11
			c-0.05-0.53,0.08-0.65,0.35-0.64C51.52,72.39,51.49,72.69,51.46,73.13z"/>
		<path class="st179" d="M51.43,72.08c-0.16,0.16-0.27,0.23-0.42,0.39c-0.13,0.28-0.22,0.47-0.36,0.7
			c-0.04-0.56-0.04-1.17-0.02-1.92c0.3-0.22,0.49,0.16,0.76,0.43C51.45,71.84,51.46,71.92,51.43,72.08z"/>
		<path class="st180" d="M54.84,73.12c-0.22,0.31-0.4,0.51-0.59,0.82c0.18,0.5,0.18,0.96,0.13,1.58c-0.05,0.22-0.07,0.3-0.16,0.47
			c-0.15-0.12-0.24-0.33-0.37-0.59c-0.2-0.17-0.35-0.29-0.57-0.4c-0.06,0-0.1,0-0.12,0c-0.07-0.14-0.12-0.28-0.16-0.56
			c-0.03-0.36-0.03-0.61-0.03-0.97c0-0.28,0-0.44,0-0.72c0-0.2,0-0.28,0-0.48c0-0.28,0.01-0.45,0.02-0.73
			c0.01-0.21,0.02-0.29,0.05-0.49c0.05-0.19,0.08-0.26,0.16-0.4c0.16-0.11,0.25-0.11,0.41,0c0.33,0.8,0.76,1.1,1.24,1.5
			C54.96,72.51,54.96,72.76,54.84,73.12z"/>
		<path class="st181" d="M54.18,76.17c0-0.16,0.01-0.23,0.05-0.41c0.1-0.19,0.19-0.21,0.33-0.1c0.05,0.14,0.04,0.2,0.03,0.35
			c-0.1,0.17-0.18,0.25-0.31,0.38C54.22,76.37,54.21,76.32,54.18,76.17z"/>
		<path class="st165" d="M54.16,77.5c0.02,0.05,0.02,0.2,0,0.21C54.07,77.72,54.05,77.65,54.16,77.5z"/>
		<path class="st164" d="M54.34,77.11c0.05,0.05,0.05,0.12,0.06,0.27c-0.03,0.11-0.06,0.13-0.15,0.11
			c-0.05-0.04-0.05-0.01-0.04-0.01C54.23,77.37,54.26,77.24,54.34,77.11z"/>
		<path class="st182" d="M51.42,71.69c-0.34,0.16-0.56,0.06-0.74-0.51c-0.05-0.21-0.05-0.35-0.06-0.59c0.06-0.48,0.2-0.73,0.51-0.73
			c0.28,0.23,0.38,0.54,0.44,1.06C51.57,71.26,51.54,71.44,51.42,71.69z"/>
		<path class="st183" d="M51.23,69.98c-0.21,0.11-0.38,0.1-0.56,0.45c-0.02-0.16,0.01-0.39,0.09-0.69c0.09-0.12,0.12-0.17,0.21-0.24
			c0.1,0,0.14,0.02,0.23,0.1C51.25,69.74,51.26,69.81,51.23,69.98z"/>
		<path class="st184" d="M51.23,69.6c-0.12,0.09-0.2,0.08-0.35,0.07c-0.07-0.14-0.08-0.28-0.1-0.53c0.11-0.06,0.22-0.02,0.38,0.1
			C51.23,69.38,51.25,69.45,51.23,69.6z"/>
		<path class="st185" d="M47.59,42.29c-0.69,0.49-0.75-0.69-1.15-1.25c-0.11-0.81,0.28-0.44,0.49-0.69
			C47.08,41.05,47.87,41.06,47.59,42.29z"/>
		<path class="st186" d="M56.46,77.92c0.12-0.58,0.08-0.97-0.11-1.48c-0.24-0.64-0.23-1.37,0.24-1.95
			c-0.01-0.18-0.04-0.27-0.08-0.49c-0.13-0.51-0.12-0.88,0.02-1.36c0.75-0.05,0.52,1.2,0.86,1.87c-0.27,0.16-0.4,0.45-0.39,1.1
			c0.47,0.95,0.4,2.06,0.55,3.19c-0.04,1.11-0.32,1.4-0.89,0.85C56.57,79.07,56.54,78.54,56.46,77.92z"/>
		<path class="st187" d="M57.61,78.84c-0.75-0.55-0.25-1.95-0.61-2.95c0.42-0.17,0.77-0.16,0.63,0.95c-0.06,0.44,0.1,0.97,0.15,1.6
			C57.72,78.6,57.67,78.66,57.61,78.84z"/>
		<path class="st188" d="M53.25,84.82c0.01,0.28,0.06,0.46,0.12,0.74c-0.21,0.05-0.47,0.16-0.57-0.51
			c-0.09-0.38-0.02-0.58,0.12-0.84c0.1-0.07,0.15-0.07,0.25-0.01C53.28,84.4,53.3,84.56,53.25,84.82z"/>
		<path class="st189" d="M52.94,84.15c0,0.25-0.05,0.42-0.12,0.69c-0.2,0.03-0.37-0.03-0.58-0.18c0.08-0.17,0.2-0.24,0.36-0.41
			C52.72,84.06,52.8,84.03,52.94,84.15z"/>
		<path class="st190" d="M51.38,67.33c0.01-0.1,0.02-0.26,0.03-0.34c0-0.08,0.08-0.15,0.12-0.18c0.48-0.22,0.87-0.14,1.17,0.72
			c-0.01,0.52-0.16,0.75-0.37,1.07c-0.39,0.24-0.57-0.18-0.82-0.59c-0.07-0.14-0.1-0.19-0.16-0.32
			C51.33,67.54,51.35,67.48,51.38,67.33z"/>
		<path class="st191" d="M51.46,68.02c0.28-0.17,0.49,0.02,0.68,0.53c0.12-0.05,0.21-0.11,0.37-0.08c0.1,0.1,0.13,0.16,0.18,0.34
			c0.01,0.2,0.01,0.28-0.03,0.47c-0.25,0.37-0.47,0.24-0.76,0.11c-0.11-0.06-0.15-0.09-0.25-0.19c-0.11-0.18-0.16-0.32-0.19-0.58
			C51.47,68.38,51.47,68.25,51.46,68.02z"/>
		<path class="st95" d="M51.46,68.62c0.08-0.05,0.12,0.04,0.16,0.24c0.14,0.59,0.05,0.9-0.35,0.91c-0.08-0.07-0.08-0.08-0.08-0.08
			c0-0.06,0-0.13,0.01-0.28C51.28,69.13,51.36,68.93,51.46,68.62z"/>
		<path class="st107" d="M55.88,64.7c-0.07-0.25-0.08-0.5-0.09-0.88c0.06-0.41,0.13-0.69,0.2-1.09c0.09-0.02,0.18,0.07,0.31,0.21
			c0.05,0.11,0.06,0.18,0.08,0.34c0.01,0.1,0.02,0.25,0.03,0.33c0.01,0.08,0,0.07,0,0.07c-0.03,0.05-0.06,0.1-0.05,0.25
			C56.32,64.39,56.17,64.62,55.88,64.7z"/>
		<path class="st79" d="M52.22,51.34c0.04-0.04,0.09,0.02,0.16,0.16C52.35,51.52,52.3,51.47,52.22,51.34z"/>
		<path class="st192" d="M53.05,84.21c-0.13-0.01-0.21-0.02-0.35-0.06c-0.06-0.02-0.08-0.15-0.1-0.22c0-0.14,0.01-0.2,0.04-0.37
			c0.17-0.37,0.34-0.61,0.58-0.86c0.1-0.04,0.15-0.03,0.25,0.02c0.17-0.19,0.29-0.06,0.46,0.07c-0.01,0.32-0.09,0.59-0.15,0.98
			c0.01,0.12-0.01,0.28-0.01,0.36c-0.05,0.2-0.1,0.26-0.23,0.28c-0.09-0.04-0.12-0.08-0.25-0.15
			C53.17,84.21,53.13,84.21,53.05,84.21z"/>
		<path class="st193" d="M53.55,82.63c-0.07,0.15-0.13,0.16-0.3,0.08c-0.13-0.18-0.13-0.27-0.08-0.45c0.05-0.1,0.05-0.13,0.05-0.14
			C53.36,82.12,53.52,82.14,53.55,82.63z"/>
		<path class="st68" d="M53.38,84.16c0.13,0.06,0.21,0.06,0.33,0.06c0.04,0.19,0.02,0.39-0.05,0.65c-0.14,0.06-0.23,0.06-0.39,0.06
			c-0.07-0.16-0.07-0.32-0.07-0.59c-0.01-0.12-0.01-0.11-0.01-0.11C53.24,84.18,53.28,84.14,53.38,84.16z"/>
		<path class="st194" d="M51.81,81.49c0.09-0.09,0.18-0.09,0.33-0.07c-0.03,0.12-0.12,0.22-0.27,0.33
			C51.81,81.7,51.81,81.64,51.81,81.49z"/>
		<path class="st193" d="M53.21,82.81c-0.01,0.47-0.14,0.73-0.49,0.66c-0.07-0.01-0.1-0.15-0.12-0.21c0.01-0.38,0.04-0.68,0.12-1.06
			c0.18,0.07,0.29,0.28,0.44,0.53C53.2,82.79,53.2,82.81,53.21,82.81z"/>
		<path class="st195" d="M42.52,38.91c-0.43-1.05-0.69-2.11-0.72-3.46c0-0.14,0-0.31,0.01-0.39c0.12-0.13,0.24-0.18,0.39-0.16
			c0.44,1.13,0.37,2.39,0.51,3.72C42.68,38.82,42.63,38.89,42.52,38.91z"/>
		<path class="st37" d="M37.58,39.65c0.33,0.33,0.18,0.91,0.17,1.57C36.82,41.14,37.3,40.41,37.58,39.65z"/>
		<path class="st196" d="M42.38,38.93c0.1-0.07,0.15-0.08,0.27-0.13c0.07-0.03,0.13-0.02,0.16,0c0.36,0.68,0.74,1.3,0.64,2.42
			c-0.05,0.36-0.05,0.62-0.06,1c-0.08,0.54-0.22,0.82-0.52,0.96c-0.07-0.82,0.13-1.65-0.22-2.49C42.71,39.96,42.1,39.69,42.38,38.93
			z"/>
		<path class="st98" d="M43.45,41.28c-0.06-0.85-0.51-1.39-0.62-2.33c0.17-0.12,0.33-0.1,0.57-0.1c0.55,0.26,0.33,0.98,0.4,1.64
			C43.71,40.82,43.6,41.02,43.45,41.28z"/>
		<path class="st197" d="M44.15,36.02c-0.02,0.34,0.77,0.91-0.1,1.07c-0.15,0-0.24,0-0.39-0.01c-0.05-0.4-0.11-0.86,0.27-1.04
			C44,36.02,44.1,36.02,44.15,36.02z"/>
		<path class="st198" d="M44.3,42.02c-0.21-0.37-0.37-0.73-0.13-1.27c-0.02-1.28,0.44-1.19,0.88-1.18c0.29,0.01,0.5,0.08,0.55,0.71
			c0.08,0.94-0.32,0.96-0.65,1.2C44.76,41.62,44.65,42.11,44.3,42.02z"/>
		<path class="st199" d="M42.8,43.3c0.15-0.39,0.3-0.64,0.52-0.92c0.57,0.59-0.09,1.66,0.51,2.25C42.97,45.17,42.74,44.62,42.8,43.3
			z"/>
		<path class="st5" d="M44.38,54.55c0.02,0.09-0.02,0.16-0.11,0.26C44.27,54.75,44.3,54.65,44.38,54.55z"/>
		<path class="st111" d="M41.57,51.89c-0.04,0.04-0.09-0.02-0.15-0.18C41.47,51.66,41.52,51.72,41.57,51.89z"/>
		<path class="st200" d="M55.35,68.28c0.27,0.17,0.42,0.42,0.43,0.98c-0.09,0.25-0.18,0.38-0.32,0.53c-0.1,0.13-0.14,0.23-0.18,0.42
			c-0.01,0.21,0,0.34,0.04,0.56c0.02,0.17,0.02,0.24,0.01,0.42c-0.03,0.17-0.05,0.24-0.12,0.37c-0.13,0.12-0.22,0.14-0.38,0.14
			c-0.63-0.12-0.81-1.15-1.29-1.64c-0.13-0.42-0.14-0.75-0.08-1.21c0.11-0.43,0.25-0.65,0.46-0.94
			C54.42,67.88,54.77,68.82,55.35,68.28z"/>
		<path class="st201" d="M55.41,68.18c-0.51,1.41-0.92,0.82-1.35-0.23c-0.06-1.47,0.61-0.56,0.97-0.93
			c0.11,0.03,0.15,0.06,0.24,0.17c0.09,0.22,0.12,0.37,0.14,0.64C55.42,67.95,55.4,68.1,55.41,68.18z"/>
		<path class="st202" d="M56.53,72.45c0.05,0.45,0.05,0.82,0.05,1.33c-0.02,0.19-0.06,0.24-0.14,0.23
			c-0.06-0.06-0.13-0.12-0.17-0.15c-0.29-0.3-0.06-0.99-0.41-1.3c-0.07-0.13-0.09-0.17-0.15-0.29c-0.1-0.34-0.14-0.61-0.14-1.05
			c0.03-0.34,0.07-0.52,0.18-0.79C56.25,70.79,56.42,71.53,56.53,72.45z"/>
		<path class="st203" d="M55.81,70.36c-0.01,0.17-0.02,0.35-0.06,0.67c-0.15,0.32-0.29,0.34-0.5,0.17
			c-0.06-0.08-0.06-0.24-0.07-0.33c-0.03-0.18-0.06-0.28-0.13-0.43c0-0.26,0.03-0.46,0.1-0.72c0.19-0.23,0.34-0.21,0.56-0.1
			c0.07,0.15,0.08,0.2,0.08,0.35c-0.02,0.15-0.04,0.22-0.01,0.34C55.82,70.39,55.81,70.37,55.81,70.36z"/>
		<path class="st204" d="M55.78,65.98c0.03,0.39-0.01,0.59-0.11,0.84c-0.2,0.06-0.34-0.01-0.5-0.26c-0.08-0.26-0.09-0.42-0.04-0.71
			c0.03-0.11,0.08-0.14,0.09-0.1C55.39,65.49,55.55,65.69,55.78,65.98z"/>
		<path class="st205" d="M55.17,66.61c0.16-0.03,0.27,0.03,0.41,0.18c0.03,0.09,0.01,0.25,0,0.33c-0.06,0.29-0.13,0.46-0.31,0.47
			c-0.06-0.12-0.06-0.18-0.09-0.32C55.11,67.04,55.1,66.88,55.17,66.61z"/>
		<path class="st206" d="M55.77,65.36c0.1,0,0.19,0.03,0.35,0.07c0.06,0.3,0.03,0.58-0.21,0.72c-0.06,0.02-0.11,0.01-0.13-0.01
			c-0.07-0.16-0.08-0.32-0.03-0.59C55.8,65.45,55.77,65.4,55.77,65.36z"/>
		<path class="st207" d="M55.22,67.63c0.08-0.18,0.16-0.27,0.29-0.39c0.03,0.17,0.02,0.39-0.05,0.65
			C55.35,67.88,55.29,67.8,55.22,67.63z"/>
		<path class="st208" d="M55.77,69.63c-0.15,0.08-0.3,0.07-0.51,0.04c0.04-0.31,0.21-0.33,0.45-0.31
			C55.78,69.37,55.78,69.54,55.77,69.63z"/>
		<path class="st209" d="M55.82,70.3c-0.07,0.05-0.17,0.05-0.07-0.2C55.78,70.07,55.81,70.22,55.82,70.3z"/>
		<path class="st161" d="M56.4,63.93c-0.04,0.03-0.08-0.03-0.1-0.1c-0.01-0.01,0.03-0.07,0.08-0.14
			C56.41,63.66,56.4,63.84,56.4,63.93z"/>
		<path class="st210" d="M62.45,79.57c-0.38,0.05-0.47-0.42-0.63-0.92c-0.02-1.12,0.33-2.08,0.13-3.21c0.33,0.25,0.62,0.6,0.97,0.95
			c0.68,0.06,1.34-0.2,1.82,1.03c-0.02,1.36-0.47-0.09-0.72,0.52c0.28,1.78-0.52,1.24-1.14,1.31C62.7,79.35,62.6,79.44,62.45,79.57z
			"/>
		<path class="st8" d="M65.79,77.02c-0.03,0.03-0.07-0.03-0.1-0.09c0-0.01,0.03-0.07,0.07-0.13C65.8,76.77,65.8,76.94,65.79,77.02z"
			/>
		<path class="st211" d="M65.13,72.87c0.08,0.16,0.08,0.31,0.08,0.58c-0.23,0.35-0.45,0.59-0.75,0.84c-1.18,0.08-1.76-1.39-2.45-2.7
			c0.6-0.42,1,0.88,1.7,0.59c0.17,0.72,0.41,1.02,0.86,0.77C64.75,72.86,64.9,72.87,65.13,72.87z"/>
		<path class="st212" d="M55.21,66.39c0,0.28-0.02,0.43-0.04,0.69c-0.3,0.82-0.82-0.08-1.13,0.72c-0.05,0.43-0.1,0.72-0.38,0.82
			c-0.1,0.07-0.13,0.12-0.22,0.19c-0.1,0.01-0.14-0.01-0.24-0.09c-0.1-0.18-0.13-0.32-0.17-0.56c-0.02-0.17-0.02-0.24-0.03-0.41
			c-0.01-0.3-0.03-0.5-0.07-0.79c-0.01-0.17-0.01-0.23,0.03-0.37c0.68-1.08,0.58-2.51,0.78-3.89c0.56,0.54,1.01,1.2,0.88,2.49
			c-0.04,0.41,0.16,0.58,0.46,0.57C55.17,65.92,55.19,66.09,55.21,66.39z"/>
		<path class="st213" d="M52.26,65.17c-0.06-0.45-0.06-0.82-0.06-1.32c-0.02-0.21-0.04-0.29-0.02-0.48c0.12-0.2,0.21-0.23,0.37-0.14
			c0.06,0.08,0.05,0.07,0.05,0.07c0.15,0.25,0.07,0.6,0.16,1c0.03,0.26,0.03,0.41,0.01,0.69C52.63,65.31,52.48,65.34,52.26,65.17z"
			/>
		<path class="st214" d="M52.2,65.08c0.14,0,0.28,0.01,0.49,0.02c0.07,0.26,0.08,0.51,0.08,0.89c-0.04,0.19-0.08,0.25-0.19,0.35
			c-0.18,0.05-0.27,0.01-0.42-0.17c-0.12-0.36-0.12-0.62-0.01-0.99C52.2,65.08,52.2,65.08,52.2,65.08z"/>
		<path class="st213" d="M52.55,66.28c0.04-0.11,0.13-0.14,0.17-0.15c0.09,0.09,0.14,0.19,0.23,0.34C53,66.51,53,66.67,53,66.75
			c-0.04,0.13-0.08,0.18-0.2,0.24C52.57,66.9,52.5,66.69,52.55,66.28z"/>
		<path class="st215" d="M52.8,64.26c-0.19-0.06-0.21-0.38-0.2-0.84c0.03-0.12,0.07-0.12,0.15-0.12
			C52.8,63.58,52.8,63.85,52.8,64.26z"/>
		<path class="st216" d="M52.06,63.22c-0.33,0.12-0.44-0.21-0.61-0.59c-0.02-0.47,0.01-0.89,0.09-1.39
			c0.23-0.06,0.41-0.08,0.61,0.19c0.05,0.08,0.05,0.08,0.05,0.09c0,0.27-0.01,0.54-0.01,1.02C52.18,62.89,52.16,63,52.06,63.22z"/>
		<path class="st217" d="M52.59,63.2c-0.08,0.12-0.17,0.12-0.37,0.05c-0.12-0.21-0.12-0.35-0.06-0.57c0.03-0.08,0.03-0.08,0.03-0.08
			C52.38,62.62,52.54,62.7,52.59,63.2z"/>
		<path class="st218" d="M52.2,61.41c-0.18,0.06-0.35,0-0.57-0.15c-0.03-0.16-0.02-0.23,0.01-0.38C51.89,60.8,52.24,60.4,52.2,61.41
			z"/>
		<path class="st219" d="M51.75,69.08c0.26,0.01,0.48,0.12,0.77,0.24c0.11,0.05,0.14,0.09,0.22,0.22c0.07,0.15,0.09,0.22,0.14,0.39
			c0.04,0.18,0.05,0.26,0.06,0.46c-0.04,0.67-0.09,1.22-0.33,1.75c-0.32,0.05-0.57,0.04-0.9,0.05c-0.22-0.14-0.2-0.41-0.2-0.78
			c0.15-0.59-0.26-1.51,0.38-1.56C51.84,69.62,51.63,69.52,51.75,69.08z"/>
		<path class="st220" d="M52.57,72.32c0.04-0.79,0.04-1.48,0.42-2.13c0.21,0,0.29,0.18,0.31,0.55c-0.01,0.12-0.05,0.26-0.08,0.31
			c-0.05,0.11-0.08,0.16-0.08,0.31c0.03,0.25,0.03,0.41,0.03,0.69c-0.03,0.18-0.04,0.23-0.03,0.38c0.03,0.24,0.03,0.39,0.03,0.65
			c-0.12,0.35-0.26,0.38-0.47,0.21C52.62,72.96,52.6,72.7,52.57,72.32z"/>
		<path class="st221" d="M52.62,73.32c0.15-0.11,0.28-0.11,0.47-0.12c0.07,0.27,0.08,0.54,0.07,0.96c-0.06,0.32-0.06,0.51-0.12,0.78
			c-0.14,0.49-0.23,0.91-0.38,1.4c-0.06-0.66-0.06-1.4-0.09-2.28C52.56,73.75,52.58,73.59,52.62,73.32z"/>
		<path class="st222" d="M51.56,71.03c0.05,0.35,0.05,0.62,0.06,1.03c-0.02,0.45-0.06,0.75-0.15,1.13c-0.06-0.2-0.07-0.48-0.08-0.89
			c-0.01-0.2-0.01-0.27-0.03-0.44c0-0.25,0.01-0.4,0.03-0.66C51.44,71.05,51.47,71.01,51.56,71.03z"/>
		<path class="st223" d="M53.2,82.69c-0.18,0.09-0.34,0.01-0.41-0.46c0.08-0.11,0.18-0.11,0.35-0.09
			C53.21,82.3,53.2,82.44,53.2,82.69z"/>
		<path class="st224" d="M53.04,75.01c-0.01-0.19,0.01-0.38,0.07-0.64c0.05,0.09,0.05,0.24,0.05,0.51
			C53.14,74.99,53.07,75,53.04,75.01z"/>
		<path class="st225" d="M54.75,71.53c0.13-0.12,0.21-0.12,0.36-0.11c0.15,0.1,0.22,0.24,0.26,0.55c0.01,0.32-0.01,0.49-0.1,0.77
			c-0.14,0.24-0.24,0.36-0.41,0.49c-0.07-0.26-0.08-0.52-0.1-0.9C54.7,72.02,54.68,71.84,54.75,71.53z"/>
		<path class="st193" d="M54.61,75.73c-0.08-0.01-0.16-0.03-0.29-0.06c-0.06-0.46-0.05-0.91-0.06-1.49
			c-0.01-0.13,0.07-0.14,0.12-0.13c0.19,0.07,0.27,0.25,0.32,0.62c0.01,0.36,0.01,0.61-0.05,0.95
			C54.6,75.72,54.61,75.72,54.61,75.73z"/>
		<path class="st208" d="M55.27,72.25c-0.06-0.24-0.07-0.41-0.09-0.71c-0.01-0.13,0-0.27,0-0.35c0.14-0.07,0.28-0.07,0.48-0.05
			c0.06,0.28,0.06,0.54,0.03,0.94c-0.02,0.13-0.07,0.13-0.09,0.14C55.5,72.33,55.41,72.35,55.27,72.25z"/>
		<path class="st226" d="M55.83,72.6c0.36-0.05,0.37,0.47,0.39,1.11c-0.03,0.14-0.06,0.16-0.14,0.19
			C55.97,73.5,55.92,73.11,55.83,72.6z"/>
		<path class="st227" d="M55.21,72.29c0.09-0.11,0.17-0.11,0.31-0.08c0.06,0.33,0.01,0.56-0.23,0.63
			C55.22,72.7,55.21,72.55,55.21,72.29z"/>
		<path class="st228" d="M54.66,75.65c-0.06-0.21-0.06-0.49-0.06-0.9c0.03-0.19,0.07-0.23,0.15-0.19
			C54.76,74.95,54.74,75.27,54.66,75.65z"/>
		<path class="st229" d="M54.79,74.51c-0.01,0.12-0.1,0.12-0.15,0.11c-0.09-0.15-0.14-0.29-0.2-0.5
			C54.62,73.89,54.77,73.92,54.79,74.51z"/>
		<path class="st226" d="M56.4,74.05c0.02-0.11,0.05-0.11,0.14-0.13c0.06,0.07,0.07,0.15,0.07,0.35
			C56.54,74.31,56.48,74.23,56.4,74.05z"/>
		<path class="st230" d="M52.14,65.07c0.06,0.27,0.06,0.52,0.06,0.91c-0.07,0.55-0.23,0.74-0.55,0.61
			c-0.07-0.07-0.09-0.19-0.08-0.25c0.01-0.36,0.02-0.66,0.03-1.11C51.74,63.94,51.92,65.38,52.14,65.07z"/>
		<path class="st216" d="M52.2,63.31c0,0.07,0,0.13,0,0.3c-0.06,0.03-0.12-0.04-0.2-0.19c-0.02-0.08-0.01-0.11,0-0.12
			c0.04-0.06,0.07-0.11,0.15-0.09C52.19,63.3,52.2,63.31,52.2,63.31z"/>
		<path class="st231" d="M51.58,66.58c0.17-0.17,0.34-0.27,0.57-0.43c0.14-0.04,0.23-0.02,0.38,0c0.11,0.22,0.15,0.43,0.25,0.7
			c0.08,0.12,0.1,0.18,0.15,0.35c0.02,0.18,0.02,0.26-0.03,0.54c-0.09,0.22-0.14,0.24-0.23,0.2c-0.13-1.05-0.72-0.56-1.03-1.11
			C51.57,66.78,51.57,66.65,51.58,66.58z"/>
		<path class="st232" d="M55.73,65.44c0.07,0.16,0.07,0.31,0.05,0.58c-0.16,0-0.29-0.11-0.49-0.22
			C55.26,65.27,55.5,65.49,55.73,65.44z"/>
		<path class="st233" d="M54.76,71.34c0.03,0.24,0.03,0.42,0.02,0.72c-0.56,0.19-1.05,0.12-1.17-1.21c-0.07-0.27-0.1-0.43-0.03-0.71
			C54.27,69.66,54.19,71.33,54.76,71.34z"/>
		<path class="st234" d="M53.61,69.89c0,0.29-0.01,0.44-0.02,0.71c-0.07,0.15-0.13,0.19-0.25,0.24c-0.16-0.17-0.26-0.36-0.39-0.68
			c0.04-0.59,0.18-0.97,0.39-1.42c0.04-0.09,0.14-0.11,0.19-0.11C53.59,69.01,53.6,69.38,53.61,69.89z"/>
		<path class="st235" d="M53.17,71.37c-0.04,0.02-0.07-0.04-0.09-0.12c0-0.02,0.02-0.07,0.07-0.13
			C53.19,71.16,53.19,71.22,53.17,71.37z"/>
		<path class="st235" d="M53.17,72.43c-0.04,0.03-0.07-0.03-0.09-0.09c-0.01-0.02,0.02-0.07,0.05-0.14
			C53.17,72.23,53.17,72.29,53.17,72.43z"/>
		<path class="st236" d="M51.65,71.04c-0.07,0.07-0.11,0.07-0.2,0.07c-0.11-0.28-0.16-0.55-0.24-0.92
			c-0.02-0.16-0.03-0.23-0.03-0.38c0.19-0.13,0.36-0.22,0.42-0.73c0.02-0.12,0.1-0.09,0.14-0.09
			C52.22,69.71,51.54,70.28,51.65,71.04z"/>
		<path class="st237" d="M52.55,67.9c0.06-0.02,0.14,0.02,0.17,0.04c0.12,0.09,0.16,0.2,0.14,0.56c-0.08,0.23-0.12,0.25-0.21,0.21
			c-0.14-0.07-0.23-0.08-0.39-0.08C52.22,68.29,52.27,68,52.55,67.9z"/>
		<path class="st238" d="M53.35,68.63c0.07,0.57,0.03,1.05-0.35,1.36c-0.06,0.06-0.06,0.05-0.06,0.05c0,0-0.06-0.03-0.08-0.06
			c-0.07-0.06-0.11-0.08-0.16-0.21c-0.01-0.11-0.05-0.27-0.08-0.35c-0.03-0.08,0.01-0.23,0.02-0.32c0.03-0.16,0.05-0.23,0.11-0.4
			c0.05-0.09,0.04-0.11,0.04-0.12c0.09-0.11,0.19-0.16,0.37-0.09C53.22,68.54,53.31,68.59,53.35,68.63z"/>
		<path class="st234" d="M52.74,68.6c0.04,0.12,0.01,0.22-0.07,0.36c-0.05-0.01-0.06-0.07-0.07-0.23
			C52.6,68.63,52.7,68.59,52.74,68.6z"/>
		<path class="st188" d="M53.41,84.15c-0.02,0.07-0.06,0.08-0.16,0.07C53.23,84.05,53.28,83.93,53.41,84.15z"/>
		<path class="st208" d="M55.03,70.45c0.04-0.01,0.09,0.07,0.14,0.24C55.12,70.73,55.07,70.65,55.03,70.45z"/>
		<path class="st239" d="M53.21,68.42c-0.09,0.13-0.19,0.14-0.36,0.15c-0.07-0.15-0.07-0.28-0.08-0.51
			c-0.01-0.1,0.02-0.14,0.03-0.16c0.09-0.12,0.17-0.17,0.32-0.09C53.19,68.01,53.2,68.16,53.21,68.42z"/>
		<path class="st240" d="M53.18,67.79c-0.09,0.09-0.17,0.1-0.31,0.1c-0.06-0.15-0.06-0.29-0.05-0.53c0.14-0.32,0.22-0.14,0.32,0.12
			C53.17,67.58,53.19,67.72,53.18,67.79z"/>
		<path class="st241" d="M53.18,67.47c-0.09,0.02-0.17-0.07-0.3-0.19c-0.05-0.02-0.06-0.2-0.05-0.28c0.01-0.09,0.09-0.13,0.13-0.15
			C53.06,67.01,53.13,67.19,53.18,67.47z"/>
		<path class="st149" d="M52.2,63.18c0,0.12-0.09,0.11-0.14,0.11c-0.02-0.2,0.01-0.4,0.09-0.65C52.2,62.75,52.2,62.91,52.2,63.18z"
			/>
		<path class="st234" d="M52.68,69.72c0.06-0.05,0.09,0,0.14,0.14C52.76,69.96,52.71,69.92,52.68,69.72z"/>
	</g>
</g>
</svg>
