<?xml version="1.0" encoding="utf-8"?>
<!-- Generator: Adobe Illustrator 27.0.0, SVG Export Plug-In . SVG Version: 6.00 Build 0)  -->
<svg version="1.1" id="Layer_1" xmlns="http://www.w3.org/2000/svg" xmlns:xlink="http://www.w3.org/1999/xlink" x="0px" y="0px"
	 viewBox="0 0 500 500" style="enable-background:new 0 0 500 500;" xml:space="preserve">
<style type="text/css">
	.st0{fill:url(#SVGID_1_);}
</style>
<linearGradient id="SVGID_1_" gradientUnits="userSpaceOnUse" x1="101.6584" y1="124.7412" x2="398.2841" y2="421.3669" gradientTransform="matrix(1 0 0 -1 0 502)">
	<stop  offset="0" style="stop-color:#0000FF"/>
	<stop  offset="0.1" style="stop-color:#0D05FF"/>
	<stop  offset="0.29" style="stop-color:#2F12FF"/>
	<stop  offset="0.55" style="stop-color:#6728FF"/>
	<stop  offset="0.86" style="stop-color:#B346FF"/>
	<stop  offset="1" style="stop-color:#D855FF"/>
</linearGradient>
<path class="st0" d="M399.3,166.5c0,53.7-12.9,94.8-38.8,123.5c-13.9,15.4-31.8,26.6-51.2,33.7c-15.6,5.7-34.1,7.2-40.5,25.5
	c-4,11.6-3.5,24.4,1.2,35.7c5.9,13.9,19.6,24.1,27.7,36.7c3.7,5.7,6.3,12.2,7.4,18.9c0.4,2.5,0.6,5,0.7,7.6
	c0.1,11.7-3.8,23.2-11.1,32.3c-20.9,26.2-68.7,26-89.5,0c-13.1-16.4-14.4-39.3-4-57.4c6.6-11.5,17.1-20.1,24.5-31
	c8.5-12.5,10.3-28.5,5.4-42.7c-6.3-18.3-24.9-19.9-40.5-25.5c-19.4-7-37.3-18.3-51.2-33.7c-25.9-28.7-38.8-69.9-38.8-123.5
	S113.6,71.7,139.5,43C165.4,14.3,202.2,0,250,0s84.6,14.3,110.5,43S399.3,112.9,399.3,166.5L399.3,166.5z M174.2,166.5
	c0,34.1,6.4,60.2,19.3,78.4c12.9,18.1,31.7,27.2,56.5,27.2c24.8,0,43.6-9.1,56.3-27.2c12.7-18.1,19.1-44.3,19.1-78.4
	s-6.4-60.2-19.1-78.2c-12.7-18-31.5-27-56.3-27s-43.7,9-56.5,27C180.6,106.4,174.2,132.4,174.2,166.5L174.2,166.5z"/>
</svg>
