<?xml version="1.0" encoding="UTF-8"?><svg id="Layer_1" xmlns="http://www.w3.org/2000/svg" xmlns:xlink="http://www.w3.org/1999/xlink" viewBox="0 0 100 100"><defs><style>.cls-1{fill:url(#linear-gradient);}.cls-2{fill:#3a2700;}.cls-3{fill:#601f62;}.cls-4{fill:url(#linear-gradient-3);}.cls-5{fill:url(#linear-gradient-4);}.cls-6{fill:url(#linear-gradient-2);}.cls-7{fill:url(#linear-gradient-6);}.cls-8{fill:url(#linear-gradient-5);}</style><linearGradient id="linear-gradient" x1="11.93" y1="1.77" x2="124.2" y2="144" gradientUnits="userSpaceOnUse"><stop offset="0" stop-color="#c95676"/><stop offset=".2" stop-color="#c85678"/><stop offset=".34" stop-color="#ab4086"/><stop offset=".35" stop-color="#9f3b80"/><stop offset=".38" stop-color="#832f73"/><stop offset=".41" stop-color="#6f2669"/><stop offset=".44" stop-color="#632163"/><stop offset=".47" stop-color="#602062"/><stop offset=".51" stop-color="#652263"/><stop offset=".56" stop-color="#742968"/><stop offset=".61" stop-color="#8d356f"/><stop offset=".67" stop-color="#af467a"/><stop offset=".68" stop-color="#bb4c7e"/><stop offset=".81" stop-color="#c1517a"/><stop offset=".87" stop-color="#c75578"/><stop offset="1" stop-color="#c75577"/></linearGradient><linearGradient id="linear-gradient-2" x1="29.04" y1="20.23" x2="74.37" y2="84.62" gradientUnits="userSpaceOnUse"><stop offset="0" stop-color="#601f62"/><stop offset="0" stop-color="#622062"/><stop offset=".04" stop-color="#86326a"/><stop offset=".08" stop-color="#a24170"/><stop offset=".12" stop-color="#b64b74"/><stop offset=".16" stop-color="#c25177"/><stop offset=".2" stop-color="#c65478"/><stop offset=".27" stop-color="#91386c"/><stop offset=".34" stop-color="#601f62"/><stop offset=".37" stop-color="#772773"/><stop offset=".4" stop-color="#8b2e82"/><stop offset=".44" stop-color="#97328b"/><stop offset=".47" stop-color="#9b348e"/><stop offset=".53" stop-color="#a0378b"/><stop offset=".61" stop-color="#af4383"/><stop offset=".68" stop-color="#c65477"/><stop offset=".75" stop-color="#bf4f7a"/><stop offset=".84" stop-color="#ac4184"/><stop offset=".87" stop-color="#a63d88"/><stop offset="1" stop-color="#601f62"/></linearGradient><linearGradient id="linear-gradient-3" x1=".96" y1="50.61" x2="99.04" y2="50.61" gradientUnits="userSpaceOnUse"><stop offset="0" stop-color="#f5cd16"/><stop offset=".03" stop-color="#e8bb10"/><stop offset=".08" stop-color="#dba709"/><stop offset=".14" stop-color="#d29b05"/><stop offset=".19" stop-color="#d09804"/><stop offset=".22" stop-color="#d9ad38"/><stop offset=".3" stop-color="#f2e3bb"/><stop offset=".34" stop-color="#fff"/><stop offset=".35" stop-color="#fcf5d4"/><stop offset=".37" stop-color="#faeaa1"/><stop offset=".39" stop-color="#f8e075"/><stop offset=".41" stop-color="#f6d851"/><stop offset=".44" stop-color="#f4d235"/><stop offset=".46" stop-color="#f3ce21"/><stop offset=".48" stop-color="#f3cb15"/><stop offset=".5" stop-color="#f3cb12"/><stop offset=".55" stop-color="#efc510"/><stop offset=".61" stop-color="#e5b60c"/><stop offset=".67" stop-color="#d49d05"/><stop offset=".68" stop-color="#d19904"/><stop offset=".73" stop-color="#d69f06"/><stop offset=".8" stop-color="#e5b20f"/><stop offset=".87" stop-color="#facd1b"/><stop offset="1" stop-color="#d09a0f"/></linearGradient><linearGradient id="linear-gradient-4" x1="18.56" y1="12.14" x2="81.03" y2="87.37" gradientUnits="userSpaceOnUse"><stop offset="0" stop-color="#601f62"/><stop offset=".02" stop-color="#7a477d"/><stop offset=".05" stop-color="#98729a"/><stop offset=".08" stop-color="#b097b2"/><stop offset=".11" stop-color="#c2b3c5"/><stop offset=".14" stop-color="#d0c7d3"/><stop offset=".17" stop-color="#d8d3db"/><stop offset=".2" stop-color="#dbd7de"/><stop offset=".26" stop-color="#d3a2b4"/><stop offset=".34" stop-color="#c85677"/><stop offset=".34" stop-color="#c35375"/><stop offset=".37" stop-color="#9f406e"/><stop offset=".39" stop-color="#833169"/><stop offset=".42" stop-color="#6f2765"/><stop offset=".45" stop-color="#632162"/><stop offset=".47" stop-color="#601f62"/><stop offset=".51" stop-color="#652163"/><stop offset=".55" stop-color="#742966"/><stop offset=".6" stop-color="#8d366b"/><stop offset=".65" stop-color="#af4873"/><stop offset=".68" stop-color="#c75578"/><stop offset=".76" stop-color="#c04f7b"/><stop offset=".87" stop-color="#af4384"/><stop offset=".99" stop-color="#601f62"/></linearGradient><linearGradient id="linear-gradient-5" x1="28.11" y1="47.05" x2="66.6" y2="47.05" gradientUnits="userSpaceOnUse"><stop offset="0" stop-color="#c99004"/><stop offset="1" stop-color="#f5ce11"/></linearGradient><linearGradient id="linear-gradient-6" x1="63.35" y1="72.99" x2="32.96" y2="29.59" xlink:href="#linear-gradient-3"/></defs><g id="Bitcoin"><g id="BIT"><circle class="cls-1" cx="50" cy="50" r="50"/><path class="cls-6" d="m50,11.44c10.3,0,19.98,4.01,27.27,11.29,7.28,7.28,11.29,16.97,11.29,27.26s-4.01,19.98-11.29,27.27c-7.28,7.28-16.97,11.29-27.27,11.29s-19.98-4.01-27.26-11.29c-7.28-7.28-11.29-16.97-11.29-27.27s4.01-19.98,11.29-27.26c7.28-7.28,16.97-11.29,27.26-11.29m0-11.44C22.39,0,0,22.39,0,50s22.39,50,50,50,50-22.39,50-50S77.61,0,50,0h0Z"/><path class="cls-3" d="m89.68,48.85c-.01-.46-.33-.84-.74-.96-.05-.99-.14-1.96-.27-2.93.39-.2.62-.63.55-1.08-.18-1.17-.42-2.35-.7-3.5-.11-.45-.5-.75-.93-.78-.26-.95-.56-1.88-.89-2.8.34-.28.48-.75.31-1.18-.43-1.1-.91-2.2-1.44-3.26-.21-.42-.65-.63-1.09-.56-.46-.86-.95-1.71-1.47-2.53.27-.34.31-.84.06-1.22-.66-.99-1.36-1.95-2.11-2.88-.29-.36-.77-.47-1.19-.32-.63-.75-1.29-1.47-1.97-2.16.2-.4.13-.89-.2-1.21-.85-.82-1.75-1.62-2.67-2.36-.36-.29-.86-.3-1.23-.06-.77-.59-1.57-1.16-2.39-1.7.11-.43-.06-.89-.46-1.14-1.01-.62-2.06-1.21-3.12-1.74-.41-.21-.9-.11-1.21.2-.88-.42-1.78-.8-2.7-1.15,0-.44-.26-.85-.69-1-1.12-.39-2.27-.74-3.42-1.03-.45-.11-.89.08-1.13.45-.95-.21-1.91-.39-2.89-.54-.09-.43-.44-.77-.89-.82-1.17-.14-2.37-.23-3.55-.27-.01,0-.02,0-.03,0-.44,0-.82.28-.97.68-.09,0-.18,0-.27,0-.9,0-1.79.03-2.67.09-.18-.4-.59-.66-1.04-.62-1.18.11-2.37.27-3.53.49-.45.08-.78.45-.84.88-.96.2-1.91.44-2.85.72-.26-.35-.72-.52-1.16-.38-1.13.36-2.25.78-3.34,1.24-.43.18-.66.61-.63,1.05-.89.4-1.76.84-2.62,1.31-.33-.29-.82-.36-1.22-.13-1.02.59-2.03,1.24-3,1.93-.38.27-.52.74-.39,1.16-.78.58-1.54,1.2-2.28,1.84-.38-.22-.88-.18-1.22.13-.87.8-1.72,1.65-2.52,2.52-.31.34-.35.84-.13,1.22-.64.74-1.25,1.5-1.84,2.28-.42-.13-.89,0-1.16.39-.69.97-1.33,1.98-1.93,3-.23.4-.16.89.13,1.22-.47.86-.91,1.73-1.31,2.62-.44-.04-.87.2-1.05.63-.46,1.09-.88,2.22-1.24,3.35-.14.44.03.9.38,1.16-.27.94-.51,1.88-.72,2.85-.43.06-.8.39-.88.84-.21,1.16-.38,2.35-.49,3.53-.04.46.22.87.62,1.04-.06.88-.09,1.76-.09,2.66,0,.09,0,.19,0,.28-.41.15-.69.55-.68,1.01.04,1.19.13,2.38.27,3.55.06.46.4.81.83.89.14.97.32,1.94.54,2.88-.37.24-.56.68-.45,1.13.29,1.15.64,2.3,1.03,3.41.15.43.55.7.98.7,0,0,.02,0,.02,0,.35.92.73,1.81,1.15,2.69-.31.31-.41.79-.2,1.21.53,1.06,1.11,2.1,1.74,3.11.2.32.54.49.89.49.08,0,.17-.01.25-.03.53.82,1.1,1.61,1.69,2.38-.24.37-.24.86.06,1.23.74.92,1.54,1.82,2.36,2.67.2.21.48.32.75.32.16,0,.32-.04.46-.11.7.68,1.42,1.34,2.16,1.97-.16.41-.05.9.32,1.19.92.74,1.89,1.45,2.88,2.11.18.12.38.17.58.17.23,0,.46-.08.65-.23.83.52,1.67,1.01,2.54,1.47-.07.44.15.88.56,1.09,1.06.53,2.16,1.01,3.26,1.44.12.05.25.07.38.07.31,0,.61-.14.81-.38.92.33,1.85.63,2.8.89.03.44.34.82.78.93,1.15.29,2.33.52,3.5.7.05,0,.11.01.16.01.39,0,.74-.22.92-.56.96.12,1.94.21,2.93.27.13.41.5.72.96.74.38.01.76.02,1.14.02.81,0,1.63-.02,2.43-.07.46-.03.83-.35.94-.77.98-.08,1.95-.21,2.91-.36.18.33.53.54.91.54.06,0,.13,0,.19-.02,1.16-.22,2.33-.49,3.47-.82.44-.13.73-.52.75-.96.94-.29,1.86-.62,2.76-.98.2.23.49.36.78.36.14,0,.28-.03.41-.08,1.09-.46,2.17-.98,3.21-1.54.41-.22.61-.67.53-1.1.85-.49,1.68-1,2.49-1.55.18.13.4.21.62.21.21,0,.42-.06.6-.19.97-.69,1.91-1.43,2.81-2.2.35-.3.45-.79.28-1.2.72-.65,1.43-1.33,2.1-2.04.14.06.28.1.43.1.28,0,.57-.11.77-.34.8-.88,1.56-1.8,2.28-2.74.28-.37.27-.87.02-1.23.57-.79,1.11-1.61,1.62-2.44.07.02.14.03.21.03.36,0,.71-.19.9-.52.59-1.03,1.14-2.09,1.64-3.17.19-.42.08-.9-.24-1.2.39-.89.74-1.81,1.06-2.73.44,0,.84-.29.98-.73.36-1.13.66-2.29.92-3.45.1-.45-.11-.89-.49-1.11.18-.96.33-1.92.45-2.9.42-.1.76-.46.8-.92.1-1.18.16-2.37.16-3.56,0-.39,0-.77-.02-1.15Zm-14.05,29.6c-.37-.2-.83-.16-1.17.13-.85.73-1.75,1.43-2.66,2.08-.36.26-.51.7-.4,1.11-.79.54-1.61,1.04-2.44,1.52-.32-.27-.78-.34-1.17-.13-.99.53-2.01,1.02-3.04,1.46-.41.17-.65.58-.63,1-.89.35-1.79.67-2.71.96-.25-.34-.69-.51-1.12-.38-1.08.31-2.19.57-3.29.77-.44.08-.76.43-.83.85-.94.15-1.89.27-2.85.35-.17-.39-.57-.65-1.01-.62-1.12.07-2.26.09-3.38.05-.45-.02-.84.26-.99.65-.96-.05-1.92-.14-2.86-.26-.08-.41-.42-.75-.86-.82-1.11-.17-2.22-.4-3.31-.67-.43-.11-.87.07-1.11.42-.93-.26-1.84-.55-2.74-.87,0-.42-.25-.82-.66-.98-1.05-.41-2.09-.86-3.09-1.36-.4-.2-.86-.12-1.17.17-.85-.45-1.68-.93-2.49-1.44.09-.41-.07-.85-.44-1.09-.93-.62-1.85-1.29-2.73-2-.34-.28-.81-.3-1.17-.09-.73-.62-1.44-1.27-2.13-1.94.17-.38.11-.84-.2-1.16-.78-.81-1.53-1.66-2.24-2.53-.28-.34-.73-.46-1.12-.34-.58-.76-1.14-1.54-1.67-2.35.25-.33.29-.8.05-1.17-.59-.95-1.15-1.95-1.65-2.95-.2-.4-.62-.61-1.03-.57-.41-.87-.78-1.75-1.13-2.65.32-.27.46-.72.31-1.14-.37-1.06-.7-2.15-.97-3.24-.11-.43-.47-.73-.89-.78-.21-.93-.39-1.87-.53-2.82.37-.19.61-.6.56-1.05-.13-1.11-.22-2.24-.26-3.37-.01-.45-.31-.82-.71-.96,0-.09,0-.18,0-.26,0-.88.03-1.74.09-2.6.41-.11.72-.46.77-.91.1-1.12.26-2.25.46-3.35.08-.44-.13-.86-.49-1.08.2-.94.43-1.87.7-2.79.42-.02.8-.3.94-.72.34-1.07.73-2.13,1.17-3.17.17-.41.06-.87-.24-1.16.4-.88.83-1.74,1.29-2.58.05,0,.11.02.16.02.36,0,.71-.19.9-.52.56-.97,1.18-1.93,1.83-2.84.26-.36.25-.83.02-1.18.57-.77,1.18-1.52,1.81-2.24.12.05.25.07.38.07.28,0,.56-.11.77-.34.76-.83,1.56-1.63,2.39-2.39.33-.3.42-.76.27-1.14.72-.63,1.47-1.23,2.24-1.81.17.11.37.18.57.18s.42-.06.6-.19c.92-.65,1.87-1.26,2.84-1.82.38-.22.57-.65.5-1.07.84-.46,1.69-.89,2.57-1.28.2.2.47.32.75.32.14,0,.27-.03.41-.08,1.03-.44,2.1-.83,3.17-1.17.42-.14.7-.52.72-.94.91-.27,1.84-.5,2.78-.7.19.31.52.51.89.51.06,0,.13,0,.19-.02,1.1-.2,2.23-.36,3.35-.46.45-.04.8-.36.91-.77.86-.06,1.73-.09,2.61-.09.09,0,.17,0,.26,0,.13.4.5.7.95.71,1.13.04,2.26.12,3.37.26.04,0,.08,0,.13,0,.39,0,.75-.22.92-.56.95.14,1.89.32,2.82.53.05.42.35.79.78.89,1.09.27,2.18.6,3.23.97.11.04.23.06.35.06.31,0,.6-.14.79-.37.9.34,1.78.72,2.65,1.13-.04.42.17.83.57,1.03,1,.5,2,1.06,2.95,1.65.17.11.36.16.55.16.22,0,.44-.08.62-.21.81.53,1.59,1.09,2.35,1.67-.13.4,0,.85.34,1.12.87.71,1.72,1.46,2.53,2.24.2.2.46.29.72.29.15,0,.29-.03.43-.1.67.68,1.32,1.39,1.94,2.13-.21.36-.19.83.09,1.17.7.88,1.37,1.79,2,2.73.2.3.53.46.87.46.07,0,.15-.01.22-.03.51.81.99,1.64,1.44,2.49-.28.31-.36.77-.17,1.17.5,1.01.96,2.05,1.36,3.09.16.41.55.67.97.67,0,0,0,0,0,0,.32.9.61,1.81.87,2.74-.35.24-.53.67-.42,1.11.27,1.09.5,2.2.67,3.31.07.44.41.78.82.86.12.94.21,1.89.26,2.86-.39.16-.67.55-.65.99,0,.36.02.73.02,1.1,0,1.13-.05,2.26-.15,3.38-.04.45.21.85.59,1.03-.11.96-.26,1.9-.44,2.84-.42.06-.77.37-.87.81-.24,1.1-.53,2.2-.87,3.26-.13.43.02.87.35,1.13-.31.91-.66,1.8-1.04,2.68-.42-.03-.83.2-1.02.6-.47,1.02-.99,2.03-1.55,3-.22.38-.17.85.09,1.17-.5.82-1.03,1.62-1.59,2.4-.4-.11-.85.02-1.11.37-.68.89-1.4,1.77-2.16,2.6-.3.33-.35.79-.16,1.16-.66.69-1.35,1.36-2.07,2.01Z"/><path class="cls-3" d="m50,79.75c-14.17,0-26.44-10.08-29.19-23.97l-.02-.09,2.45-2.45h34.94l4.64,4.64-4.83-11.11H23.25l-2.45-2.45.02-.09c2.75-13.89,15.02-23.97,29.19-23.97,16.4,0,29.75,13.35,29.75,29.75s-13.35,29.75-29.75,29.75Zm-28.83-23.95c2.75,13.68,14.86,23.6,28.83,23.6,16.21,0,29.4-13.19,29.4-29.4s-13.19-29.4-29.4-29.4c-13.97,0-26.08,9.92-28.83,23.6l2.22,2.22h34.84l.05.1,5.6,12.89-5.83-5.83H23.39l-2.22,2.22Z"/><path class="cls-3" d="m50,76.82c-11.23,0-21.37-7.1-25.21-17.67l-.04-.1,2.4-2.4h29.18l3.2,3.2v8.69h-.35v-8.55l-3-3h-28.89l-2.14,2.14c3.82,10.38,13.79,17.34,24.85,17.34,14.12,0,25.73-11.04,26.44-25.13l.35.02c-.72,14.27-12.48,25.46-26.78,25.46Z"/><path class="cls-3" d="m50,73.89c-8.45,0-16.36-4.55-20.64-11.87l-.07-.11,1.85-1.84h22.97l2.11,2.11v6.63h-.35v-6.49l-1.91-1.91h-22.68l-1.55,1.55c4.23,7.15,11.99,11.58,20.27,11.58,12.47,0,22.8-9.75,23.5-22.19l.35.02c-.72,12.63-11.19,22.52-23.85,22.52Z"/><path class="cls-3" d="m73.42,47.6c-1.23-12.05-11.3-21.14-23.42-21.14-8.28,0-16.04,4.44-20.27,11.59l1.55,1.55h22.68l2.24-2.24.25.25-2.34,2.34h-22.97l-1.85-1.84.07-.11c4.28-7.33,12.19-11.87,20.64-11.87,12.3,0,22.52,9.22,23.77,21.45l-.35.03Z"/><path class="cls-3" d="m76.82,49.66h-3.25l-4.11-4.11v-3.5h.35v3.36l3.91,3.91h2.75c-.37-14.23-12.2-25.78-26.46-25.78-11.05,0-21.02,6.96-24.85,17.34l2.14,2.14h28.89l3.06-3.06v-7.63h.35v7.78l-3.26,3.26h-29.18l-2.4-2.4.04-.1c3.85-10.57,13.98-17.67,25.21-17.67,14.51,0,26.54,11.8,26.81,26.3v.18Z"/><path class="cls-3" d="m50,85.61c-19.64,0-35.61-15.98-35.61-35.61S30.36,14.39,50,14.39s35.61,15.98,35.61,35.61-15.98,35.61-35.61,35.61Zm0-70.88c-19.45,0-35.27,15.82-35.27,35.26s15.82,35.27,35.27,35.27,35.26-15.82,35.26-35.27S69.44,14.74,50,14.74Z"/><path class="cls-3" d="m50,82.68c-17.1,0-31.42-13.35-32.6-30.39v-.09s2.77-2.21,2.77-2.21l-2.73-2.73v-.08c.7-8.11,4.4-15.64,10.42-21.19,6.06-5.59,13.92-8.66,22.14-8.66,18.02,0,32.68,14.66,32.68,32.68s-14.66,32.68-32.68,32.68Zm-32.25-30.33c1.21,16.82,15.36,29.98,32.25,29.98,17.83,0,32.33-14.5,32.33-32.33s-14.5-32.33-32.33-32.33c-16.61,0-30.74,12.93-32.21,29.46l2.89,2.89-2.93,2.33Z"/><path class="cls-3" d="m33.69,44.29h-2.72c-.61,0-1.11-.5-1.11-1.11h0c0-.61.5-1.11,1.11-1.11h2.72c.61,0,1.11.5,1.11,1.11h0c0,.61-.5,1.11-1.11,1.11Z"/><path class="cls-3" d="m68.53,44.02v-2.72c0-.61.5-1.11,1.11-1.11h0c.61,0,1.11.5,1.11,1.11v2.72c0,.61-.5,1.11-1.11,1.11h0c-.61,0-1.11-.5-1.11-1.11Z"/><path class="cls-3" d="m33.69,47.7h-2.72c-.61,0-1.11-.5-1.11-1.11h0c0-.61.5-1.11,1.11-1.11h2.72c.61,0,1.11.5,1.11,1.11h0c0,.61-.5,1.11-1.11,1.11Z"/><path class="cls-3" d="m33.69,51.11h-2.72c-.61,0-1.11-.5-1.11-1.11h0c0-.61.5-1.11,1.11-1.11h2.72c.61,0,1.11.5,1.11,1.11h0c0,.61-.5,1.11-1.11,1.11Z"/><path class="cls-3" d="m33.69,54.52h-2.72c-.61,0-1.11-.5-1.11-1.11h0c0-.61.5-1.11,1.11-1.11h2.72c.61,0,1.11.5,1.11,1.11h0c0,.61-.5,1.11-1.11,1.11Z"/><path class="cls-3" d="m33.69,57.93h-2.72c-.61,0-1.11-.5-1.11-1.11h0c0-.61.5-1.11,1.11-1.11h2.72c.61,0,1.11.5,1.11,1.11h0c0,.61-.5,1.11-1.11,1.11Z"/><path class="cls-4" d="m50,4.17c12.4,0,24.06,4.83,32.84,13.6,8.77,8.77,13.6,20.43,13.6,32.84s-4.83,24.06-13.6,32.83c-8.77,8.77-20.43,13.6-32.84,13.6s-24.06-4.83-32.83-13.6c-8.77-8.77-13.6-20.43-13.6-32.83s4.83-24.06,13.6-32.84c8.77-8.77,20.43-13.6,32.83-13.6m0-2.61C22.92,1.57.96,23.52.96,50.61s21.96,49.04,49.04,49.04,49.04-21.96,49.04-49.04S77.09,1.57,50,1.57h0Z"/><path class="cls-5" d="m50,2.66c12.65,0,24.53,4.92,33.48,13.87,8.94,8.94,13.87,20.83,13.87,33.48s-4.92,24.54-13.87,33.48c-8.94,8.94-20.83,13.87-33.48,13.87s-24.53-4.92-33.48-13.87C7.58,74.54,2.66,62.65,2.66,50s4.92-24.53,13.87-33.48C25.47,7.58,37.35,2.66,50,2.66m0-2.66C22.39,0,0,22.39,0,50s22.39,50,50,50,50-22.39,50-50S77.61,0,50,0h0Z"/></g></g><path class="cls-2" d="m67.45,53.3v18.17c-1.67,1.86-3.86,3.27-6.61,4.2-2.79.97-5.8,1.45-9.06,1.45-5.91,0-10.85-1.89-14.82-5.68-3.05-2.9-4.9-6.32-5.61-10.25h-2.38v-3.08h2.08c-.04-.22-.04-.48-.04-.74,0-.33,0-.67.04-1h-2.08v-3.08h2.45c.71-3.79,2.45-7.1,5.28-9.92,1.52-1.56,3.23-2.79,5.09-3.68-.48-.78-.82-1.63-1.08-2.56-.11-.48-.19-.97-.26-1.49-.04-.37-.04-.78-.04-1.19,0-.37.04-.74.07-1.08.04-.26.19-.41.41-.48s.45-.04.59.15c.33.3.67.59,1,.85.15.15.3.26.45.37.22.11.52.07.63-.15.07-.07.07-.19.07-.26,0-.33-.04-.63-.04-.97v-.19c.04-.48.04-.97.07-1.45.11-1.26.33-2.53.71-3.75.33-1.11.82-2.19,1.45-3.19.52-.78,1.15-1.52,1.93-2.12.78-.63,1.67-1.11,2.64-1.49.19-.04.41-.11.59-.19.15-.04.3,0,.41.11.07.07.15.22.11.33-.07.26-.11.48-.15.74-.07.33-.15.71-.19,1.08-.04.33-.07.67-.07,1-.04.33-.04.67-.04.97.04.78.15,1.52.37,2.23.15.48.37.93.67,1.34.26.3.52.56.89.78.33.19.74.3,1.11.26.41,0,.74-.15,1.08-.33.37-.22.71-.52.97-.89.11-.15.19-.3.3-.45.04-.04.04-.07.07-.07.15-.22.48-.22.63,0,.15.26.3.52.45.78.33.63.59,1.34.74,2.04.04.26.11.56.11.82s.04.48.04.71c-.04.82-.15,1.63-.45,2.38-.04.15-.07.26-.04.41.07.37.45.56.78.45.07-.04.15-.07.22-.11.26-.15.48-.33.71-.56.04-.04.11-.07.19-.07.11,0,.19.07.19.19v.52c0,.19-.04.37-.04.52-.04.37-.07.71-.15,1.04-.19.74-.45,1.52-.78,2.23,2.97,1.04,5.5,2.79,7.65,5.2l-6.02,5.87c-2.53-2.75-5.76-4.12-9.62-4.12-3.38,0-6.13,1.15-8.28,3.38-1.15,1.19-2.01,2.53-2.53,4.01h3.19v3.08h-3.86c-.04.33-.04.67-.04,1,0,.26,0,.48.04.74h3.86v3.08h-3.34c.52,1.67,1.41,3.12,2.71,4.38,2.19,2.15,5.13,3.27,8.77,3.27,3.38,0,5.87-.63,7.43-1.86v-5.65h-7.47v-8.02h15.83Z"/><path class="cls-8" d="m66.6,51.56v18.17c-1.67,1.86-3.86,3.27-6.61,4.2-2.79.97-5.8,1.45-9.06,1.45-5.91,0-10.85-1.89-14.82-5.68-3.05-2.9-4.9-6.32-5.61-10.25h-2.38v-3.08h2.08c-.04-.22-.04-.48-.04-.74,0-.33,0-.67.04-1h-2.08v-3.08h2.45c.71-3.79,2.45-7.1,5.28-9.92,1.52-1.56,3.23-2.79,5.09-3.68-.48-.78-.82-1.63-1.08-2.56-.11-.48-.19-.97-.26-1.49-.04-.37-.04-.78-.04-1.19,0-.37.04-.74.07-1.08.04-.26.19-.41.41-.48s.45-.04.59.15c.33.3.67.59,1,.85.15.15.3.26.45.37.22.11.52.07.63-.15.07-.07.07-.19.07-.26,0-.33-.04-.63-.04-.97v-.19c.04-.48.04-.97.07-1.45.11-1.26.33-2.53.71-3.75.33-1.11.82-2.19,1.45-3.19.52-.78,1.15-1.52,1.93-2.12.78-.63,1.67-1.11,2.64-1.49.19-.04.41-.11.59-.19.15-.04.3,0,.41.11.07.07.15.22.11.33-.07.26-.11.48-.15.74-.07.33-.15.71-.19,1.08-.04.33-.07.67-.07,1-.04.33-.04.67-.04.97.04.78.15,1.52.37,2.23.15.48.37.93.67,1.34.26.3.52.56.89.78.33.19.74.3,1.11.26.41,0,.74-.15,1.08-.33.37-.22.71-.52.97-.89.11-.15.19-.3.3-.45.04-.04.04-.07.07-.07.15-.22.48-.22.63,0,.15.26.3.52.45.78.33.63.59,1.34.74,2.04.04.26.11.56.11.82s.04.48.04.71c-.04.82-.15,1.63-.45,2.38-.04.15-.07.26-.04.41.07.37.45.56.78.45.07-.04.15-.07.22-.11.26-.15.48-.33.71-.56.04-.04.11-.07.19-.07.11,0,.19.07.19.19v.52c0,.19-.04.37-.04.52-.04.37-.07.71-.15,1.04-.19.74-.45,1.52-.78,2.23,2.97,1.04,5.5,2.79,7.65,5.2l-6.02,5.87c-2.53-2.75-5.76-4.12-9.62-4.12-3.38,0-6.13,1.15-8.28,3.38-1.15,1.19-2.01,2.53-2.53,4.01h3.19v3.08h-3.86c-.04.33-.04.67-.04,1,0,.26,0,.48.04.74h3.86v3.08h-3.34c.52,1.67,1.41,3.12,2.71,4.38,2.19,2.15,5.13,3.27,8.77,3.27,3.38,0,5.87-.63,7.43-1.86v-5.65h-7.47v-8.02h15.83Z"/><path class="cls-7" d="m50.92,75.84c-6,0-11.09-1.96-15.14-5.81-2.99-2.85-4.9-6.25-5.68-10.13h-2.46v-4.01h2.05c0-.09,0-.19,0-.28,0-.18,0-.36,0-.54h-2.05v-4.01h2.54c.77-3.72,2.56-7.01,5.33-9.78,1.42-1.45,3.03-2.65,4.77-3.54-.35-.66-.64-1.4-.87-2.25-.12-.51-.2-1.01-.28-1.54-.04-.41-.04-.83-.04-1.26,0-.39.04-.78.08-1.13.07-.44.32-.74.72-.87.42-.14.85-.03,1.11.3.3.26.61.53.93.78.16.15.28.25.4.34,0-.18-.01-.32-.02-.46,0-.17-.02-.33-.02-.51v-.19c.02-.27.03-.51.04-.74.01-.25.02-.49.04-.74.12-1.38.37-2.67.73-3.85.35-1.17.85-2.28,1.5-3.31.61-.92,1.3-1.67,2.04-2.24.76-.62,1.69-1.14,2.75-1.55.24-.05.43-.12.59-.18.37-.09.69,0,.91.21.19.19.32.51.23.81-.07.22-.1.43-.13.66-.08.36-.15.71-.19,1.06-.03.32-.07.64-.07.95-.04.37-.04.69-.04.97.04.77.15,1.46.35,2.09.13.43.33.83.6,1.21.22.24.45.47.75.65.26.15.59.23.83.19.34,0,.59-.11.9-.28.32-.19.6-.45.81-.75.05-.07.09-.13.13-.19.06-.09.11-.18.18-.27l.18-.19c.34-.33,1-.28,1.28.14l.46.81c.37.69.64,1.44.79,2.18l.05.27c.04.21.08.44.08.64,0,.12.01.23.02.34.01.12.02.24.02.36-.05,1.04-.2,1.85-.48,2.55,0,.05-.02.11-.02.12l.06.11s.09.02.12,0l.16-.09c.18-.1.37-.25.59-.47.12-.13.32-.21.51-.21.37,0,.65.28.65.65v.52c0,.11-.01.23-.02.34,0,.07-.01.13-.01.19-.04.43-.08.79-.16,1.14-.16.66-.37,1.29-.61,1.86,2.79,1.06,5.26,2.8,7.37,5.16l.3.33-6.68,6.51-.32-.35c-2.42-2.64-5.55-3.97-9.28-3.97-3.2,0-5.87,1.09-7.95,3.24-.95.98-1.68,2.06-2.18,3.23h2.98v4.01h-3.89c0,.18,0,.36,0,.54v.28h3.9v4.01h-3.16c.52,1.35,1.3,2.53,2.38,3.58,2.12,2.08,4.96,3.14,8.45,3.14,3.13,0,5.47-.55,6.97-1.63v-4.95h-7.47v-8.95h16.76v18.81l-.12.13c-1.74,1.93-4.03,3.39-6.81,4.32-2.82.98-5.92,1.48-9.22,1.48Zm-22.35-16.87h2.3l.07.38c.69,3.83,2.53,7.2,5.47,10,3.87,3.69,8.75,5.56,14.5,5.56,3.19,0,6.19-.48,8.91-1.43,2.57-.87,4.68-2.19,6.3-3.94v-17.52h-14.9v7.1h7.47v6.33l-.18.14c-1.65,1.3-4.25,1.96-7.72,1.96-3.74,0-6.8-1.14-9.1-3.4-1.35-1.32-2.28-2.81-2.83-4.57l-.19-.6h3.51v-2.16h-3.8l-.06-.4c-.04-.29-.04-.53-.04-.81,0-.35,0-.7.04-1.05l.04-.41h3.82v-2.16h-3.39l.22-.62c.54-1.53,1.43-2.94,2.63-4.18,2.26-2.34,5.16-3.52,8.62-3.52,3.84,0,7.08,1.32,9.63,3.93l5.36-5.23c-2.08-2.23-4.42-3.79-7.16-4.74l-.49-.17.22-.47c.3-.63.56-1.37.75-2.14.07-.3.1-.62.14-.97,0-.04,0-.13.01-.23,0-.05.01-.11.01-.17-.12.1-.25.18-.38.25l-.24.12c-.34.12-.68.09-.94-.06-.26-.15-.44-.41-.5-.71-.06-.22,0-.41.03-.56l.03-.11c.24-.6.37-1.31.41-2.22,0-.08,0-.17-.01-.27-.01-.13-.02-.27-.02-.42s-.03-.32-.06-.48l-.05-.28c-.13-.62-.37-1.28-.69-1.89l-.37-.65-.04.05s-.05.09-.09.15c-.05.08-.1.16-.16.24-.28.41-.66.75-1.1,1.02-.38.21-.79.4-1.32.4-.4.04-.9-.07-1.34-.32-.45-.27-.75-.58-1.02-.88-.36-.49-.6-.99-.76-1.51-.22-.71-.35-1.47-.39-2.34,0-.34,0-.69.04-1.04,0-.3.03-.65.07-1,.04-.39.12-.78.2-1.13.03-.2.06-.4.12-.63-.12.07-.35.15-.54.18-.89.35-1.73.83-2.43,1.39-.67.51-1.29,1.19-1.84,2.02-.6.94-1.06,1.98-1.39,3.07-.34,1.12-.57,2.35-.69,3.66-.01.23-.03.46-.03.7-.01.25-.02.49-.04.74v.15c0,.16,0,.31.02.46,0,.17.02.33.02.51,0,.09,0,.33-.16.53-.1.17-.26.29-.45.36-.26.08-.53.06-.77-.06-.24-.17-.4-.29-.57-.46-.28-.22-.61-.5-.93-.79l-.1-.1c-.16.03-.17.05-.18.12-.03.3-.07.65-.07,1.01,0,.39,0,.79.03,1.14.07.49.14.96.25,1.43.26.94.6,1.74,1.02,2.43l.27.44-.47.22c-1.82.87-3.49,2.08-4.96,3.58-2.74,2.74-4.47,5.99-5.15,9.68l-.07.38h-2.37v2.16h2.13l-.06.52c-.03.32-.03.63-.03.95,0,.24,0,.47.03.67l.09.54h-2.16v2.16Zm30.64-25.89s-.01,0-.01.01c0,0,0,0,.01-.01Zm-16.88-.97s.02.01.03.02c0-.04-.02-.03-.03-.02Zm7.89-13.04s0,0,0,.01c0,0,0,0,0-.01Z"/></svg>