<?xml version="1.0" standalone="no"?>
<!DOCTYPE svg PUBLIC "-//W3C//DTD SVG 20010904//EN"
 "http://www.w3.org/TR/2001/REC-SVG-20010904/DTD/svg10.dtd">
<svg version="1.0" xmlns="http://www.w3.org/2000/svg"
 width="180.000000pt" height="180.000000pt" viewBox="0 0 180.000000 180.000000"
 preserveAspectRatio="xMidYMid meet">

<g transform="translate(0.000000,180.000000) scale(0.100000,-0.100000)"
fill="#000000" stroke="none">
<path d="M800 1649 c-123 -24 -252 -124 -290 -226 -43 -116 -20 -229 66 -323
l54 -58 0 -69 c0 -57 4 -73 20 -88 16 -15 20 -31 20 -87 0 -63 3 -72 29 -99
l29 -29 172 0 172 0 29 29 c27 27 29 35 29 104 0 57 4 76 15 81 11 4 15 23 15
77 l0 72 49 52 c78 82 96 125 96 225 0 72 -4 92 -27 135 -82 157 -282 242
-478 204z m233 -60 c81 -26 153 -80 191 -143 24 -39 31 -63 34 -118 6 -93 -15
-145 -84 -213 l-54 -53 0 -71 0 -71 -30 0 c-28 0 -30 3 -30 35 0 23 -6 38 -16
42 -20 7 -34 -13 -34 -49 0 -26 -3 -28 -44 -28 -44 0 -45 0 -48 38 -2 25 -8
37 -18 37 -10 0 -16 -12 -18 -37 l-3 -38 -49 0 -49 0 -3 38 c-2 29 -7 37 -23
37 -16 0 -21 -8 -23 -37 -3 -33 -7 -38 -28 -38 -23 0 -24 2 -24 73 l0 73 -43
35 c-152 128 -130 344 48 454 90 56 238 70 348 34z m-221 -756 c2 -26 8 -38
18 -38 10 0 16 12 18 38 3 37 4 37 48 37 43 0 44 0 44 -34 0 -36 19 -53 39
-33 6 6 11 24 11 39 0 27 2 28 50 28 l50 0 0 -55 c0 -46 -4 -60 -25 -81 -25
-25 -26 -25 -176 -22 -176 4 -179 5 -179 100 l0 58 49 0 50 0 3 -37z"/>
<path d="M783 1544 c-18 -18 -33 -35 -33 -39 0 -4 18 -25 40 -47 l40 -40 40
40 c22 22 40 43 40 46 0 12 -72 76 -84 75 -6 -1 -26 -17 -43 -35z"/>
<path d="M682 1395 c-99 -83 21 -233 122 -154 38 30 49 64 36 105 -24 72 -102
96 -158 49z m102 -41 c40 -39 6 -89 -57 -85 -26 2 -43 45 -29 76 14 29 61 35
86 9z"/>
<path d="M992 1395 c-39 -33 -48 -74 -27 -118 29 -61 102 -75 154 -31 26 22
31 33 31 71 0 90 -91 135 -158 78z m102 -41 c40 -39 6 -89 -57 -85 -26 2 -43
45 -29 76 14 29 61 35 86 9z"/>
<path d="M838 1115 c-27 -20 -48 -40 -48 -45 0 -23 33 -21 70 4 l40 26 37 -25
c43 -29 59 -31 67 -10 6 17 -77 85 -104 85 -8 0 -36 -16 -62 -35z"/>
<path d="M580 694 c-65 -75 -76 -137 -24 -140 21 -1 204 -123 204 -135 0 -4
-9 -10 -19 -14 -11 -3 -34 -22 -50 -41 -36 -41 -40 -85 -11 -114 32 -32 76
-25 162 25 l78 45 65 -45 c81 -55 131 -61 164 -19 12 15 21 34 21 43 0 27 -36
78 -69 97 -22 13 -28 21 -20 30 7 9 5 16 -10 24 -12 6 -21 19 -21 30 0 11 -8
24 -19 29 -10 6 -21 19 -24 30 -4 17 10 30 76 72 45 29 87 52 94 52 8 0 12 6
9 13 -3 8 -1 16 4 19 4 3 11 -1 13 -7 3 -7 6 -4 6 6 1 18 4 17 30 -8 16 -15
37 -45 46 -67 10 -21 20 -37 22 -35 14 13 -73 136 -96 136 -10 0 -37 -24 -43
-38 -1 -5 -58 -44 -126 -86 l-122 -76 -130 86 c-72 48 -130 92 -130 99 0 12
-21 25 -40 25 -4 0 -22 -16 -40 -36z m59 17 c12 -8 13 -15 3 -38 -11 -26 -11
-27 3 -9 15 19 17 19 77 -24 35 -24 138 -95 231 -157 92 -63 175 -125 183
-139 22 -33 21 -74 -2 -91 -35 -26 -83 -7 -232 92 -135 90 -143 97 -128 114 9
10 16 22 16 28 0 5 9 18 20 28 11 10 20 25 19 34 0 12 -3 10 -9 -4 -4 -12 -15
-27 -24 -34 -9 -7 -16 -19 -16 -26 0 -7 -6 -18 -14 -24 -18 -15 -35 -7 -128
60 -38 27 -74 46 -82 43 -22 -8 -29 31 -12 64 18 34 65 92 74 92 4 0 13 -4 21
-9z"/>
<path d="M599 603 c-13 -16 -12 -17 4 -4 9 7 17 15 17 17 0 8 -8 3 -21 -13z"/>
<path d="M559 593 c-13 -16 -12 -17 4 -4 9 7 17 15 17 17 0 8 -8 3 -21 -13z"/>
<path d="M910 432 c0 -12 19 -26 26 -19 2 2 -2 10 -11 17 -9 8 -15 8 -15 2z"/>
<path d="M1000 396 c0 -2 7 -7 16 -10 8 -3 12 -2 9 4 -6 10 -25 14 -25 6z"/>
<path d="M1090 346 c0 -2 7 -7 16 -10 8 -3 12 -2 9 4 -6 10 -25 14 -25 6z"/>
<path d="M1015 330 c3 -5 11 -10 16 -10 6 0 7 5 4 10 -3 6 -11 10 -16 10 -6 0
-7 -4 -4 -10z"/>
<path d="M1269 578 c18 -20 20 -28 10 -28 -8 0 -21 6 -28 13 -10 10 -11 9 -6
-4 5 -13 -12 -28 -69 -64 -42 -26 -76 -49 -76 -52 0 -5 54 27 117 69 23 15 48
26 55 23 8 -3 23 4 34 16 10 13 13 19 6 15 -8 -5 -24 1 -40 15 l-27 24 24 -27z"/>
</g>
</svg>
