<?xml version="1.0" standalone="no"?>
<!DOCTYPE svg PUBLIC "-//W3C//DTD SVG 20010904//EN"
 "http://www.w3.org/TR/2001/REC-SVG-20010904/DTD/svg10.dtd">
<svg version="1.0" xmlns="http://www.w3.org/2000/svg"
 width="400.000000pt" height="400.000000pt" viewBox="0 0 400.000000 400.000000"
 preserveAspectRatio="xMidYMid meet">

<g transform="translate(0.000000,400.000000) scale(0.100000,-0.100000)"
fill="#000000" stroke="none">
<path d="M1820 3669 c-334 -59 -613 -278 -702 -549 -29 -89 -36 -272 -14 -361
36 -143 136 -300 249 -389 l57 -45 0 -161 c0 -148 2 -163 21 -188 11 -14 27
-26 35 -26 11 0 14 -22 14 -114 0 -199 26 -269 119 -320 l49 -26 346 0 c377 0
390 2 450 58 55 52 66 91 66 255 0 124 2 147 15 147 8 0 24 9 35 20 18 18 20
33 20 180 l0 160 98 98 c108 106 158 182 200 301 24 68 27 90 26 206 0 119 -3
137 -30 212 -45 120 -89 188 -185 283 -119 119 -250 192 -434 242 -82 22 -347
33 -435 17z m390 -106 c166 -38 316 -120 427 -234 74 -77 115 -145 149 -248
23 -67 26 -88 22 -191 -3 -101 -8 -124 -35 -187 -17 -40 -52 -102 -77 -138
-42 -58 -135 -147 -183 -174 -16 -8 -19 -30 -23 -178 l-5 -168 -67 -3 -68 -3
0 80 c0 72 -2 82 -21 92 -16 8 -28 8 -45 0 -22 -10 -24 -16 -24 -91 l0 -80
-104 0 -104 0 -6 38 c-4 20 -5 54 -5 74 3 61 -34 87 -73 51 -14 -13 -18 -31
-18 -90 l0 -73 -115 0 -115 0 0 80 c0 75 -2 81 -24 91 -17 8 -29 8 -45 0 -19
-10 -21 -20 -21 -91 l0 -80 -60 0 -60 0 0 164 0 165 -58 45 c-246 189 -331
458 -226 716 98 241 378 427 684 454 73 6 230 -5 300 -21z m-410 -1697 c0 -76
9 -96 45 -96 36 0 45 20 45 97 l0 73 100 0 100 0 0 -69 c0 -77 13 -101 55
-101 33 0 45 27 45 104 l0 66 116 0 116 0 -4 -132 c-6 -233 3 -228 -417 -228
-346 0 -365 3 -401 62 -17 29 -20 50 -20 165 l0 132 98 3 c53 2 103 1 110 -1
8 -2 12 -26 12 -75z"/>
<path d="M1802 3489 c-22 -42 -59 -79 -101 -101 -27 -15 -32 -23 -29 -49 2
-25 11 -36 48 -55 32 -17 51 -37 67 -68 37 -72 84 -71 117 2 13 29 32 47 68
67 45 24 49 30 46 58 -2 26 -11 36 -49 56 -33 18 -52 37 -70 70 -18 35 -30 47
-52 49 -22 3 -30 -3 -45 -29z m57 -162 c-11 -12 -16 -12 -27 0 -11 11 -12 16
-1 29 11 13 14 13 27 0 12 -12 12 -17 1 -29z"/>
<path d="M1561 3133 c-92 -46 -144 -151 -122 -249 16 -68 54 -117 115 -149
111 -56 239 -15 297 96 21 42 27 139 11 180 -17 42 -73 101 -117 120 -51 23
-139 24 -184 2z m162 -95 c26 -14 57 -68 57 -101 0 -73 -55 -127 -129 -127
-99 0 -153 102 -101 188 34 56 110 74 173 40z"/>
<path d="M2245 3128 c-58 -30 -75 -47 -101 -103 -44 -93 -24 -186 53 -256 138
-125 349 -40 361 145 6 95 -38 175 -119 216 -52 27 -141 26 -194 -2z m166 -89
c10 -5 27 -29 39 -55 20 -40 21 -51 11 -83 -29 -97 -136 -125 -207 -54 -34 34
-36 39 -32 89 5 59 24 88 73 110 30 14 84 11 116 -7z"/>
<path d="M1881 2489 c-103 -71 -126 -99 -110 -131 20 -37 46 -31 138 32 l89
62 91 -61 c49 -34 95 -61 100 -61 17 0 41 31 41 53 0 15 -19 36 -63 68 -104
76 -155 109 -169 109 -8 0 -60 -32 -117 -71z"/>
<path d="M1357 1612 c-62 -37 -187 -227 -203 -309 -5 -27 -2 -33 30 -53 24
-14 45 -20 60 -16 19 5 58 -18 187 -107 91 -61 188 -127 217 -146 29 -18 51
-39 49 -45 -2 -6 -28 -25 -58 -43 -137 -82 -208 -207 -165 -290 39 -76 123
-106 221 -80 28 7 112 52 190 100 77 48 145 87 150 87 6 0 71 -40 145 -89 108
-72 147 -92 196 -102 87 -18 145 -1 185 54 67 93 17 214 -129 312 l-64 43 38
25 c36 22 119 74 322 203 69 44 87 51 102 42 14 -9 25 -6 55 12 35 22 37 25
31 64 -16 98 -167 316 -220 316 -11 0 -36 -9 -54 -20 -24 -15 -32 -25 -27 -39
6 -20 -20 -40 -178 -135 -44 -26 -129 -80 -190 -120 -62 -39 -133 -84 -159
-99 l-48 -28 -166 113 c-91 62 -196 133 -234 158 -146 96 -179 121 -175 133 6
15 -2 27 -39 55 -34 26 -33 26 -69 4z m43 -16 c0 -74 -167 -316 -218 -316 -48
0 76 226 165 299 41 34 53 38 53 17z m43 -28 c30 -47 -158 -318 -220 -318 -31
0 -29 7 11 46 82 80 176 227 176 276 0 22 18 20 33 -4z m1274 -3 c81 -57 224
-325 173 -325 -34 0 -171 191 -195 273 -22 74 -19 81 22 52z m-47 -23 c0 -53
129 -260 187 -297 23 -15 24 -19 9 -27 -25 -14 -51 -1 -89 45 -91 112 -160
254 -137 282 17 20 30 19 30 -3z m-1017 -152 l184 -124 -13 -43 c-8 -25 -27
-55 -46 -72 -21 -18 -38 -45 -45 -73 -8 -28 -22 -51 -41 -65 l-30 -22 -191
130 c-105 72 -191 132 -191 134 0 2 17 22 38 45 43 48 132 188 132 208 0 8 4
12 9 10 6 -1 93 -59 194 -128z m995 47 c12 -28 50 -90 83 -136 33 -46 59 -84
57 -86 -2 -1 -55 -35 -118 -75 -63 -40 -148 -94 -189 -120 -72 -47 -74 -47
-92 -29 -10 10 -24 19 -29 19 -6 0 -15 20 -22 45 -8 30 -26 58 -54 85 -38 36
-65 93 -50 107 8 9 380 242 386 242 3 1 15 -23 28 -52z m-676 -265 c62 -43
193 -132 292 -197 98 -66 198 -137 222 -158 52 -46 84 -109 84 -166 0 -35 -6
-49 -33 -76 -68 -68 -178 -55 -307 37 -41 29 -96 67 -122 83 -154 98 -418 280
-418 288 0 5 11 18 24 28 13 10 28 38 35 62 7 31 21 52 45 71 23 17 39 40 46
66 6 22 13 40 15 40 2 0 55 -35 117 -78z m-285 -628 c-3 -3 -12 -4 -19 -1 -8
3 -5 6 6 6 11 1 17 -2 13 -5z"/>
<path d="M1370 1254 c1 -11 171 -126 177 -120 2 2 -24 24 -59 49 -92 65 -118
80 -118 71z"/>
<path d="M2488 1353 c-49 -31 -86 -58 -84 -61 6 -5 174 97 182 110 11 17 -14
5 -98 -49z"/>
<path d="M2010 961 c0 -9 61 -51 74 -51 16 0 3 17 -29 38 -38 24 -45 26 -45
13z"/>
<path d="M2230 891 c0 -14 60 -55 68 -47 3 4 -7 18 -23 31 -32 26 -45 31 -45
16z"/>
<path d="M2420 782 c0 -13 61 -55 68 -47 4 4 -6 18 -23 31 -31 25 -45 30 -45
16z"/>
<path d="M2275 725 c32 -26 45 -31 45 -16 0 11 -45 41 -62 41 -7 -1 1 -12 17
-25z"/>
</g>
</svg>
