<?xml version="1.0" standalone="no"?>
<!DOCTYPE svg PUBLIC "-//W3C//DTD SVG 20010904//EN"
 "http://www.w3.org/TR/2001/REC-SVG-20010904/DTD/svg10.dtd">
<svg version="1.0" xmlns="http://www.w3.org/2000/svg"
 width="200.000000pt" height="200.000000pt" viewBox="0 0 200.000000 200.000000"
 preserveAspectRatio="xMidYMid meet">

<g transform="translate(0.000000,200.000000) scale(0.100000,-0.100000)"
fill="#000000" stroke="none">
<path d="M1165 1811 c-3 -2 -5 -12 -5 -21 0 -19 -32 -49 -72 -69 -25 -13 -30
-12 -64 18 -20 19 -43 30 -51 27 -8 -3 -24 -6 -35 -6 -14 0 -18 -5 -14 -15 3
-8 1 -15 -4 -15 -18 0 -25 5 -22 16 1 7 -6 11 -15 10 -10 0 -22 9 -28 22 -12
27 -26 24 -43 -11 -15 -30 -27 -34 -36 -12 -7 19 -62 20 -69 1 -3 -7 0 -13 6
-12 7 0 13 -3 14 -9 1 -5 -9 -9 -23 -8 -22 2 -24 -2 -24 -38 0 -34 -3 -39 -23
-39 -13 0 -27 3 -31 7 -15 15 -36 11 -36 -8 0 -12 -9 -21 -25 -25 -14 -3 -25
-10 -25 -16 0 -5 -9 -6 -20 -3 -14 5 -20 2 -20 -9 0 -9 -4 -16 -10 -16 -5 0
-10 -9 -10 -19 0 -25 -20 -38 -30 -21 -6 9 -11 7 -19 -9 -18 -32 -31 -25 -31
17 0 27 -3 33 -10 22 -5 -8 -10 -24 -10 -35 -1 -22 -57 -72 -68 -61 -3 4 0 11
8 16 9 6 10 10 3 10 -16 0 -53 -49 -52 -69 0 -12 2 -11 9 4 6 14 9 15 9 5 1
-9 -17 -33 -40 -54 -28 -27 -37 -42 -30 -49 6 -6 11 -21 11 -33 0 -12 7 -24
15 -28 8 -3 15 -12 15 -20 0 -8 4 -16 8 -18 5 -1 12 -42 15 -89 7 -83 6 -87
-17 -102 -15 -10 -25 -29 -30 -56 -3 -21 -17 -53 -31 -69 -30 -36 -30 -38 -5
-45 23 -6 29 -54 7 -62 -6 -3 -12 -19 -13 -36 -1 -37 67 -117 106 -124 14 -3
30 -12 36 -20 6 -8 16 -15 23 -15 7 0 11 -20 11 -55 0 -49 4 -58 37 -95 20
-22 41 -40 46 -40 4 0 24 -12 42 -26 27 -20 43 -25 76 -22 l42 3 16 -57 c9
-31 20 -60 25 -65 5 -4 6 1 3 12 -3 11 -9 34 -12 50 l-7 30 34 -37 c33 -37 66
-58 90 -58 7 0 -4 11 -24 25 -37 25 -79 99 -93 162 -3 18 -13 33 -21 33 -7 0
-16 10 -18 23 -3 12 -8 36 -11 52 -3 17 -9 43 -12 58 -4 19 0 32 10 40 11 8
17 37 21 97 11 167 15 181 81 259 33 39 68 71 78 71 10 0 20 7 23 15 4 8 14
15 23 15 10 0 21 3 25 7 4 5 11 8 14 9 4 0 16 5 27 9 35 16 170 12 187 -5 8
-8 31 -24 51 -35 20 -11 37 -23 37 -27 0 -5 -17 -27 -39 -51 -41 -45 -61 -78
-61 -100 0 -7 13 -34 30 -59 34 -52 78 -74 161 -84 50 -5 58 -3 87 21 26 22
32 34 32 66 0 52 -30 108 -89 170 -37 39 -54 49 -82 50 -27 1 -29 3 -9 6 14 3
31 10 38 15 7 6 15 8 19 5 3 -4 12 -2 18 3 9 7 17 3 29 -14 9 -14 16 -30 16
-35 0 -5 8 -12 18 -16 11 -3 24 -18 31 -33 l12 -27 -21 25 c-11 14 -20 19 -20
11 0 -7 13 -30 28 -50 50 -64 95 -220 95 -331 0 -41 2 -63 4 -48 6 39 23 35
24 -4 l2 -33 6 35 c4 23 9 31 14 22 5 -6 17 -12 28 -12 29 0 25 -44 -8 -70
-14 -11 -29 -17 -32 -13 -3 4 -13 8 -21 8 -11 0 -18 -20 -27 -70 -7 -38 -21
-88 -32 -110 -17 -36 -18 -43 -5 -67 11 -21 22 -28 43 -28 47 0 60 9 55 36 -4
22 -3 23 16 12 15 -10 25 -10 38 -2 23 15 28 44 8 44 -20 0 -21 29 -1 36 8 4
15 12 15 19 0 7 10 15 23 19 12 3 35 16 50 29 24 19 29 30 29 70 1 26 5 47 10
47 5 0 7 4 4 9 -9 14 4 41 19 41 7 0 25 14 39 31 25 29 26 35 20 105 -5 54 -3
74 5 74 7 0 9 -4 6 -10 -3 -5 1 -20 10 -32 l16 -23 -2 25 c-2 14 0 30 3 36 4
6 -2 29 -13 52 -16 32 -18 45 -9 61 6 12 17 21 25 21 32 0 10 82 -31 115 -8 8
-10 23 -4 54 6 36 5 45 -13 62 -11 10 -24 19 -29 19 -4 0 -8 7 -8 15 0 20 -22
65 -29 60 -4 -2 -13 0 -19 4 -18 11 -1 50 28 64 36 18 50 79 25 107 -21 24
-35 26 -35 5 0 -8 5 -15 10 -15 6 0 10 -9 10 -20 0 -23 0 -23 -34 -11 -17 7
-26 7 -28 -1 -3 -7 -12 -9 -21 -5 -18 7 -23 52 -7 62 15 9 12 25 -4 25 -12 0
-28 33 -31 65 0 6 -6 20 -13 32 -7 12 -12 28 -12 36 0 7 -12 20 -27 28 -16 7
-38 23 -49 33 -18 16 -19 22 -8 33 17 17 -1 73 -24 73 -8 0 -23 7 -33 16 -32
29 -49 11 -42 -46 4 -35 2 -50 -6 -50 -6 0 -14 7 -17 15 -4 8 -17 15 -30 15
-12 0 -49 7 -80 15 -53 14 -59 14 -77 -3 -19 -16 -20 -16 -8 5 7 13 25 25 45
29 45 8 37 32 -10 31 -19 -1 -37 -3 -39 -6z m-15 -107 c0 -4 -11 -17 -25 -30
-22 -20 -29 -22 -45 -11 -24 14 -26 27 -5 27 8 0 15 5 15 10 0 6 14 10 30 10
17 0 30 -3 30 -6z m-124 -14 c8 0 14 -7 14 -15 0 -9 -9 -15 -25 -15 -14 0 -25
5 -25 11 0 5 -4 7 -10 4 -5 -3 -10 -2 -10 3 0 15 13 23 28 17 7 -3 20 -5 28
-5z m14 -59 c0 -27 -15 -34 -31 -15 -10 13 -10 17 2 25 22 13 29 11 29 -10z
m50 -7 c0 -16 -16 -19 -25 -4 -8 13 4 32 16 25 5 -4 9 -13 9 -21z m-583 -61
c-4 -3 -2 -12 3 -18 7 -9 6 -16 -5 -25 -13 -11 -15 -8 -15 19 0 17 5 31 12 31
6 0 8 -3 5 -7z m-32 -54 c10 -14 1 -21 -19 -13 -9 3 -13 10 -10 15 7 12 21 11
29 -2z m-70 -19 c3 -5 2 -10 -4 -10 -5 0 -16 -12 -23 -27 -9 -18 -24 -29 -45
-34 -40 -8 -42 5 -8 37 44 41 69 51 80 34z m1305 -115 c0 -8 -4 -15 -10 -15
-5 0 -10 7 -10 15 0 8 5 15 10 15 6 0 10 -7 10 -15z m-1446 -61 c20 -8 21 -24
2 -24 -8 0 -16 7 -20 15 -6 17 -4 18 18 9z m1371 -54 c3 -5 1 -10 -4 -10 -6 0
-11 5 -11 10 0 6 2 10 4 10 3 0 8 -4 11 -10z m55 -50 c0 -5 -7 -7 -15 -4 -8 4
-15 8 -15 10 0 2 7 4 15 4 8 0 15 -4 15 -10z m-322 -124 c5 -6 12 -24 14 -39
3 -16 3 -25 -1 -20 -3 4 -21 24 -39 44 -33 36 -33 36 -8 32 14 -3 29 -10 34
-17z m-684 -60 c-42 -51 -55 -57 -47 -23 7 28 32 57 58 67 32 12 30 4 -11 -44z
m555 30 c16 -10 14 -33 -4 -40 -9 -3 -15 -18 -15 -35 0 -21 6 -30 23 -35 37
-10 57 -7 57 9 0 28 18 15 39 -28 24 -49 26 -69 10 -100 -17 -32 -28 -37 -89
-37 -71 0 -131 28 -158 72 -36 58 -30 85 33 144 34 33 50 54 43 57 -7 3 1 4
18 3 17 -2 36 -6 43 -10z m-1013 -173 c-10 -10 -19 5 -10 18 6 11 8 11 12 0 2
-7 1 -15 -2 -18z m1569 -32 c3 -6 -3 -15 -14 -20 -14 -8 -22 -7 -31 4 -11 13
-10 14 3 10 8 -4 18 -2 22 4 8 13 12 14 20 2z m-35 -62 c0 -11 -4 -17 -10 -14
-5 3 -10 13 -10 21 0 8 5 14 10 14 6 0 10 -9 10 -21z m-1210 -187 c0 -20 5
-55 10 -77 5 -22 7 -41 5 -43 -6 -6 -33 41 -54 96 l-21 53 23 8 c31 12 37 6
37 -37z m50 -126 c0 -7 -3 -7 -9 0 -6 5 -13 29 -16 54 l-5 45 15 -45 c8 -25
15 -49 15 -54z"/>
<path d="M597 1753 c-4 -3 -7 -16 -6 -27 0 -19 1 -19 10 3 10 24 8 36 -4 24z"/>
<path d="M741 922 c-19 -10 -44 -36 -54 -56 -19 -37 -19 -39 -2 -94 23 -72 54
-102 103 -102 43 0 73 23 126 93 35 47 51 117 26 117 -5 0 -10 -5 -10 -11 0
-5 -5 -7 -10 -4 -8 5 -8 11 -1 19 19 23 -24 49 -87 53 -43 3 -66 -1 -91 -15z
m138 -32 c20 -22 42 -40 49 -40 16 0 7 -34 -19 -71 -33 -46 -98 -99 -123 -99
-34 0 -75 38 -82 78 -6 27 -4 32 14 32 45 0 55 55 14 76 l-23 11 31 27 c49 40
93 36 139 -14z"/>
<path d="M1188 528 l-3 -63 -40 -14 c-62 -21 -120 -2 -141 47 -13 31 -17 34
-25 20 -12 -21 6 -63 37 -83 57 -37 160 -26 190 20 18 27 16 126 -3 132 -8 3
-13 -15 -15 -59z"/>
</g>
</svg>
