<?xml version="1.0" encoding="utf-8"?>
<!-- Generator: Adobe Illustrator 25.0.1, SVG Export Plug-In . SVG Version: 6.00 Build 0)  -->
<svg version="1.1" id="Layer_1" xmlns="http://www.w3.org/2000/svg" xmlns:xlink="http://www.w3.org/1999/xlink" x="0px" y="0px"
	 viewBox="0 0 595.3 595.3" style="enable-background:new 0 0 595.3 595.3;" xml:space="preserve">
<style type="text/css">
	.st0{fill:#F9F3E8;}
	.st1{fill:#5B180F;}
</style>
<g>
	<g>
		<path class="st0" d="M442.5,97.1c-0.3-0.3-0.7-0.6-1.1-0.9L442.5,97.1z"/>
		<path class="st0" d="M314.3,50.4c1,0.1,1.5,0,1.5-0.1C314.8,50.3,314,50.3,314.3,50.4z"/>
		<path class="st0" d="M290.9,48.8c0.5,0,0.9,0,1.4,0C291.7,48.8,291.2,48.8,290.9,48.8z"/>
		<path class="st0" d="M441.4,96.2l-2.8-2.4C438.2,94,440,95.1,441.4,96.2z"/>
		<path class="st0" d="M486.4,136.3l0.7,0.8c0.3,0.2,0.6,0.3,0.9,0.4L486.4,136.3z"/>
		<path class="st0" d="M513.3,174c-0.5-0.9-1.4-0.8-1.9-1c0.6,0.3,1.1,0.9,1.6,1.7C513.2,174.6,513.3,174.4,513.3,174z"/>
		<path class="st0" d="M538.7,242.6l0.1,0.4C538.8,242.9,538.7,242.7,538.7,242.6z"/>
		<path class="st0" d="M538.8,243c0.1,0.3,0.2,0.6,0.3,0.8L538.8,243z"/>
		<path class="st0" d="M463.3,112.4c0-0.1,0-0.3-0.1-0.5C463.1,112,463.1,112.2,463.3,112.4z"/>
		<path class="st0" d="M544.3,298l0,0.7c0.2,0.1,0.3,0.2,0.5,0.2L544.3,298z"/>
		<path class="st0" d="M247.9,52.6c0.1,0,0.1,0,0.2,0C249.2,52.3,248.6,52.4,247.9,52.6z"/>
		<path class="st0" d="M53.7,350.9c-0.3-4.5,2.6,6.9,1.9,0.1C55.4,351.7,52.9,345.3,53.7,350.9z"/>
		<path class="st0" d="M157.1,91.4c0.2,0,0.6-0.1,1-0.3C158.1,91.1,157.8,91.2,157.1,91.4z"/>
		<path class="st0" d="M223.9,60.5l-1.8,0.5C222.8,60.8,223.4,60.6,223.9,60.5z"/>
		<path class="st0" d="M127.4,116.8c0.2-0.1,0.4-0.3,0.6-0.5C127.8,116.5,127.6,116.7,127.4,116.8z"/>
		<path class="st0" d="M127.4,116.8c-0.4,0.3-0.7,0.6-1.4,1.3c0.1-0.1,0.2-0.1,0.4-0.2C126.6,117.6,126.9,117.3,127.4,116.8z"/>
		<path class="st0" d="M101.2,145.7c0.2-0.1,0.4-0.3,0.6-0.5c0.2-0.3,0.5-0.7,0.7-1L101.2,145.7z"/>
		<path class="st1" d="M545.4,298.2c-0.1,1.6-0.4,4.2-0.9,4.3l-0.2-3.7c-0.1,0-0.2-0.1-0.3-0.1c0-0.2,0-0.4,0-0.6
			c0-14.9-1.3-29.4-3.8-43.5l0.2,0.3l-0.3-0.9c-0.4-2-0.7-4-1.2-6c0.2,0.1,0.5,0.6,0.7,1.7c0-1-0.1-1.8-0.3-2.4
			c-0.1-0.6-0.3-1-0.4-1.4c-0.3-0.8-0.6-1.5-0.6-3.3c0-0.4,0.1-0.2,0.2,0.1l-1.3-3.9c0.4,0.7,0.7-0.9,1.1,1.6
			c-0.2-1.8-0.5-3.4-1-4.8c-0.4-1.4-0.9-2.7-1.3-3.8c-0.8-2.2-1.5-3.9-1.4-5.3l0.2,0.6c-0.4-1.2-0.7-2.1-1-2.8
			c-0.3-0.7-0.5-1.1-0.7-1.4c-0.3-0.6-0.5-0.6-0.6-0.5c-0.1,0.1-0.3,0.2-0.5,0c-0.5-1.5-1-3.1-1.5-4.6l0.3-3.7l-1.2-0.6
			c-0.3-1-1-2.9-0.5-2.7c-2-3.4-0.1,0.8-1.5-1.1c-0.5-2.5-1.8-5.7-3-8.4c-1.2-2.7-2.2-5-1.8-5.8c-1.4-1.3,1.5,4.6-1.2-0.1
			c0.4-1-0.3-2.4-1.2-4.1c-1-1.6-2.3-3.6-3-5.8c1.4,0.9,3,4.9,1.5,0.5c-1.2-0.9-2.2-2.9-3.1-5.1c-0.9-2.2-1.9-4.5-3-6.1
			c-0.5,0.2-1.7-1.6-3.1-4.1c-1.5-2.5-3.5-5.6-5.4-8.2c0.6,0.1-6.3-10.4-9.7-15.4l0.3,0c-0.8-0.1-2.1-1.4-3.6-3.1
			c-0.7-0.9-1.5-1.8-2.3-2.8c-0.8-1-1.7-1.8-2.4-2.7c0.6-0.3,1.4,0.1,3.2,1.8c-0.9-1.1-1.9-2.2-2.8-3.2c-0.9-0.5-1.9-1.4-3.8-3.4
			l1.3,0.3c-0.9-1.1-1.9-2.1-2.9-3.1c-1.1-1-2.2-2-3.3-3c-1.1-1-2.3-2.1-3.4-3.3c-0.6-0.6-1.2-1.2-1.7-1.9c-0.6-0.6-1.2-1.3-1.8-1.9
			c-0.6,0.2,0.8,2.6,0,2.7c-0.9-0.9-1.9-1.8-2.8-2.7c0.3-0.1,0.7,0.1,1.5,0.7c-0.5-0.4-1.9-1.4-2.8-2.4l2.7,1.6
			c-2.2-2.5-1.7-0.8-3.5-2.6c0.4-0.4-1.1-1.7-0.5-1.7c0.5,0.4,1.5,1.8,2.4,2.3c-1-1.1-2.2-2.3-3.1-3.4c-0.9-1.1-1.7-2-2-2.6
			c0,0.4-0.5,0.6-2.2-0.8c-4.3-3.7-1-1.8-3.3-4.2c-1.3-0.6-3.9-3.2-4.5-2.6c-1.3-1-1.3-1.5-1.6-2.1c-1.3-0.7-4-2.9-6.2-4.4
			c-2.2-1.5-3.8-2.4-2.8-1.1l0.6,0.5c-0.1-0.1-0.3-0.2-0.4-0.2c0,0,0,0,0,0l0,0c-2.1-1.2-4.1-2.6-6.1-4c-2-1.4-4.1-2.8-6.1-4.2
			c-4-2.9-8.3-5.5-12.5-7.8l0.2-0.3c-2.5-1.3-5.4-2.6-8.1-3.9c-2.7-1.3-5.2-2.5-7.2-3c-1.5-0.7-3.4-2.1-2.6-2.1
			c-2-0.8-3.2-1.2-4.5-1.7c-1.3-0.6-2.9-1.2-5.7-2.6c4.3,1.1-1.2-1,4.3,1.3c-5.2-2.3-6.2-3.3-12.2-4.7c2.2,0-3.7-2.3-6.4-2.9
			l3.6,1.8c-2.9-0.9-5.4-1.8-7.9-2.7l1.7-0.5c-1.3-0.6-2.7-1.1-4-1.5c-1.3-0.4-2.6-0.8-3.9-1.1c-2.6-0.6-5.1-1.2-7.5-1.5
			c-2.4-0.3-4.8-0.7-7-1.2c-1.1-0.2-2.2-0.6-3.3-0.9c-1.1-0.3-2.1-0.7-3.2-1.1c-3.2,0.1,6.1,1.6,3.3,1.9c-5.2-1.1-10.5-3.5-12.1-3.7
			c-3.6-0.7-5.4-0.6-7.1-0.4c-0.9,0.1-1.8,0.2-2.9,0.1c-0.6,0-1.2,0-1.9-0.1c-0.7-0.1-1.6-0.1-2.5-0.2c0.9,0.4,1.8,1.4-3.9,1.3
			c-5.3-0.5-6.4-2-3-2c1.3,0.1,1.9,0.2,1.8,0.3c1.7,0,4,0,1.9-0.5L317,50c-1.3-0.3-3.8-0.6-5.7-0.8c-1.9-0.2-3.4-0.3-2.5-0.6
			c-3.5,0.2-2.3,0.5,0,0.7c-2.9-0.2-5.2-0.3-7.6-0.4c-1.4,0-2.7-0.1-4.2-0.1c-1.5,0-3,0-4.8,0c1.1,0.2,2.2,0.6,1.1,0.6
			c-5.2-0.1-6.3,0.1-7,0.4c-0.4,0.1-0.6,0.3-1.2,0.4c-0.6,0.2-1.5,0.3-3.3,0.5c-4-0.2,1.3-1.4-5.7-0.4c-4.3,0-1-0.9,0.7-1.3
			c-1.6,0.3-3.1,0.5-4.6,0.6c-1.5,0.2-2.9,0.3-4.2,0.3c-2.7,0.1-5,0.1-6.9,0.3l3.3-0.7c-2,0.4-3.7,0.6-5.3,0.9
			c0.7,0.1,1.4,0.3,2,0.4c-1,0-1.9,0.2-2.6,0.2c-0.7,0.1-1.1,0.1-1.1-0.1c-1.9,0.8,1.7,0.9-2.2,2.2c-1.3,0.1-3.3,0.5-5.1,0.8
			c-0.9,0.2-1.7,0.3-2.4,0.4c-0.7,0.1-1.2,0.1-1.5-0.1c1-0.2,1.8-0.3,2.3-0.4c0.5-0.1,0.9-0.2,1.1-0.3c0.4-0.1,0.2-0.3,0-0.4
			c-0.4-0.2-0.8-0.4,0.9-0.8c-1,0.2-2.1,0.4-3.4,0.5c-0.3,0,0.2-0.3,0.8-0.4c-8,0.9-3.4,1.9-11.5,3.7c0.4-0.4-0.1-0.5-0.9-0.5
			c-0.8,0-1.9,0.2-2.5,0.5c3.2-0.9,1.8,0.4-1.1,1.7c-5.2,1.1-5.5,1.9-8.1,2.6l3.1-0.7c-0.4,0.4-1.3,0.8-2.5,1.2
			c-1.2,0.4-2.7,1-4.4,1.6c-0.4-0.3,3.1-1.3,1.8-1.1c-1.8,1.1-4.1,1.6-6.5,2.2c-1.2,0.3-2.5,0.5-3.8,1c-1.3,0.4-2.6,0.9-3.9,1.6
			c-2.6,0.6-0.6-0.8-2.9-0.2c-2.9,1.5-4.6,2-6.3,2.5c-1.7,0.6-3.5,1.1-6.4,2.8c2.1-0.2,2.3-0.5-1.7,2.1l9.9-5l-6.1,3.9
			c1.5-0.7,3.1-1.5,4.5-2.3c1.4-0.8,2.7-1.4,3.6-1.7c-1.5,0.9-2.1,1.3-2.2,1.5c-0.1,0.2,0.4,0,1.2,0c-2.3,0.4-4.3,1.5-6.4,2.7
			c-2,1.2-4.2,2.3-6.7,3.2l-0.6-1.7c-1.9,0.7-3.6,1.6-5.2,2.4c-0.8,0.4-1.6,0.9-2.4,1.4c-0.4,0.2-0.8,0.5-1.2,0.7
			c-0.4,0.3-0.8,0.5-1.2,0.8c-1.6,1.1-3.3,2.2-5.1,3.3c-1.8,1.2-3.9,2.3-6.1,3.6c1-0.5,2-1.1,3-1.5c-0.8,1.3-5.3,3.5-8,5.5
			c-0.1-0.7-1.9,0.3-3.4,0.8c0.4,0.3-6.2,4.4-6.3,5.9c-1.4,0.7-2.8,1.3-4.2,2.1c-6.8,4.9-6.5,7.1-12.6,12.2c1.4-2.1-1.6,0,2.1-3.9
			c-2,1.8-3.9,3.2-3.7,3.6c-0.7,0.4-2,1.7-3.3,3.2c-1.3,1.5-2.7,3-3.8,3.7c-0.6,1-0.5,1.7-2.7,3.7c-0.2,0.1-0.2,0-0.2-0.1
			c-0.1,0.3-0.7,1-1.2,1.6c-0.5,0.7-0.7,1.2,0.4,0.5c-1.7,1.2-3.6,2.8-5.5,4.6c-1,0.9-1.9,1.9-2.9,2.9c-0.9,1-1.8,2.1-2.7,3.2
			c-1.8,2.1-3.6,4.3-5.3,6.1c-1.6,1.9-3.1,3.6-4.6,4.8c-0.9,1.2-1.8,2.4-2.7,3.7c-0.9,1.3-1.8,2.6-2.7,3.9c-1.7,2.6-3.5,5.1-5,7.3
			c0-0.4-0.2-0.2,0.4-1c-4.4,5.9-1,4.7-5.9,11.4c-1.5,1.6-1,0.6-0.4-0.6c0.6-1.2,1.5-2.4,0.6-1.4c-1.2,0-2.3,2.2-3.7,4.9
			c-1.4,2.8-3,6-4.7,8.2l0.5-1.3c-2.5,3.5-4.2,9.6-7.1,15.9c0,0,0-0.4-0.3-0.2c-0.3,1.2-0.7,2.6-1.2,4.2c-0.5,1.5-1,3.3-1.6,5
			c-1.1,3.5-2.5,7.2-3.4,10.4c-0.1-2.2,0.6-3-0.5-2.1c-0.9,2.9,1.5-0.4-0.3,5.3c-1,1.7-2.8,5.7-3.7,6c0.5-1.8,1.2-3.6,1.7-5.4
			c-1,1.2-1.6,3-2,4.8c-0.4,1.8-0.7,3.7-1.2,5.1l-0.3-0.5c-2.3,8.4-1,8.9-3.2,17.9l0.6-0.9c0,2.6-0.3,3.6-0.7,4.6
			c-0.4,1-0.8,2-0.8,4.6l-1.4,1.3c-0.1,0.8-0.2,2-0.3,3.4c-0.1,1.4-0.1,2.9-0.2,4.6c-0.1,1.6-0.2,3.4-0.2,5.1
			c-0.1,1.7-0.2,3.3-0.3,4.8c-0.4-1.7-0.3-4.4-0.3-7.1c0.1-2.8,0.2-5.6,0.2-7.8c-0.5,3.3-1.4,11.3-1,13.1c0.1-1.3,0-3.1,0.3-4.4
			c0.3,4.2,0.5,9.6-0.1,16.2c-1.2-0.7-1.4,3.7-1.6,8.8c-0.3,5.1,0,10.9-0.9,13.4c0.1,1.5,0.2,2.9,0.4,4.4c0.2,1.5,0.3,2.9,0.4,4.4
			c0.3,3,0.3,6,0.6,9c0.3,3,0.6,6.1,0.9,9.3c0.1,0.8,0.2,1.6,0.3,2.4c0.1,0.8,0.3,1.6,0.4,2.4c0.3,1.6,0.6,3.3,0.9,5
			c0.9-5.1,0.8,4,2.4,2.8c0.3,1.6,0.6,2.6,0.8,3.3c0.2,0.7,0.2,1.1,0.2,1.2l-0.1-0.7c0,0.3,0,0.4,0.1,0.7l0,0
			c0.4,3.2,0.7,6.4,1.1,9.7c0.1,1.2-0.3,0.5-0.6-0.5c-0.3-1-0.7-2.2-0.8-2c0.3,1.7,0.5,2.8,0.7,3.4c0.1,0.7,0.1,1,0,1.2
			c-0.1,0.5-0.3,0.7,0.1,3c0.4-1.1,1.6,2.1,2.4,6l-0.7-5.7c0.9,2.3,1.4,4,1.7,5.4c0.3,1.4,0.5,2.4,0.7,3.5c0.3,2.1,0.6,4.3,2.7,8.9
			l-1.6-2.8c0.9,2.4,2.7,6.7,4.5,11.1c0.5,1.1,0.9,2.1,1.4,3.2c0.5,1,1,2,1.5,2.9c1,1.8,2,3.3,2.8,4.3c0.2,0.9,0.2,2.2-0.8,0.2
			c0.6,1.4,1.2,2.8,2,4.2c0.7,1.4,1.5,2.8,2.3,4.2c1.6,2.8,3.2,5.7,5,8.4c1.7,2.7,3.4,5.4,4.9,7.8c1.6,2.4,3,4.7,4.1,6.8l-0.9-0.5
			c1.4,1.8,2.8,2.9,4.1,5.4c-0.2,0-0.9-0.5-0.3,0.4c0.8,0.9,4.1,4.5,5.7,7.1l-1.9-1.8c1.6,2.5,3.2,4.6,4.8,6.4
			c1.6,1.8,3.1,3.5,4.6,5c1.5,1.5,3.1,2.9,4.7,4.4c1.6,1.5,3.1,3.1,4.9,4.9c-0.5,0.4,0.8,2.4,2.6,4.7c1.8,2.3,4.1,5,5.7,6.6l-0.2,0
			c2.5,2.4,4.8,4.6,7.1,6.6c2.4,1.9,4.7,3.7,7,5.4c2.2,1.8,4.7,3.3,7.1,5c2.4,1.6,4.8,3.4,7.5,5.1c1.4,1.4,3.5,3.2,5.9,5.1
			c2.5,1.9,5.4,3.8,8.5,5.8c0.8,0.5,1.5,1,2.3,1.5c0.8,0.5,1.6,0.9,2.4,1.4c1.6,1,3.2,1.9,4.8,2.8c3.1,2,6.3,3.6,9.1,5.3
			c-1.6-1.1,0.8-0.8,2.8,0.1c2.5,1.7,7.9,2.7,6.9,3.6l-1-0.5c1.6,2,7.3,4.4,11.8,6.1l1.3-1.2c2.7,1.7,6,3.3,9.6,4.5
			c1.8,0.6,3.6,1.2,5.4,1.8c0.9,0.3,1.8,0.6,2.8,0.8c0.9,0.2,1.8,0.5,2.8,0.7c1.8,0.5,3.6,0.9,5.3,1.3c1.7,0.4,3.3,0.9,4.8,1.2
			c3,0.7,5.4,1.5,7,2.4c1.5,0.1,3.2,0.5,4.9,0.7c1.7,0.2,3.4,0.4,4.9,0.5l-0.3,0.8c2.1,0.4,3.9,0.8,5.6,1.1c1.7,0.4,3.3,0.5,5,0.8
			c1.7,0.2,3.4,0.4,5.4,0.7c1,0.1,2,0.2,3.2,0.4c1.1,0.1,2.3,0.1,3.6,0.2l-2.2,0.4c2.9,0.3,4.8-0.2,6.7-0.7c0.9-0.2,1.8-0.5,2.8-0.7
			c1-0.2,2.1-0.2,3.5-0.2l1.6,1.3c2.6,0.1,5.1,0.2,7.7,0.3l1.9,0.1l1.9,0l3.8,0c2.6,0,5.1,0,7.7-0.2c2.5-0.3,5.1-0.6,7.6-1.1
			c-0.1,0.2-0.4,0.6-2.1,0.8c4.6-0.1,17.5-1.1,16.8-2.5c1.3,0.7,10.6-1.9,15.5-3.3l-0.7,1c4.3-2.1,4.4-2.4,10.6-4.1
			c1.5-0.3,1.5,0.3-0.6,0.6c1.3-0.2,2.1-0.4,2.8-0.6c0.7-0.2,1.2-0.5,1.7-0.7c1-0.5,2.2-1,5.2-1.7l-2.1,1.1c5.1-1.4,4.6-1.5,7.2-3
			c3-1.4,9.5-3,10.5-2.5c0.5-0.7,3-2.3,5.9-3.3c0.5,0.1-0.5,0.7-1,1c2.1-0.7,3.9-1.4,5.5-2.1c1.6-0.7,2.9-1.5,4.2-2.2
			c2.6-1.4,4.9-2.6,7.8-3.5c0.2,0.2,0.6,0.1,1.1,0c-1.5,0.8-3.1,1.5-4.4,2.1c-1.4,0.6-2.6,1.2-3.6,1.6c-1.7,0.7-2.8,1.2-3,1.3
			c0.4,0.7,5.5-1.5,1.8,1.3c2-1.2,4.6-2.9,7.4-4.5c2.7-1.7,5.6-3.5,8.1-4.5c0.3-0.1,0.5-0.1,0.8-0.1l-0.5,0.3c1.2-0.5,2.2-1.1,3-1.7
			c1.6-0.8,2.6-1.2,4.1-2.1c0.4,0.1,1.9-0.6,3.5-1.6c0.8-0.5,1.7-1,2.5-1.5c0.8-0.5,1.6-1,2.2-1.4c-0.6-0.6,2.5-2.4-0.6-1.2
			c0.1,0-0.7,0.6-2.1,1.4c-0.4,0.2-0.8,0.5-1,0.7c0,0,0.1-0.1,0.1-0.2c-1.6,0.9-3.7,2.2-6,3.5c1.7-1.5,3.5-2.9,6.5-4.1
			c1-1.2,2-2.6,2.6-3.2c1.9-0.5,4.5-1.7,6.8-2.7c1.2-0.5,2.2-1,3-1.4c0.8-0.4,1.5-0.6,1.8-0.6c1.7-1.3,3.6-2.8,5.5-4.2
			c1-0.7,1.9-1.5,2.8-2.3c0.9-0.8,1.8-1.6,2.7-2.3c1.8-1.5,3.4-3,4.9-4.4c1.4-1.5,2.5-2.8,3.3-4c1.7-1.7,2.4-1.5,3.3-1.9
			c-1,1-2.2,2.1-2.7,2.8c0.9-0.9,2-1.9,3.1-3c0.6-0.5,1.2-1.1,1.8-1.7c0.6-0.6,1.1-1.2,1.7-1.7c2.2-2.3,4-4.3,4-5.1
			c2.4-1.9,2-1.2,1.7-0.6c-0.1,0.3-0.3,0.5,0,0.2c0.3-0.2,1-0.9,2.4-2.5l-0.5,1.1c3.2-2.7,5.8-5.4,8.2-8.1c2.3-2.8,4.3-5.7,6.3-8.5
			c2-2.9,3.9-5.9,6.2-8.9c1.2-1.5,2.3-3.1,3.6-4.8c1.1-1.4,2.3-2.8,3.6-4.3c-0.4,0.5-0.7,0.8-0.9,0.8c0.8-1,1.6-2.1,2.4-3.1
			c0.7-1.1,1.5-2.2,2.2-3.3c1.5-2.2,2.9-4.4,4.4-6.7c1.3-2.3,2.6-4.7,4-7c0.6-1.2,1.3-2.3,1.9-3.5l1.8-3.6c1.2-2.4,2.4-4.8,3.6-7.2
			c1.1-2.5,2.2-4.9,3.3-7.3c0.6-1.2,1.1-2.4,1.7-3.6c0.5-1.2,1-2.4,1.6-3.6c1.1-2.4,2.2-4.8,3.3-7.1c2.2-5.5,1.7-6.3,2.4-9.9
			l1.3-0.9c0.3-2.1,0.5-4.1,0.7-6.2c0.4-2.1,1-4.1,1.7-6c0.6-1.9,1.3-3.7,2-5.7c0.7-1.9,1.4-3.9,1.9-6.2c0.5-2.2,0.8-4.7,1-7.5
			l-0.9,1.3c0.4-1.9,0.9-5,1.3-7.6c0.3-2.5,0.6-4.5,0.9-4.1c-0.1-0.4-0.5-1.4,0-2.9l0.5-0.1c0.1-1.6,0.2-3.2,0.2-4.9l0-4.9
			c0.5-3.7,0.9-3.4,1.4-3.5c0.2-0.1,0.4-0.2,0.7-1.1c0.2-0.8,0.5-2.4,0.6-5.1C546.8,304.2,545.8,296.6,545.4,298.2z M424.4,513.1
			c0-0.1,0.1-0.1,0.1-0.2c-0.1,0.2-0.2,0.5-0.4,0.7c-1.6,1-2.2,1.2-2.5,1.2C422.4,514.4,423.3,513.8,424.4,513.1z M537.6,241.1
			c0,0.1,0,0.2,0,0.3c-0.1-0.5-0.3-1-0.4-1.6C537.3,240.2,537.4,240.6,537.6,241.1z"/>
		<path class="st0" d="M428.5,509.6C428.5,509.6,428.5,509.6,428.5,509.6C428.6,509.6,428.5,509.6,428.5,509.6z"/>
		<path class="st0" d="M396.3,526.5C396.3,526.5,396.3,526.5,396.3,526.5C396.2,526.5,396.2,526.5,396.3,526.5z"/>
		<path class="st0" d="M502.2,438.7c0.2-0.2,0.4-0.4,0.6-0.7C502.6,438.3,502.4,438.5,502.2,438.7z"/>
		<path class="st0" d="M123.5,121.5c0-0.1,0-0.1,0-0.1C123.5,121.4,123.5,121.5,123.5,121.5z"/>
		<path class="st0" d="M250.6,52.4c0.6-0.1,1.1-0.2,1.6-0.3C251.5,52.2,251,52.3,250.6,52.4z"/>
		<path class="st0" d="M426.5,511c0.2-0.2,0.3-0.2,0.6-0.5c-0.4,0.1-0.7,0.3-1.1,0.4c-0.2,0.2-0.3,0.4-0.4,0.6
			C425.9,511.3,426.2,511.2,426.5,511z"/>
		<path class="st0" d="M442.5,97.1c0.1,0.1,0.3,0.3,0.4,0.4c-0.1-0.1-0.1-0.2-0.2-0.2L442.5,97.1z"/>
		<path class="st0" d="M529.2,207.7c-2.5-8.9,0.1,2-3.4-6.9c0.9,2.3,1.6,4.6,2.5,6.8C528.1,206.4,527.9,204.7,529.2,207.7z"/>
		<path class="st0" d="M517.1,180.2c-0.7-1-1.2-1.6-1.3-1.7c-0.1,0,0.1,0.5,0.7,1.9C518.3,183.8,516.8,180.1,517.1,180.2z"/>
		<path class="st0" d="M399,71.4l0.7-0.5C396.9,69.7,399.6,71.1,399,71.4z"/>
		<polygon class="st0" points="353.7,54.5 348.7,53.6 352.4,54.3 		"/>
		<path class="st0" d="M105,139.7c0.4,0,0.9-0.1,1.3-0.1C107.5,137.9,107,136.9,105,139.7z"/>
		<path class="st0" d="M54.8,245.9c-0.8,1.1-1.7,4.4-1.6,6.5c0.3-1.3,0.6-2.6,0.9-3.7C54.4,247.5,54.7,246.6,54.8,245.9z"/>
		<path class="st0" d="M208.9,532.1c1.4,0.5,2.9,1,4.3,1.3c-0.7-0.2-1.3-0.5-2-0.8L208.9,532.1z"/>
	</g>
	<g>
		<path class="st0" d="M285.4,257.2c0.4,1.5,0.8,3.5,1.2,6.2c0.4,2.6,0.5,4.8,0.5,6.5v71.4c0,9.4-2.2,17.8-6.5,25.5
			S270,380.5,261.8,385c-8.2,4.6-18.1,6.9-29.7,6.9h-15.4c-11.5,0-21.4-2.3-29.6-6.9c-8.2-4.6-14.5-10.7-18.8-18.3
			s-6.5-16.1-6.5-25.5v-70.5c0-9.4,2.2-17.8,6.5-25.5s10.6-13.7,18.8-18.3c8.2-4.6,18.1-6.9,29.6-6.9h15.4
			c14.4,0,26.2,3.5,35.4,10.4C276.6,237.3,282.6,246.3,285.4,257.2z M241.3,283.6c0-9.8-0.3-5.6-0.8-11c-0.5-5.4-1.9-9.2-4.3-11.3
			c-2.3-2.1-6.3-3.2-11.8-3.2c-5.5,0-9.5,1.1-11.8,3.2c-2.4,2.1-3.8,5.9-4.4,11.3c-0.5,5.4-0.8,1.2-0.8,11v33
			c0,9.8,0.3,17.4,0.8,22.8c0.5,5.4,1.9,9.2,4.3,11.3c2.3,2.1,6.3,3.2,11.9,3.2c5.6,0,9.6-1.1,11.9-3.2c2.3-2.1,3.7-5.9,4.2-11.3
			c0.5-5.4,0.7-13,0.7-22.8V283.6z"/>
		<path class="st0" d="M429.7,202c0.4,1.5,0.8,3.5,1.2,6.2c0.4,2.6,0.5,4.8,0.5,6.5v126.6c0,9.4-2.2,17.8-6.5,25.5
			s-10.6,13.7-18.8,18.3c-8.2,4.6-18.1,6.9-29.7,6.9H361c-11.5,0-21.4-2.3-29.6-6.9c-8.2-4.6-14.5-10.7-18.8-18.3
			c-4.3-7.6-6.5-16.1-6.5-25.5V215.6c0-9.4,2.2-17.8,6.5-25.5c4.3-7.6,10.6-13.7,18.8-18.3c8.2-4.6,18.1-6.9,29.6-6.9h15.4
			c14.4,0,26.2,3.5,35.4,10.4C421,182.2,426.9,191.1,429.7,202z M385.6,240.2c0-9.8-0.3-17.4-0.8-22.8c-0.5-5.4-1.9-9.2-4.3-11.3
			c-2.3-2.1-6.3-3.2-11.8-3.2c-5.5,0-9.5,1.1-11.8,3.2c-2.4,2.1-3.8,5.9-4.4,11.3c-0.5,5.4-0.8,13-0.8,22.8v76.4
			c0,9.8,0.3,17.4,0.8,22.8c0.5,5.4,1.9,9.2,4.3,11.3c2.3,2.1,6.3,3.2,11.9,3.2c5.6,0,9.6-1.1,11.9-3.2c2.3-2.1,3.7-5.9,4.2-11.3
			c0.5-5.4,0.7-13,0.7-22.8V240.2z"/>
		<polygon class="st0" points="287.1,164.6 287.1,203.3 161.8,196.3 161.8,164.6 		"/>
		<rect x="238.6" y="413.9" class="st0" width="117.3" height="31.5"/>
	</g>
</g>
</svg>
