<svg width="60" height="60" viewBox="0 0 60 60" fill="none" xmlns="http://www.w3.org/2000/svg">
<circle cx="30" cy="30" r="30" fill="url(#paint0_linear_701_33)"/>
<path d="M10.8871 41.6386C10.664 41.8905 10.8245 42.3169 11.1424 42.3169H23.8714C24.025 42.3169 24.1722 42.2483 24.2799 42.1266L32.5917 32.7397V18.0996C32.5917 17.743 32.203 17.5658 31.978 17.8199L10.8871 41.6386ZM32.5917 32.7397V41.9183C32.5917 42.1385 32.7522 42.3169 32.9501 42.3169H46.0583C46.2563 42.3169 46.4167 42.1385 46.4167 41.9183V18.0996C46.4167 17.743 46.0279 17.5658 45.803 17.8199L32.5917 32.7397Z" fill="#9DEE65"/>
<defs>
<linearGradient id="paint0_linear_701_33" x1="30" y1="0" x2="30" y2="60" gradientUnits="userSpaceOnUse">
<stop stop-color="#252F24"/>
<stop offset="1" stop-color="#1F2521"/>
</linearGradient>
</defs>
</svg>
