<svg width="61" height="60" viewBox="0 0 61 60" fill="none" xmlns="http://www.w3.org/2000/svg">
<circle cx="30.8132" cy="30" r="30" fill="url(#paint0_linear_701_48)"/>
<path d="M11.7003 41.6384C11.4772 41.8903 11.6377 42.3166 11.9557 42.3166H24.6846C24.8382 42.3166 24.9854 42.248 25.0932 42.1264L33.4049 32.7395V18.0993C33.4049 17.7428 33.0163 17.5656 32.7912 17.8197L11.7003 41.6384ZM33.4049 32.7395V41.918C33.4049 42.1382 33.5655 42.3166 33.7633 42.3166H46.8715C47.0695 42.3166 47.2299 42.1382 47.2299 41.918V18.0993C47.2299 17.7428 46.8411 17.5656 46.6162 17.8197L33.4049 32.7395Z" fill="url(#paint1_linear_701_48)"/>
<path d="M27.511 48.3333C27.511 41.89 32.7343 36.6666 39.1776 36.6666H49.1466C55.5899 36.6666 60.8133 41.89 60.8133 48.3333C60.8133 54.7766 55.5899 60 49.1466 60H39.1776C32.7343 60 27.511 54.7766 27.511 48.3333Z" fill="white"/>
<path d="M33.7671 55V41.6666H37.247V52.1063H43.1855V55H33.7671Z" fill="black"/>
<path d="M45.2084 55V41.6666H51.6198C53.1328 41.6666 54.299 42.0575 55.1186 42.8392C55.9507 43.6083 56.3668 44.6737 56.3668 46.0354C56.3668 47.3971 55.9507 48.4688 55.1186 49.2506C54.299 50.0197 53.1328 50.4042 51.6198 50.4042H48.6883V55H45.2084ZM48.6883 47.7375H51.0146C52.3763 47.7375 53.0571 47.1702 53.0571 46.0354C53.0571 44.9007 52.3763 44.3333 51.0146 44.3333H48.6883V47.7375Z" fill="black"/>
<defs>
<linearGradient id="paint0_linear_701_48" x1="30.8132" y1="0" x2="30.8132" y2="60" gradientUnits="userSpaceOnUse">
<stop stop-color="#2C3C3E"/>
<stop offset="1" stop-color="#1E2628"/>
</linearGradient>
<linearGradient id="paint1_linear_701_48" x1="11.5966" y1="30.0083" x2="47.2299" y2="30.0083" gradientUnits="userSpaceOnUse">
<stop stop-color="#03BFB2"/>
<stop offset="1" stop-color="#99FFF8"/>
</linearGradient>
</defs>
</svg>
