<svg width="101" height="100" viewBox="0 0 101 100" fill="none" xmlns="http://www.w3.org/2000/svg">
<mask id="path-1-inside-1_333_2361" fill="white">
<path d="M50.3901 100C78.0044 100 100.39 77.6142 100.39 50C100.39 22.3858 78.0044 0 50.3901 0C22.7759 0 0.390137 22.3858 0.390137 50C0.390137 77.6142 22.7759 100 50.3901 100Z"/>
</mask>
<path d="M50.3901 100C78.0044 100 100.39 77.6142 100.39 50C100.39 22.3858 78.0044 0 50.3901 0C22.7759 0 0.390137 22.3858 0.390137 50C0.390137 77.6142 22.7759 100 50.3901 100Z" fill="#758BFD"/>
<path d="M98.3901 50C98.3901 76.5097 76.8998 98 50.3901 98V102C79.1089 102 102.39 78.7188 102.39 50H98.3901ZM50.3901 98C23.8805 98 2.39014 76.5097 2.39014 50H-1.60986C-1.60986 78.7188 21.6713 102 50.3901 102V98ZM2.39014 50C2.39014 23.4903 23.8805 2 50.3901 2V-2C21.6713 -2 -1.60986 21.2812 -1.60986 50H2.39014ZM50.3901 2C76.8998 2 98.3901 23.4903 98.3901 50H102.39C102.39 21.2812 79.1089 -2 50.3901 -2V2Z" fill="url(#paint0_linear_333_2361)" mask="url(#path-1-inside-1_333_2361)"/>
<path d="M52.9619 25.2409C52.0139 24.717 50.9643 24.4551 49.9147 24.4551C48.8651 24.4551 47.7986 24.717 46.8675 25.2409L23.5393 38.272C21.965 39.156 21 40.7767 21 42.5284V66.6426H32.5625V45.3933L44.125 38.9432V66.6426H55.6875V38.9432L67.25 45.3933V66.6426H78.8125V42.5284C78.8125 40.7767 77.8476 39.156 76.2732 38.272L52.945 25.2409H52.9619Z" fill="#F4F4F9"/>
<defs>
<linearGradient id="paint0_linear_333_2361" x1="16" y1="86.4551" x2="77.5" y2="4.45508" gradientUnits="userSpaceOnUse">
<stop stop-color="#9579D9"/>
<stop offset="1" stop-color="#B1BBFF"/>
</linearGradient>
</defs>
</svg>
