<svg width="250" height="250" viewBox="0 0 250 250" fill="none" xmlns="http://www.w3.org/2000/svg">
<rect width="250" height="250" fill="black"/>
<path fill-rule="evenodd" clip-rule="evenodd" d="M80.1508 64.3917C79.5538 65.5016 78.3596 68.6013 77.9103 70.2067C75.574 78.5561 77.815 88.2595 83.711 95.3245L84.8179 96.6507L89.2373 137.2C91.6681 159.502 93.7237 178.127 93.805 178.59C93.8864 179.052 94.3266 180.202 94.7833 181.145C96.1759 184.02 99.025 186.159 102.26 186.758C103.077 186.909 111.762 187 125.392 187C148.801 187 148.58 187.011 151.046 185.783C152.293 185.161 154.045 183.602 154.972 182.287C156.494 180.128 156.407 180.768 161.229 136.179C163.729 113.051 165.83 93.8302 165.897 93.4669L166.018 92.8061H156.958H147.897L150.03 83.7351L152.163 74.6641L160.081 74.6007L168 74.5372V71.8859V69.2347L159.322 69.3061L150.644 69.3777L149.482 70.045C147.568 71.1429 147.356 71.7064 144.863 82.3534C143.625 87.6398 142.556 92.1541 142.488 92.3855C142.372 92.7791 141.533 92.8061 129.349 92.8061H116.334L117.154 91.0639C119.132 86.8596 119.895 83.0731 119.678 78.5301C119.511 75.033 118.732 71.8493 117.327 68.9228C116.413 67.019 116.29 66.8741 115.458 66.722C114.968 66.6322 113.712 66.6336 112.665 66.7251C108.253 67.1108 104.312 68.2983 101.001 70.2411C99.8952 70.8896 98.9403 71.4202 98.8788 71.4202C98.8172 71.4202 98.1424 70.8983 97.3795 70.2603C93.4049 66.9378 88.6411 64.8917 83.3137 64.2192C80.7438 63.8948 80.408 63.913 80.1508 64.3917ZM89.2001 71.3169C96.9755 74.8854 101.818 83.0981 100.929 91.2062L100.753 92.8061H94.622H88.4907L87.4126 91.4652C85.2128 88.7295 83.2598 84.2978 82.5609 80.4554C82.041 77.5973 82.4905 72.8317 83.5308 70.1709L83.7842 69.5226L85.5801 70.001C86.5677 70.2641 88.1967 70.8562 89.2001 71.3169ZM113.357 73.2377C114.139 75.4902 114.407 77.7153 114.272 80.8237C114.093 84.9497 113.051 88.073 110.702 91.5258L109.832 92.8061H107.986H106.141L106.308 90.8011C106.648 86.701 105.598 81.9007 103.49 77.9193C102.094 75.2848 102.009 75.5412 104.731 74.1927C106.68 73.2274 108.282 72.6798 110.394 72.2574C112.734 71.7893 112.869 71.8342 113.357 73.2377ZM141.106 98.3928C141.045 98.5581 140.344 101.478 139.549 104.881L138.103 111.068H114.937H91.771L91.2324 106.082C90.9362 103.34 90.6238 100.42 90.5384 99.5943L90.3828 98.0924H115.801C136.031 98.0924 141.196 98.1537 141.106 98.3928ZM159.88 98.513C159.883 98.7444 159.587 101.664 159.223 105.001L158.562 111.068H151.068H143.575L143.745 110.407C144.065 109.168 146.582 98.3584 146.582 98.2251C146.582 98.1523 149.573 98.0924 153.229 98.0924C159.394 98.0924 159.876 98.123 159.88 98.513ZM157.905 116.775C157.9 118.107 151.244 177.878 151.043 178.393C150.658 179.384 149.258 180.789 148.185 181.265C147.254 181.678 145.951 181.703 125.164 181.703C104.195 181.703 103.083 181.681 102.121 181.255C100.908 180.717 99.892 179.73 99.3886 178.598C99.1434 178.047 97.9034 167.517 95.7239 147.48C93.9123 130.824 92.4283 117.006 92.4261 116.775C92.4227 116.377 94.1442 116.355 125.164 116.355C156.184 116.355 157.907 116.377 157.905 116.775ZM123.255 127.71L116.056 134.74L123.258 141.767L130.461 148.794L137.72 141.705L144.979 134.617L137.843 127.648C133.918 123.816 130.65 120.68 130.58 120.68C130.511 120.68 127.215 123.843 123.255 127.71ZM134.028 138.098L130.58 141.463L127.075 138.041L123.569 134.619L127.01 131.254L130.451 127.888L133.963 131.31L137.476 134.733L134.028 138.098ZM109.163 165.975V176.427H119.872H130.58V165.975V155.522H119.872H109.163V165.975ZM125.164 166.1V171.39L119.81 171.326L114.456 171.261L114.389 166.341C114.352 163.636 114.376 161.284 114.443 161.115C114.535 160.879 115.791 160.808 119.864 160.808H125.164V166.1Z" fill="url(#paint0_linear_1086_2551)"/>
<defs>
<linearGradient id="paint0_linear_1086_2551" x1="76.6967" y1="121.307" x2="168" y2="121.307" gradientUnits="userSpaceOnUse">
<stop stop-color="#296D38"/>
<stop offset="1" stop-color="#3FA78E"/>
</linearGradient>
</defs>
</svg>
