<svg xmlns="http://www.w3.org/2000/svg" width="100" height="100" viewBox="0 0 100 100" fill="none">
<rect width="100" height="100" rx="50" fill="#090A0C"/>
<path d="M53.7166 28.71C53.5876 28.71 53.4587 28.71 53.304 28.71C53.2266 28.71 53.175 28.71 53.0977 28.71H42.86C42.628 28.71 42.4217 28.7362 42.2154 28.7888C40.9776 29.0779 40.0492 30.2344 40.0492 31.5748V31.7851C40.0492 32.889 40.6681 33.8615 41.5707 34.3346C41.9575 34.5448 42.3959 34.65 42.86 34.65H53.7424C55.2896 34.65 56.5532 35.9378 56.5532 37.5148V37.7251C56.5532 39.3021 55.2896 40.59 53.7424 40.59H27.6712C26.1239 40.59 24.8604 41.8778 24.8604 43.4548V43.6651C24.8604 45.2421 26.1239 46.53 27.6712 46.53H41.8543C43.4016 46.53 44.6652 47.8178 44.6652 49.3948V49.6051C44.6652 51.1821 43.4016 52.47 41.8543 52.47H34.247C32.6998 52.47 31.4362 53.7578 31.4362 55.3348V55.5451C31.4362 57.1221 32.6998 58.41 34.247 58.41H53.7424C55.2896 58.41 56.5532 59.6978 56.5532 61.2748V61.4851C56.5532 63.0621 55.2896 64.35 53.7424 64.35H40.4102C38.863 64.35 37.5994 65.6378 37.5994 67.2148V67.4251C37.5994 69.0021 38.863 70.29 40.4102 70.29H54.7739C55.006 70.29 55.2123 70.2637 55.4186 70.2111C65.9141 69.3175 74.1403 60.3812 74.1403 49.4474C74.1661 38.0142 65.0115 28.71 53.7166 28.71ZM48.0175 49.6051C48.0175 48.0018 49.3069 46.6877 50.88 46.6877C52.453 46.6877 53.7424 48.0018 53.7424 49.6051C53.7424 51.2084 52.453 52.5225 50.88 52.5225C49.2811 52.4962 48.0175 51.2084 48.0175 49.6051Z" fill="white"/>
</svg>