<?xml version="1.0" encoding="UTF-8"?>
<!-- Created with Inkscape (http://www.inkscape.org/) -->
<svg width="512" height="512" version="1.1" viewBox="0 0 135.47 135.47" xmlns="http://www.w3.org/2000/svg">
 <g>
  <path d="m133.88 67.733c0 36.483-29.821 65.987-66.304 65.987-36.483 0-65.987-29.504-65.987-65.987 0-36.483 29.504-65.987 65.987-65.987 36.483 0 66.304 29.504 66.304 65.987z" fill="#0245f5"/>
  <path d="m101.84 97.596c2.2207-2.2207 4.1242-4.7587 5.7104-7.6139l-9.2001-4.7587c-1.5862 2.538-3.1724 4.4414-5.0759 6.3449-2.538 2.2207-5.3932 3.807-7.9312 4.1242-5.7104 0.63449-9.2002-0.95174-14.911-4.4414-5.7104-3.807-12.373-7.9312-21.573-6.9794-5.7104 0.95174-10.786 3.807-15.545 8.8829-1.9035 2.2207-3.807 5.0759-5.3932 7.6139l9.2001 4.7587c1.5862-2.2207 3.1725-4.4414 5.0759-6.0277 2.538-2.538 5.0759-3.807 7.9312-4.1242 0.95174-0.31723 1.5862-0.31723 2.538-0.31723 4.1242 0 7.6139 1.5862 12.373 4.7587 5.3932 3.4897 12.055 7.6139 21.573 6.6622 5.7104-0.95174 10.786-3.807 15.228-8.8829zm0-27.6c2.2207-2.2207 4.1242-4.7587 5.7104-7.6139l-9.2001-4.7587c-1.5862 2.2207-3.1724 4.4414-5.0759 6.3449-2.538 2.2207-5.3932 3.807-7.9312 4.1242-5.7104 0.63449-9.2002-0.95174-14.911-4.7587-5.7104-3.4897-12.373-7.9312-21.573-6.6622-5.7104 0.6345-10.786 3.807-15.545 8.8829-1.9035 2.2207-3.807 5.0759-5.3932 7.6139l9.2001 4.7587c1.5862-2.2207 3.1725-4.4414 5.0759-6.0277 2.538-2.538 5.0759-3.807 7.9312-4.1242 0.95174-0.31723 1.5862-0.31723 2.538-0.31723 4.1242 0 7.6139 1.5862 12.373 4.7587 5.3932 3.4897 12.055 7.6139 21.573 6.6622 5.7104-0.95175 10.786-3.807 15.228-8.8829zm0-27.6c2.2207-2.2207 4.1242-4.7587 5.7104-7.6139l-9.2001-4.7587c-1.5862 2.2207-3.1724 4.4414-5.0759 6.0277-2.538 2.538-5.3932 3.807-7.9312 4.4414-5.7104 0.63449-9.2002-1.269-14.911-4.7587-5.7104-3.4897-12.373-7.9312-21.573-6.6622-5.7104 0.63449-10.786 3.807-15.545 8.8829-1.9035 2.2207-3.807 4.7587-5.3932 7.6139l9.2001 4.7587c1.5862-2.2207 3.1725-4.4414 5.0759-6.0277 2.538-2.538 5.0759-3.807 7.9312-4.1242 0.95174-0.31723 1.5862-0.31723 2.538-0.31723 4.1242 0 7.6139 1.5862 12.373 4.7587 5.3932 3.4897 12.055 7.6139 21.573 6.3449 5.7104-0.63449 10.786-3.4897 15.228-8.5656z" fill="#fff"/>
 </g>
</svg>
