<svg width="100" height="100" viewBox="0 0 100 100" fill="none" xmlns="http://www.w3.org/2000/svg">
<rect width="100" height="100" rx="50" fill="white"/>
<path fill-rule="evenodd" clip-rule="evenodd" d="M45.5159 14.8223C45.5008 14.7855 45.4842 14.7454 45.4662 14.7025L45.4754 14.7208C45.2093 13.9727 44.989 13.2247 44.8238 12.4584L45.1267 11.8654H45.1083L45.7231 10.57C47.4391 7.00304 52.5504 7.00304 54.2572 10.57C54.248 10.6202 54.2411 10.668 54.2342 10.7159C54.2274 10.7638 54.2205 10.8117 54.2113 10.8619C54.2067 10.9075 54.1998 10.9531 54.193 10.9987C54.1861 11.0444 54.1792 11.09 54.1746 11.1356C54.1649 11.203 54.1577 11.2704 54.1505 11.3392C54.144 11.4007 54.1374 11.4632 54.1287 11.5278C54.1258 11.5538 54.122 11.5806 54.1181 11.6077C54.1097 11.6666 54.1012 11.7271 54.1012 11.7833L54.0995 11.8087L54.097 11.8431L54.0941 11.8789L54.0899 11.9291C54.0818 12.0264 54.0736 12.1238 54.0736 12.2212C54.0645 12.2941 54.0553 12.3671 54.0553 12.4401C54.0369 12.6591 54.0369 12.878 54.0369 13.0969V13.6078V13.772C54.0461 13.8815 54.0553 14.0001 54.0553 14.1095C54.0645 14.1734 54.0736 14.2464 54.0736 14.3102L54.1012 14.6113L54.1033 14.6275L54.1075 14.655L54.1124 14.6842C54.1205 14.7329 54.1287 14.7815 54.1287 14.8302C54.1333 14.8758 54.1402 14.9237 54.147 14.9716C54.1539 15.0195 54.1608 15.0674 54.1654 15.113C54.1703 15.1575 54.178 15.1993 54.1855 15.2399C54.1917 15.2742 54.1979 15.3076 54.2021 15.3411C54.2113 15.3868 54.2182 15.4325 54.2251 15.4782C54.232 15.5237 54.2388 15.5692 54.248 15.6148L54.2524 15.6333C54.2545 15.6423 54.2564 15.6515 54.2583 15.6608C54.2628 15.6832 54.2669 15.7062 54.271 15.7291C54.2744 15.7481 54.2777 15.7671 54.2814 15.7859C54.2837 15.7977 54.2861 15.8094 54.2887 15.821L54.2939 15.8428C54.3017 15.9211 54.3163 15.9926 54.3319 16.0689L54.3397 16.1074C54.3489 16.1439 54.3581 16.1826 54.3672 16.2214L54.3773 16.2639C54.3831 16.2883 54.389 16.3123 54.3948 16.3355C54.404 16.3765 54.4131 16.4198 54.4223 16.4632C54.4315 16.5065 54.4407 16.5498 54.4499 16.5909C54.459 16.6274 54.4682 16.6662 54.4774 16.7049L54.4776 16.7057L54.4789 16.7111L54.4791 16.7119C54.4877 16.7483 54.4963 16.7846 54.5049 16.819L54.5135 16.8575C54.5292 16.9289 54.5459 17.0049 54.5692 17.0744C54.5743 17.0948 54.5801 17.1159 54.5863 17.1373L54.6012 17.1882L54.6158 17.2379L54.623 17.2633C54.6267 17.2766 54.6302 17.2896 54.6334 17.3025L54.6382 17.317L54.645 17.3385C54.649 17.3516 54.6528 17.3646 54.6566 17.3776L54.6701 17.4256C54.6816 17.4667 54.693 17.5077 54.7068 17.5488C54.7252 17.6217 54.7527 17.7038 54.7802 17.7768L54.8628 18.0231C54.8903 18.0961 54.9178 18.1782 54.9454 18.2512C54.9821 18.3333 55.0096 18.4063 55.0371 18.4884C55.0533 18.5367 55.0727 18.5818 55.0915 18.6256C55.1046 18.6563 55.1176 18.6864 55.1289 18.7165C55.1564 18.7986 55.184 18.8807 55.2207 18.9536C55.239 18.9901 55.2551 19.0266 55.2711 19.0631C55.2872 19.0996 55.3033 19.1361 55.3216 19.1726C55.3491 19.2456 55.3859 19.3277 55.4225 19.4007L55.5327 19.6196C55.54 19.6341 55.5473 19.6489 55.5546 19.664C55.5655 19.6868 55.5765 19.71 55.5875 19.7332C55.6059 19.7721 55.6244 19.811 55.6428 19.8477L55.7529 20.0666C55.7712 20.1031 55.7919 20.1396 55.8126 20.1761C55.8223 20.1933 55.832 20.2105 55.8415 20.2276C55.8521 20.2469 55.8625 20.2662 55.8722 20.2855C55.9089 20.3494 55.9548 20.4224 55.9915 20.4954L56.0039 20.5155L56.017 20.5374C56.0303 20.5599 56.043 20.5823 56.0557 20.6048C56.0764 20.6413 56.097 20.6778 56.12 20.7143L56.1406 20.7474L56.1554 20.7717L56.1837 20.8183L56.1839 20.8188L56.1856 20.8216C56.2058 20.855 56.226 20.8885 56.2484 20.9241C56.2851 20.9971 56.331 21.061 56.3769 21.1339C56.3947 21.1588 56.4126 21.185 56.4304 21.2116L56.4457 21.2343L56.447 21.2363C56.4695 21.2698 56.492 21.3033 56.5146 21.3346C56.5375 21.3712 56.5605 21.4055 56.5835 21.4398C56.6064 21.4739 56.6293 21.5081 56.6522 21.5445C56.6694 21.5685 56.6867 21.5938 56.704 21.6194L56.721 21.6448C56.7354 21.6663 56.7499 21.6879 56.7643 21.7088C56.7728 21.7212 56.7813 21.7333 56.7898 21.7452C56.8126 21.7769 56.8377 21.8109 56.8628 21.8449C56.8882 21.8793 56.9136 21.9137 56.9366 21.9459L56.9501 21.9642L56.9608 21.9785L56.9753 21.9973C56.9867 22.0121 56.9983 22.0268 57.01 22.0415C57.0352 22.0735 57.0605 22.1055 57.0835 22.1374C57.111 22.1694 57.1363 22.2036 57.1616 22.2379C57.1868 22.2721 57.212 22.3062 57.2395 22.3381C57.267 22.3701 57.2922 22.402 57.3175 22.4339C57.3427 22.4658 57.3679 22.4978 57.3955 22.5297C57.4413 22.5936 57.4964 22.6574 57.5515 22.7213C57.5825 22.7646 57.6179 22.8037 57.6546 22.8442L57.6548 22.8444C57.6721 22.8637 57.6898 22.8832 57.7075 22.9037L57.8726 23.0953C57.9002 23.1272 57.9277 23.1569 57.9552 23.1865C57.9828 23.2162 58.0103 23.2458 58.0378 23.2778C58.0653 23.3097 58.0952 23.3393 58.125 23.369C58.1548 23.3986 58.1846 23.4283 58.2122 23.4602L58.3865 23.6335L58.413 23.6603L58.4494 23.6981C58.4891 23.7396 58.5276 23.7798 58.57 23.816C58.5976 23.8434 58.6275 23.8708 58.6574 23.8982C58.6871 23.9256 58.7169 23.9529 58.7444 23.9802C58.7995 24.0349 58.8637 24.0988 58.9279 24.1535C58.96 24.1809 58.9899 24.2083 59.0197 24.2356C59.0339 24.2486 59.0481 24.2617 59.0625 24.2747C59.0784 24.289 59.0946 24.3034 59.1114 24.3177C59.1757 24.3816 59.2399 24.4363 59.3042 24.4911C59.3396 24.5263 59.3788 24.5577 59.4193 24.5902L59.4202 24.5909C59.4356 24.6032 59.4512 24.6158 59.4669 24.6287L59.4877 24.6461C59.5205 24.6741 59.5558 24.7022 59.591 24.7302C59.6246 24.7569 59.6582 24.7836 59.6896 24.8103C59.6978 24.8162 59.7061 24.8222 59.7144 24.8284L59.7299 24.84C59.7486 24.8541 59.7672 24.8687 59.7858 24.8832L59.8221 24.9115C59.8422 24.927 59.8622 24.9421 59.8823 24.9563C59.9332 24.9997 59.9842 25.0374 60.0397 25.0784L60.04 25.0787L60.0841 25.1114C60.1576 25.1661 60.2218 25.2117 60.286 25.2574C60.3502 25.3121 60.4237 25.3668 60.4971 25.4124C60.5292 25.4352 60.5636 25.4581 60.598 25.4809L60.6457 25.5126C60.6639 25.5248 60.6818 25.5371 60.699 25.5493C60.7357 25.5721 60.7724 25.5972 60.8091 25.6223C60.8458 25.6473 60.8825 25.6724 60.9192 25.6952L60.9611 25.7209C60.9826 25.734 61.0035 25.7465 61.0245 25.7589C61.059 25.7795 61.0935 25.8001 61.1302 25.823C61.2037 25.8686 61.2863 25.9142 61.3596 25.9598C61.3964 25.9781 61.4308 25.9986 61.4652 26.0191C61.4996 26.0396 61.534 26.0602 61.5707 26.0784C61.5982 26.0921 61.6235 26.108 61.6487 26.124C61.6739 26.14 61.6992 26.1559 61.7267 26.1696L65.0027 33.0116C62.5434 30.6032 59.5428 28.4685 55.5052 26.1879L55.3859 26.1149C53.6148 24.9563 51.8805 23.7156 50.3847 22.2469C49.8708 21.7452 49.3845 21.216 48.9257 20.6687C48.0906 19.6561 47.3565 18.5887 46.7417 17.4849C46.2921 16.673 45.8975 15.8246 45.5763 14.9671L45.556 14.9191L45.5208 14.8342L45.5159 14.8223ZM55.1106 13.9818C55.0922 13.8815 55.0922 13.7811 55.0922 13.6808L55.0738 13.6534V13.5075V13.0604C55.0738 12.8233 55.083 12.5861 55.0922 12.358V12.3124L60.8641 24.3633C60.855 24.3588 60.8458 24.3519 60.8366 24.3451L60.8257 24.337C60.8201 24.3331 60.8146 24.3296 60.8091 24.3269C60.7816 24.3086 60.7563 24.2904 60.7311 24.2721C60.7058 24.2539 60.6806 24.2356 60.6531 24.2174C60.621 24.19 60.5865 24.1649 60.5521 24.1398C60.5177 24.1148 60.4833 24.0897 60.4512 24.0623C60.4452 24.0583 60.4393 24.0542 60.4335 24.0501L60.423 24.0424C60.4116 24.0338 60.4004 24.025 60.3893 24.0161L60.3731 24.0029L60.3472 23.982C60.3304 23.9687 60.3133 23.9557 60.2952 23.9437C60.2311 23.8982 60.1671 23.8437 60.1031 23.7891L60.1025 23.7886C60.0796 23.7658 60.0544 23.7453 60.0292 23.7248C60.0159 23.714 60.0026 23.7032 59.9897 23.6921C59.9834 23.6867 59.9773 23.6813 59.9712 23.6757C59.9659 23.6709 59.9608 23.6659 59.9557 23.6609L59.763 23.4967L59.7395 23.4773C59.6945 23.4403 59.6554 23.4079 59.6161 23.369C59.6033 23.3562 59.5904 23.3437 59.5775 23.3315C59.5594 23.3143 59.5412 23.2975 59.5231 23.2808L59.5229 23.2806L59.521 23.2788L59.52 23.2779L59.5198 23.2777C59.4877 23.2481 59.4556 23.2185 59.4235 23.1865L59.295 23.0588L59.0747 22.8399L58.983 22.7486C58.8899 22.6561 58.8046 22.5635 58.7127 22.4638L58.6893 22.4385C58.671 22.4156 58.6526 22.3951 58.6342 22.3745C58.6158 22.354 58.5975 22.3335 58.5792 22.3108C58.5599 22.2888 58.5405 22.2676 58.5215 22.2468L58.5192 22.2444L58.5173 22.2423C58.4745 22.1956 58.433 22.1504 58.3957 22.1009C58.359 22.0553 58.3131 22.0006 58.2764 21.955C58.2305 21.8911 58.1755 21.8273 58.1204 21.7634C58.106 21.7418 58.0901 21.7217 58.0739 21.7018L58.0608 21.6859C58.0402 21.6608 58.0195 21.6357 58.0011 21.6083C57.9782 21.5764 57.953 21.5446 57.9278 21.5127L57.8984 21.4753C57.8832 21.4558 57.8683 21.4362 57.8543 21.4167C57.8084 21.3711 57.7717 21.3164 57.735 21.2617C57.7121 21.2297 57.6891 21.1955 57.6662 21.1613C57.6432 21.1271 57.6203 21.0929 57.5973 21.061L57.4872 20.8968C57.4737 20.8752 57.4601 20.8544 57.4465 20.8339L57.4186 20.7921C57.3956 20.7578 57.3726 20.7235 57.3496 20.6869C57.3359 20.6699 57.3235 20.6516 57.3114 20.6325L57.302 20.6175L57.288 20.5944L57.2877 20.594C57.2753 20.5736 57.2627 20.5527 57.2487 20.5319C57.2092 20.4796 57.1745 20.4226 57.141 20.3676L57.1397 20.3656L57.1396 20.3652C57.1269 20.3443 57.1143 20.3237 57.1018 20.3038L57.0193 20.1669L56.9838 20.1047L56.9433 20.0328L56.9133 19.9792C56.8791 19.9179 56.8448 19.8565 56.8082 19.7929C56.7898 19.7564 56.7807 19.7291 56.7623 19.7017C56.7348 19.6515 56.7095 19.6013 56.6843 19.5512L56.684 19.5505L56.6837 19.5499L56.653 19.4892C56.6379 19.4597 56.6225 19.4302 56.6063 19.4007C56.5925 19.3732 56.581 19.348 56.5695 19.3229C56.5581 19.2979 56.5466 19.2729 56.5329 19.2456C56.487 19.1726 56.4503 19.0905 56.4136 19.0084C56.3953 18.9536 56.3677 18.8989 56.3402 18.8442C56.317 18.798 56.2974 18.7518 56.2769 18.7033C56.265 18.6751 56.2527 18.6462 56.2393 18.6161C56.2255 18.5887 56.214 18.5591 56.2025 18.5294C56.1911 18.4998 56.1796 18.4701 56.1658 18.4428C56.1521 18.4063 56.136 18.3675 56.12 18.3288C56.1117 18.3087 56.1034 18.2886 56.0954 18.2689C56.0879 18.2505 56.0807 18.2323 56.0741 18.2147C56.0465 18.16 56.019 18.1052 56.0007 18.0414C55.964 17.9593 55.9364 17.8863 55.9089 17.8042C55.8868 17.7603 55.8706 17.7105 55.8556 17.6643L55.8447 17.6309C55.8309 17.5898 55.8171 17.5464 55.8033 17.503L55.802 17.4989C55.7887 17.457 55.7754 17.4151 55.7621 17.3754L55.707 17.2112C55.6936 17.1623 55.6779 17.1111 55.6622 17.06L55.662 17.0589L55.6611 17.0561C55.6451 17.0037 55.629 16.9512 55.6153 16.9011L55.5877 16.7916C55.551 16.6547 55.5143 16.5179 55.4776 16.3719L55.4715 16.3463L55.4619 16.3039L55.457 16.2822C55.4547 16.2722 55.4524 16.2625 55.4501 16.2534C55.4225 16.153 55.395 16.0435 55.3767 15.9432C55.3583 15.8885 55.3491 15.8337 55.34 15.779L55.2849 15.5053C55.2803 15.4734 55.2758 15.4437 55.2711 15.4141C55.2665 15.3844 55.262 15.3548 55.2574 15.3229C55.2528 15.2772 55.2459 15.2339 55.239 15.1906C55.2321 15.1472 55.2253 15.1039 55.2207 15.0583C55.2191 15.0477 55.2174 15.0373 55.2155 15.027L55.2126 15.0122L55.209 14.9947L55.2087 14.9931C55.2008 14.9546 55.1931 14.9171 55.1931 14.8758C55.184 14.7846 55.1748 14.7025 55.1656 14.6113L55.1626 14.5904L55.1625 14.5899C55.1545 14.5349 55.1473 14.4855 55.1473 14.4288C55.1461 14.4167 55.1447 14.4045 55.1432 14.3924L55.14 14.3671L55.136 14.3377C55.1279 14.2769 55.1197 14.216 55.1197 14.1552C55.1106 14.1004 55.1106 14.0366 55.1106 13.9818ZM71.3986 44.132C70.8205 42.8275 70.1506 41.5321 69.4073 40.2914C66.9022 36.1315 63.3693 32.4916 59.1941 29.773C58.4783 29.3078 57.7442 28.8425 57.0284 28.3955L57.028 28.3952C56.2848 27.9301 55.5417 27.4649 54.7986 26.9815C52.9908 25.7956 51.2106 24.5184 49.6414 22.9858C49.2744 22.6209 48.9165 22.256 48.577 21.8729C48.5587 21.8546 48.5495 21.8364 48.5311 21.8181C48.4852 21.7679 48.4416 21.7154 48.3979 21.6629C48.3544 21.6105 48.3108 21.5581 48.265 21.508C47.3565 20.4406 46.5582 19.3094 45.8975 18.1326C45.8516 18.0414 45.8057 17.9502 45.7507 17.8681C45.7277 17.8316 45.7071 17.7929 45.6865 17.7542C45.6658 17.7153 45.6452 17.6765 45.6222 17.64C45.5763 17.5579 45.5305 17.4758 45.4937 17.3937C45.1542 16.7277 44.8514 16.0344 44.5853 15.3411C44.5769 15.3218 44.5677 15.2999 44.5577 15.2761C44.5347 15.2212 44.5072 15.1556 44.4752 15.0857C44.4725 15.0804 44.4701 15.0752 44.4678 15.07L44.4625 15.0574C44.4599 15.0511 44.4575 15.0449 44.4551 15.0386L44.452 15.0303L44.4474 15.0182C44.4461 15.0147 44.4447 15.0113 44.4433 15.0078C44.4423 15.0053 44.4413 15.0027 44.4402 15.0002C44.4369 14.9922 44.4333 14.9842 44.4293 14.9762L44.4012 14.908C44.266 14.5806 44.1469 14.292 44.0439 14.0274L43.6218 14.9123C40.6578 21.0883 46.5582 27.4103 50.3389 30.6306C51.4091 31.5413 52.5422 32.4164 53.6405 33.2646L53.679 33.2944C55.2849 34.5259 56.9366 35.8031 58.4507 37.2262C62.3874 40.9482 64.4705 45.5095 64.4705 50.4175C64.4705 53.51 63.6996 56.4201 62.3416 58.9745C60.3136 62.806 57.0468 65.7252 53.1743 67.3581C53.156 67.3581 53.1376 67.3673 53.1285 67.3764C53 67.4311 52.8715 67.4859 52.7431 67.5315C52.7247 67.5406 52.7064 67.5474 52.688 67.5543C52.6697 67.5611 52.6513 67.568 52.633 67.5771C52.5456 67.6091 52.4606 67.641 52.3756 67.673C52.2909 67.7049 52.2061 67.7368 52.1191 67.7687C52.0639 67.7869 52.0111 67.8052 51.9582 67.8235C51.9055 67.8417 51.8529 67.8599 51.7979 67.8781C51.7658 67.8872 51.7337 67.8987 51.7015 67.9101C51.6694 67.9215 51.6373 67.9329 51.6052 67.942C51.5366 67.9647 51.468 67.9852 51.3994 68.0056L51.3987 68.0058C51.3299 68.0264 51.2611 68.0469 51.1923 68.0697L51.0822 68.0971C50.7059 68.2065 50.3205 68.2978 49.9351 68.389C49.9167 68.389 49.8984 68.389 49.88 68.3981C49.2928 68.5258 48.6871 68.6262 48.0815 68.69H48.0356C47.9708 68.6959 47.9051 68.7027 47.839 68.7095C47.6992 68.724 47.5579 68.7386 47.4208 68.7448C47.2273 68.7623 47.0254 68.7714 46.8312 68.7801L46.806 68.7813H46.7876C46.6924 68.7813 46.5971 68.7857 46.5008 68.7902C46.4022 68.7948 46.3024 68.7995 46.2003 68.7995H46.1636H46.0352H45.9617H45.9434H45.9159H45.6497H45.613H45.5305H45.4478C45.3194 68.7995 45.1909 68.7904 45.0624 68.7813H45.0258H44.9431C44.7229 68.7721 44.4935 68.7539 44.2733 68.7357C44.1982 68.7357 44.1308 68.7281 44.0571 68.7199L44.0347 68.7174C43.8943 68.7058 43.754 68.6867 43.6113 68.6674L43.611 68.6673C43.5299 68.6563 43.448 68.6452 43.3648 68.6353C43.2822 68.6262 43.2088 68.6171 43.1262 68.5988C43.0221 68.5808 42.9157 68.5628 42.8094 68.5448L42.8051 68.5441C42.6973 68.5258 42.5894 68.5076 42.4839 68.4893C42.4426 68.4802 42.4013 68.4734 42.36 68.4665C42.3187 68.4597 42.2774 68.4529 42.2361 68.4437C42.0342 68.4072 41.8324 68.3616 41.6305 68.3069C41.5846 68.2978 41.5364 68.2864 41.4882 68.275L41.4877 68.2748C41.4397 68.2635 41.3917 68.2521 41.346 68.243C41.2543 68.2202 41.1626 68.1952 41.0708 68.1701C40.979 68.145 40.8872 68.1199 40.7954 68.0971C40.7307 68.081 40.6659 68.0617 40.603 68.043C40.559 68.0299 40.5158 68.0171 40.4743 68.0058C40.3093 67.9603 40.1535 67.9056 39.9977 67.851L39.9971 67.8508C39.9329 67.828 39.8686 67.8074 39.8044 67.7869L39.8036 67.7866C39.7396 67.7662 39.6757 67.7458 39.6117 67.723C39.5048 67.6876 39.4035 67.6467 39.2992 67.6046L39.2972 67.6038C39.2678 67.5919 39.2381 67.5799 39.2079 67.568C39.1346 67.5406 39.059 67.511 38.9833 67.4814L38.9829 67.4812C38.9073 67.4516 38.8316 67.422 38.7583 67.3946C38.6486 67.3492 38.548 67.3037 38.4474 67.2583L38.4463 67.2578C38.2719 67.1848 38.0976 67.1027 37.9232 67.0206L37.703 66.9111L37.7028 66.911C37.501 66.8107 37.2992 66.7104 37.0974 66.601C37.079 66.5918 37.0583 66.5804 37.0376 66.569C37.017 66.5576 36.9964 66.5462 36.9781 66.5371C36.7395 66.4094 36.5101 66.2726 36.2899 66.1357C36.2899 66.1357 36.2807 66.1357 36.2715 66.1266C36.1889 66.0764 36.1063 66.024 36.0237 65.9715C35.9412 65.919 35.8585 65.8666 35.776 65.8164C35.7163 65.7754 35.6567 65.7366 35.597 65.6978C35.5374 65.6591 35.4777 65.6203 35.4181 65.5792L35.4178 65.579C35.3812 65.5517 35.3446 65.5244 35.308 65.5063C35.1612 65.4059 35.0235 65.3056 34.8859 65.2052C34.684 65.0592 34.4913 64.9042 34.2986 64.7491L34.2985 64.749L34.2984 64.7489L34.2983 64.7489L34.2982 64.7488L34.2981 64.7487L34.298 64.7487C34.1789 64.6485 34.0598 64.5482 33.9315 64.448L33.7388 64.2838C33.67 64.2245 33.6012 64.1629 33.5323 64.1014L33.5321 64.1011C33.4633 64.0396 33.3946 63.9781 33.3259 63.9189C33.314 63.9071 33.3011 63.8953 33.2879 63.8831C33.2604 63.8578 33.2314 63.8311 33.2066 63.8003L33.2059 63.7996C33.0593 63.663 32.9127 63.5264 32.7753 63.3807L32.757 63.3624L32.7294 63.3351C32.5184 63.1253 32.3165 62.9063 32.1238 62.6874C32.11 62.6737 32.0985 62.66 32.0871 62.6463L32.0866 62.6458C32.0753 62.6323 32.064 62.6188 32.0504 62.6053L32.0503 62.6052V62.6051V62.6051C31.8668 62.3953 31.6833 62.1856 31.509 61.9667L31.4264 61.8572C31.252 61.6383 31.0869 61.4193 30.9308 61.2004C30.926 61.1939 30.9211 61.1877 30.9163 61.1817L30.9056 61.1686L30.9055 61.1685C30.8871 61.146 30.8701 61.1252 30.8574 61.1C30.6739 60.8446 30.4996 60.5892 30.3252 60.3246C30.3252 60.3246 30.3252 60.3155 30.316 60.3064C30.2238 60.1624 30.1364 60.0184 30.0469 59.871L29.9774 59.7568L29.9398 59.6952C29.9352 59.686 29.9283 59.6746 29.9214 59.6632C29.9171 59.656 29.9127 59.6487 29.9089 59.642L29.9031 59.6313C29.793 59.4397 29.6829 59.239 29.5728 59.0383C29.5636 59.0247 29.5567 59.011 29.5499 58.9974C29.543 58.9836 29.5361 58.9699 29.5269 58.9562C29.4076 58.7373 29.2975 58.5092 29.1873 58.2812C29.1873 58.269 29.1792 58.2568 29.171 58.2446C29.167 58.2386 29.1629 58.2325 29.1598 58.2264C29.0925 58.0865 29.0334 57.9466 28.9742 57.8068C28.9447 57.7368 28.9151 57.6669 28.8845 57.597L28.8019 57.4054C28.7377 57.2594 28.6826 57.1043 28.6276 56.9493C28.599 56.8698 28.567 56.7904 28.5358 56.7132L28.5353 56.7121C28.5165 56.6655 28.498 56.6197 28.4808 56.5752C28.4762 56.557 28.4693 56.5387 28.4624 56.5205C28.4555 56.5022 28.4487 56.484 28.4441 56.4658C27.7742 54.55 27.4255 52.5157 27.4255 50.4357C27.4255 50.162 27.4255 49.8792 27.4438 49.6056C27.4438 49.5326 27.4438 49.4596 27.453 49.3866C27.4622 49.1859 27.4805 48.9852 27.4989 48.7845V48.6659C26.2876 51.576 25.682 54.6595 25.682 57.8524C25.682 71.1714 36.5835 81.9999 49.9718 81.9999C56.7348 81.9999 63.2408 79.1628 67.829 74.2183C71.8482 69.8851 74.0506 64.22 74.1974 57.8341C74.2983 53.282 73.3257 48.5473 71.3986 44.1503V44.132ZM28.5358 51.9409C28.5175 51.7859 28.5083 51.6308 28.4991 51.4666V51.4757C28.4899 51.3845 28.4808 51.2932 28.4808 51.202C28.4624 50.9375 28.4624 50.6729 28.4624 50.4083C28.4624 50.0252 28.4716 49.6512 28.4991 49.268C28.5083 49.195 28.5083 49.1312 28.5083 49.0582L28.5099 49.0353C28.5185 48.9051 28.5277 48.7678 28.545 48.6386C28.5542 48.5473 28.5634 48.4652 28.5725 48.3831C28.5904 48.2588 28.6082 48.1258 28.6261 47.9925L28.6262 47.9918L28.6276 47.9817C28.6322 47.9361 28.6391 47.8927 28.646 47.8493C28.6528 47.806 28.6597 47.7627 28.6643 47.7172C28.6791 47.6483 28.6913 47.5769 28.7037 47.5042C28.7143 47.442 28.725 47.3789 28.7377 47.3158C28.7467 47.2756 28.7534 47.2333 28.7602 47.191L28.7603 47.1897L28.7606 47.1883C28.7675 47.1449 28.7744 47.1015 28.7836 47.0604C28.7987 46.9803 28.8166 46.9029 28.8342 46.8268L28.8344 46.8256L28.8346 46.8249L28.8347 46.8245L28.8348 46.8242C28.8491 46.7625 28.8631 46.7016 28.8753 46.6407C28.8845 46.5997 28.8937 46.5609 28.9029 46.5221L28.9044 46.5158L28.9046 46.5148C28.9132 46.4785 28.9218 46.442 28.9304 46.4035L29.0405 45.9656C29.0497 45.9337 29.0588 45.8996 29.068 45.8654L29.0686 45.8632L29.0747 45.8405C29.0817 45.8147 29.0886 45.7892 29.0956 45.7649C29.1223 45.6694 29.1521 45.5738 29.1815 45.4801L29.1823 45.4773L29.1828 45.4755C29.2034 45.4097 29.2237 45.3448 29.2424 45.2814C29.2516 45.2495 29.2631 45.2153 29.2745 45.1811C29.286 45.1469 29.2975 45.1127 29.3066 45.0808C29.3066 45.0671 29.3112 45.0557 29.3158 45.0443L29.3163 45.0432L29.3185 45.0374C29.3194 45.0352 29.3202 45.0329 29.321 45.0306C29.3233 45.0235 29.325 45.0161 29.325 45.0078V44.9804C29.4965 44.4511 29.7389 43.9041 29.9739 43.3742L29.9857 43.3475C30.0683 43.1741 30.1508 42.9917 30.2243 42.8183C30.2701 42.718 30.316 42.6177 30.3711 42.5173V42.4991C33.3718 36.6697 39.3272 33.0481 45.9159 33.0481C46.6867 33.0481 47.4483 33.1575 48.1824 33.3582C49.2928 33.6593 50.3113 34.1793 51.2106 34.8999C51.2657 34.9456 51.3299 35.0003 51.3941 35.055C53.2936 36.6515 54.3856 38.996 54.3856 41.4682C54.3856 46.1116 50.5866 49.8884 45.9159 49.8884C44.6312 49.8884 43.4015 50.1347 42.2912 50.5999V50.5361L41.5938 50.9192L41.3277 51.0652C41.3207 51.0687 41.315 51.0721 41.3101 51.0751C41.3069 51.0771 41.3041 51.0788 41.3015 51.0802C41.2977 51.0822 41.2943 51.0834 41.291 51.0834C41.1441 51.1655 40.9882 51.2568 40.8413 51.348C40.823 51.3662 40.7954 51.3845 40.7679 51.4027L40.7249 51.431C40.6958 51.4499 40.6666 51.4686 40.6375 51.4872L40.6366 51.4878L40.6354 51.4886L40.6302 51.492C40.5384 51.5507 40.4467 51.6095 40.355 51.6764C40.332 51.6946 40.3114 51.7106 40.2907 51.7266C40.2701 51.7425 40.2494 51.7585 40.2265 51.7767C40.1072 51.8588 39.9971 51.9409 39.887 52.0322C39.8406 52.0725 39.7933 52.1129 39.7457 52.1535C39.6425 52.2415 39.5378 52.3308 39.4373 52.4244L39.4098 52.4518C39.3272 52.5248 39.2446 52.6069 39.162 52.689C39.0703 52.7802 38.9785 52.8714 38.8867 52.9718C38.8867 52.9809 38.8684 52.9992 38.8684 52.9992C38.8271 53.0448 38.7881 53.0904 38.7491 53.136C38.7101 53.1816 38.6711 53.2272 38.6298 53.2728L38.6214 53.2815L38.615 53.2885C38.61 53.294 38.6053 53.2995 38.6006 53.3049L38.5932 53.3138C38.5817 53.3275 38.5702 53.3412 38.5564 53.3549C38.4922 53.4279 38.4279 53.51 38.3729 53.583C38.3362 53.6286 38.3087 53.6651 38.2811 53.7016C38.2646 53.7246 38.2468 53.7477 38.2287 53.7712C38.1967 53.8127 38.1636 53.8557 38.1343 53.9023C38.0976 53.9479 38.0609 53.9935 38.0334 54.0391C38.015 54.0665 37.999 54.0916 37.9829 54.1167L37.9811 54.1194C37.9656 54.1436 37.9501 54.1678 37.9324 54.1942C37.8498 54.3219 37.7672 54.4588 37.6847 54.5956C37.6793 54.6036 37.6739 54.6124 37.6685 54.6215L37.6571 54.6414C37.6479 54.6573 37.6388 54.6732 37.6296 54.6868L37.6091 54.7241L37.5824 54.7739L37.5624 54.8114L37.5608 54.8146C37.5378 54.8579 37.5149 54.9012 37.4919 54.9423C37.4828 54.956 37.4759 54.9719 37.469 54.9879L37.4656 54.9957C37.4635 55.0005 37.4615 55.0052 37.4593 55.0098C37.4553 55.0181 37.451 55.0261 37.4461 55.0335L37.3084 55.3072L37.3067 55.312L37.305 55.3161C37.3036 55.3194 37.302 55.3226 37.3004 55.3257L37.2966 55.3327L37.2901 55.3437C37.2832 55.3551 37.2763 55.3665 37.2717 55.3802C37.2491 55.4297 37.2287 55.4792 37.2083 55.5287L37.2075 55.5307C37.1868 55.5809 37.1662 55.631 37.1432 55.6812C37.1341 55.6903 37.1341 55.6995 37.1341 55.7086C37.0423 55.9366 36.9506 56.1647 36.8771 56.4019C36.6385 57.1135 36.4917 57.8524 36.4367 58.6004C36.4183 58.8467 36.4091 59.0931 36.4091 59.3485V59.4671C36.4091 59.5309 36.4114 59.5948 36.4137 59.6587C36.416 59.7225 36.4183 59.7864 36.4183 59.8502L36.4208 59.8726C36.4291 59.9458 36.4367 60.0128 36.4367 60.0874L36.4642 60.3611C36.4642 60.4173 36.4728 60.4778 36.4811 60.5367C36.485 60.5638 36.4888 60.5906 36.4917 60.6165C36.4963 60.6576 36.5032 60.6964 36.51 60.7351C36.5169 60.7739 36.5238 60.8127 36.5284 60.8537C36.5376 60.9446 36.5558 61.0356 36.5741 61.1265L36.5743 61.1274C36.5835 61.1639 36.5904 61.1981 36.5973 61.2323C36.6042 61.2665 36.611 61.3007 36.6202 61.3372C36.6385 61.4376 36.6569 61.5379 36.6844 61.6291C36.6936 61.6565 36.7005 61.6839 36.7074 61.7112C36.7143 61.7386 36.7211 61.766 36.7303 61.7933C36.7441 61.8435 36.7578 61.896 36.7716 61.9484C36.7854 62.0009 36.7991 62.0533 36.8129 62.1035L36.8188 62.1145L36.8189 62.1147L36.819 62.1148V62.1148L36.8191 62.1149C36.8284 62.1322 36.8404 62.1544 36.8404 62.1765C36.9138 62.441 37.0148 62.6965 37.1157 62.9519C37.2258 63.2347 37.3543 63.4993 37.4919 63.7638C37.5011 63.7729 37.5103 63.7821 37.5103 63.7912C37.5269 63.8217 37.5434 63.8529 37.5601 63.8843C37.6082 63.9749 37.6577 64.068 37.7122 64.1561C37.7214 64.1652 37.7305 64.1743 37.7305 64.1835C38.2995 65.1413 39.0336 65.9806 39.8961 66.6831C33.9132 64.4754 29.4535 59.0839 28.6092 52.6251C28.6046 52.575 28.5978 52.5271 28.5909 52.4792C28.584 52.4313 28.5771 52.3834 28.5725 52.3332C28.568 52.2694 28.5611 52.2032 28.5542 52.1371C28.5473 52.0709 28.5404 52.0048 28.5358 51.9409ZM40.7037 52.7164C40.6394 52.762 40.5752 52.8076 40.5201 52.8623L40.2999 53.0539C40.2173 53.1269 40.1347 53.1999 40.0613 53.2728C40.0338 53.3002 40.004 53.3276 39.9742 53.3549C39.9443 53.3823 39.9145 53.4097 39.887 53.4371C39.7493 53.5739 39.6209 53.7107 39.4924 53.8567C39.4924 53.8567 39.4741 53.8749 39.4741 53.8841C39.41 53.9568 39.3551 54.0296 39.3002 54.1023L39.2997 54.103C39.2767 54.1304 39.2538 54.16 39.2308 54.1897C39.2079 54.2193 39.185 54.249 39.162 54.2763C39.1554 54.2863 39.1487 54.2951 39.142 54.3035L39.1345 54.3128C39.1285 54.3203 39.1225 54.3278 39.1165 54.3359L39.1128 54.3411L39.107 54.3493C38.584 55.0609 38.171 55.8545 37.8865 56.7121C37.6755 57.3415 37.547 57.9983 37.4919 58.6643C37.4736 58.8832 37.4644 59.1113 37.4644 59.3303C37.4644 63.18 40.0154 66.4094 43.5759 67.422H43.5942C43.6606 67.4423 43.7298 67.4598 43.8003 67.4776C43.8565 67.4918 43.9135 67.5062 43.9705 67.5223C43.9888 67.5223 44.0164 67.5223 44.0347 67.5315C44.0898 67.5451 44.1472 67.5566 44.2045 67.568L44.2049 67.568C44.2621 67.5794 44.3193 67.5908 44.3742 67.6044C44.4046 67.6044 44.4287 67.6107 44.457 67.618L44.4752 67.6227L44.4754 67.6227C44.5763 67.641 44.6771 67.6592 44.7872 67.6683C44.8264 67.6683 44.8589 67.675 44.8961 67.6826L44.9156 67.6865C44.9615 67.6911 45.0097 67.6957 45.0579 67.7002L45.132 67.7073L45.2001 67.7139C45.2552 67.7139 45.301 67.7139 45.3561 67.723C45.4078 67.723 45.4594 67.7278 45.5099 67.7325C45.558 67.7369 45.6049 67.7413 45.6497 67.7413H45.6773H45.9434H45.9709H46.0076H46.1911C46.3288 67.7413 46.4756 67.7322 46.6132 67.723C46.7234 67.723 46.8243 67.723 46.9344 67.7139C47.2005 67.6957 47.4666 67.6774 47.7328 67.6501C47.7832 67.6455 47.8314 67.6387 47.8796 67.6318L47.8799 67.6318C47.928 67.6249 47.976 67.6181 48.0264 67.6136C48.2008 67.5953 48.3751 67.5771 48.5495 67.5497C48.6046 67.5406 48.6621 67.5314 48.7195 67.5223L48.7969 67.51L48.889 67.495L49.357 67.4129C49.467 67.3946 49.577 67.3673 49.687 67.34L49.6873 67.3399C49.8515 67.3036 50.0066 67.2674 50.1616 67.2311L50.1623 67.2309L50.1631 67.2308L50.1638 67.2306L50.1645 67.2304C50.215 67.2167 50.2655 67.2053 50.3159 67.1939L50.3164 67.1938C50.3667 67.1825 50.417 67.1711 50.4673 67.1574C50.6508 67.1118 50.8344 67.0571 51.0087 67.0023C51.0454 66.9932 51.0822 66.9818 51.1188 66.9704C51.1555 66.959 51.1923 66.9476 51.229 66.9385C53.3946 66.2634 55.395 65.1778 57.1294 63.7456C57.1237 63.7456 57.1181 63.749 57.1103 63.7538L57.1102 63.7539C57.1053 63.7569 57.0997 63.7603 57.0926 63.7638C55.9731 64.2656 54.771 64.594 53.523 64.7217C53.1376 64.7582 52.7522 64.7764 52.3668 64.7764C46.0535 64.7764 40.9147 59.6678 40.9147 53.3914C40.9147 53.0995 40.9239 52.8167 40.9514 52.5248C40.9102 52.5522 40.8712 52.5818 40.8322 52.6115C40.7931 52.6411 40.7541 52.6708 40.7129 52.6981L40.7037 52.7164ZM14.7162 75.2674L22.2133 59.613H22.2225C22.6813 66.7287 25.9022 73.4247 31.2245 78.2596L29.4351 81.9817H18.9832C15.5054 81.9817 13.2205 78.3874 14.7162 75.2674ZM77.7395 59.613C77.2623 67.1118 73.7569 74.0632 67.9391 78.953L69.389 81.9817H80.9695C84.4382 81.9817 86.7323 78.3782 85.2366 75.2674L77.7395 59.613ZM41.502 26.3065C42.4931 26.717 43.1262 27.7569 42.9886 28.7148V28.7057C42.8601 29.5815 42.1352 30.1379 40.9514 30.2657C38.4738 30.5302 36.4917 31.6067 35.051 32.7288L36.8496 28.9703C37.3635 27.9029 38.6298 26.2152 40.2724 26.0966C40.6578 26.0693 41.0707 26.124 41.502 26.3065Z" fill="url(#paint0_linear_2513_627)"/>
<defs>
<linearGradient id="paint0_linear_2513_627" x1="46.3632" y1="81.9999" x2="61.0847" y2="9.41512" gradientUnits="userSpaceOnUse">
<stop stop-color="#FA00FF"/>
<stop offset="1" stop-color="#0066FF"/>
</linearGradient>
</defs>
</svg>
