<svg width="100" height="100" viewBox="0 0 100 100" fill="none" xmlns="http://www.w3.org/2000/svg">
<g clip-path="url(#clip0_29_36)">
<path d="M50 100C77.6142 100 100 77.6142 100 50C100 22.3858 77.6142 0 50 0C22.3858 0 0 22.3858 0 50C0 77.6142 22.3858 100 50 100Z" fill="#593593"/>
<path d="M50 97C75.4051 97 96 75.9574 96 50C96 24.0426 75.4051 3 50 3C24.5949 3 4 24.0426 4 50C4 75.9574 24.5949 97 50 97Z" fill="#593593"/>
<path d="M50.0086 9.35195C57.8781 9.34675 65.5723 11.7263 72.1179 16.1896C78.6636 20.6529 83.7668 26.9994 86.7818 34.4264C89.7968 41.8534 90.5884 50.0272 89.0562 57.9139C87.5241 65.8006 83.7371 73.0458 78.1744 78.7332C72.6116 84.4206 65.523 88.2945 57.8051 89.8651C50.0872 91.4356 42.0868 90.6322 34.8159 87.5564C27.545 84.4806 21.3302 79.2707 16.9576 72.5856C12.585 65.9005 10.2511 58.0405 10.2511 50C10.2625 39.2238 14.4569 28.8922 21.9144 21.2718C29.3718 13.6515 39.4831 9.36471 50.03 9.35195M50.03 3.00001C40.9308 2.99394 32.0342 5.74529 24.4656 10.906C16.897 16.0668 10.9964 23.405 7.51018 31.9926C4.02395 40.5802 3.10871 50.0313 4.88024 59.1504C6.65177 68.2696 11.0305 76.647 17.4625 83.2232C23.8945 89.7993 32.0909 94.2786 41.0148 96.0946C49.9388 97.9106 59.1894 96.9817 67.5965 93.4253C76.0037 89.8688 83.1896 83.8447 88.2455 76.115C93.3014 68.3852 96 59.297 96 50C96 37.5363 91.1548 25.583 82.53 16.7691C73.9051 7.95513 62.2071 3.00233 50.0086 3.00001H50.03Z" fill="white"/>
<mask id="mask0_29_36" style="mask-type:luminance" maskUnits="userSpaceOnUse" x="3" y="3" width="94" height="94">
<path d="M50.0113 96.8064C75.546 96.8064 96.2459 75.8995 96.2459 50.1095C96.2459 24.3195 75.546 3.41257 50.0113 3.41257C24.4767 3.41257 3.77673 24.3195 3.77673 50.1095C3.77673 75.8995 24.4767 96.8064 50.0113 96.8064Z" fill="white"/>
</mask>
<g mask="url(#mask0_29_36)">
<path d="M47.0635 88.127C47.0626 87.8315 46.9813 87.542 46.8284 87.2901C46.6755 87.0382 46.4569 86.8336 46.1966 86.6988C45.9363 86.5639 45.6442 86.504 45.3525 86.5256C45.0607 86.5472 44.7804 86.6494 44.5423 86.8211L40.112 90.0248C38.9009 90.8954 37.6899 91.7659 36.4832 92.6626C36.3065 92.7932 36.2332 92.7497 36.1341 92.5277C35.3152 90.7401 34.4907 88.954 33.6603 87.1694C33.5655 86.9648 33.5784 86.8647 33.7508 86.7341C35.9861 85.1235 38.2229 83.5072 40.461 81.885C40.836 81.6152 41.5083 81.1233 42.3271 80.5183C44.5646 78.8729 47.2609 77.9865 50.0286 77.9865C52.7963 77.9865 55.4926 78.8729 57.7301 80.5183L66.2159 86.7515L66.4184 86.9212C66.4184 86.9212 64.6256 90.8388 63.7119 92.7975L55.4373 86.8124C55.1992 86.6395 54.9185 86.5363 54.626 86.514C54.3336 86.4918 54.0408 86.5515 53.7797 86.6864C53.5187 86.8214 53.2996 87.0265 53.1464 87.2791C52.9933 87.5317 52.9121 87.8221 52.9118 88.1183V99.1091H51.4206C50.0674 99.1091 48.7098 99.1091 47.3566 99.1091C47.1152 99.1091 47.0808 99.0133 47.0808 98.7478C47.0808 96.3625 47.0808 93.9771 47.0808 91.5918C47.0721 90.6951 47.0678 89.3588 47.0635 88.127Z" fill="white"/>
<path d="M50.0114 52.2685C50.6017 52.2685 51.0802 51.7852 51.0802 51.189C51.0802 50.5928 50.6017 50.1095 50.0114 50.1095C49.4211 50.1095 48.9426 50.5928 48.9426 51.189C48.9426 51.7852 49.4211 52.2685 50.0114 52.2685Z" fill="white"/>
<path d="M18.8865 28.5283C19.1401 28.6715 19.4276 28.742 19.718 28.7322C20.0083 28.7224 20.2905 28.6327 20.534 28.4727C20.7776 28.3128 20.9732 28.0887 21.0999 27.8246C21.2265 27.5605 21.2793 27.2665 21.2526 26.9743L20.7354 21.4942C20.5846 19.9968 20.4424 18.5038 20.3044 17.0064C20.2829 16.7801 20.3562 16.7409 20.5932 16.767C22.5412 16.9455 24.4719 17.1152 26.4242 17.2806C26.6483 17.2806 26.7302 17.359 26.7518 17.5766C27.0103 20.3407 27.2862 23.1047 27.5534 25.847C27.5965 26.3084 27.6827 27.1528 27.7904 28.1627C28.0885 30.9448 27.5041 33.7507 26.1215 36.1759C24.7389 38.601 22.6296 40.52 20.0976 41.6564L10.4783 45.9656L10.2326 46.0614L6.54784 40.7553L15.818 36.5113C16.0846 36.3885 16.3127 36.1941 16.4773 35.9492C16.6419 35.7044 16.7368 35.4185 16.7514 35.1229C16.7661 34.8274 16.7001 34.5334 16.5605 34.2731C16.421 34.0129 16.2134 33.7963 15.9603 33.6472L6.53491 28.1583L7.28911 26.8525C7.97005 25.6685 8.65529 24.4889 9.31468 23.2919C9.43535 23.0829 9.53447 23.1003 9.74565 23.2353L15.8784 26.8176L18.8865 28.5283Z" fill="white"/>
<path d="M49.0847 50.6536C49.675 50.6536 50.1535 50.1703 50.1535 49.5742C50.1535 48.978 49.675 48.4947 49.0847 48.4947C48.4945 48.4947 48.0159 48.978 48.0159 49.5742C48.0159 50.1703 48.4945 50.6536 49.0847 50.6536Z" fill="white"/>
<path d="M84.0753 33.682C83.8222 33.8309 83.6146 34.0473 83.4752 34.3075C83.3358 34.5677 83.2701 34.8616 83.2853 35.157C83.3004 35.4525 83.3958 35.738 83.561 35.9823C83.7262 36.2265 83.9549 36.4201 84.2219 36.5418C85.9027 37.3123 87.9455 38.2481 89.1867 38.8096C90.5442 39.4321 91.8975 40.0545 93.2593 40.6683C93.4619 40.7597 93.4576 40.8424 93.3197 41.0426C92.1905 42.6532 91.0714 44.2666 89.9624 45.8829C89.8331 46.0701 89.7426 46.1093 89.5314 46.0179C87.0275 44.8644 84.5235 43.724 82.0153 42.5748C81.5843 42.3833 80.8387 42.0394 79.9122 41.6259C77.3847 40.491 75.2786 38.576 73.8964 36.1562C72.5141 33.7364 71.927 30.9363 72.2193 28.1583L73.3226 17.6202L73.3657 17.3546L79.757 16.7844C79.4252 20.2014 79.0933 23.6009 78.7615 27.0179C78.7264 27.3162 78.7746 27.6185 78.9006 27.8906C79.0267 28.1627 79.2256 28.3937 79.4749 28.5576C79.7241 28.7215 80.0138 28.8118 80.3112 28.8181C80.6086 28.8245 80.9018 28.7467 81.1577 28.5936L90.5959 23.0916C90.8545 23.5269 91.1045 23.9622 91.3501 24.3975C92.0268 25.5814 92.6948 26.7741 93.3886 27.9494C93.5093 28.1583 93.4403 28.2367 93.2162 28.3847C91.1648 29.5744 89.1177 30.7656 87.0749 31.9583L84.0753 33.682Z" fill="white"/>
<path d="M50.9337 50.6536C51.524 50.6536 52.0025 50.1703 52.0025 49.5742C52.0025 48.978 51.524 48.4947 50.9337 48.4947C50.3434 48.4947 49.8649 48.978 49.8649 49.5742C49.8649 50.1703 50.3434 50.6536 50.9337 50.6536Z" fill="white"/>
<path d="M47.0635 88.127C47.0626 87.8315 46.9813 87.542 46.8284 87.2901C46.6755 87.0382 46.4569 86.8336 46.1966 86.6988C45.9363 86.5639 45.6442 86.504 45.3525 86.5256C45.0607 86.5472 44.7804 86.6494 44.5423 86.8211L40.112 90.0248C38.9009 90.8954 37.6899 91.7659 36.4832 92.6626C36.3065 92.7932 36.2332 92.7497 36.1341 92.5277C35.3152 90.7401 34.4907 88.954 33.6603 87.1694C33.5655 86.9648 33.5784 86.8647 33.7508 86.7341C35.9861 85.1235 38.2229 83.5072 40.461 81.885C40.836 81.6152 41.5083 81.1233 42.3271 80.5183C44.5646 78.8729 47.2609 77.9865 50.0286 77.9865C52.7963 77.9865 55.4926 78.8729 57.7301 80.5183L66.2159 86.7515L66.4184 86.9212C66.4184 86.9212 64.6256 90.8388 63.7119 92.7975L55.4373 86.8124C55.1992 86.6395 54.9185 86.5363 54.626 86.514C54.3336 86.4918 54.0408 86.5515 53.7797 86.6864C53.5187 86.8214 53.2996 87.0265 53.1464 87.2791C52.9933 87.5317 52.9121 87.8221 52.9118 88.1183V99.1091H51.4206C50.0674 99.1091 48.7098 99.1091 47.3566 99.1091C47.1152 99.1091 47.0808 99.0133 47.0808 98.7478C47.0808 96.3625 47.0808 93.9771 47.0808 91.5918C47.0721 90.6951 47.0678 89.3588 47.0635 88.127Z" fill="white"/>
<path d="M50.0114 52.2685C50.6017 52.2685 51.0802 51.7852 51.0802 51.189C51.0802 50.5928 50.6017 50.1095 50.0114 50.1095C49.4211 50.1095 48.9426 50.5928 48.9426 51.189C48.9426 51.7852 49.4211 52.2685 50.0114 52.2685Z" fill="white"/>
</g>
<mask id="mask1_29_36" style="mask-type:luminance" maskUnits="userSpaceOnUse" x="3" y="3" width="94" height="94">
<path d="M50.0113 96.8064C75.546 96.8064 96.2459 75.8995 96.2459 50.1095C96.2459 24.3195 75.546 3.41257 50.0113 3.41257C24.4767 3.41257 3.77673 24.3195 3.77673 50.1095C3.77673 75.8995 24.4767 96.8064 50.0113 96.8064Z" fill="white"/>
</mask>
<g mask="url(#mask1_29_36)">
<path d="M50.0114 52.2685C50.6017 52.2685 51.0802 51.7852 51.0802 51.189C51.0802 50.5928 50.6017 50.1095 50.0114 50.1095C49.4211 50.1095 48.9426 50.5928 48.9426 51.189C48.9426 51.7852 49.4211 52.2685 50.0114 52.2685Z" fill="white"/>
<path d="M14.0252 32.5111L6.53491 28.1583L7.28911 26.8524C7.97005 25.6685 8.65529 24.4889 9.31468 23.2919C9.43535 23.0829 9.53447 23.1003 9.74565 23.2353L15.8784 26.8176L16.9429 27.4053" fill="#593593"/>
<path d="M49.0847 50.6536C49.675 50.6536 50.1535 50.1703 50.1535 49.5741C50.1535 48.9779 49.675 48.4946 49.0847 48.4946C48.4945 48.4946 48.0159 48.9779 48.0159 49.5741C48.0159 50.1703 48.4945 50.6536 49.0847 50.6536Z" fill="white"/>
<path d="M83.097 27.4357L90.583 23.0829C90.8415 23.5182 91.0915 23.9535 91.3371 24.3888C92.0138 25.5727 92.6818 26.7654 93.3756 27.9407C93.4963 28.1496 93.4274 28.2279 93.2033 28.3759C91.1518 29.5657 89.1047 30.7569 87.0619 31.9496L86.0103 32.5633" fill="#593593"/>
<path d="M50.9337 50.6536C51.524 50.6536 52.0025 50.1703 52.0025 49.5741C52.0025 48.9779 51.524 48.4946 50.9337 48.4946C50.3434 48.4946 49.8649 48.9779 49.8649 49.5741C49.8649 50.1703 50.3434 50.6536 50.9337 50.6536Z" fill="white"/>
<path d="M52.9118 90.3555V99.109H51.4206C50.0674 99.109 48.7098 99.109 47.3566 99.109C47.1152 99.109 47.0807 99.0133 47.0807 98.7478C47.0807 96.3624 47.0807 93.9771 47.0807 91.5917C47.0807 91.2305 47.0807 90.7995 47.0807 90.3381" fill="#593593"/>
<path d="M50.0114 52.2685C50.6017 52.2685 51.0802 51.7852 51.0802 51.189C51.0802 50.5928 50.6017 50.1095 50.0114 50.1095C49.4211 50.1095 48.9426 50.5928 48.9426 51.189C48.9426 51.7852 49.4211 52.2685 50.0114 52.2685Z" fill="white"/>
</g>
<path d="M50 97C75.4051 97 96 75.9574 96 50C96 24.0426 75.4051 3 50 3C24.5949 3 4 24.0426 4 50C4 75.9574 24.5949 97 50 97Z" stroke="#593593" stroke-width="0.75" stroke-miterlimit="10"/>
<path d="M50 78C65.464 78 78 65.464 78 50C78 34.536 65.464 22 50 22C34.536 22 22 34.536 22 50C22 65.464 34.536 78 50 78Z" fill="#593593"/>
<path d="M64.838 40.3427H60.058C59.7831 40.3421 59.5114 40.2836 59.2608 40.171C59.0103 40.0583 58.7866 39.8941 58.6045 39.6891L56.6679 37.5178C56.5263 37.3553 56.3512 37.2249 56.1545 37.1356C55.9579 37.0462 55.7442 37 55.528 37C55.3118 37 55.0981 37.0462 54.9014 37.1356C54.7047 37.2249 54.5297 37.3553 54.3881 37.5178L52.7227 39.3729C52.4555 39.6702 52.1293 39.9091 51.7646 40.0746C51.3999 40.2401 51.0046 40.3285 50.6039 40.3342H24.4281C23.6645 42.4854 23.1845 44.726 23 47H47.6884C47.9035 47.0003 48.1165 46.9567 48.314 46.8719C48.5115 46.787 48.6895 46.6627 48.8368 46.5067L51.1378 44.1203C51.2778 43.9713 51.4471 43.8525 51.6351 43.7712C51.8232 43.69 52.0261 43.6481 52.2311 43.6481H52.3201C52.5352 43.6489 52.7478 43.6951 52.9436 43.7838C53.1394 43.8725 53.314 44.0016 53.4558 44.1625L55.3966 46.3381C55.5787 46.543 55.8024 46.7072 56.0529 46.8199C56.3035 46.9325 56.5752 46.991 56.8501 46.9916H77C76.8109 44.7204 76.3339 42.4821 75.5804 40.33H64.8296L64.838 40.3427Z" fill="white"/>
<path d="M37.7671 62.9862C37.985 62.9855 38.2006 62.9374 38.4006 62.845C38.6007 62.7525 38.7812 62.6175 38.9311 62.4482L41.2634 59.8453C41.4073 59.6829 41.5804 59.5535 41.7724 59.465C41.9644 59.3764 42.1712 59.3306 42.3802 59.3303H42.4747C42.692 59.3305 42.9069 59.3798 43.1052 59.4748C43.3036 59.5699 43.481 59.7087 43.6258 59.8821L45.5931 62.2504C45.7771 62.4747 46.0037 62.6542 46.2578 62.7772C46.5119 62.9001 46.7875 62.9635 47.0663 62.9632H74.7536C75.8031 60.6278 76.5585 58.1536 77 55.6054H50.4209C50.1427 55.6045 49.8678 55.541 49.614 55.419C49.3602 55.297 49.1331 55.1192 48.9477 54.8972L46.9847 52.5473C46.8395 52.3734 46.6613 52.2347 46.4621 52.1404C46.2629 52.046 46.0472 51.9982 45.8293 52.0001C45.6124 52.0003 45.3979 52.0491 45.1997 52.1433C45.0014 52.2375 44.8238 52.3752 44.6782 52.5473L42.9858 54.5891C42.7138 54.9217 42.3782 55.1879 42.0018 55.3696C41.6253 55.5513 41.2168 55.6442 40.8038 55.6422H23C23.4415 58.1904 24.1969 60.6646 25.2464 63H37.7671V62.9862Z" fill="white"/>
<path d="M57.4194 33C57.6375 32.9988 57.8532 32.9536 58.0535 32.867C58.2537 32.7804 58.4345 32.6542 58.585 32.496L60.9161 30.0533C61.0613 29.9018 61.2356 29.7813 61.4286 29.6991C61.6215 29.6169 61.8291 29.5747 62.0387 29.5751H62.129C62.348 29.5758 62.5644 29.6229 62.7638 29.7135C62.9633 29.8041 63.1412 29.9361 63.286 30.1007L65.2516 32.3366C65.4373 32.5445 65.6647 32.7111 65.9188 32.8254C66.173 32.9397 66.4483 32.9992 66.7269 33H72C69.4351 29.5839 66.1125 26.8118 62.2944 24.9028C58.4763 22.9938 54.2674 22 50 22C45.7326 22 41.5237 22.9938 37.7056 24.9028C33.8875 26.8118 30.5649 29.5839 28 33H57.4194Z" fill="white"/>
<path d="M46.8277 69.3553H39.6665C39.3896 69.3545 39.1159 69.2959 38.8633 69.1832C38.6107 69.0705 38.3847 68.9063 38.2001 68.7013L36.2463 66.5097C36.1019 66.3486 35.9247 66.2198 35.7264 66.1319C35.5282 66.044 35.3133 65.9991 35.0962 66C34.88 66.0007 34.6663 66.0465 34.4689 66.1343C34.2716 66.222 34.095 66.3499 33.9504 66.5097L32.2659 68.3955C31.9943 68.7016 31.6601 68.9467 31.2856 69.1144C30.9111 69.2821 30.5049 69.3686 30.0941 69.3681H30C32.56 72.092 35.6565 74.2639 39.097 75.7488C42.5376 77.2337 46.2488 78 50 78C53.7512 78 57.4624 77.2337 60.903 75.7488C64.3435 74.2639 67.44 72.092 70 69.3681H46.8491L46.8277 69.3553Z" fill="white"/>
</g>
<defs>
<clipPath id="clip0_29_36">
<rect width="100" height="100" fill="white"/>
</clipPath>
</defs>
</svg>
