<?xml version="1.0" encoding="UTF-8"?>
<!DOCTYPE svg PUBLIC "-//W3C//DTD SVG 1.1//EN" "http://www.w3.org/Graphics/SVG/1.1/DTD/svg11.dtd">
<svg xmlns="http://www.w3.org/2000/svg" version="1.1" width="100px" height="100px" style="shape-rendering:geometricPrecision; text-rendering:geometricPrecision; image-rendering:optimizeQuality; fill-rule:evenodd; clip-rule:evenodd" xmlns:xlink="http://www.w3.org/1999/xlink">
<g><path style="opacity:0.825" fill="#80c3f8" d="M 53.5,9.5 C 48.5657,15.6083 43.399,21.6083 38,27.5C 36.549,29.4641 34.7157,30.7974 32.5,31.5C 36.1336,23.5678 40.3003,15.9011 45,8.5C 48.2583,5.6541 51.0917,5.98744 53.5,9.5 Z"/></g>
<g><path style="opacity:0.926" fill="#73bdfa" d="M 53.5,9.5 C 54.6737,10.5137 55.3404,11.847 55.5,13.5C 50.8655,19.4692 45.8655,25.1359 40.5,30.5C 39.5084,30.3284 38.8417,30.6618 38.5,31.5C 35.1847,33.8081 31.8514,36.1414 28.5,38.5C 29.0787,35.6689 30.412,33.3356 32.5,31.5C 34.7157,30.7974 36.549,29.4641 38,27.5C 43.399,21.6083 48.5657,15.6083 53.5,9.5 Z"/></g>
<g><path style="opacity:0.915" fill="#64b7fb" d="M 55.5,13.5 C 57.7349,16.2911 59.7349,19.2911 61.5,22.5C 58.1667,23.8333 55.8333,26.1667 54.5,29.5C 52.5,29.5 50.5,29.5 48.5,29.5C 48.5,31.1667 48.5,32.8333 48.5,34.5C 46.1898,35.325 44.1898,36.6583 42.5,38.5C 43.0356,35.3019 42.369,32.6353 40.5,30.5C 45.8655,25.1359 50.8655,19.4692 55.5,13.5 Z"/></g>
<g><path style="opacity:0.899" fill="#50b0fd" d="M 61.5,22.5 C 62.7347,25.3013 64.2347,27.9679 66,30.5C 66.765,32.0657 66.5983,33.3991 65.5,34.5C 62.3676,31.8899 58.701,30.2233 54.5,29.5C 55.8333,26.1667 58.1667,23.8333 61.5,22.5 Z"/></g>
<g><path style="opacity:0.756" fill="#79bff8" d="M 54.5,29.5 C 58.701,30.2233 62.3676,31.8899 65.5,34.5C 59.8333,34.5 54.1667,34.5 48.5,34.5C 48.5,32.8333 48.5,31.1667 48.5,29.5C 50.5,29.5 52.5,29.5 54.5,29.5 Z"/></g>
<g><path style="opacity:0.97" fill="#4eaffc" d="M 38.5,31.5 C 38.88,42.6533 38.88,53.9866 38.5,65.5C 35.3023,66.7 31.969,66.7 28.5,65.5C 28.2953,57.1329 28.6287,48.7996 29.5,40.5C 28.5,40.5 27.5,40.5 26.5,40.5C 26.8333,39.5 27.5,38.8333 28.5,38.5C 31.8514,36.1414 35.1847,33.8081 38.5,31.5 Z"/></g>
<g><path style="opacity:0.906" fill="#40a9fe" d="M 26.5,40.5 C 27.5,40.5 28.5,40.5 29.5,40.5C 28.6287,48.7996 28.2953,57.1329 28.5,65.5C 23.0376,64.1968 20.3709,60.6968 20.5,55C 21.2731,49.6253 23.2731,44.7919 26.5,40.5 Z"/></g>
<g><path style="opacity:0.903" fill="#5eb5fb" d="M 38.5,31.5 C 38.8417,30.6618 39.5084,30.3284 40.5,30.5C 42.369,32.6353 43.0356,35.3019 42.5,38.5C 42.6596,40.153 43.3263,41.4863 44.5,42.5C 44.2256,50.0286 44.2256,57.3619 44.5,64.5C 42.7354,65.4614 40.7354,65.7947 38.5,65.5C 38.88,53.9866 38.88,42.6533 38.5,31.5 Z"/></g>
<g><path style="opacity:0.956" fill="#77bff9" d="M 56.5,41.5 C 56.2269,48.5036 55.8936,55.5036 55.5,62.5C 58.5533,62.1107 61.22,62.7773 63.5,64.5C 61.8008,64.3398 60.1341,64.5065 58.5,65C 50.6316,73.0358 42.6316,80.8691 34.5,88.5C 32.1475,87.6597 30.1475,86.3264 28.5,84.5C 33.1053,81.5643 37.1053,77.8976 40.5,73.5C 45.6201,73.5235 49.7868,71.5235 53,67.5C 53.8469,64.5096 52.6802,63.1762 49.5,63.5C 49.5,56.5 49.5,49.5 49.5,42.5C 51.7638,41.7814 54.0971,41.448 56.5,41.5 Z"/></g>
<g><path style="opacity:0.962" fill="#85c4f7" d="M 56.5,41.5 C 59.7814,41.4203 62.7814,42.087 65.5,43.5C 65.5,50.5 65.5,57.5 65.5,64.5C 64.8333,64.5 64.1667,64.5 63.5,64.5C 61.22,62.7773 58.5533,62.1107 55.5,62.5C 55.8936,55.5036 56.2269,48.5036 56.5,41.5 Z"/></g>
<g><path style="opacity:0.912" fill="#68b9fa" d="M 44.5,42.5 C 46.1667,42.5 47.8333,42.5 49.5,42.5C 49.5,49.5 49.5,56.5 49.5,63.5C 47.9582,64.3007 46.2915,64.634 44.5,64.5C 44.2256,57.3619 44.2256,50.0286 44.5,42.5 Z"/></g>
<g><path style="opacity:0.949" fill="#9bcdf7" d="M 65.5,43.5 C 68.7541,43.7936 71.4208,45.127 73.5,47.5C 73.1667,55.5 72.8333,63.5 72.5,71.5C 72.1667,71.5 71.8333,71.5 71.5,71.5C 71.2624,69.5956 70.2624,68.2623 68.5,67.5C 68.0269,66.0937 67.0269,65.427 65.5,65.5C 65.5,65.1667 65.5,64.8333 65.5,64.5C 65.5,57.5 65.5,50.5 65.5,43.5 Z"/></g>
<g><path style="opacity:0.884" fill="#a5d2f7" d="M 73.5,47.5 C 79.9792,55.6601 81.1459,64.6601 77,74.5C 75.3572,77.9614 73.1905,80.9614 70.5,83.5C 72.0017,79.6575 72.6684,75.6575 72.5,71.5C 72.8333,63.5 73.1667,55.5 73.5,47.5 Z"/></g>
<g><path style="opacity:0.98" fill="#69b9fa" d="M 63.5,64.5 C 64.1667,64.5 64.8333,64.5 65.5,64.5C 65.5,64.8333 65.5,65.1667 65.5,65.5C 56.2196,73.4439 47.2196,81.7772 38.5,90.5C 36.847,90.3404 35.5137,89.6737 34.5,88.5C 42.6316,80.8691 50.6316,73.0358 58.5,65C 60.1341,64.5065 61.8008,64.3398 63.5,64.5 Z"/></g>
<g><path style="opacity:0.962" fill="#5cb4fb" d="M 65.5,65.5 C 67.0269,65.427 68.0269,66.0937 68.5,67.5C 59.7776,75.2208 51.7776,83.5541 44.5,92.5C 42.2143,92.405 40.2143,91.7384 38.5,90.5C 47.2196,81.7772 56.2196,73.4439 65.5,65.5 Z"/></g>
<g><path style="opacity:0.97" fill="#51b0fc" d="M 68.5,67.5 C 70.2624,68.2623 71.2624,69.5956 71.5,71.5C 70.7611,71.369 70.0944,71.5357 69.5,72C 62.5716,78.4228 56.2383,85.2562 50.5,92.5C 48.6907,93.2907 46.6907,93.2907 44.5,92.5C 51.7776,83.5541 59.7776,75.2208 68.5,67.5 Z"/></g>
<g><path style="opacity:0.708" fill="#a0d0f7" d="M 29.5,73.5 C 28.0792,76.3431 26.0792,77.6764 23.5,77.5C 21.5946,75.951 21.2613,74.1176 22.5,72C 25.1394,71.4119 27.4727,71.9119 29.5,73.5 Z"/></g>
<g><path style="opacity:0.863" fill="#8cc8f8" d="M 29.5,73.5 C 33.1667,73.5 36.8333,73.5 40.5,73.5C 37.1053,77.8976 33.1053,81.5643 28.5,84.5C 26.1,82.7036 24.4333,80.3702 23.5,77.5C 26.0792,77.6764 28.0792,76.3431 29.5,73.5 Z"/></g>
<g><path style="opacity:0.907" fill="#45abfe" d="M 71.5,71.5 C 71.8333,71.5 72.1667,71.5 72.5,71.5C 72.6684,75.6575 72.0017,79.6575 70.5,83.5C 65.3759,89.7254 58.7093,92.7254 50.5,92.5C 56.2383,85.2562 62.5716,78.4228 69.5,72C 70.0944,71.5357 70.7611,71.369 71.5,71.5 Z"/></g>
</svg>
