<svg width="100" height="100" viewBox="0 0 100 100" fill="none" xmlns="http://www.w3.org/2000/svg">
<g clip-path="url(#clip0_10_22)">
<path d="M50 100C77.6142 100 100 77.6142 100 50C100 22.3858 77.6142 0 50 0C22.3858 0 0 22.3858 0 50C0 77.6142 22.3858 100 50 100Z" fill="#593695"/>
<path fill-rule="evenodd" clip-rule="evenodd" d="M46.7929 12.1892C39.4778 12.9776 32.6414 15.7717 27.0045 20.277C24.4136 22.3477 20.5911 26.3736 20.696 26.921C20.7518 27.2115 60.2797 27.3692 61.2686 27.0827C61.6753 26.9648 62.2569 26.4587 63.7333 24.9372C66.8753 21.6998 67.2619 21.6993 70.1476 24.9288C72.2584 27.2905 71.8736 27.1544 76.4379 27.1544C80.8655 27.1544 80.737 27.2244 79.3548 25.562C71.5753 16.2086 58.6712 10.909 46.7929 12.1892ZM57.074 32.9991C56.8414 33.1414 56.0024 33.995 55.2095 34.896C54.0606 36.2013 53.6029 36.6154 52.9562 36.934L52.1449 37.334L33.6348 37.3725C20.3645 37.3999 15.0716 37.4551 14.937 37.5673C14.2931 38.1038 12.644 46.0196 13.0691 46.5338C13.2126 46.7072 15.6929 46.7361 30.4779 46.7361C50.6466 46.7361 47.9495 47.0606 50.5182 44.3243C53.397 41.2579 53.8995 41.2583 56.644 44.3297C57.7949 45.6177 58.5012 46.2888 58.8949 46.4683C59.6888 46.8302 87.5486 46.8873 87.8459 46.5277C88.2745 46.0089 86.7432 38.4357 86.0512 37.6521C85.8468 37.4207 85.1378 37.4043 75.045 37.3985C62.002 37.391 63.5336 37.6534 61.1669 35.0212C59.0183 32.6314 58.2745 32.264 57.074 32.9991ZM43.7647 52.454C43.5711 52.5601 42.728 53.417 41.8912 54.3585C40.8016 55.5844 40.1621 56.1801 39.6378 56.4576L38.9057 56.845L26.3503 56.8833C15.6127 56.916 13.7704 56.9512 13.6261 57.1256C13.1689 57.6788 15.9163 66.0146 16.6487 66.2966C17.0659 66.4574 33.988 66.4035 34.4247 66.2401C34.6428 66.1585 35.7403 65.1754 36.8635 64.0555C40.0256 60.9027 40.3439 60.8969 43.0754 63.9421C44.2595 65.2622 44.9701 65.9364 45.3694 66.1185C46.1074 66.4548 83.92 66.5452 84.3727 66.2117C85.1807 65.6147 87.728 57.6633 87.2825 57.1248C87.1316 56.9422 84.7914 56.9153 68.8528 56.9126C47.3947 56.9089 50.1925 57.2271 47.7643 54.514C45.6984 52.2054 44.9362 51.8129 43.7647 52.454ZM28.8889 71.3241C28.6474 71.472 27.8262 72.3039 27.0642 73.1727C25.6441 74.7918 24.9893 75.2948 23.9412 75.5722C23.0473 75.8088 23.1509 76.088 24.6454 77.4708C39.5019 91.2161 61.863 91.1768 76.3834 77.3793C77.0932 76.7049 77.562 76.1506 77.5361 76.0165C77.4968 75.8109 75.5932 75.784 56.509 75.7197C36.7929 75.6533 35.498 75.6339 35.0703 75.3992C34.8198 75.2619 33.8704 74.3175 32.9603 73.3006C30.8617 70.9558 30.097 70.5846 28.8889 71.3241Z" fill="white"/>
</g>
<defs>
<clipPath id="clip0_10_22">
<rect width="100" height="100" fill="white"/>
</clipPath>
</defs>
</svg>
