<?xml version="1.0" encoding="UTF-8" standalone="no"?>
<svg
   xmlns:dc="http://purl.org/dc/elements/1.1/"
   xmlns:cc="http://creativecommons.org/ns#"
   xmlns:rdf="http://www.w3.org/1999/02/22-rdf-syntax-ns#"
   xmlns:svg="http://www.w3.org/2000/svg"
   xmlns="http://www.w3.org/2000/svg"
   viewBox="0 0 170.66667 170.66667"
   height="170.66667"
   width="170.66667"
   xml:space="preserve"
   id="svg2"
   version="1.1"><metadata
     id="metadata8"><rdf:RDF><cc:Work
         rdf:about=""><dc:format>image/svg+xml</dc:format><dc:type
           rdf:resource="http://purl.org/dc/dcmitype/StillImage" /></cc:Work></rdf:RDF></metadata><defs
     id="defs6" /><g
     transform="matrix(1.3333333,0,0,-1.3333333,0,170.66667)"
     id="g10"><g
       id="g12"><path
         id="path14"
         style="fill:#ffffff;fill-opacity:1;fill-rule:nonzero;stroke:none"
         d="M 0,128 H 128 V 0 H 0 Z" /></g><g
       transform="translate(5,5)"
       id="g16"><path
         id="path18"
         style="fill:#523a8c;fill-opacity:1;fill-rule:nonzero;stroke:none"
         d="M 58.999916,0 C 91.584816,0 118,26.415161 118,59.000069 118,91.584976 91.584816,118 58.999916,118 26.415014,118 0,91.584839 0,59.000069 0,26.415298 26.41515,0 58.999916,0 Z" /></g><g
       transform="translate(37.181549,27.941784)"
       id="g20"><path
         id="path22"
         style="fill:#f4f4f9;fill-opacity:1;fill-rule:nonzero;stroke:none"
         d="M 22.066965,0.300766 H 31.56562 V 18.787384 L 49.225395,8.570288 53.636368,16.228153 30.196833,29.792416 c -2.084233,1.203054 -4.669157,1.203054 -6.753392,0 L 0,16.228153 4.411098,8.570288 22.070871,18.787384 V 0.300766 h -0.0039 -4.2e-5 z" /></g><g
       transform="translate(28.242218,49.697403)"
       id="g24"><path
         id="path26"
         style="fill:#f4f4f9;fill-opacity:1;fill-rule:nonzero;stroke:none"
         d="M 0,7.920494 4.54564,4e-6 28.704124,14.029034 c 2.147942,1.24443 3.477696,3.566982 3.477696,6.063924 V 48.272736 H 23.090708 V 27.008244 L 6.633012,36.570301 1.740966,28.041901 18.194595,18.48374 4.2e-5,7.920494 Z" /></g><g
       transform="translate(67.575745,49.697403)"
       id="g28"><path
         id="path30"
         style="fill:#f4f4f9;fill-opacity:1;fill-rule:nonzero;stroke:none"
         d="M 4.2e-5,48.272709 V 20.088917 c 0,-2.492907 1.334029,-4.81546 3.478089,-6.059891 L 27.635611,4e-6 32.18182,7.92049 14.025292,18.463522 l 16.21383,9.566109 -4.8927,8.5245 L 9.088264,26.967678 V 48.272736 H 0 Z" /></g></g></svg>