<?xml version="1.0" encoding="utf-8"?>
<!-- Generator: Adobe Illustrator 27.0.0, SVG Export Plug-In . SVG Version: 6.00 Build 0)  -->
<svg version="1.1" id="Layer_1" xmlns="http://www.w3.org/2000/svg" xmlns:xlink="http://www.w3.org/1999/xlink" x="0px" y="0px"
	 viewBox="0 0 100 100" style="enable-background:new 0 0 100 100;" xml:space="preserve">
<style type="text/css">
	.st0{fill:#F4C9B8;}
	.st1{fill:#FFFFFF;}
	.st2{fill:#C4A892;}
	.st3{fill:#613B21;}
	.st4{fill:#5B432F;}
	.st5{fill:#9D8285;}
</style>
<g id="Layer_2_00000095317514016275577910000001736839100193857979_">
</g>
<g>
	<path class="st0" d="M64.7,54.4c-7.6-0.4-15,5.8-15,5.8s-9,7.5-17.3,6.2S17.1,58,17.4,55C17.7,52,28.5,37,28.5,37l5.5-8.6l9.8,12.6
		l2.6-1.9c0,0-2.1-3.7-1.8-7.1c0.3-3.4,2.7-5.5,2.7-5.5s-2.4-5.6-1.8-7c0.5-1.4,0.5-1.4,0.5-1.4s5.5-8.2,9.9-5.4l3.6,1.2
		c0,0,4.7-3.1,6.7-2.3c1.9,0.7,9,3.4,9.6,5.6c0.6,2.1,7.1,5.5,7.1,5.5l4.5,9.9l0.9,4.3l-2.8,7.8l-4,5.1l-5.9,3.8l-16.9,1.3"/>
	<polygon class="st1" points="80.4,21.8 76.9,24.2 77,26 77.7,27.5 82.2,27.4 84.5,26 83.2,22.1 82,20.8 	"/>
	<path class="st2" d="M23.1,62.8C38.2,71.2,48.3,61,48.3,61l8.8,9.1l4.9,8c0,0,1.8,6.4,4.3,7.5c2.4,1.1,5.5,14.4,5.5,14.4H0l0-33.9
		l11.3-4.8l6.1-6.3C17.4,55,19.1,61.5,23.1,62.8z"/>
	<g transform="translate(0.000000,499.000000) scale(0.100000,-0.100000)">
		<path d="M565.2,4940.2c0-1.6-1.2-2.9-2.7-2.9c-1.4,0-8.4-5.3-15.7-12c-16.9-15.5-16.9-10.6,0,5.5
			C559.3,4942.9,565.2,4945.8,565.2,4940.2z M642.5,4928.2c11-5.3,11.6-9,0.8-5.3c-11.8,4.1-33.5,4.3-46.7,0.2
			c-14.5-4.5-27.7-13.3-43.5-29.4c-13.9-13.9-16.3-15.3-9-4.9c12.4,17.5,30,31.6,48.4,38.8C608.5,4934.1,630.1,4934.3,642.5,4928.2z
			 M498.5,4914.3c0-0.8-1.8-3.1-3.7-5.3c-5.3-5.9-14.3-24.3-12.9-26.7c0.6-1.2,0.2-2-0.8-2c-5.9,0,1.6,23.5,9.8,31.2
			C495.4,4915.6,498.5,4916.8,498.5,4914.3z M694.8,4900.7c12.6-2.9,24.3-9.2,26.1-13.9c2-4.9,0.8-4.7-11.2,1.2
			c-12.7,6.3-36.5,11-52.4,10.2c-5.9-0.4-15.3-0.8-20.6-1c-12-0.6-25.7-6.5-37.3-16.1c-11-8.8-11.8-5.9-1,3.7
			c10.2,9.2,22.2,15.3,34.3,17.1C647.6,4904.3,682.5,4903.5,694.8,4900.7z M679.7,4863.9c2.2-1.6,6.9-3.3,10-4.1
			c3.3-0.6,12.9-4.9,21.6-9.2c12.2-6.1,19.8-12,33.9-25.7l18-18l-7.6-1.4c-8.4-1.4-33.3-16.9-33.5-20.6c0-4.9,4.5-4.5,17.3,1.4
			c17.3,7.8,22.6,8.2,38,2.9c19.8-6.5,23.7-10.8,13.5-14.3c-7.3-2.5-22.9-16.9-26.9-24.5c-6.9-13.1-2.2-29,12-39.8
			c5.1-3.9,10-5.3,21.4-6.5c16.3-1.6,26.5,0.6,36.1,7.3l5.7,4.1l5.9-13.1c3.3-7.3,6.5-14.5,7.1-16.5c0.6-1.8,4.7-9,8.8-16.1
			c13.5-22.2,13.9-26.5,5.1-67.3c-5.9-27.5-29-73.1-46.1-90.8c-9.2-9.6-34.3-31.4-42-36.7c-23.3-15.9-31-17.6-86.3-20.2
			c-25.9-1.2-49-2.5-51.4-3.1c-2.5-0.4-10.4-1.4-17.6-2c-7.5-0.6-19.4-2.7-27.1-5.1c-7.5-2.2-15.5-4.3-17.6-4.7
			c-2.2-0.4-9.8-2.9-16.7-5.9c-35.9-14.5-66.7-34.7-73.7-48.2c-1.6-3.1-3.7-5.5-4.9-5.5s-5.7-2.5-10.2-5.5
			c-4.5-3.1-22.2-12.4-39-20.6c-25.7-12.6-33.9-15.7-49-18.2c-20.6-3.7-52.8-2.7-69.2,1.8c-5.3,1.6-13.3,2.9-17.6,3.1
			c-10.6,0.4-39.4,9.6-49,15.5c-14.5,9-35.5,25.5-41.4,32.6c-19.4,23.3-24.1,33.3-24.3,51.8c0,13.5,3.3,21.2,21.4,48.4
			c4.9,7.5,13.9,23.5,20,35.5c6.1,12,14.1,26.5,18,32.4c11.6,17.1,42.4,52.9,58.8,68.4c8.2,7.8,15.1,15.1,15.1,16.3
			c0,1.4,5.9,13.9,12.9,28l13.1,25.7l15.5-14.9c15.9-15.1,26.3-31.8,35.9-57.7c2.5-6.5,8-13.9,18-23.9c9.2-9.2,14.7-16.7,15.5-20.4
			c1.4-6.5,7.5-13.9,11.4-13.9c1.4,0,3.9,1.6,5.5,3.5c1.8,1.8,9.4,9.6,17.1,17.5c7.6,7.6,13.9,15.5,13.9,17.3s-3.7,8.6-8.4,15.3
			c-10.2,14.9-17.5,29.4-16.3,32.9c0.6,1.6,1.4,10.2,2,19.2c1,17.5,4.7,25.5,17.5,37.3c5.5,5.1,13.1,17.7,13.1,21.8
			c0,1.2-3.7,6.1-8.2,11c-6.5,7.1-8.6,11.4-10.6,20.6c-2.9,13.9-1,30.4,4.7,43.3c4.3,9.8,31.4,41,40.6,46.7c11,6.9,31.8,9,47.1,5.3
			c6.5-1.8,16.3-3.7,21.6-4.5c6.5-0.8,11.4-2.9,14.7-6.1l4.9-4.9l6.9,7.8c8.4,9.8,17.8,14.1,37.3,16.9
			C659.1,4868,673.8,4867.4,679.7,4863.9z M449.3,4862.5c8.6-3.1,7.5-5.7-2.4-5.5c-10.8,0.6-19-4.1-25.1-14.3
			c-5.5-9.2-20.2-17.3-31.8-17.3c-10.2,0-7.6,2.5,8.4,8.8c10.4,3.9,14.5,6.7,16.7,10.8c3.5,6.7,14.1,15.3,22,17.6
			c2.9,0.8,5.5,1.8,5.7,1.8C443,4864.7,445.8,4863.7,449.3,4862.5z M455.2,4821.9c-3.7-1.8-11.4-7.6-16.7-13.1
			c-9.6-9.6-31.4-22.4-39-22.9c-2.2,0-9,0-15.3,0c-16.7,0.6-12,4.3,5.1,4.3c12.9,0,15.3,0.6,27.8,8c7.6,4.3,16.9,11.4,20.8,15.7
			c6.5,7.3,14.1,11.2,21.4,11.2C460.9,4825,459.1,4823.7,455.2,4821.9z M817.6,4766.2c2.2-2.5,5.7-7.6,7.5-11.4
			c3.3-6.7,3.3-6.9-0.2-3.5c-4.7,3.9-8.2,4.7-14.7,2.9c-8.6-2.2-10-17.5-2-20c4.9-1.6,13.3,2,16.3,6.9c1.4,2.2,3.1,3.9,4.1,3.9
			c1.6,0,8.4-13.3,7.1-14.3c-15.3-10.8-18.4-12-33.5-11.6c-16.3,0.2-22.6,2.7-27.1,11c-1.4,2.7-2,7.1-1.2,9.8
			c2.7,10.8,25.7,30.6,35.5,30.6C811.7,4770.5,815.4,4768.6,817.6,4766.2z M435.8,4746.6c10.2-4.3,15.7-8.8,15.7-12.9
			c0-2.4-1-2.2-4.3,1.2c-5.7,5.3-22,12.2-28.6,12.2c-2.9,0-12.7-1.4-22-3.1c-16.5-3.1-25.3-3.7-27.1-1.8c-1.8,1.6,0.2,2.5,8.6,3.5
			c4.5,0.8,12,2.2,16.7,3.1C413.2,4753.1,421.6,4752.7,435.8,4746.6z M397.3,4698.9c6.3-5.9,12.2-10.8,12.9-10.8
			c1.6,0,7.1-13.7,8.8-22.6c0.8-3.7-1-1.4-5.3,6.9c-4.1,8-8.8,14.1-13.3,17.1c-7.5,4.9-19.6,16.5-19.6,18.8
			C380.8,4712.1,386.7,4708.7,397.3,4698.9z M377.5,4318.9c14.3,1,31,6.5,55.7,18.4c15.5,7.5,28.6,13.5,29.4,13.5
			c1,0,6.9,3.5,13.1,7.6l11.6,7.8l8-9c4.3-4.9,10.4-12.2,13.1-16.1c2.9-3.9,18.8-21.2,35.1-38.4c34.5-36.3,62.6-75.5,66.7-93.7
			c2.9-12.4,15.5-37.7,25.9-52.4c4.1-5.9,14.1-20,22.2-31.4c8-11.4,18.2-27.7,22.6-36.5c13.1-26.5,27.5-75.3,27.5-93.3
			c0-5.1,0.6-5.5,8.8-5.5c8.8,0,9.4,0.6,9.2,9.8c-0.4,25.9-23.5,94.3-38.4,114.1c-3.5,4.7-9.2,13.3-12.7,19.2
			c-3.5,5.9-8.4,12.9-11,15.7c-13.1,14.5-33.1,49.8-35.7,63.7c-2,10-7.5,21-16.9,33.5c-4.9,6.7-10.4,15.1-12.4,18.6
			c-4.3,8.6-17.6,23.9-46.7,53.3c-12.7,13.1-26.7,28.4-30.8,33.7c-4.1,5.5-10.8,13.5-14.7,18c-6.9,8-7.1,8.6-3.9,13.3
			c5.7,8.8,37.1,27.7,63,37.8c33.9,13.3,57.7,16.7,148.1,21c35.3,1.8,52.8,7.8,77.5,26.5c37.1,28,58.4,52,72.6,81.4
			c18.2,38,21.8,49.4,26.5,84.3c2.4,17.3,2.4,17.8-2.7,29.2c-2.7,6.3-8,16.5-11.8,22.6c-3.5,6.1-7.6,14.5-9,18.6
			c-1.4,4.3-4.9,12-7.8,17.1c-2.9,4.9-6.1,12-6.9,15.7c-2.5,12.7-16.7,39-24.1,44.5c-3.7,2.9-12.2,9.8-18.8,15.1
			c-6.7,5.5-14.5,11.6-17.8,13.5c-3.1,2.2-11.6,9.4-18.6,16.1l-12.9,12.4l1.8,17.3c2.7,30.4,2.5,40.2-1.4,46.3
			c-2.2,2.9-13.1,12.2-24.5,20.4s-22.9,16.9-25.7,19.4c-8.8,7.6-17.6,10.8-44.7,15.7c-52.8,9.6-90.4,11.2-120,4.7
			c-21.2-4.5-61.4-21.4-71.4-29.6c-9.6-8-21.4-26.1-24.7-38c-3.1-11.2-6.5-13.3-26.5-17.6c-18.8-3.9-32.9-9.8-39.4-16.3
			c-11.2-11.4-35.9-55.5-40.2-72c-2.7-10.4-7.1-30.8-10.6-49.6c-2.7-14.5-2.9-19.2-1-23.7c2-4.7,1.6-7.3-2.9-18
			c-12.9-30.8-24.5-49.4-38.8-63.5c-34.1-33.1-67.9-79.4-82-112.4c-2-4.7-5.7-11.2-8.4-14.7c-6.7-9-21.2-33.3-29.2-49.4
			c-9.2-18.2-14.3-25.1-41.2-54.1c-21.8-23.5-23.5-24.9-42.9-34.5c-11.2-5.5-25.1-11.6-31-13.3c-5.9-2-13.3-4.9-16.7-6.5
			c-3.1-1.8-12.9-4.5-21.6-6.3c-14.9-2.9-15.7-3.3-16.3-8.6l-0.8-5.7l13.5,1.4c15.9,1.6,58.2,15.5,81.8,26.9
			c11.6,5.7,19.8,11.2,26.3,18.2c11.8,12.4,32.6,34.9,41,44.9c3.5,3.9,6.9,7.3,7.5,7.3s1-2.2,1-4.9c0-14.5,23.5-44.5,53.3-67.9
			c18.2-14.3,56.1-29.2,74.5-29.2c3.5,0,10-1,14.3-2.2l7.8-2.4l-8.2-3.9c-4.9-2.4-9.2-6.1-10.4-9.2c-4.3-10.4-3.5-168.1,0.8-202
			c3.9-30.2,5.9-47.9,5.3-49.8c-0.2-1,0.4-5.9,1.6-10.8s2.5-16.1,3.1-24.7c0.8-8.6,2.2-19,3.1-22.9l2-7.5H331H344l-1.4,6.3
			c-0.6,3.5-2,10.4-2.9,15.3c-2,9.4-5.9,45.5-7.1,61.8c-1.4,22.4-3.1,45.5-3.9,51c-0.4,3.3-1.2,21.4-2,40.2
			c-0.6,18.8-1.6,34.9-2,35.7c-2.4,3.7-0.6,71.6,2.4,94.3l3.3,25.3l8.8-1.2c4.9-0.6,13.5-1.2,19.2-1.2"/>
		<path class="st3" d="M585.8,4747c-3.1-0.8-9.4-1.6-13.5-1.8c-7.5-0.2-12.4-1.4-30-7.5c-10.6-3.7-20.4-13.9-34.3-36.3
			c-12.4-19.8-13.5-24.1-7.3-26.1c5.1-1.6,10.2,2.9,17.1,14.7c16.7,29.6,23.9,35.7,50.6,42.4c7.3,2,17.3,4.9,22.2,6.9
			C604.8,4744.6,600.9,4750.9,585.8,4747z"/>
		<path class="st3" d="M784.2,4655.4c-2.7-2.5-1.2-6.7,5.7-14.1c4.1-4.7,8-7.5,9.8-6.7c4.3,1.6,3.3,4.3-4.3,13.5
			C788.6,4656.8,786.6,4658,784.2,4655.4z"/>
		<path class="st3" d="M757.6,4648.1c-2-2.2-1.6-4.5,1.8-10.8c3.9-7.8,8.6-10.4,10.4-5.5c1,2.5-5.3,16.1-8.2,17.8
			C760.5,4650.3,758.8,4649.5,757.6,4648.1z"/>
		<path class="st3" d="M734.6,4638.5c-1.8-4.9,0-12.2,3.1-12.2c2,0,2.9,2,2.9,6.7C740.7,4640.1,736.6,4643.6,734.6,4638.5z"/>
		<path class="st3" d="M702.3,4629.9c-0.8-13.5,3.5-23.5,8-19c3.3,3.3-0.4,21.2-4.5,22C703.6,4633.2,702.5,4632.3,702.3,4629.9z"/>
		<path class="st3" d="M673.4,4619.1c-3.1-3.1-2.9-15.7,0.2-20.2c4.1-5.5,7.3-1.8,7.3,8.6C680.9,4617.9,677.4,4623,673.4,4619.1z"/>
		<path class="st3" d="M644.8,4607.4c-0.4-1.4-1.4-6.1-2-10.4s-1.4-9.6-1.6-11.8c-0.4-2.7,0.6-3.9,3.3-3.9c7.8,0,12,26.7,4.3,28
			C647.2,4609.7,645.2,4608.9,644.8,4607.4z"/>
		<path d="M459.3,4528.5c0-1.6,0.8-3.3,2-4.1c1-0.6,4.7-6.7,8.2-13.3c4.1-7.6,13.5-19.6,25.7-32.2c15.5-16.1,22.6-21.6,35.1-28
			c11-5.7,16.3-7.6,17.6-6.3c3.5,3.5-2.7,10.6-14.3,16.9c-16.1,8.6-47.7,36.9-55.9,49.8C466.7,4528.7,459.3,4535.6,459.3,4528.5z"/>
		<path d="M582.8,4503.2c0-5.9,14.1-27.3,22.2-33.3c3.5-2.7,10.4-5.9,15.1-7.3c7.1-2,8.8-1.8,11.4,0.8c2.9,2.7,2.7,3.3-0.6,5.9
			c-2.2,1.6-6.1,3.3-8.8,3.9c-8.4,1.6-18.2,9.8-27.1,22.4C586,4508.5,582.8,4510.5,582.8,4503.2z"/>
		<path class="st4" d="M162.6,4403.2c-6.3-5.5-9.8-13.1-6.1-13.1c5.7,0,17.1,13.3,14.7,17.3C170.2,4409.1,167.7,4407.7,162.6,4403.2
			z"/>
		<path class="st4" d="M171.6,4386.9c-6.7-5.3-8.4-10.6-3.7-10.6c2.9,0,14.9,11.4,14.9,14.3C182.8,4393.4,177.7,4391.8,171.6,4386.9
			z"/>
		<path class="st4" d="M150.6,4381.8c3.1-10.4,49.4-60.6,67.3-73c5.7-4.1,16.3-9.6,23.5-12.2c7.1-2.7,14.3-5.5,15.9-6.1
			c5.9-2.4,8-2.2,9.2,0.6c1,2.9-2,7.6-4.9,7.6c-3.1,0.2-17.8,5.7-27.3,10.4c-9.6,4.5-13.3,8.2-8.4,8.2c1.2,0,2,1.2,2,2.5
			c0,1.4,1.8,5.9,3.9,10.2c7.6,15.1,3.1,17.8-5.9,3.5c-3.7-5.9-5.5-10.6-4.7-13.1c1.2-3.5,1-3.5-4.5,0.4c-3.3,2.4-9,7.5-12.9,11.6
			c-5.7,5.7-6.7,7.6-4.5,8.8c3.3,1.8,11,13.7,11,17.1c0,5.5-7.3,1.4-12-6.9l-4.9-8.8l-11.2,12.4c-6.1,6.9-14.7,16.5-19.2,21.8
			C154.1,4386.9,148.3,4389.3,150.6,4381.8z"/>
		<path class="st4" d="M485.8,4356.7c-1.6-2.5,9.2-17.1,12-16.1c2.9,0.8,2,3.1-4.3,11C489.3,4356.5,486.7,4358.3,485.8,4356.7z"/>
		<path class="st4" d="M215.5,4341c3.3,7.6,3.5,9.8,1.4,9.8c-1.4,0-3.9-2-5.7-4.5c-3.5-5.5-4.7-13.5-2-14.5
			C210.4,4331.4,213.2,4335.5,215.5,4341"/>
		<path class="st4" d="M470.3,4346.5c1.4-5.1,6.5-11.4,9-11.4c2.5,0,1.8,6.7-1.6,11.4C473.6,4352.4,468.3,4352.4,470.3,4346.5z"/>
		<path class="st4" d="M442.4,4329.9c0.6-4.1,1-7.6,1.2-7.8c0.2-2.4,7.8,0,7.8,2.4c0,1.6-0.8,2.9-1.8,2.9c-1,0-2.4,2.2-2.9,4.9
			C444.8,4340.1,441.2,4338.1,442.4,4329.9z"/>
		<path class="st4" d="M469.1,4326.5c-9.2-3.5-19.2-7.5-22.6-8.6c-17.5-7.1-17.1-7.1-52.9-11.2c-13.9-1.6-28.2-3.3-31.8-3.9
			c-5.9-1-6.3-0.8-6.9,5.3c-0.4,3.5-1.4,6.5-2.5,6.5c-3.1,0-3.5-8.6-0.6-12.2c1.6-2,1.6-2.7,0.2-2c-2.7,1.8-12.4-1.8-12.4-4.5
			c0-1.2,2-1.6,4.5-1.2c5.3,1.2,22.7,2.9,43.5,4.1c23.3,1.6,38.2,3.9,48,7.3c1.6,0.6,6.1,2,9.8,3.1c28.2,8.6,49,17.6,49,21.4
			C494.6,4334.6,487.3,4333.4,469.1,4326.5z"/>
		<path class="st4" d="M426,4328.5c0-5.7,3.9-12.9,6.9-12.9c3.5,0,3.7,1.4,0.8,9.6C431.4,4331.2,426,4333.6,426,4328.5z"/>
		<path class="st4" d="M278.1,4320.1c-5.1-5.1-9.2-24.1-5.3-24.1c2.7,0,4.7,3.7,7.5,13.7c2.9,10.8,2.9,11.8,1,11.8
			C280.2,4321.4,278.9,4320.8,278.1,4320.1z"/>
		<path d="M434.8,4231.6c-6.5-2-14.7-5.1-18.2-7.1c-7.5-3.7-12-12-8.8-15.1c1.2-1.2,17.3-2.4,40.4-2.7c35.5-0.6,38.6-0.4,41.6,2.9
			c3.3,3.7,3.5,3.7,8.6-0.2c6.5-4.9,20.4-4.5,21.4,0.4c0.8,4.5-7.6,15.7-15.3,20.2C494.6,4235.9,452.2,4236.7,434.8,4231.6z"/>
		<path d="M470.5,4196.5c-2.9-3.1-8.6-3.7-39.8-4.5l-36.5-1l-2.5-7.6c-1.4-4.1-2.4-8.4-1.8-9.8c1-2.4,71.8-2.7,77.9-0.2
			c1.8,0.8,6.9,0,11.2-1.8c10.4-4.1,50.4-4.5,55.9-0.4c3.3,2.4,3.3,3.3,1,9.2c-4.7,12.2-4.7,12.2-26.5,10.6
			c-19.8-1.4-20-1.4-23.3,3.7C482.2,4200.6,475.4,4201.4,470.5,4196.5z"/>
		<path d="M446.9,4159.8c-3.7-2.9-27.7-5.7-43.7-5.3c-12.2,0.4-14.5-2.9-9-12.4c3.5-5.9,3.9-6.1,20.2-6.7c9-0.4,19.6,0.4,23.5,1.8
			c5.9,1.8,7.8,1.8,11.8-0.8c4.1-2.7,9.8-2.9,40.8-1.8c34.5,1.4,36.1,1.6,39.6,6.1c2,2.5,3.7,6.1,3.7,8c0,7.5-4.5,8.4-37.5,7.5
			c-28.4-0.8-32-0.6-36.1,2.7C455,4163.2,451.6,4163.4,446.9,4159.8z"/>
		<path d="M421.1,4125.3c-2-2.2-4.7-3.9-6.3-3.9c-4.9,0-2.5-5.5,4.9-11.6c12.4-10.4,26.3-14.5,44.5-13.3
			c19.6,1.6,37.8,7.6,45.1,15.1c3.1,3.3,5.1,6.3,4.5,7.1c-0.8,0.6-18.8,1-40.4,0.8c-32.8,0-39.4,0.4-40.2,2.7
			c-0.6,1.6-2.9,3.7-4.9,4.9C425.4,4128.7,423.8,4128.3,421.1,4125.3z"/>
	</g>
	<polygon class="st1" points="73.6,42.5 69.6,43.2 70,45.5 76.5,44.5 80.6,42.1 81,40.4 79.1,37.9 75.6,38.6 	"/>
	<path d="M78.2,37c-0.3,0.1-1.3,0.3-2.1,0.5c-0.8,0.2-1.9,0.5-2.5,0.8c-0.6,0.3-1.2,0.5-1.4,0.5s-0.5,0.1-0.8,0.3
		c-0.3,0.2-0.9,0.4-1.5,0.6c-3.4,1.1-4.7,4-2.8,6c0.7,0.7,2.3,0.9,5.1,0.6c2.2-0.2,6-1.3,7.1-2.1c1.8-1.2,3.1-3.1,3.3-4.5
		c0.1-0.8-0.4-1.7-1.3-2.4C80.8,36.9,79.1,36.8,78.2,37z M79,39.3c0.1,0.6-0.5,1.1-1.4,1.1c-0.7,0-1.1-0.3-1.1-1
		c0-0.5,0.1-0.5,1-0.7C78.7,38.5,78.9,38.5,79,39.3z M80.6,40.7c0,0.4-0.7,1.5-1.2,1.7c-0.5,0.3-0.8,0-0.8-0.7
		c0-0.5,0.2-0.8,0.9-1.1C80.2,40.2,80.6,40.3,80.6,40.7z M76.6,42.4c0.6,0.8,0.4,1.2-0.8,1.7l-1.1,0.4l-0.2-0.7
		c-0.3-0.9-0.1-1.3,0.5-1.6C75.8,41.9,76.3,41.9,76.6,42.4z M72.3,43.9c0.1,0.4,0.2,0.7,0.1,0.8c-0.1,0.1-0.6,0.2-1.2,0.3l-1,0.1
		l-0.1-0.6c-0.1-0.5-0.1-0.7,0.3-1c0.3-0.2,0.7-0.4,1-0.3C72,43.2,72.1,43.3,72.3,43.9z"/>
	<polygon class="st1" points="60.6,27.1 57.2,28.1 56.5,31 58.1,32.8 61,32.8 64.5,30.5 64.8,27.8 63.7,26.6 	"/>
	<g>
		<path d="M61.8,26.5c-0.6,0.1-1.6,0.3-2.2,0.5s-1.4,0.4-1.9,0.5c-0.7,0.2-0.9,0.4-1.1,0.9c-0.4,1-0.7,2.2-0.7,2.8
			c0,1.2,1.6,2.2,3.7,2.4c1.8,0.1,2.5-0.1,3.7-1.4c1.1-1.1,2-2.8,2-3.9c0-0.5-0.5-1.7-0.9-1.9C64.2,26.2,63.3,26.3,61.8,26.5z
			 M63.6,27.4c0.2,0.3,0.4,0.7,0.4,1c0,0.9-1.3,2.9-2.3,3.6c-1,0.6-3.6,0.4-4.4-0.5c-0.3-0.3-0.3-0.5,0-1.6c0.2-0.7,0.4-1.3,0.5-1.4
			c0.3-0.3,4.5-1.6,5.3-1.6C63.1,26.9,63.3,27.1,63.6,27.4z"/>
		<path d="M61,28c-0.3,0.5-0.3,1.3,0,1.5c0.4,0.4,1.5,0.3,1.8-0.2c0.4-0.6,0.4-1.1-0.1-1.4C62.1,27.5,61.3,27.6,61,28z M62.4,28.3
			c0,0.2-0.1,0.3-0.2,0.3c-0.3,0-0.4-0.3-0.3-0.5C62.2,27.9,62.4,28,62.4,28.3z"/>
	</g>
	<g>
		<polygon class="st5" points="36.2,27.4 42.9,34.8 46.2,24.6 45.8,20.4 48.6,13.5 55,11.1 59.8,12.6 69,11.4 72.7,11.6 72.5,7.4 
			60.7,3.7 51.9,4.7 46.3,9.4 44.6,11.4 38.1,15.6 35.7,23 		"/>
		<path class="st3" d="M56.5,5c0,0.2-0.1,0.3-0.3,0.3c-0.1,0-0.8,0.5-1.6,1.2C53,8,53,7.5,54.7,5.9C55.9,4.7,56.5,4.4,56.5,5z
			 M64.2,6.2c1.1,0.5,1.2,0.9,0.1,0.5c-1.2-0.4-3.4-0.4-4.7,0c-1.5,0.5-2.8,1.3-4.4,2.9c-1.4,1.4-1.6,1.5-0.9,0.5
			c1.2-1.7,3-3.2,4.8-3.9C60.8,5.6,63,5.6,64.2,6.2z M49.8,7.6c0,0.1-0.2,0.3-0.4,0.5c-0.5,0.6-1.4,2.4-1.3,2.7
			c0.1,0.1,0,0.2-0.1,0.2c-0.6,0,0.2-2.4,1-3.1C49.5,7.4,49.8,7.3,49.8,7.6z M69.5,8.9c1.3,0.3,2.4,0.9,2.6,1.4
			c0.2,0.5,0.1,0.5-1.1-0.1c-1.3-0.6-3.6-1.1-5.2-1c-0.6,0-1.5,0.1-2.1,0.1c-1.2,0.1-2.6,0.6-3.7,1.6c-1.1,0.9-1.2,0.6-0.1-0.4
			c1-0.9,2.2-1.5,3.4-1.7C64.7,8.6,68.2,8.7,69.5,8.9z M76,15.1l0.2-1.7c0.3-3,0.3-4-0.1-4.6c-0.2-0.3-1.3-1.2-2.5-2
			C72.4,5.9,71.3,5,71,4.8c-0.9-0.8-1.8-1.1-4.5-1.6c-5.3-1-9-1.1-12-0.5c-2.1,0.5-6.1,2.1-7.1,3c-1,0.8-2.1,2.6-2.5,3.8
			c-0.3,1.1-0.6,1.3-2.6,1.8c-1.9,0.4-3.3,1-3.9,1.6c-1.1,1.1-3.6,5.5-4,7.2c-0.3,1-0.7,3.1-1.1,5C33,26.5,33,27,33.2,27.4l2.6,3.5
			c1.6,1.5,2.6,3.2,3.6,5.8c0.3,0.6,0.8,1.4,1.8,2.4c0.9,0.9,1.5,1.7,1.5,2c0.1,0.6,0.7,1.4,1.1,1.4c0.1,0,0.4-0.2,0.5-0.4
			c0.2-0.2,0.9-1,1.7-1.7c0.8-0.8,1.4-1.5,1.4-1.7c0-0.2-0.4-0.9-0.8-1.5c-1-1.5-1.7-2.9-1.6-3.3c0.1-0.2,0.1-1,0.2-1.9
			c0.1-1.7,0.5-2.5,1.7-3.7c0.5-0.5,1.3-1.8,1.3-2.2c0-0.1-0.4-0.6-0.8-1.1c-0.6-0.7-0.9-1.1-1.1-2.1c-0.3-1.4-0.1-3,0.5-4.3
			c0.4-1,3.1-4.1,4.1-4.7c1.1-0.7,3.2-0.9,4.7-0.5c0.6,0.2,1.6,0.4,2.2,0.5c0.6,0.1,1.1,0.3,1.5,0.6l0.5,0.5l0.7-0.8
			c0.8-1,1.8-1.4,3.7-1.7c1.7-0.3,3.2-0.2,3.8,0.2c0.2,0.2,0.7,0.3,1,0.4c0.3,0.1,1.3,0.5,2.2,0.9c1.2,0.6,2,1.2,3.4,2.6L76,15.1z
			 M44.9,12.8c0.9,0.3,0.7,0.6-0.2,0.5c-1.1-0.1-1.9,0.4-2.5,1.4c-0.5,0.9-2,1.7-3.2,1.7c-1,0-0.8-0.3,0.8-0.9
			c1-0.4,1.5-0.7,1.7-1.1c0.4-0.7,1.4-1.5,2.2-1.8c0.3-0.1,0.5-0.2,0.6-0.2C44.3,12.5,44.6,12.6,44.9,12.8z M45.5,16.8
			c-0.4,0.2-1.1,0.8-1.7,1.3c-1,1-3.1,2.2-3.9,2.3c-0.2,0-0.9,0-1.5,0c-1.7-0.1-1.2-0.4,0.5-0.4c1.3,0,1.5-0.1,2.8-0.8
			c0.8-0.4,1.7-1.1,2.1-1.6c0.6-0.7,1.4-1.1,2.1-1.1C46.1,16.5,45.9,16.6,45.5,16.8z M43.6,24.3c1,0.4,1.6,0.9,1.6,1.3
			c0,0.2-0.1,0.2-0.4-0.1c-0.6-0.5-2.2-1.2-2.9-1.2c-0.3,0-1.3,0.1-2.2,0.3c-1.6,0.3-2.5,0.4-2.7,0.2c-0.2-0.2,0-0.3,0.9-0.4
			c0.5-0.1,1.2-0.2,1.7-0.3C41.3,23.7,42.1,23.7,43.6,24.3z M39.7,29.1c0.6,0.6,1.2,1.1,1.3,1.1c0.2,0,0.7,1.4,0.9,2.3
			c0.1,0.4-0.1,0.1-0.5-0.7c-0.4-0.8-0.9-1.4-1.3-1.7c-0.7-0.5-2-1.6-2-1.9C38.1,27.8,38.7,28.1,39.7,29.1z"/>
	</g>
	<path class="st3" d="M76.3,18.3l-0.8,0.1c-0.8,0.1-3.3,1.7-3.4,2.1c0,0.5,0.5,0.5,1.7-0.1c1.7-0.8,3.4-0.4,5,0.1L76.3,18.3z"/>
</g>
</svg>
