<svg viewBox="0 0 40 40" fill="none" xmlns="http://www.w3.org/2000/svg">
<path d="M0 20C0 8.9543 8.9543 0 20 0C31.0457 0 40 8.9543 40 20C40 31.0457 31.0457 40 20 40C8.9543 40 0 31.0457 0 20Z" fill="#2775CA"/>
<path d="M24.6721 22.7261C24.6721 20.2478 23.1851 19.398 20.2111 19.0441C18.0868 18.7608 17.6619 18.1943 17.6619 17.2029C17.6619 16.2114 18.37 15.5743 19.7862 15.5743C21.0608 15.5743 21.7689 15.9992 22.1229 17.0613C22.1938 17.2737 22.4062 17.4153 22.6187 17.4153H23.7515C24.0348 17.4153 24.2472 17.2029 24.2472 16.9197V16.8489C23.9639 15.291 22.6894 14.0873 21.0608 13.9457V12.2463C21.0608 11.963 20.8483 11.7506 20.4944 11.6797H19.4322C19.1489 11.6797 18.9365 11.8921 18.8656 12.2463V13.8749C16.7413 14.1582 15.396 15.5743 15.396 17.3446C15.396 19.6813 16.8122 20.6018 19.7862 20.9559C21.7689 21.3099 22.4062 21.7348 22.4062 22.8678C22.4062 24.0008 21.4148 24.7797 20.0695 24.7797C18.2283 24.7797 17.591 24.0006 17.3786 22.9385C17.3079 22.6554 17.0955 22.5136 16.883 22.5136H15.6792C15.396 22.5136 15.1836 22.7261 15.1836 23.0094V23.0802C15.4667 24.8504 16.5997 26.125 18.9365 26.4791V28.1786C18.9365 28.4617 19.1489 28.6741 19.5029 28.745H20.5651C20.8483 28.745 21.0608 28.5326 21.1316 28.1786V26.4791C23.2559 26.125 24.6721 24.6379 24.6721 22.7261Z" fill="white"/>
<path d="M16.3878 30.1635C10.8646 28.1809 8.03218 22.0204 10.0858 16.5679C11.1479 13.5939 13.4847 11.328 16.3878 10.2659C16.6711 10.1243 16.8127 9.91187 16.8127 9.55771V8.56642C16.8127 8.28313 16.6711 8.0707 16.3878 8C16.317 8 16.1754 8 16.1045 8.0707C9.37763 10.195 5.69544 17.3469 7.81975 24.0738C9.09433 28.0392 12.1392 31.084 16.1045 32.3586C16.3878 32.5002 16.6711 32.3586 16.7418 32.0753C16.8127 32.0046 16.8127 31.9338 16.8127 31.7922V30.8007C16.8127 30.5883 16.6003 30.3052 16.3878 30.1635ZM23.8938 8.0707C23.6105 7.92913 23.3272 8.0707 23.2565 8.35399C23.1856 8.42486 23.1856 8.49556 23.1856 8.63729V9.62858C23.1856 9.91187 23.398 10.195 23.6105 10.3367C29.1337 12.3193 31.9661 18.4798 29.9125 23.9323C28.8504 26.9063 26.5136 29.1722 23.6105 30.2343C23.3272 30.3759 23.1856 30.5883 23.1856 30.9425V31.9338C23.1856 32.2171 23.3272 32.4295 23.6105 32.5002C23.6813 32.5002 23.8229 32.5002 23.8938 32.4295C30.6207 30.3052 34.3029 23.1533 32.1785 16.4263C30.904 12.3902 27.7882 9.34528 23.8938 8.0707Z" fill="white"/>
</svg>
