<svg viewBox="0 0 40 40" fill="none" xmlns="http://www.w3.org/2000/svg">
<path d="M0 20C0 8.9543 8.9543 0 20 0C31.0457 0 40 8.9543 40 20C40 31.0457 31.0457 40 20 40C8.9543 40 0 31.0457 0 20Z" fill="#26A17B"/>
<path d="M22.2044 21.9156V21.9123C22.0657 21.922 21.3496 21.964 19.7561 21.964C18.4819 21.964 17.5883 21.9285 17.2722 21.9123V21.9156C12.3722 21.6994 8.71734 20.8478 8.71734 19.8253C8.71734 18.8059 12.3754 17.9511 17.2722 17.7349V21.0672C17.5915 21.0898 18.5109 21.1446 19.7786 21.1446C21.3012 21.1446 22.0625 21.0801 22.2044 21.0672V17.7382C27.0948 17.9575 30.7399 18.8091 30.7399 19.8285C30.7399 20.8478 27.0915 21.6994 22.2044 21.9188V21.9156ZM22.2044 17.393V14.4123H29.027V9.86719H10.4528V14.4123H17.2754V17.393C11.7302 17.6478 7.5625 18.7446 7.5625 20.0607C7.5625 21.3769 11.7335 22.4736 17.2754 22.7317V32.2865H22.2077V22.7317C27.7431 22.4769 31.9044 21.3801 31.9044 20.064C31.9044 18.7511 27.7431 17.6511 22.2077 17.3962" fill="white"/>
</svg>
