<?xml version="1.0" encoding="UTF-8"?>
<svg xmlns="http://www.w3.org/2000/svg" xmlns:xlink="http://www.w3.org/1999/xlink" width="100pt" height="100pt" viewBox="0 0 100 100" version="1.1">
<g id="surface1">
<path style=" stroke:none;fill-rule:nonzero;fill:rgb(0%,0%,0%);fill-opacity:1;" d="M 47.648438 10.335938 C 47.609375 10.351562 47.269531 10.476562 46.898438 10.609375 C 46.226562 10.859375 45.289062 11.304688 44.726562 11.640625 C 43.921875 12.121094 42.421875 13.316406 42.28125 13.589844 C 42.09375 13.949219 41.699219 15.683594 41.546875 16.824219 C 41.304688 18.578125 41.46875 19.953125 42.136719 21.824219 C 42.671875 23.335938 44.230469 27.105469 45.285156 29.449219 C 46.039062 31.113281 46.164062 31.363281 46.40625 31.625 C 46.761719 32.011719 46.980469 32.074219 49.398438 32.5 C 54.53125 33.398438 56.855469 33.96875 59.175781 34.886719 C 60.605469 35.449219 61.871094 36.09375 62.949219 36.816406 C 64.523438 37.863281 66.074219 39.199219 67.898438 41.066406 C 69.523438 42.730469 70.304688 43.28125 71.46875 43.574219 C 73.476562 44.085938 75.785156 43.683594 78.199219 42.414062 C 79.246094 41.859375 79.429688 41.644531 79.640625 40.71875 C 79.871094 39.726562 79.933594 38.519531 79.851562 36.773438 C 79.765625 34.925781 79.636719 34.199219 79.34375 34.050781 C 79.078125 33.90625 78.546875 34.125 77.199219 34.929688 C 75.554688 35.910156 73.980469 37.015625 73.683594 37.390625 C 73.519531 37.605469 73.511719 37.816406 73.660156 37.921875 C 73.824219 38.035156 73.890625 38.019531 74.355469 37.773438 C 74.984375 37.433594 76.078125 36.953125 76.421875 36.863281 C 76.789062 36.769531 76.953125 36.820312 77.085938 37.058594 C 77.304688 37.46875 77.089844 38.921875 76.71875 39.511719 C 76.535156 39.800781 76.398438 39.816406 74.75 39.785156 C 73.300781 39.753906 72.40625 39.671875 72.003906 39.53125 C 71.886719 39.484375 71.683594 39.375 71.554688 39.28125 C 71.050781 38.90625 69.710938 37.121094 68.988281 35.859375 C 68.488281 34.980469 68.351562 34.710938 68.101562 34.148438 C 67.808594 33.515625 67.648438 33.074219 67.484375 32.476562 C 67.386719 32.109375 67.375 31.964844 67.378906 30.851562 L 67.378906 29.625 L 67.589844 28.839844 C 68.066406 27.03125 69.195312 23.96875 70.050781 22.175781 C 70.769531 20.660156 71.621094 19.546875 72.59375 18.835938 C 73.09375 18.464844 73.839844 18.101562 74.085938 18.101562 C 74.191406 18.101562 74.203125 18.121094 74.191406 18.261719 C 74.175781 18.398438 74.105469 18.476562 73.675781 18.800781 C 73.011719 19.304688 72.128906 20.15625 72 20.421875 C 71.945312 20.535156 71.898438 20.695312 71.898438 20.773438 C 71.898438 20.988281 72.378906 23.410156 72.578125 24.226562 C 72.765625 24.976562 73.003906 25.699219 73.128906 25.886719 C 73.210938 26.015625 73.285156 26.019531 73.636719 25.949219 C 73.765625 25.925781 74.585938 25.765625 75.449219 25.601562 C 77.734375 25.15625 78.671875 24.960938 79.101562 24.820312 C 79.863281 24.578125 80.589844 23.910156 80.804688 23.25 C 80.890625 22.976562 80.910156 22.789062 80.914062 22.046875 C 80.925781 21.046875 80.90625 20.984375 80.605469 21.011719 C 80.433594 21.023438 80.414062 21.046875 80.269531 21.351562 C 80.074219 21.761719 79.875 21.976562 79.621094 22.050781 C 79.363281 22.125 76.605469 22.175781 76.503906 22.105469 C 76.359375 22.011719 76.636719 19.84375 76.953125 18.585938 C 77.199219 17.589844 77.671875 16.253906 78.078125 15.363281 C 78.300781 14.886719 78.386719 14.613281 78.398438 14.375 C 78.425781 13.964844 78.40625 13.90625 78.164062 13.65625 C 77.816406 13.300781 77.703125 13.269531 74.898438 12.648438 C 74.664062 12.601562 74.171875 12.488281 73.800781 12.40625 C 71.035156 11.789062 67.625 11.183594 66.476562 11.101562 C 65.714844 11.050781 65.046875 11.09375 64.75 11.21875 C 64.179688 11.453125 62.761719 12.800781 60.371094 15.351562 C 60.070312 15.671875 58.089844 17.976562 57.75 18.394531 C 57.65625 18.515625 57.359375 18.875 57.101562 19.195312 C 56.839844 19.515625 56.480469 19.964844 56.300781 20.195312 C 56.121094 20.425781 55.828125 20.796875 55.648438 21.019531 C 54.96875 21.863281 54.828125 22.089844 54.808594 22.398438 C 54.789062 22.660156 54.808594 22.714844 55.066406 23.210938 C 56.308594 25.589844 58.089844 27.511719 60.289062 28.839844 C 60.78125 29.136719 60.875 29.238281 60.828125 29.425781 C 60.78125 29.625 60.585938 29.585938 59.875 29.21875 C 58.636719 28.585938 58.066406 28.171875 57.121094 27.230469 C 56.039062 26.144531 55.316406 25.195312 54.269531 23.488281 C 54.078125 23.179688 53.933594 22.996094 53.863281 22.980469 C 53.804688 22.960938 53.453125 22.914062 53.089844 22.878906 C 51.230469 22.679688 49.640625 22.441406 48.875 22.246094 C 47.503906 21.894531 46.574219 21.113281 45.789062 19.648438 C 45.691406 19.46875 45.546875 19.199219 45.464844 19.050781 C 44.988281 18.171875 44.683594 17.046875 44.679688 16.148438 C 44.679688 15.496094 44.75 15.179688 45.035156 14.636719 C 45.335938 14.058594 46.101562 13.453125 46.628906 13.371094 C 46.800781 13.34375 46.855469 13.359375 46.996094 13.476562 C 47.335938 13.765625 47.75 14.835938 47.980469 16.035156 C 48.128906 16.816406 48.160156 16.898438 48.304688 16.898438 C 48.480469 16.898438 48.59375 16.804688 48.648438 16.609375 C 48.78125 16.136719 48.664062 13.34375 48.476562 12.300781 C 48.304688 11.386719 48.140625 10.664062 48.058594 10.5 C 47.976562 10.324219 47.828125 10.265625 47.648438 10.335938 Z M 65.628906 27.703125 C 66.203125 27.921875 66.550781 28.191406 66.484375 28.371094 C 66.460938 28.429688 66.359375 28.445312 66.015625 28.441406 C 65.484375 28.433594 65.15625 28.546875 64.710938 28.875 C 64.371094 29.121094 64.261719 29.265625 64.039062 29.730469 C 63.515625 30.855469 64.140625 32.140625 65.421875 32.550781 C 65.710938 32.644531 65.75 32.675781 65.75 32.78125 C 65.75 32.878906 65.699219 32.929688 65.515625 33.015625 C 65.316406 33.105469 65.183594 33.125 64.746094 33.125 C 64.21875 33.125 64.214844 33.125 63.773438 32.90625 C 63.058594 32.550781 62.476562 31.890625 62.191406 31.121094 C 62.105469 30.890625 62.078125 30.710938 62.078125 30.300781 C 62.074219 29.839844 62.09375 29.726562 62.21875 29.386719 C 62.558594 28.460938 63.40625 27.761719 64.375 27.601562 C 64.734375 27.539062 65.316406 27.589844 65.628906 27.703125 Z M 65.628906 27.703125 "/>
<path style=" stroke:none;fill-rule:nonzero;fill:rgb(0%,0%,0%);fill-opacity:1;" d="M 29.050781 33.609375 C 29.050781 33.640625 29.179688 33.796875 29.339844 33.945312 C 30.429688 34.984375 31.285156 36.371094 31.671875 37.726562 C 31.890625 38.488281 31.949219 38.890625 31.984375 39.753906 C 32.015625 40.636719 31.96875 41.226562 31.800781 42.011719 C 31.660156 42.660156 31.578125 42.78125 30.914062 43.328125 C 27.90625 45.824219 26.414062 47.734375 26.03125 49.609375 C 25.929688 50.089844 25.929688 50.335938 26.023438 50.828125 C 26.125 51.34375 26.320312 51.75 26.679688 52.175781 C 27.136719 52.71875 27.230469 52.769531 27.171875 52.433594 C 27.101562 52.078125 27.125 51.878906 27.269531 51.59375 C 27.734375 50.710938 29.074219 49.703125 31.058594 48.753906 C 31.730469 48.433594 31.851562 48.398438 31.851562 48.53125 C 31.851562 48.609375 31.269531 49.746094 30.960938 50.273438 C 30.511719 51.03125 29.859375 51.769531 29.300781 52.148438 C 28.929688 52.398438 28.425781 52.65625 27.859375 52.875 C 27.03125 53.195312 26.894531 53.273438 26.675781 53.585938 C 25.53125 55.199219 24.324219 56.625 22.886719 58.074219 C 21.335938 59.636719 20.058594 60.773438 18.960938 61.59375 C 18.746094 61.753906 18.601562 61.894531 18.601562 61.949219 C 18.601562 62.046875 18.925781 62.21875 19.898438 62.648438 C 21.726562 63.453125 23.839844 63.753906 25.269531 63.40625 C 25.933594 63.246094 26.414062 62.996094 27.761719 62.109375 C 30.460938 60.339844 33.28125 58.773438 35.148438 58 C 36.855469 57.296875 37.746094 57.015625 39.25 56.695312 C 39.671875 56.609375 39.941406 56.585938 40.574219 56.585938 C 41.765625 56.585938 42.25 56.71875 42.738281 57.191406 C 43.070312 57.5 43.210938 57.789062 43.238281 58.210938 C 43.316406 59.265625 42.679688 60.433594 41.34375 61.726562 C 40.710938 62.335938 40.238281 62.710938 39.148438 63.460938 C 37.570312 64.546875 36.109375 65.808594 35.179688 66.898438 C 34.960938 67.160156 34.765625 67.386719 34.75 67.398438 C 34.734375 67.414062 34.601562 67.578125 34.449219 67.773438 C 33.003906 69.605469 31.933594 71.609375 31.085938 74.101562 C 30.558594 75.625 30.054688 78.15625 29.898438 80.023438 C 29.765625 81.613281 29.789062 84.21875 29.949219 85.675781 C 30.054688 86.648438 30.214844 87.746094 30.378906 88.625 C 30.480469 89.144531 30.578125 89.710938 30.609375 89.875 C 30.664062 90.191406 30.765625 90.355469 30.851562 90.269531 C 30.875 90.246094 30.929688 89.976562 30.96875 89.675781 C 31.09375 88.726562 31.761719 86.371094 32.273438 85.050781 C 33.679688 81.445312 36.066406 78.140625 39.199219 75.445312 C 42.285156 72.796875 46.328125 70.691406 50.394531 69.625 L 50.921875 69.484375 L 51.011719 69.601562 C 51.214844 69.855469 51.433594 70.859375 51.480469 71.773438 C 51.554688 73.179688 51.039062 75.625 50.375 77.023438 C 50.160156 77.480469 50.148438 77.578125 50.320312 77.488281 C 50.539062 77.371094 51.890625 76.105469 52.398438 75.539062 C 53.410156 74.414062 54.554688 72.824219 55.375 71.398438 C 56.273438 69.84375 57.378906 67.425781 57.863281 65.96875 C 57.996094 65.574219 58.09375 65.351562 58.140625 65.351562 C 58.226562 65.351562 58.554688 66.046875 58.71875 66.574219 C 58.878906 67.089844 59.03125 67.765625 59.101562 68.300781 C 59.253906 69.53125 59.246094 71.808594 59.070312 73.234375 C 59.023438 73.601562 59 73.921875 59.011719 73.953125 C 59.09375 74.214844 60.988281 70.71875 61.640625 69.101562 C 62.46875 67.039062 63.113281 64.589844 63.398438 62.425781 C 63.453125 62.011719 63.523438 61.46875 63.558594 61.226562 C 63.644531 60.605469 63.644531 56.695312 63.558594 55.824219 C 63.476562 54.964844 63.28125 53.664062 63.15625 53.144531 C 63 52.480469 62.988281 52.410156 63.046875 52.378906 C 63.109375 52.339844 63.300781 52.664062 63.773438 53.625 C 64.980469 56.070312 65.53125 57.996094 65.660156 60.238281 C 65.71875 61.210938 65.679688 62.078125 65.570312 62.363281 C 65.515625 62.515625 65.683594 62.460938 65.820312 62.285156 C 66.023438 62.011719 66.96875 60.105469 67.171875 59.550781 C 67.691406 58.109375 68.039062 56.535156 68.175781 55.015625 C 68.234375 54.335938 68.203125 52.246094 68.125 51.476562 C 67.796875 48.273438 66.691406 45.058594 65.066406 42.566406 C 64.289062 41.375 63.109375 40.050781 62.140625 39.285156 C 59.496094 37.191406 56.445312 36.125 52.441406 35.890625 C 49.21875 35.699219 44.394531 36.441406 41.25 37.601562 C 40.601562 37.839844 40.664062 37.851562 40.066406 37.46875 C 39.03125 36.820312 37.089844 35.816406 35.828125 35.28125 C 33.914062 34.460938 31.851562 33.894531 29.800781 33.625 C 29.105469 33.535156 29.050781 33.535156 29.050781 33.609375 Z M 29.050781 33.609375 "/>
<path style=" stroke:none;fill-rule:nonzero;fill:rgb(0%,0%,0%);fill-opacity:1;" d="M 27.199219 37.453125 C 26.398438 37.496094 25.164062 37.664062 25.089844 37.738281 C 25.011719 37.820312 25.078125 37.886719 25.363281 38.015625 C 26.015625 38.308594 27.023438 39.105469 27.554688 39.734375 C 28.421875 40.765625 28.898438 41.761719 29.175781 43.085938 C 29.21875 43.300781 29.273438 43.496094 29.300781 43.519531 C 29.324219 43.546875 29.453125 43.453125 29.609375 43.316406 C 29.753906 43.179688 30.074219 42.90625 30.316406 42.699219 C 30.570312 42.488281 30.796875 42.253906 30.855469 42.144531 C 31.121094 41.621094 31.21875 39.710938 31.035156 38.726562 C 30.898438 38.015625 30.773438 37.589844 30.679688 37.539062 C 30.636719 37.515625 30.109375 37.476562 29.511719 37.449219 C 28.308594 37.398438 28.234375 37.398438 27.199219 37.453125 Z M 27.199219 37.453125 "/>
</g>
</svg>
