<svg id="Layer_1" data-name="Layer 1" xmlns="http://www.w3.org/2000/svg" xmlns:xlink="http://www.w3.org/1999/xlink" viewBox="0 0 60 60"><defs><style>.cls-1{fill:#daebdd;}.cls-2{fill:url(#linear-gradient);}.cls-3{fill:url(#linear-gradient-2);}.cls-4{fill:url(#linear-gradient-3);}.cls-5{fill:url(#linear-gradient-4);}.cls-6{fill:url(#linear-gradient-5);}.cls-7{fill:url(#linear-gradient-6);}.cls-8{fill:url(#linear-gradient-7);}.cls-9{fill:url(#linear-gradient-8);}</style><linearGradient id="linear-gradient" x1="68.23" y1="9.12" x2="-3.39" y2="48.24" gradientUnits="userSpaceOnUse"><stop offset="0" stop-color="#21b14b"/><stop offset="0.23" stop-color="#00a14a"/><stop offset="0.46" stop-color="#00723c"/><stop offset="0.71" stop-color="#004f40"/><stop offset="1" stop-color="#00384e"/></linearGradient><linearGradient id="linear-gradient-2" x1="59.39" y1="-7.07" x2="-12.23" y2="32.06" xlink:href="#linear-gradient"/><linearGradient id="linear-gradient-3" x1="61.4" y1="-3.39" x2="-10.23" y2="35.73" xlink:href="#linear-gradient"/><linearGradient id="linear-gradient-4" x1="61.4" y1="-3.39" x2="-10.23" y2="35.73" xlink:href="#linear-gradient"/><linearGradient id="linear-gradient-5" x1="63.09" y1="-0.3" x2="-8.54" y2="38.82" xlink:href="#linear-gradient"/><linearGradient id="linear-gradient-6" x1="63.09" y1="-0.3" x2="-8.54" y2="38.82" xlink:href="#linear-gradient"/><linearGradient id="linear-gradient-7" x1="64.26" y1="1.83" x2="-7.37" y2="40.96" xlink:href="#linear-gradient"/><linearGradient id="linear-gradient-8" x1="65.42" y1="3.97" x2="-6.21" y2="43.09" xlink:href="#linear-gradient"/></defs><title>logo</title><path class="cls-1" d="M59,30A29,29,0,1,1,30,1,29,29,0,0,1,59,30Z"/><path class="cls-2" d="M30,0A30,30,0,0,0,0,30,29.7,29.7,0,0,0,3.14,43.37,30,30,0,1,0,30,0ZM2.31,33.92C4.8,36,7.15,37.56,10.45,37.53c-1.86,1.71-3.51,3.24-5.29,4.9h3L6.06,44l-.59-.57-.51-1A27.52,27.52,0,0,1,2.31,33.92Zm14.32,3.62-.16-.23,4-5.11-3.67,1.11c1.4-3.75,3.69-5.57,6.27-5l-3.7,2.23c1.76.15,3.17.21,4.09-1.38a3.66,3.66,0,0,1,1.4-1.27c1.77-1,3.58-1.92,5.4-2.83a1.24,1.24,0,0,1,.89,0,19.22,19.22,0,0,1,1.81.77c-.81,1-1.52,2-2.35,2.86S28.81,30.26,28,31.15a12,12,0,0,0-1.25,2.19l7-1.48c.13.8.2,1.23.29,1.73-.61.15-1.1.26-1.58.39-2.08.59-4.21,1.05-6.21,1.83A10.48,10.48,0,0,0,23,38.07a2.72,2.72,0,0,0-.48,3.4c2-2.61,4.83-4.12,7.8-5.4-2.75,2.87-2.76,6.36-2.45,10.2l-2.33-2.1c-1.25,8.15,1.33,12.09,3.07,13.76a27.89,27.89,0,0,1-9.27-2.08c.24-1.41.48-2.88.73-4.42l-2.75,3c.36-2.94,1.21-5.31,3.28-7.18a4,4,0,0,1-2.23-4.56L16.1,44.87a32,32,0,0,1,4.33-9ZM10,34.77l4.48.46c-3.32,2.07-6,.08-8.77-1.14,3.09-.69,6.28-1,9-2.93a6.4,6.4,0,0,1-4.79,3.15ZM37.66,56.9v-.12c-5.08-2.1-7.31-8.26-7.31-8.26a11.86,11.86,0,0,1-.57-3l0,0c-.7-4.4,1-8.08,4.59-10.92a1.91,1.91,0,0,0,.75-2.08c-.26-1.68-1.16-3.38,0-5.08a1.39,1.39,0,0,0,0-1c-.23-.9-.47-1.8-.72-2.72C33.7,21.09,31,22.58,31,22.58c-1.34.65-2.6,1.28-3.81,2a11.38,11.38,0,0,1-6.88,1.76,6.72,6.72,0,0,0-5.41,2,15.57,15.57,0,0,1-9.32,4.5,20.15,20.15,0,0,0-3.25,1A28,28,0,1,1,37.66,56.9Z"/><path class="cls-3" d="M19.86,13l-.76,2.32L18.33,13H16.88l-.76,2.32L15.35,13H13.11l2.18,6.63h1.65l.67-2,.66,2h1.65L22.11,13Zm-.68,5.83h-.25l-1.32-4.16-1.32,4.16H16l-1.66-5h.27l1.51,4.58,1.45-4.58,1.45,4.58,1.51-4.58h.27Z"/><path class="cls-4" d="M26.85,14.75a2.39,2.39,0,0,0-.72-.5,2.24,2.24,0,0,0-.89-.17,2.17,2.17,0,0,0-.89.17,2.31,2.31,0,0,0-.73.5,2.24,2.24,0,0,0-.49.72,2.29,2.29,0,0,0,0,1.78,2.24,2.24,0,0,0,.49.72,2.31,2.31,0,0,0,.73.5,2.17,2.17,0,0,0,.89.17,2.24,2.24,0,0,0,.89-.17,2.39,2.39,0,0,0,.72-.5,2.24,2.24,0,0,0,.49-.72,2.29,2.29,0,0,0,0-1.78A2.24,2.24,0,0,0,26.85,14.75Zm-.33,2.15a1.23,1.23,0,0,1-.3.44,1.32,1.32,0,0,1-.44.3,1.41,1.41,0,0,1-.54.11,1.33,1.33,0,0,1-.54-.11,1.37,1.37,0,0,1-.45-.3A1.35,1.35,0,0,1,24,16.9a1.38,1.38,0,0,1,0-1.08,1.35,1.35,0,0,1,.29-.44,1.37,1.37,0,0,1,.45-.3,1.33,1.33,0,0,1,.54-.11,1.41,1.41,0,0,1,.54.11,1.32,1.32,0,0,1,.44.3,1.23,1.23,0,0,1,.3.44,1.38,1.38,0,0,1,0,1.08Z"/><path class="cls-5" d="M27.7,13.9a3.66,3.66,0,0,0-1.11-.74,3.3,3.3,0,0,0-1.35-.28,3.23,3.23,0,0,0-1.35.28,3.43,3.43,0,0,0-1.11.74A3.68,3.68,0,0,0,22,15a3.51,3.51,0,0,0,0,2.7,3.68,3.68,0,0,0,.75,1.11,3.43,3.43,0,0,0,1.11.74,3.23,3.23,0,0,0,1.35.28,3.3,3.3,0,0,0,1.35-.28,3.4,3.4,0,0,0,1.85-1.85,3.51,3.51,0,0,0,0-2.7A3.66,3.66,0,0,0,27.7,13.9Zm-.12,3.45a2.5,2.5,0,0,1-.54.81,2.73,2.73,0,0,1-.81.54,2.55,2.55,0,0,1-2,0,2.5,2.5,0,0,1-.81-.54,2.7,2.7,0,0,1-.55-.81,2.55,2.55,0,0,1,0-2,2.7,2.7,0,0,1,.55-.81,2.5,2.5,0,0,1,.81-.54,2.55,2.55,0,0,1,2,0,2.73,2.73,0,0,1,.81.54,2.5,2.5,0,0,1,.54.81,2.55,2.55,0,0,1,0,2Z"/><path class="cls-6" d="M34.2,14.75a2.39,2.39,0,0,0-.72-.5,2.21,2.21,0,0,0-.89-.17,2.17,2.17,0,0,0-.89.17,2.31,2.31,0,0,0-.73.5,2.24,2.24,0,0,0-.49.72,2.29,2.29,0,0,0,0,1.78A2.24,2.24,0,0,0,31,18a2.31,2.31,0,0,0,.73.5,2.17,2.17,0,0,0,.89.17,2.21,2.21,0,0,0,.89-.17,2.39,2.39,0,0,0,.72-.5,2.24,2.24,0,0,0,.49-.72,2.29,2.29,0,0,0,0-1.78A2.24,2.24,0,0,0,34.2,14.75Zm-.33,2.15a1.43,1.43,0,0,1-.74.74,1.38,1.38,0,0,1-1.08,0,1.37,1.37,0,0,1-.45-.3,1.35,1.35,0,0,1-.29-.44,1.38,1.38,0,0,1,0-1.08,1.35,1.35,0,0,1,.29-.44,1.37,1.37,0,0,1,.45-.3,1.38,1.38,0,0,1,1.08,0,1.43,1.43,0,0,1,.74.74,1.38,1.38,0,0,1,0,1.08Z"/><path class="cls-7" d="M35.05,13.9a3.66,3.66,0,0,0-1.11-.74,3.3,3.3,0,0,0-1.35-.28,3.23,3.23,0,0,0-1.35.28,3.43,3.43,0,0,0-1.11.74A3.68,3.68,0,0,0,29.38,15a3.51,3.51,0,0,0,0,2.7,3.68,3.68,0,0,0,.75,1.11,3.43,3.43,0,0,0,1.11.74,3.23,3.23,0,0,0,1.35.28,3.3,3.3,0,0,0,1.35-.28,3.4,3.4,0,0,0,1.85-1.85,3.51,3.51,0,0,0,0-2.7A3.66,3.66,0,0,0,35.05,13.9Zm-.12,3.45a2.5,2.5,0,0,1-.54.81,2.73,2.73,0,0,1-.81.54,2.55,2.55,0,0,1-2,0,2.5,2.5,0,0,1-.81-.54,2.7,2.7,0,0,1-.55-.81,2.55,2.55,0,0,1,0-2,2.7,2.7,0,0,1,.55-.81A2.5,2.5,0,0,1,31.6,14a2.55,2.55,0,0,1,2,0,2.73,2.73,0,0,1,.81.54,2.5,2.5,0,0,1,.54.81,2.55,2.55,0,0,1,0,2Z"/><path class="cls-8" d="M36.61,19.67h2.12V17.16h1.75V15.52H38.73v-.74h1.78V13h-3.9Zm1-5.83h2.25v.24h-2v2.14h1.89v.24H37.86v2.41H37.6Z"/><path class="cls-9" d="M43.78,14.44,43,13H40.66l2.06,3.78v2.85h2.12V16.82l2-3.78H44.54Zm1.58-.6L43.91,16.5v2.37h-.27V16.5L42.2,13.84h.3l1.28,2.35,1.27-2.35Z"/></svg>