<?xml version="1.0" encoding="UTF-8"?>
<svg width="93px" height="94px" viewBox="0 0 93 94" version="1.1" xmlns="http://www.w3.org/2000/svg" xmlns:xlink="http://www.w3.org/1999/xlink">
    <title>icon_sbtc</title>
    <g id="UI改版——1" stroke="none" stroke-width="1" fill="none" fill-rule="evenodd">
        <g id="icon_btc_30" transform="translate(0.000000, 0.565794)">
            <rect id="矩形" fill="#D8D8D8" opacity="0" x="0.417777778" y="0.417777778" width="91.9111111" height="91.9111111"></rect>
            <g id="BTC" transform="translate(3.088889, 3.088889)" fill-rule="nonzero">
                <rect id="矩形" fill="#000000" opacity="0" x="0.973871056" y="0.973871056" width="85.8744801" height="85.8744801"></rect>
                <path d="M43.9111111,-0.00197530864 C68.1662299,-0.00197530864 87.8241975,19.6559923 87.8241975,43.9111112 C87.8241975,68.16623 68.1662299,87.8241975 43.9111111,87.8241975 C19.6559922,87.8241975 -0.00197530864,68.1662299 -0.00197530864,43.9111112 C-0.00197530864,19.6559924 19.664569,-0.00197530864 43.9111111,-0.00197530864 Z" id="路径" fill="#B329AA"></path>
                <path d="M57.4799822,25.9727345 L59.5771459,18.1120491 L53.4770971,16.5192487 L51.3973373,24.3282756 L45.9412308,22.8990601 L48.0209907,15.0900332 L41.9209419,13.4972327 L39.841182,21.3062597 L31.4873349,19.1279975 L30.3995944,23.2176202 L36.4300278,24.7932011 L27.7716133,57.312159 L21.7411799,55.7365781 L20.6534394,59.8262008 L29.0072865,62.0044629 L26.9188247,69.7962704 L33.0188735,71.3890709 L35.0986334,63.5800439 L40.2153647,64.9231621 L38.1356049,72.732189 L44.2356537,74.3249895 L46.3154135,66.5159625 L46.5938751,66.5848404 C56.0267608,69.0472238 61.8657518,64.9231621 63.4059925,59.1718611 C64.7373868,54.1954359 62.2486366,48.8487924 54.9042126,45.9731419 C61.3697422,46.4552869 65.6858966,43.6485143 66.8519544,39.2575509 C68.165945,34.3327842 65.4596466,28.6675805 57.4799822,25.9727345 L57.4799822,25.9727345 Z M53.9905106,56.5975513 C53.3117606,59.1460319 50.7011833,63.2959228 45.3059903,61.8839267 L36.1950758,59.5076407 L40.1283455,44.7849989 L49.8745005,47.3248698 C51.6148853,47.7897954 55.5133472,50.8462502 53.9905106,56.5975513 Z M57.7323379,36.8812649 C56.5575782,41.2722283 54.0862317,43.3557834 48.8824811,42.0040555 L41.3727207,40.0410365 L44.8534903,26.9800731 L53.8425779,29.3219202 C54.9912318,29.6318706 59.1159439,31.6982063 57.7323379,36.8812649 L57.7323379,36.8812649 Z" id="形状" fill="#FFFFFF"></path>
            </g>
        </g>
    </g>
</svg>